<svg width="16" height="16" viewBox="0 0 16 16" fill="none" xmlns="http://www.w3.org/2000/svg">
<path d="M6.84384 2C6.27792 2 5.81918 2.43135 5.81918 2.96344V6.75151H3.02466C2.45877 6.75151 2 7.18286 2 7.71496V12.2256C2 12.7577 2.45877 13.1891 3.02466 13.1891H6.68886C6.7394 13.1963 6.79116 13.2 6.84384 13.2H12.8637C13.1496 13.2 13.4082 13.0899 13.594 12.9123C13.7829 12.7376 13.9 12.4944 13.9 12.2256V7.71496C13.9 7.66543 13.896 7.61677 13.8884 7.56924V2.96344C13.8884 2.43135 13.4296 2 12.8637 2H6.84384ZM9.75521 9.06967V6.24933C9.75521 5.95226 10.0111 5.71144 10.3268 5.71144C10.6424 5.71144 10.8983 5.95226 10.8983 6.24933V10.1455H7.27115L7.63976 10.492C7.86302 10.702 7.86294 11.0423 7.63962 11.2523C7.41632 11.4623 7.05431 11.4623 6.83106 11.2524L5.08562 9.61126L6.83168 7.96952C7.055 7.75955 7.417 7.75948 7.64024 7.96938C7.86347 8.17929 7.86342 8.51967 7.6401 8.72963L7.27845 9.06967H9.75521Z" fill="#B4BDCC"/>
</svg>
