<svg width="20" height="20" viewBox="0 0 20 20" fill="none" xmlns="http://www.w3.org/2000/svg">
<path fill-rule="evenodd" clip-rule="evenodd" d="M16.1448 1.08325C17.1706 1.08325 18.0077 1.88693 18.0247 2.88903L18.025 2.92009V18.9166L16.0531 17.2224L14.9434 16.2238L13.7694 15.1627L14.2555 16.8123H3.85512C2.82932 16.8123 1.99222 16.0086 1.97524 15.0065L1.97498 14.9754V2.92009C1.97498 1.91396 2.80161 1.10001 3.82345 1.08351L3.85512 1.08325H16.1448ZM8.68846 5.34542L8.59675 5.23834L8.54453 5.23895C8.29427 5.24619 7.18178 5.32723 6.01958 6.17467L5.9826 6.2427C5.76865 6.64556 4.69889 8.78903 4.69889 11.3731L4.71796 11.4027C4.84774 11.5958 5.65171 12.6716 7.49618 12.7284L7.7663 12.4063C7.87319 12.278 7.99737 12.1279 8.11066 11.9883C7.04151 11.6773 6.58283 11.0508 6.51472 10.95L6.50566 10.9362L6.54339 10.9606C6.58476 10.9867 6.65928 11.032 6.76246 11.0878C6.77163 11.0967 6.7808 11.1056 6.79915 11.1145C6.82666 11.1323 6.85418 11.1413 6.88169 11.1591C7.11098 11.2839 7.34026 11.382 7.5512 11.4623C7.92723 11.6049 8.37663 11.7476 8.8994 11.8457C9.56761 11.9669 10.3483 12.0125 11.1995 11.8678L11.2748 11.8546C11.7059 11.7833 12.1461 11.6584 12.6047 11.4712C12.9257 11.3553 13.2833 11.1858 13.6594 10.9451L13.6443 10.9673C13.5565 11.0921 13.0765 11.7104 11.9993 12.0062L12.151 12.191C12.3827 12.4706 12.6047 12.7284 12.6047 12.7284C14.6315 12.666 15.4111 11.3731 15.4111 11.3731C15.4111 8.50192 14.0904 6.17467 14.0904 6.17467C12.9546 5.34649 11.8663 5.25027 11.5839 5.23956L11.5133 5.23834L11.3849 5.38108C12.7675 5.79226 13.4938 6.36471 13.6405 6.48906L13.6685 6.5135C12.7147 6.00525 11.7792 5.75558 10.9079 5.6575C10.2476 5.58617 9.61478 5.604 9.05532 5.67533C9.00029 5.67533 8.95443 5.68425 8.8994 5.69317L8.84785 5.69788C8.49994 5.73227 7.74977 5.85679 6.81749 6.25492L6.68423 6.31533C6.51762 6.39199 6.39623 6.45222 6.33106 6.48531L6.27638 6.5135C6.27638 6.5135 7.02246 5.8231 8.6392 5.3594L8.68846 5.34542ZM8.33995 8.56433C8.86272 8.56433 9.2846 9.01017 9.27543 9.55409C9.27543 10.098 8.86272 10.5438 8.33995 10.5438C7.82635 10.5438 7.40446 10.098 7.40446 9.55409C7.40446 9.01017 7.81718 8.56433 8.33995 8.56433ZM11.6875 8.56433C12.2103 8.56433 12.623 9.01017 12.623 9.55409C12.623 10.098 12.2103 10.5438 11.6875 10.5438C11.1739 10.5438 10.752 10.098 10.752 9.55409C10.752 9.01017 11.1647 8.56433 11.6875 8.56433Z" fill="white"/>
</svg>
