<svg width="16" height="13" viewBox="0 0 16 13" fill="none" xmlns="http://www.w3.org/2000/svg">
<mask id="path-1-inside-1_45652_105526" fill="white">
<path d="M6.08914 0L5.64286 0.0552316C5.64286 0.0552316 3.64057 0.280271 2.17829 1.48773H2.16114L2.14286 1.50536C1.81486 1.81559 1.672 2.19693 1.44629 2.75453C1.18022 3.4254 0.953712 4.11214 0.768 4.81103C0.344 6.38748 0 8.29708 0 10.0439V10.1908L0.0714286 10.3377C0.600571 11.2925 1.54 11.9007 2.41086 12.3208C3.28114 12.7409 4.03371 12.9636 4.55371 12.9818L4.89314 13L5.07143 12.688L5.69657 11.5493C6.35943 11.7032 7.12286 11.8066 8 11.8066C8.87714 11.8066 9.64057 11.7032 10.3034 11.5493L10.9286 12.688L11.1074 13L11.4463 12.9818C11.9663 12.9636 12.7189 12.7409 13.5891 12.3208C14.46 11.9007 15.3994 11.2925 15.9286 10.3377L16 10.1908V10.0439C16 8.29708 15.656 6.38748 15.232 4.81103C15.0463 4.11214 14.8198 3.4254 14.5537 2.75453C14.328 2.19634 14.1851 1.81559 13.8571 1.50594L13.8394 1.48714H13.8211C12.36 0.280271 10.3571 0.0552316 10.3571 0.0552316L9.91086 0L9.74971 0.422463C9.74971 0.422463 9.58457 0.85139 9.48229 1.34084C8.99103 1.27114 8.4959 1.23424 8 1.23037C7.69429 1.23037 7.16571 1.25094 6.51771 1.34084C6.41486 0.85139 6.24971 0.422463 6.24971 0.422463L6.08914 0ZM5.30343 1.34084C5.328 1.4231 5.35257 1.49419 5.37486 1.56118C4.636 1.7492 3.848 2.03593 3.12514 2.49717L3.732 3.48899C5.21429 2.54301 7.34343 2.40551 8 2.40551C8.656 2.40551 10.7857 2.54301 12.268 3.48899L12.8749 2.49717C12.152 2.03593 11.364 1.7492 10.6251 1.56059C10.6474 1.49419 10.672 1.4231 10.6966 1.34025C11.2297 1.45071 12.248 1.70337 13.0891 2.3873C13.0846 2.38965 13.3034 2.72927 13.5 3.21342C13.7011 3.71168 13.924 4.37505 14.1251 5.12303C14.5114 6.55729 14.8149 8.30414 14.8394 9.84181C14.4794 10.4065 13.8126 10.9159 13.1069 11.2561C12.6643 11.4711 12.1961 11.6252 11.7143 11.7144L11.4286 11.2191C11.5983 11.1544 11.7657 11.0839 11.9109 11.0169C12.7903 10.6198 13.268 10.1908 13.268 10.1908L12.5177 9.30947C12.5177 9.30947 12.1966 9.61265 11.4463 9.95227C10.6971 10.2919 9.55143 10.6315 8 10.6315C6.44857 10.6315 5.30343 10.2919 4.55371 9.95227C3.80343 9.61265 3.48229 9.30947 3.48229 9.30947L2.732 10.1908C2.732 10.1908 3.20971 10.6198 4.08914 11.0169C4.23429 11.0839 4.40171 11.155 4.57143 11.2191L4.28571 11.715C3.8037 11.6255 3.33528 11.471 2.89257 11.2555C2.18743 10.9159 1.52 10.4065 1.16114 9.84181C1.18514 8.30414 1.48857 6.55729 1.87543 5.12303C2.04637 4.47425 2.25494 3.83657 2.5 3.21342C2.69657 2.72927 2.91543 2.38965 2.91086 2.3873C3.752 1.70337 4.77029 1.45071 5.30343 1.34084ZM6 5.34337C5.55829 5.34337 5.16743 5.60249 4.92857 5.93094C4.68971 6.25939 4.57143 6.66305 4.57143 7.10608C4.57143 7.54911 4.68971 7.95277 4.92857 8.28122C5.16743 8.60967 5.55829 8.86879 6 8.86879C6.44171 8.86879 6.83257 8.60967 7.07143 8.28122C7.31029 7.95277 7.42857 7.54911 7.42857 7.10608C7.42857 6.66305 7.31029 6.25939 7.07143 5.93094C6.83257 5.60249 6.44171 5.34337 6 5.34337ZM10 5.34337C9.55829 5.34337 9.16743 5.60249 8.92857 5.93094C8.68971 6.25939 8.57143 6.66305 8.57143 7.10608C8.57143 7.54911 8.68971 7.95277 8.92857 8.28122C9.16743 8.60967 9.55829 8.86879 10 8.86879C10.4417 8.86879 10.8326 8.60967 11.0714 8.28122C11.3103 7.95277 11.4286 7.54911 11.4286 7.10608C11.4286 6.66305 11.3103 6.25939 11.0714 5.93094C10.8326 5.60249 10.4417 5.34337 10 5.34337ZM6 6.51851C6.03143 6.51851 6.07143 6.53026 6.14286 6.62897C6.21429 6.7271 6.28571 6.89925 6.28571 7.10608C6.28571 7.3129 6.21429 7.48506 6.14286 7.58377C6.07143 7.6819 6.03143 7.69365 6 7.69365C5.96857 7.69365 5.92857 7.6819 5.85714 7.58319C5.76264 7.44319 5.71273 7.27649 5.71429 7.10608C5.71429 6.89925 5.78571 6.7271 5.85714 6.62838C5.92857 6.53026 5.96857 6.51851 6 6.51851ZM10 6.51851C10.0314 6.51851 10.0714 6.53026 10.1429 6.62897C10.2143 6.7271 10.2857 6.89925 10.2857 7.10608C10.2857 7.3129 10.2143 7.48506 10.1429 7.58377C10.0714 7.6819 10.0314 7.69365 10 7.69365C9.96857 7.69365 9.92857 7.6819 9.85714 7.58319C9.76264 7.44319 9.71273 7.27649 9.71429 7.10608C9.71429 6.89925 9.78572 6.7271 9.85714 6.62838C9.92857 6.53026 9.96857 6.51851 10 6.51851Z"/>
</mask>
<path d="M6.08914 0L5.64286 0.0552316C5.64286 0.0552316 3.64057 0.280271 2.17829 1.48773H2.16114L2.14286 1.50536C1.81486 1.81559 1.672 2.19693 1.44629 2.75453C1.18022 3.4254 0.953712 4.11214 0.768 4.81103C0.344 6.38748 0 8.29708 0 10.0439V10.1908L0.0714286 10.3377C0.600571 11.2925 1.54 11.9007 2.41086 12.3208C3.28114 12.7409 4.03371 12.9636 4.55371 12.9818L4.89314 13L5.07143 12.688L5.69657 11.5493C6.35943 11.7032 7.12286 11.8066 8 11.8066C8.87714 11.8066 9.64057 11.7032 10.3034 11.5493L10.9286 12.688L11.1074 13L11.4463 12.9818C11.9663 12.9636 12.7189 12.7409 13.5891 12.3208C14.46 11.9007 15.3994 11.2925 15.9286 10.3377L16 10.1908V10.0439C16 8.29708 15.656 6.38748 15.232 4.81103C15.0463 4.11214 14.8198 3.4254 14.5537 2.75453C14.328 2.19634 14.1851 1.81559 13.8571 1.50594L13.8394 1.48714H13.8211C12.36 0.280271 10.3571 0.0552316 10.3571 0.0552316L9.91086 0L9.74971 0.422463C9.74971 0.422463 9.58457 0.85139 9.48229 1.34084C8.99103 1.27114 8.4959 1.23424 8 1.23037C7.69429 1.23037 7.16571 1.25094 6.51771 1.34084C6.41486 0.85139 6.24971 0.422463 6.24971 0.422463L6.08914 0ZM5.30343 1.34084C5.328 1.4231 5.35257 1.49419 5.37486 1.56118C4.636 1.7492 3.848 2.03593 3.12514 2.49717L3.732 3.48899C5.21429 2.54301 7.34343 2.40551 8 2.40551C8.656 2.40551 10.7857 2.54301 12.268 3.48899L12.8749 2.49717C12.152 2.03593 11.364 1.7492 10.6251 1.56059C10.6474 1.49419 10.672 1.4231 10.6966 1.34025C11.2297 1.45071 12.248 1.70337 13.0891 2.3873C13.0846 2.38965 13.3034 2.72927 13.5 3.21342C13.7011 3.71168 13.924 4.37505 14.1251 5.12303C14.5114 6.55729 14.8149 8.30414 14.8394 9.84181C14.4794 10.4065 13.8126 10.9159 13.1069 11.2561C12.6643 11.4711 12.1961 11.6252 11.7143 11.7144L11.4286 11.2191C11.5983 11.1544 11.7657 11.0839 11.9109 11.0169C12.7903 10.6198 13.268 10.1908 13.268 10.1908L12.5177 9.30947C12.5177 9.30947 12.1966 9.61265 11.4463 9.95227C10.6971 10.2919 9.55143 10.6315 8 10.6315C6.44857 10.6315 5.30343 10.2919 4.55371 9.95227C3.80343 9.61265 3.48229 9.30947 3.48229 9.30947L2.732 10.1908C2.732 10.1908 3.20971 10.6198 4.08914 11.0169C4.23429 11.0839 4.40171 11.155 4.57143 11.2191L4.28571 11.715C3.8037 11.6255 3.33528 11.471 2.89257 11.2555C2.18743 10.9159 1.52 10.4065 1.16114 9.84181C1.18514 8.30414 1.48857 6.55729 1.87543 5.12303C2.04637 4.47425 2.25494 3.83657 2.5 3.21342C2.69657 2.72927 2.91543 2.38965 2.91086 2.3873C3.752 1.70337 4.77029 1.45071 5.30343 1.34084ZM6 5.34337C5.55829 5.34337 5.16743 5.60249 4.92857 5.93094C4.68971 6.25939 4.57143 6.66305 4.57143 7.10608C4.57143 7.54911 4.68971 7.95277 4.92857 8.28122C5.16743 8.60967 5.55829 8.86879 6 8.86879C6.44171 8.86879 6.83257 8.60967 7.07143 8.28122C7.31029 7.95277 7.42857 7.54911 7.42857 7.10608C7.42857 6.66305 7.31029 6.25939 7.07143 5.93094C6.83257 5.60249 6.44171 5.34337 6 5.34337ZM10 5.34337C9.55829 5.34337 9.16743 5.60249 8.92857 5.93094C8.68971 6.25939 8.57143 6.66305 8.57143 7.10608C8.57143 7.54911 8.68971 7.95277 8.92857 8.28122C9.16743 8.60967 9.55829 8.86879 10 8.86879C10.4417 8.86879 10.8326 8.60967 11.0714 8.28122C11.3103 7.95277 11.4286 7.54911 11.4286 7.10608C11.4286 6.66305 11.3103 6.25939 11.0714 5.93094C10.8326 5.60249 10.4417 5.34337 10 5.34337ZM6 6.51851C6.03143 6.51851 6.07143 6.53026 6.14286 6.62897C6.21429 6.7271 6.28571 6.89925 6.28571 7.10608C6.28571 7.3129 6.21429 7.48506 6.14286 7.58377C6.07143 7.6819 6.03143 7.69365 6 7.69365C5.96857 7.69365 5.92857 7.6819 5.85714 7.58319C5.76264 7.44319 5.71273 7.27649 5.71429 7.10608C5.71429 6.89925 5.78571 6.7271 5.85714 6.62838C5.92857 6.53026 5.96857 6.51851 6 6.51851ZM10 6.51851C10.0314 6.51851 10.0714 6.53026 10.1429 6.62897C10.2143 6.7271 10.2857 6.89925 10.2857 7.10608C10.2857 7.3129 10.2143 7.48506 10.1429 7.58377C10.0714 7.6819 10.0314 7.69365 10 7.69365C9.96857 7.69365 9.92857 7.6819 9.85714 7.58319C9.76264 7.44319 9.71273 7.27649 9.71429 7.10608C9.71429 6.89925 9.78572 6.7271 9.85714 6.62838C9.92857 6.53026 9.96857 6.51851 10 6.51851Z" fill="white" stroke="white" stroke-width="0.25" mask="url(#path-1-inside-1_45652_105526)"/>
</svg>
