<svg xmlns="http://www.w3.org/2000/svg" width="16" height="16" viewBox="0 0 16 16" fill="none">
  <path d="M1.67188 11.9155C2.31483 12.271 6.96901 14.9539 10.2785 12.8861C13.588 10.8184 13.4054 7.25589 13.4054 5.62346C13.7052 4.99539 14.3385 4.67609 14.3385 2.97606C13.7164 3.55072 13.0981 3.74626 12.4835 3.56266C11.8814 2.64465 11.053 2.23861 9.99834 2.34457C8.41631 2.5035 7.83751 4.05562 8.00784 6.06369C5.56851 7.29726 3.65571 5.16946 2.66993 3.56266C2.34057 4.82809 2.02298 6.34732 2.66993 8.02796C3.10124 9.14836 4.13804 10.0956 5.78034 10.8697C4.11597 11.7717 2.74648 12.1203 1.67188 11.9155Z" fill="#F7FAFC" stroke="#F7FAFC" stroke-linejoin="round"/>
</svg>
