<svg width="100" height="29" viewBox="0 0 100 29" fill="none" xmlns="http://www.w3.org/2000/svg">
<path d="M26.8275 16.0139C27.6911 14.0783 23.4221 8.67062 19.3437 6.41767C16.773 4.67233 14.0943 4.91211 13.5518 5.67844C12.3612 7.36024 17.4942 8.78531 20.9271 10.4483C20.1892 10.7698 19.4938 11.3469 19.0849 12.085C17.805 10.6831 14.9961 9.4758 11.7 10.4483C9.47888 11.1036 7.63294 12.6485 6.9195 14.982C6.74614 14.9047 6.55421 14.8617 6.35227 14.8617C5.58008 14.8617 4.9541 15.4898 4.9541 16.2646C4.9541 17.0394 5.58008 17.6675 6.35227 17.6675C6.4954 17.6675 6.94292 17.5712 6.94292 17.5712L14.0943 17.6232C11.2343 22.1756 8.97412 22.8411 8.97412 23.6297C8.97412 24.4184 11.1367 24.2047 11.9488 23.9107C15.836 22.5034 20.011 18.1174 20.7275 16.8548C23.7361 17.2314 26.2645 17.276 26.8275 16.0139Z" fill="url(#paint0_linear_49047_52638)"/>
<path fill-rule="evenodd" clip-rule="evenodd" d="M20.9267 10.4484C20.9269 10.4484 20.9271 10.4485 20.9273 10.4486C21.0864 10.3857 21.0607 10.1499 21.017 9.96477C20.9166 9.53916 19.1839 7.8224 17.5568 7.05345C15.3397 6.00567 13.707 6.05968 13.4658 6.5426C13.9175 7.47134 16.0112 8.34332 18.1979 9.25401C19.1308 9.64255 20.0806 10.0381 20.9271 10.4482C20.927 10.4482 20.9269 10.4483 20.9267 10.4484Z" fill="url(#paint1_linear_49047_52638)"/>
<path fill-rule="evenodd" clip-rule="evenodd" d="M18.113 19.7964C17.6646 19.6245 17.1581 19.4667 16.5822 19.3236C17.1962 18.2213 17.3251 16.5894 16.7452 15.5576C15.9314 14.1096 14.9099 13.3389 12.5361 13.3389C11.2305 13.3389 7.71524 13.7801 7.65283 16.7245C7.64628 17.0334 7.65267 17.3165 7.67496 17.5769L14.0941 17.6236C13.2287 19.0011 12.4182 20.0227 11.7087 20.7995C12.5606 21.0185 13.2636 21.2024 13.9091 21.3713C14.5215 21.5315 15.0821 21.6781 15.6688 21.8283C16.5539 21.1813 17.3859 20.4758 18.113 19.7964Z" fill="url(#paint2_linear_49047_52638)"/>
<path d="M6.83383 17.2737C7.09606 19.5104 8.36294 20.387 10.9517 20.6464C13.5404 20.9058 15.0254 20.7318 17.0023 20.9122C18.6535 21.063 20.1278 21.9072 20.6747 21.6155C21.1669 21.3529 20.8915 20.4043 20.2329 19.7957C19.3791 19.0068 18.1975 18.4583 16.1185 18.2636C16.5328 17.1253 16.4167 15.5293 15.7732 14.661C14.8427 13.4054 13.1253 12.8378 10.9517 13.0858C8.68075 13.3449 6.50474 14.4667 6.83383 17.2737Z" fill="url(#paint3_linear_49047_52638)"/>
<path d="M33.7454 14.8667H34.1125C34.4961 14.8667 34.7905 14.7796 34.9955 14.6053C35.2006 14.4309 35.3031 14.1804 35.3031 13.8535C35.3031 13.5267 35.2006 13.2761 34.9955 13.1018C34.7905 12.9275 34.4961 12.8403 34.1125 12.8403H33.7454V14.8667ZM38.0216 19.4099H35.6007L33.7454 16.2504V19.4099H31.8008V11.1952H34.8268C35.2436 11.1952 35.6073 11.2642 35.9182 11.4022C36.2291 11.5329 36.4837 11.7145 36.6822 11.9469C36.8872 12.1794 37.0394 12.4481 37.1386 12.7531C37.2444 13.0582 37.2973 13.385 37.2973 13.7337C37.2973 14.3583 37.1584 14.8667 36.8806 15.259C36.6094 15.6439 36.2059 15.9054 35.6702 16.0434L38.0216 19.4099Z" fill="#8697FF"/>
<path d="M39.6216 16.599C39.6216 16.7806 39.6514 16.9513 39.7109 17.1111C39.7704 17.2636 39.8498 17.398 39.949 17.5142C40.0548 17.6304 40.1772 17.7212 40.3161 17.7865C40.4616 17.8519 40.617 17.8846 40.7824 17.8846C40.9412 17.8846 41.09 17.8519 41.2289 17.7865C41.3744 17.7212 41.4968 17.6304 41.596 17.5142C41.7018 17.398 41.7845 17.2636 41.844 17.1111C41.9102 16.9585 41.9432 16.7951 41.9432 16.6208C41.9432 16.4465 41.9102 16.2831 41.844 16.1305C41.7845 15.9707 41.7018 15.8327 41.596 15.7165C41.4968 15.6003 41.3744 15.5095 41.2289 15.4442C41.09 15.3788 40.9412 15.3461 40.7824 15.3461C40.617 15.3461 40.4616 15.3788 40.3161 15.4442C40.1772 15.5095 40.0548 15.6003 39.949 15.7165C39.8498 15.8327 39.7704 15.9671 39.7109 16.1196C39.6514 16.2649 39.6216 16.4247 39.6216 16.599ZM41.8837 13.8208H43.6894V19.4099H41.8837V18.7889C41.5001 19.3191 40.9808 19.5842 40.326 19.5842C39.9556 19.5842 39.615 19.5116 39.3041 19.3663C38.9932 19.2138 38.722 19.0031 38.4905 18.7344C38.259 18.4657 38.0771 18.1497 37.9448 17.7865C37.8192 17.4234 37.7563 17.0275 37.7563 16.599C37.7563 16.1995 37.8192 15.8219 37.9448 15.466C38.0705 15.1028 38.2458 14.7868 38.4707 14.5181C38.6956 14.2494 38.9635 14.0387 39.2743 13.8862C39.5852 13.7264 39.9292 13.6465 40.3062 13.6465C40.9412 13.6465 41.467 13.8898 41.8837 14.3765V13.8208Z" fill="#8697FF"/>
<path d="M48.3741 16.6317C48.3741 16.4574 48.3443 16.294 48.2848 16.1414C48.2253 15.9816 48.1426 15.8436 48.0368 15.7274C47.9309 15.6112 47.8086 15.5204 47.6697 15.4551C47.5308 15.3824 47.3786 15.3461 47.2133 15.3461C47.0545 15.3461 46.9057 15.3788 46.7668 15.4442C46.6279 15.5095 46.5055 15.6003 46.3997 15.7165C46.3005 15.8327 46.2178 15.9707 46.1517 16.1305C46.0921 16.2831 46.0624 16.4465 46.0624 16.6208C46.0624 16.7951 46.0921 16.9585 46.1517 17.1111C46.2112 17.2636 46.2939 17.398 46.3997 17.5142C46.5055 17.6231 46.6279 17.7139 46.7668 17.7865C46.9123 17.8519 47.0644 17.8846 47.2232 17.8846C47.3819 17.8846 47.5308 17.8519 47.6697 17.7865C47.8086 17.7212 47.9276 17.6304 48.0268 17.5142C48.1327 17.398 48.2153 17.2636 48.2749 17.1111C48.341 16.9585 48.3741 16.7988 48.3741 16.6317ZM46.112 10.3672V14.3765C46.5353 13.8898 47.0644 13.6465 47.6994 13.6465C48.0764 13.6465 48.4204 13.7264 48.7313 13.8862C49.0487 14.0387 49.3166 14.2494 49.5349 14.5181C49.7598 14.7796 49.9351 15.0919 50.0607 15.4551C50.1864 15.811 50.2493 16.1923 50.2493 16.599C50.2493 17.013 50.1831 17.4016 50.0508 17.7648C49.9252 18.1279 49.7466 18.4439 49.5151 18.7126C49.2836 18.9813 49.0091 19.1956 48.6916 19.3554C48.3807 19.5079 48.0434 19.5842 47.6796 19.5842C47.0181 19.5842 46.4956 19.3191 46.112 18.7889V19.4099H44.3162V10.3672H46.112Z" fill="#8697FF"/>
<path d="M54.7355 16.6317C54.7355 16.4574 54.7057 16.294 54.6462 16.1414C54.5867 15.9816 54.504 15.8436 54.3982 15.7274C54.2923 15.6112 54.17 15.5204 54.0311 15.4551C53.8922 15.3824 53.74 15.3461 53.5747 15.3461C53.4159 15.3461 53.2671 15.3788 53.1282 15.4442C52.9893 15.5095 52.8669 15.6003 52.7611 15.7165C52.6619 15.8327 52.5792 15.9707 52.5131 16.1305C52.4535 16.2831 52.4238 16.4465 52.4238 16.6208C52.4238 16.7951 52.4535 16.9585 52.5131 17.1111C52.5726 17.2636 52.6553 17.398 52.7611 17.5142C52.8669 17.6231 52.9893 17.7139 53.1282 17.7865C53.2737 17.8519 53.4259 17.8846 53.5846 17.8846C53.7433 17.8846 53.8922 17.8519 54.0311 17.7865C54.17 17.7212 54.289 17.6304 54.3882 17.5142C54.4941 17.398 54.5767 17.2636 54.6363 17.1111C54.7024 16.9585 54.7355 16.7988 54.7355 16.6317ZM52.4734 10.3672V14.3765C52.8967 13.8898 53.4259 13.6465 54.0608 13.6465C54.4378 13.6465 54.7818 13.7264 55.0927 13.8862C55.4102 14.0387 55.678 14.2494 55.8963 14.5181C56.1212 14.7796 56.2965 15.0919 56.4222 15.4551C56.5478 15.811 56.6107 16.1923 56.6107 16.599C56.6107 17.013 56.5445 17.4016 56.4122 17.7648C56.2866 18.1279 56.108 18.4439 55.8765 18.7126C55.645 18.9813 55.3705 19.1956 55.053 19.3554C54.7421 19.5079 54.4048 19.5842 54.041 19.5842C53.3795 19.5842 52.857 19.3191 52.4734 18.7889V19.4099H50.6776V10.3672H52.4734Z" fill="#8697FF"/>
<path d="M58.6131 18.6472L56.1526 13.8208H58.2361L59.5953 16.6862L60.9149 13.8208H62.9786L58.8909 22.1989H56.8768L58.6131 18.6472Z" fill="#8697FF"/>
<path d="M67.1984 11.1952L68.4882 16.501L70.0757 11.1952H71.6234L73.2109 16.501L74.5007 11.1952H76.5346L74.3022 19.4099H72.3179L70.8495 14.6488L69.3811 19.4099H67.3968L65.1645 11.1952H67.1984Z" fill="#8697FF"/>
<path d="M77.8869 16.599C77.8869 16.7806 77.9167 16.9513 77.9762 17.1111C78.0358 17.2636 78.1151 17.398 78.2143 17.5142C78.3202 17.6304 78.4425 17.7212 78.5814 17.7865C78.727 17.8519 78.8824 17.8846 79.0478 17.8846C79.2065 17.8846 79.3553 17.8519 79.4942 17.7865C79.6397 17.7212 79.7621 17.6304 79.8613 17.5142C79.9671 17.398 80.0498 17.2636 80.1094 17.1111C80.1755 16.9585 80.2086 16.7951 80.2086 16.6208C80.2086 16.4465 80.1755 16.2831 80.1094 16.1305C80.0498 15.9707 79.9671 15.8327 79.8613 15.7165C79.7621 15.6003 79.6397 15.5095 79.4942 15.4442C79.3553 15.3788 79.2065 15.3461 79.0478 15.3461C78.8824 15.3461 78.727 15.3788 78.5814 15.4442C78.4425 15.5095 78.3202 15.6003 78.2143 15.7165C78.1151 15.8327 78.0358 15.9671 77.9762 16.1196C77.9167 16.2649 77.8869 16.4247 77.8869 16.599ZM80.149 13.8208H81.9548V19.4099H80.149V18.7889C79.7654 19.3191 79.2462 19.5842 78.5914 19.5842C78.221 19.5842 77.8803 19.5116 77.5694 19.3663C77.2586 19.2138 76.9874 19.0031 76.7559 18.7344C76.5244 18.4657 76.3425 18.1497 76.2102 17.7865C76.0845 17.4234 76.0217 17.0275 76.0217 16.599C76.0217 16.1995 76.0845 15.8219 76.2102 15.466C76.3359 15.1028 76.5111 14.7868 76.736 14.5181C76.9609 14.2494 77.2288 14.0387 77.5397 13.8862C77.8506 13.7264 78.1945 13.6465 78.5715 13.6465C79.2065 13.6465 79.7323 13.8898 80.149 14.3765V13.8208Z" fill="#8697FF"/>
<path d="M84.3773 10.3672V19.4099H82.5815V10.3672H84.3773Z" fill="#8697FF"/>
<path d="M86.805 10.3672V19.4099H85.0092V10.3672H86.805Z" fill="#8697FF"/>
<path d="M91.1575 15.8037C91.0979 15.5277 90.9756 15.3062 90.7904 15.1391C90.6052 14.9721 90.3803 14.8885 90.1157 14.8885C89.8379 14.8885 89.6097 14.9684 89.4311 15.1282C89.2591 15.288 89.15 15.5132 89.1037 15.8037H91.1575ZM89.0541 16.9476C89.0541 17.7974 89.4179 18.2223 90.1455 18.2223C90.5357 18.2223 90.83 18.048 91.0285 17.6994H92.7647C92.4142 18.9777 91.5378 19.6169 90.1355 19.6169C89.7056 19.6169 89.312 19.5479 88.9549 19.4099C88.5977 19.2646 88.2901 19.0612 88.0322 18.7998C87.7808 18.5383 87.5857 18.226 87.4468 17.8628C87.3079 17.4997 87.2384 17.0929 87.2384 16.6426C87.2384 16.1777 87.3046 15.7601 87.4369 15.3897C87.5692 15.012 87.7577 14.6924 88.0024 14.4309C88.2471 14.1695 88.5415 13.9697 88.8854 13.8317C89.236 13.6865 89.6295 13.6138 90.0661 13.6138C90.496 13.6138 90.883 13.6865 91.2269 13.8317C91.5709 13.9697 91.8619 14.1731 92.1 14.4418C92.3381 14.7106 92.52 15.0411 92.6457 15.4333C92.7714 15.8182 92.8342 16.254 92.8342 16.7406V16.9476H89.0541Z" fill="#8697FF"/>
<path d="M95.3374 15.466V19.4099H93.5416V15.466H92.9463V13.8208H93.5416V12.143H95.3374V13.8208H96.3593V15.466H95.3374Z" fill="#8697FF"/>
<defs>
<linearGradient id="paint0_linear_49047_52638" x1="11.4414" y1="14.2999" x2="26.6492" y2="18.598" gradientUnits="userSpaceOnUse">
<stop stop-color="#8697FF"/>
<stop offset="1" stop-color="#ABB7FF"/>
</linearGradient>
<linearGradient id="paint1_linear_49047_52638" x1="24.082" y1="14.0098" x2="13.0774" y2="3.0153" gradientUnits="userSpaceOnUse">
<stop stop-color="#8697FF"/>
<stop offset="1" stop-color="#5156D8" stop-opacity="0"/>
</linearGradient>
<linearGradient id="paint2_linear_49047_52638" x1="18.4181" y1="20.1807" x2="7.86489" y2="14.1337" gradientUnits="userSpaceOnUse">
<stop stop-color="#465EED"/>
<stop offset="1" stop-color="#8697FF" stop-opacity="0"/>
</linearGradient>
<linearGradient id="paint3_linear_49047_52638" x1="12.3488" y1="14.1858" x2="19.4998" y2="23.2413" gradientUnits="userSpaceOnUse">
<stop stop-color="#8898FF"/>
<stop offset="0.983895" stop-color="#6277F1"/>
</linearGradient>
</defs>
</svg>
