<svg t="1672731262977" class="icon" viewBox="0 0 1024 1024" version="1.1" xmlns="http://www.w3.org/2000/svg" p-id="6677" width="200" height="200"><path d="M777.088 748.544c-30.464-21.376-40.832-40.192-76.48-53.792 25.28-60.288 40.192-83.616 42.112-154.88h145.184c-3.904 99.168-45.376 143.872-110.816 208.704zM136.096 539.872h167.2c1.952 71.296 16.864 94.624 42.112 154.88a438.784 438.784 0 0 0-98.496 53.792c-65.472-64.8-106.944-109.536-110.816-208.704z m103.04-259.904a393.44 393.44 0 0 0 96.576 57.696c-19.456 53.792-30.464 90.72-31.744 152.96H136.096c3.232-90.72 46.656-147.776 103.04-210.624z m309.152 209.984v-117.952c47.296-1.28 71.296-10.368 114.08-25.28 18.144 51.2 28.512 84.896 30.464 143.232h-144.512z m104.352 195.104c-40.192-12.96-60.288-20.096-104.352-21.376v-123.776h144.512c-1.952 68.064-16.192 88.128-40.192 145.184z m36.928 57.664c31.744 12.32 39.52 28.512 66.752 47.296a369.6 369.6 0 0 1-182.112 84.896c36.928-37.6 90.72-82.304 115.36-132.224z m-163.296 137.408l22.048-165.92c40.192 1.312 56.384 7.776 92.672 18.784a457.44 457.44 0 0 1-113.408 147.104h-1.312z m-75.84-5.184c-67.392-11.008-130.272-40.832-182.752-84.896a431.52 431.52 0 0 1 88.8-47.296 482.944 482.944 0 0 0 93.984 132.224z m47.296-335.072v123.776c-44.064 1.312-64.16 8.416-104.352 21.376-23.968-57.696-38.24-77.12-40.192-145.184h144.512z m-114.048-193.152c42.784 14.912 66.752 23.328 114.08 25.28v117.952h-144.512c1.952-58.336 12.32-92.032 30.464-143.232z m-37.6-57.024a366.4 366.4 0 0 1-88.128-51.84c53.792-51.84 115.36-91.392 192.48-104.352a479.136 479.136 0 0 0-104.352 156.192z m151.648-161.376v193.792c-44.064-1.28-64.16-9.088-103.68-22.688 29.152-68.704 49.888-127.04 102.4-171.104h1.28z m75.84 4.544a398.88 398.88 0 0 1 206.752 104.352c-29.152 22.048-46.016 37.6-80.352 51.84-25.28-59.616-82.944-112.768-126.368-156.192z m-46.016-4.544a447.584 447.584 0 0 1 124.448 171.104c-39.52 13.6-59.616 21.376-103.712 22.688l-22.048-193.792h1.312z m-31.104 751.168c-46.656-38.88-62.88-88.8-91.392-147.104 36.288-11.68 53.152-17.504 93.312-18.784v165.92h-1.952z m391.456-389.536H742.72c-1.312-61.568-12.32-98.496-31.744-152.32 37.6-15.552 57.024-33.056 88.8-57.696 56.384 62.88 84.896 119.904 88.128 209.984zM512 62.208c-244.32 0-442.016 197.664-442.016 442.016S267.648 946.24 512 946.24s442.016-197.664 442.016-442.016S756.352 62.208 512 62.208z" p-id="6678" fill="#ffffff"></path></svg>
