<svg width="20" height="20" viewBox="0 0 20 20" fill="none" xmlns="http://www.w3.org/2000/svg">
<circle cx="9.89801" cy="5.32281" r="2.69781" stroke="#F7FAFC" stroke-width="1.25"/>
<circle cx="9.89801" cy="5.32281" r="2.69781" stroke="#F7FAFC" stroke-width="1.25"/>
<circle cx="9.89801" cy="5.32281" r="2.69781" stroke="#F7FAFC" stroke-width="1.25"/>
<circle cx="9.90057" cy="11.4162" r="1.1076" fill="#F7FAFC"/>
<circle cx="3.80719" cy="14.7349" r="2.69781" stroke="#F7FAFC" stroke-width="1.25"/>
<circle cx="3.80719" cy="14.7349" r="2.69781" stroke="#F7FAFC" stroke-width="1.25"/>
<circle cx="3.80719" cy="14.7349" r="2.69781" stroke="#F7FAFC" stroke-width="1.25"/>
<circle cx="15.9888" cy="14.7349" r="2.69781" stroke="#F7FAFC" stroke-width="1.25"/>
<circle cx="15.9888" cy="14.7349" r="2.69781" stroke="#F7FAFC" stroke-width="1.25"/>
<circle cx="15.9888" cy="14.7349" r="2.69781" stroke="#F7FAFC" stroke-width="1.25"/>
<line x1="8.22043" y1="7.86836" x2="5.45142" y2="12.2988" stroke="#F7FAFC" stroke-width="1.25"/>
<line x1="8.22043" y1="7.86836" x2="5.45142" y2="12.2988" stroke="#F7FAFC" stroke-width="1.25"/>
<path d="M9.89941 8.36914L9.89941 10.8612" stroke="#F7FAFC" stroke-width="1.25"/>
<path d="M9.89941 8.36914L9.89941 10.8612" stroke="#F7FAFC" stroke-width="1.25"/>
<path d="M9.89941 11.4121L6.2997 13.0735" stroke="#F7FAFC" stroke-width="1.25"/>
<path d="M9.89941 11.4121L6.2997 13.0735" stroke="#F7FAFC" stroke-width="1.25"/>
<path d="M13.5 13.0759L10.4541 11.6914" stroke="#F7FAFC" stroke-width="1.25"/>
<path d="M13.5 13.0759L10.4541 11.6914" stroke="#F7FAFC" stroke-width="1.25"/>
<line x1="12.666" y1="15.3613" x2="6.57419" y2="15.3613" stroke="#F7FAFC" stroke-width="1.25"/>
<line x1="12.666" y1="15.3613" x2="6.57419" y2="15.3613" stroke="#F7FAFC" stroke-width="1.25"/>
<line x1="14.3528" y1="12.299" x2="11.5838" y2="7.86861" stroke="#F7FAFC" stroke-width="1.25"/>
<line x1="14.3528" y1="12.299" x2="11.5838" y2="7.86861" stroke="#F7FAFC" stroke-width="1.25"/>
</svg>
