<svg width="24" height="19" viewBox="0 0 24 19" fill="none" xmlns="http://www.w3.org/2000/svg">
<circle cx="12.1009" cy="3.931" r="3.431" stroke="white"/>
<circle cx="12.1009" cy="3.931" r="3.431" stroke="white"/>
<circle cx="12.1009" cy="3.931" r="3.431" stroke="white"/>
<circle cx="12.1033" cy="11.1385" r="1.31033" fill="white"/>
<circle cx="4.89487" cy="15.0677" r="3.431" stroke="white"/>
<circle cx="4.89487" cy="15.0677" r="3.431" stroke="white"/>
<circle cx="4.89487" cy="15.0677" r="3.431" stroke="white"/>
<circle cx="19.3089" cy="15.0677" r="3.431" stroke="white"/>
<circle cx="19.3089" cy="15.0677" r="3.431" stroke="white"/>
<circle cx="19.3089" cy="15.0677" r="3.431" stroke="white"/>
<line x1="9.90544" y1="6.81676" x2="6.62961" y2="12.0581" stroke="white"/>
<line x1="9.90544" y1="6.81676" x2="6.62961" y2="12.0581" stroke="white"/>
<path d="M12.0996 7.53613L12.0996 10.4844" stroke="white"/>
<path d="M12.0996 7.53613L12.0996 10.4844" stroke="white"/>
<path d="M12.0996 11.1367L7.84102 13.1022" stroke="white"/>
<path d="M12.0996 11.1367L7.84102 13.1022" stroke="white"/>
<path d="M16.3594 13.1018L12.756 11.4639" stroke="white"/>
<path d="M16.3594 13.1018L12.756 11.4639" stroke="white"/>
<line x1="15.3779" y1="15.5684" x2="8.17109" y2="15.5684" stroke="white"/>
<line x1="15.3779" y1="15.5684" x2="8.17109" y2="15.5684" stroke="white"/>
<line x1="17.574" y1="12.058" x2="14.2982" y2="6.81663" stroke="white"/>
<line x1="17.574" y1="12.058" x2="14.2982" y2="6.81663" stroke="white"/>
</svg>
