<svg width="17" height="20" viewBox="0 0 17 20" fill="none" xmlns="http://www.w3.org/2000/svg">
<path fill-rule="evenodd" clip-rule="evenodd" d="M8.35374 18.8418V12.9958L8.35362 12.9958L8.35362 18.8305V19.9949L7.35362 19.3984L0.000168974 15.0121V13.5004L0 13.4999L0.000168974 13.4998V6.77962V5.63901V5.6328L0.00552667 5.63581L0.990596 5.04823L8.35362 0.65625L15.9684 4.78631L16.9957 5.34347L17.0003 5.34081V6.49497V15.0132L9.35374 19.4197L8.35374 19.996V18.8418ZM7.35362 18.234L2.05151 15.0713C2.13099 14.6556 2.05522 14.1657 1.77531 13.8858C1.54319 13.6536 1.26909 13.4845 1.00017 13.3905V7.34102L6.02298 10.1608C6.00794 10.2717 6.00017 10.385 6.00017 10.5C6.00017 11.4674 6.54969 12.3065 7.35362 12.7222V18.234ZM9.35374 18.2656V12.8505C10.3141 12.5016 11.0002 11.5809 11.0002 10.5C11.0002 10.3229 10.9818 10.1501 10.9467 9.98346L16.0003 7.07125V13.6085C15.642 13.6068 15.2629 13.7373 15.0002 14C14.6683 14.3318 14.5531 14.8121 14.6469 15.2153L9.35374 18.2656ZM14.9515 5.37236L9.78045 8.35226C9.40597 8.12855 8.96808 8 8.50017 8C7.96415 8 7.46752 8.1687 7.0605 8.45589L1.9962 5.61278L7.20559 2.50543C7.46608 2.80133 7.94833 3 8.50017 3C9.0226 3 9.48266 2.82194 9.75124 2.5519L14.9515 5.37236Z" fill="white"/>
</svg>
