<svg xmlns="http://www.w3.org/2000/svg" width="20" height="20" viewBox="0 0 20 20" fill="none">
  <path d="M14.1667 7.49995C14.1667 7.07343 14.0039 6.64692 13.6785 6.32149C13.3531 5.99605 12.9265 5.83333 12.5 5.83333M12.5 12.5C15.2614 12.5 17.5 10.2614 17.5 7.5C17.5 4.73857 15.2614 2.5 12.5 2.5C9.73858 2.5 7.5 4.73857 7.5 7.5C7.5 7.72807 7.51527 7.95257 7.54484 8.17253C7.59348 8.53433 7.6178 8.71525 7.60143 8.82967C7.58438 8.94892 7.56267 9.01308 7.50391 9.11825C7.4475 9.21917 7.34809 9.31858 7.14928 9.51742L2.89053 13.7762C2.7464 13.9203 2.67433 13.9923 2.6228 14.0764C2.57711 14.151 2.54344 14.2322 2.52303 14.3173C2.5 14.4132 2.5 14.5152 2.5 14.7189V16.1667C2.5 16.6334 2.5 16.8668 2.59082 17.045C2.67072 17.2018 2.79821 17.3293 2.95501 17.4092C3.13327 17.5 3.36662 17.5 3.83333 17.5H5.83333V15.8333H7.5V14.1667H9.16667L10.4826 12.8508C10.6814 12.6519 10.7808 12.5525 10.8817 12.4961C10.9869 12.4373 11.0511 12.4156 11.1703 12.3986C11.2847 12.3822 11.4657 12.4065 11.8275 12.4552C12.0474 12.4848 12.2719 12.5 12.5 12.5Z" stroke="#F7FAFC" stroke-width="1.25" stroke-linecap="round" stroke-linejoin="round"/>
</svg>
