<svg width="72" height="72" viewBox="0 0 72 72" fill="none" xmlns="http://www.w3.org/2000/svg">
<path fill-rule="evenodd" clip-rule="evenodd" d="M15.5117 26.2695C14.4222 26.2695 13.4183 26.8602 12.8892 27.8126L6 40.2132H9.08012L15.2952 28.5938H56.3515L62.6894 40.2132H65.6479L58.7587 27.8126C58.2296 26.8602 57.2257 26.2695 56.1362 26.2695H15.5117Z" fill="white" fill-opacity="0.15"/>
<path fill-rule="evenodd" clip-rule="evenodd" d="M35.8243 45.6329C38.6051 45.6329 40.8595 43.3786 40.8595 40.5977C40.8595 40.4676 40.8545 40.3386 40.8449 40.2109H65.6479V58.9997C65.6479 60.6565 64.3047 61.9997 62.6479 61.9997H9C7.34314 61.9997 6 60.6565 6 58.9997V40.2109H30.8037C30.794 40.3386 30.7891 40.4676 30.7891 40.5977C30.7891 43.3786 33.0434 45.6329 35.8243 45.6329Z" fill="white" fill-opacity="0.15"/>
<rect x="18.7109" y="11.5469" width="2.32394" height="10.8451" rx="1.16197" transform="rotate(-30 18.7109 11.5469)" fill="white" fill-opacity="0.15"/>
<rect x="34.6602" y="10" width="2.32394" height="10.8451" rx="1.16197" fill="white" fill-opacity="0.15"/>
<rect x="50.9219" y="10" width="2.32394" height="10.8451" rx="1.16197" transform="rotate(30 50.9219 10)" fill="white" fill-opacity="0.15"/>
</svg>
