<svg width="20" height="20" viewBox="0 0 20 20" fill="none" xmlns="http://www.w3.org/2000/svg">
<path d="M16.6654 9.99935V4.78979C16.6654 4.65718 16.6127 4.53001 16.5189 4.43623L13.8951 1.81247C13.8014 1.71869 13.6742 1.66602 13.5416 1.66602H3.83203C3.55589 1.66602 3.33203 1.88987 3.33203 2.16602V17.8327C3.33203 18.1088 3.55589 18.3327 3.83203 18.3327H10.832" stroke="#F7FAFC" stroke-width="1.25" stroke-linecap="round" stroke-linejoin="round"/>
<path d="M6.66797 8.33333H13.3346M6.66797 5H10.0013M6.66797 11.6667H9.16797" stroke="#F7FAFC" stroke-width="1.25" stroke-linecap="round" stroke-linejoin="round"/>
<path d="M13.332 1.66602V4.49935C13.332 4.77549 13.5559 4.99935 13.832 4.99935H16.6654" stroke="#F7FAFC" stroke-width="1.25" stroke-linecap="round" stroke-linejoin="round"/>
<path d="M16.6612 12.604L18.7907 13.1448C19.0124 13.2012 19.1687 13.4026 19.1619 13.6312C19.0188 18.4297 16.251 19.1665 16.251 19.1665C16.251 19.1665 13.4831 18.4297 13.3401 13.6312C13.3332 13.4026 13.4896 13.2012 13.7112 13.1448L15.8407 12.604C16.11 12.5357 16.392 12.5357 16.6612 12.604Z" stroke="#F7FAFC" stroke-width="1.25" stroke-linecap="round" stroke-linejoin="round"/>
</svg>
