<svg t="1672731208412" class="icon" viewBox="0 0 1024 1024" version="1.1" xmlns="http://www.w3.org/2000/svg" p-id="5443" width="200" height="200"><path d="M471.509333 77.482667a128 128 0 0 1 72.106667-2.56l8.874667 2.56 256 85.333333a128 128 0 0 1 87.253333 113.621333l0.256 7.808V512c0 101.632-44.501333 186.026667-103.168 253.056l-8.106667 9.045333-12.074666 12.8a618.24 618.24 0 0 1-24.96 24.192l-12.757334 11.434667-12.970666 11.008a839.338667 839.338667 0 0 1-127.701334 86.528l-19.498666 10.496-17.493334 8.96a101.376 101.376 0 0 1-90.496 0l-18.858666-9.642667c-40.106667-21.077333-93.866667-53.162667-145.92-96.341333l-12.928-11.008-12.8-11.434667a618.24 618.24 0 0 1-24.917334-24.192l-12.074666-12.8-8.106667-9.045333c-55.893333-63.872-98.901333-143.402667-102.869333-238.634667L128 512V284.245333A128 128 0 0 1 208.213333 165.546667l7.296-2.688 256-85.333334zM512 661.333333c-80.213333 0-151.082667 40.277333-193.408 101.717334 61.952 57.173333 132.224 97.152 176.554667 119.04a37.376 37.376 0 0 0 33.706666 0c44.373333-21.888 114.602667-61.866667 176.554667-119.04A234.410667 234.410667 0 0 0 512 661.333333z m-20.224-523.093333l-256 85.333333A64 64 0 0 0 192 284.202667V512c0 78.506667 32.853333 146.432 81.493333 204.16A298.24 298.24 0 0 1 512 597.333333a298.24 298.24 0 0 1 238.506667 118.826667C799.146667 658.432 832 590.506667 832 512V284.245333a64 64 0 0 0-43.776-60.714666l-256-85.333334a64 64 0 0 0-40.448 0zM512 298.666667a128 128 0 1 1 0 256 128 128 0 0 1 0-256z m0 64a64 64 0 1 0 0 128 64 64 0 0 0 0-128z" fill="#ffffff" p-id="5444"></path></svg>
