<svg t="1673538075130" class="icon" viewBox="0 0 1280 1024" version="1.1" xmlns="http://www.w3.org/2000/svg" p-id="1002" width="200" height="200"><path d="M640 576c105.856 0 201.856 43.072 271.392 112.608l-90.464 90.464c-46.368-46.368-110.368-75.072-180.928-75.072s-134.592 28.704-180.928 75.072l-90.464-90.464c69.536-69.536 165.536-112.608 271.392-112.608zM187.456 507.456c120.864-120.864 281.6-187.456 452.544-187.456s331.68 66.56 452.544 187.456l-90.496 90.496c-96.704-96.704-225.28-149.952-362.048-149.952s-265.344 53.248-362.048 149.952l-90.496-90.496zM988.768 134.432c106.688 45.12 202.528 109.728 284.768 192l0 0-90.496 90.496c-145.056-145.056-337.92-224.928-543.072-224.928s-398.016 79.872-543.072 224.928l-90.496-90.496c82.272-82.272 178.08-146.848 284.768-192 110.496-46.752 227.84-70.432 348.768-70.432s238.272 23.712 348.768 70.432zM576 896c0-35.36 28.64-64 64-64s64 28.64 64 64c0 35.36-28.64 64-64 64s-64-28.64-64-64z" fill="#ffffff" p-id="1003"></path></svg>
