<svg xmlns="http://www.w3.org/2000/svg" width="20" height="20" viewBox="0 0 20 20" fill="none">
  <path fill-rule="evenodd" clip-rule="evenodd" d="M3.33073 5.0013C4.25119 5.0013 4.9974 4.25509 4.9974 3.33464C4.9974 2.41416 4.25119 1.66797 3.33073 1.66797C2.41025 1.66797 1.66406 2.41416 1.66406 3.33464C1.66406 4.25509 2.41025 5.0013 3.33073 5.0013Z" stroke="white" stroke-width="1.25" stroke-linecap="round" stroke-linejoin="round"/>
  <path fill-rule="evenodd" clip-rule="evenodd" d="M4.16406 17.5C5.54477 17.5 6.66406 16.3807 6.66406 15C6.66406 13.6193 5.54477 12.5 4.16406 12.5C2.78335 12.5 1.66406 13.6193 1.66406 15C1.66406 16.3807 2.78335 17.5 4.16406 17.5Z" stroke="white" stroke-width="1.25" stroke-linecap="round" stroke-linejoin="round"/>
  <path fill-rule="evenodd" clip-rule="evenodd" d="M15.8359 18.332C17.2166 18.332 18.3359 17.2127 18.3359 15.832C18.3359 14.4513 17.2166 13.332 15.8359 13.332C14.4552 13.332 13.3359 14.4513 13.3359 15.832C13.3359 17.2127 14.4552 18.332 15.8359 18.332Z" stroke="white" stroke-width="1.25" stroke-linecap="round" stroke-linejoin="round"/>
  <path fill-rule="evenodd" clip-rule="evenodd" d="M9.16927 11.6667C11.0102 11.6667 12.5026 10.1743 12.5026 8.33333C12.5026 6.49237 11.0102 5 9.16927 5C7.32831 5 5.83594 6.49237 5.83594 8.33333C5.83594 10.1743 7.32831 11.6667 9.16927 11.6667Z" stroke="white" stroke-width="1.25" stroke-linecap="round" stroke-linejoin="round"/>
  <path fill-rule="evenodd" clip-rule="evenodd" d="M14.1667 5.0013C15.0871 5.0013 15.8333 4.25509 15.8333 3.33464C15.8333 2.41416 15.0871 1.66797 14.1667 1.66797C13.2462 1.66797 12.5 2.41416 12.5 3.33464C12.5 4.25509 13.2462 5.0013 14.1667 5.0013Z" stroke="white" stroke-width="1.25" stroke-linecap="round" stroke-linejoin="round"/>
  <path d="M4.58594 4.58203L6.2526 6.2487" stroke="white" stroke-width="1.25" stroke-linecap="round" stroke-linejoin="round"/>
  <path d="M12.4974 5L11.6641 5.83333" stroke="white" stroke-width="1.25" stroke-linecap="round" stroke-linejoin="round"/>
  <path d="M14.1641 13.957L11.6641 10.832" stroke="white" stroke-width="1.25" stroke-linecap="round" stroke-linejoin="round"/>
  <path d="M5.83594 12.9167L7.5026 11.25" stroke="white" stroke-width="1.25" stroke-linecap="round" stroke-linejoin="round"/>
</svg>
