<svg width="20" height="20" viewBox="0 0 20 20" fill="none" xmlns="http://www.w3.org/2000/svg">
  <path
    d="M16.6654 9.9974V4.78784C16.6654 4.65523 16.6127 4.52805 16.5189 4.43428L13.8951 1.81051C13.8014 1.71674 13.6742 1.66406 13.5416 1.66406H3.83203C3.55589 1.66406 3.33203 1.88792 3.33203 2.16406V17.8307C3.33203 18.1069 3.55589 18.3307 3.83203 18.3307H10.832"
    stroke="white" stroke-width="1.25" stroke-linecap="round" stroke-linejoin="round" />
  <path d="M16.6654 7.5V17.8307C16.6654 18.1069 16.4415 18.3307 16.1654 18.3307H9.16537" stroke="white"
    stroke-width="1.25" stroke-linecap="round" stroke-linejoin="round" />
  <path d="M6.66797 11.8807H13.3346M6.66797 8.54736H13.3346" stroke="white" stroke-width="1.25" stroke-linecap="round"
    stroke-linejoin="round" />
  <path d="M13.332 1.66406V4.4974C13.332 4.77354 13.5559 4.9974 13.832 4.9974H16.6654" stroke="white"
    stroke-width="1.25" stroke-linecap="round" stroke-linejoin="round" />
</svg>