<svg width="17" height="15" viewBox="0 0 17 15" fill="none" xmlns="http://www.w3.org/2000/svg">
<path d="M1 11.9973C1.76139 12.4051 7.27292 15.4825 11.1921 13.1107C15.1112 10.7388 14.895 6.65244 14.895 4.77994C15.25 4.05951 16 3.69326 16 1.74322C15.2633 2.40239 14.5311 2.62668 13.8033 2.41608C13.0903 1.36307 12.1093 0.897326 10.8603 1.01886C8.98683 1.20117 8.30141 2.98154 8.50312 5.28492C5.61443 6.69989 3.34928 4.25918 2.18191 2.41608C1.79187 3.86761 1.41578 5.61026 2.18191 7.53805C2.69267 8.82321 3.92046 9.90975 5.86529 10.7976C3.89433 11.8324 2.27256 12.2322 1 11.9973Z" stroke="white" stroke-width="1.25" stroke-linejoin="round"/>
</svg>
