<svg t="1672731065792" class="icon" viewBox="0 0 1027 1024" version="1.1" xmlns="http://www.w3.org/2000/svg" p-id="3983" width="200" height="200"><path d="M1025.1264 98.7136C992.1536 145.5104 957.5424 181.9648 921.1904 207.872l0 26.0096c0 152.4736-54.1696 290.2016-162.4064 413.2864C650.4448 770.2528 505.344 831.6928 323.3792 831.6928c-117.8624 0-225.28-31.232-322.2528-93.5936 10.3424 1.7408 26.8288 2.56 49.3568 2.56 97.0752 0 184.5248-30.3104 262.4512-90.9312-45.056-1.6384-85.8112-15.9744-122.1632-42.9056C154.4192 579.9936 129.3312 545.792 115.5072 504.2176c17.3056 3.4816 30.3104 5.2224 39.0144 5.2224 19.0464 0 38.0928-2.56 57.1392-7.7824C163.1232 492.9536 122.88 469.0944 90.8288 430.08c-32.0512-39.0144-48.128-83.5584-48.128-133.8368L42.7008 291.1232C77.312 310.1696 108.544 319.6928 136.2944 319.6928 75.6736 278.1184 45.2608 219.2384 45.2608 142.9504c0-39.8336 8.704-74.4448 26.0096-103.936 112.64 136.9088 257.3312 209.6128 434.0736 218.3168C501.8624 236.544 500.1216 220.8768 500.1216 210.5344c0-58.88 20.3776-108.7488 61.0304-149.4016C601.9072 20.3776 651.776 0 710.656 0c62.3616 0 113.4592 21.7088 153.2928 64.9216C912.4864 54.5792 956.7232 38.0928 996.5568 15.5648 980.8896 65.8432 950.5792 103.936 905.5232 129.9456 945.4592 124.7232 985.2928 114.3808 1025.1264 98.7136z" p-id="3984" fill="#ffffff"></path></svg>
