<svg width="14" height="14" viewBox="0 0 14 14" fill="none" xmlns="http://www.w3.org/2000/svg">
<path d="M12.9878 5.95253C12.9935 5.98097 13.1155 6.64116 13.1155 7.16134C13.1155 7.69203 12.9895 8.36316 12.9878 8.36972C12.916 8.75034 12.685 8.99753 12.3893 8.99753H12.3376C11.5116 8.99753 10.841 9.67522 10.841 10.5091C10.841 10.7777 10.97 11.0835 10.9713 11.0862C11.1192 11.4217 11.005 11.833 10.687 12.0557L9.12552 12.925C8.96623 12.9901 8.7909 13.0053 8.6228 12.9684C8.45471 12.9315 8.30182 12.8443 8.18445 12.7185C8.0147 12.5312 7.4267 11.9948 6.96733 11.9948C6.54383 11.9948 5.9707 12.4726 5.75895 12.7049C5.60802 12.8707 5.37439 12.9696 5.13683 12.9696C5.02308 12.9696 4.91545 12.9477 4.79733 12.8952L3.29233 12.0434C3.14639 11.937 3.04088 11.7843 2.99303 11.6102C2.94519 11.436 2.95785 11.2508 3.02895 11.0848C3.03027 11.0822 3.15933 10.779 3.15933 10.5091C3.15933 9.67653 2.48864 8.99753 1.66308 8.99753H1.60052C1.31527 8.99753 1.08427 8.75166 1.01252 8.36972C1.00683 8.34128 0.884766 7.67847 0.884766 7.16134C0.884766 6.64247 1.00727 5.98009 1.01252 5.95253C1.08427 5.57103 1.31395 5.32516 1.6097 5.32516H1.66133C2.48733 5.32516 3.15802 4.64703 3.15802 3.81359C3.15802 3.54059 3.02895 3.23916 3.02764 3.23609C2.87977 2.90097 2.99395 2.48797 3.31289 2.26528L4.9032 1.38678C5.0012 1.34434 5.10708 1.32422 5.2182 1.32422C5.4562 1.32422 5.68808 1.42047 5.84033 1.58366C6.00745 1.75997 6.58452 2.26528 7.03033 2.26528C7.47133 2.26528 8.04577 1.77091 8.21158 1.59722C8.36383 1.43841 8.59439 1.34347 8.82933 1.34347C8.94352 1.34347 9.05245 1.36491 9.17058 1.41653L10.7049 2.28016C11.0037 2.49059 11.1179 2.90228 10.97 3.23916C10.9687 3.24178 10.8396 3.54453 10.8396 3.81491C10.8396 4.64747 11.5116 5.32647 12.3359 5.32647H12.3985C12.685 5.32516 12.916 5.57103 12.9878 5.95253ZM9.16883 7.32672C9.16883 6.12097 8.1967 5.14053 7.0032 5.14053C5.80883 5.14053 4.8367 6.12053 4.8367 7.32672C4.8367 8.53291 5.80795 9.51334 7.00277 9.51334C8.19802 9.51334 9.16883 8.53291 9.16883 7.32672Z" fill="white"/>
</svg>
