<svg width="16" height="16" viewBox="0 0 16 16" fill="none" xmlns="http://www.w3.org/2000/svg">
  <path
    d="M8 14.5C7.12089 14.5 6.27159 14.3288 5.46988 13.9895H10.5301C9.72841 14.3288 8.87911 14.5 8 14.5ZM5.46985 13.9895C4.69496 13.6616 4.00037 13.1933 3.40355 12.5964C2.80673 11.9996 2.33841 11.305 2.01046 10.5301C1.67122 9.72841 1.5 8.87911 1.5 8C1.5 7.12089 1.67122 6.27159 2.01046 5.46988L5.46985 13.9895ZM12.5964 12.5964C11.9996 13.1933 11.305 13.6616 10.5302 13.9895L13.9895 10.5302C13.6616 11.305 13.1933 11.9996 12.5964 12.5964ZM14.5 8C14.5 8.87911 14.3288 9.72841 13.9895 10.5301V5.46988C14.3288 6.27159 14.5 7.12089 14.5 8ZM12.5964 3.40355C13.1933 4.00037 13.6616 4.69496 13.9895 5.46985L5.46988 2.01046C6.27159 1.67122 7.12089 1.5 8 1.5C8.87911 1.5 9.72841 1.67122 10.5301 2.01046C11.305 2.33841 11.9996 2.80673 12.5964 3.40355ZM3.40355 3.40355C4.00037 2.80674 4.69496 2.33842 5.46985 2.01047L2.01047 5.46985C2.33842 4.69496 2.80674 4.00037 3.40355 3.40355Z"
    stroke="white" />
  <path
    d="M7.36783 11H7.36449C7.21781 10.9984 7.07779 10.9422 6.97778 10.8422L5.14407 9.0015C4.94238 8.79994 4.95405 8.48274 5.16907 8.29524C5.3841 8.10618 5.72248 8.11711 5.92251 8.31868L7.37283 9.77341L11.0833 6.15303C11.2867 5.95459 11.6251 5.94834 11.8367 6.13897C12.0484 6.3296 12.0551 6.64679 11.8517 6.84523L7.75121 10.8453C7.65286 10.9453 7.51285 11 7.36783 11Z"
    fill="white" />
</svg>