<svg width="16" height="16" viewBox="0 0 16 16" fill="none" xmlns="http://www.w3.org/2000/svg">
  <g opacity="0.6" clip-path="url(#clip0_45140_93878)">
    <path
      d="M9.45312 7.28416H10.1678C10.5468 7.28416 10.9104 7.43474 11.1784 7.70279C11.4465 7.97083 11.5971 8.33438 11.5971 8.71345V10.8574C11.5971 11.1417 11.71 11.4143 11.911 11.6154C12.1121 11.8164 12.3847 11.9293 12.669 11.9293C12.9533 11.9293 13.226 11.8164 13.427 11.6154C13.6281 11.4143 13.741 11.1417 13.741 10.8574V5.85487L11.5971 3.71094"
      stroke="white" stroke-width="1.14286" stroke-linecap="round" stroke-linejoin="round" />
    <path
      d="M2.30859 13.7234V3.71835C2.30859 3.33928 2.45918 2.97573 2.72722 2.70769C2.99527 2.43965 3.35881 2.28906 3.73788 2.28906H8.02575C8.40482 2.28906 8.76836 2.43965 9.03641 2.70769C9.30445 2.97573 9.45504 3.33928 9.45504 3.71835V13.7234"
      stroke="white" stroke-width="1.14286" stroke-linecap="round" stroke-linejoin="round" />
    <path d="M1.59375 13.7109H10.1695" stroke="white" stroke-width="1.14286" stroke-linecap="round"
      stroke-linejoin="round" />
    <path d="M4.57227 6.85938L6.85798 6.85937" stroke="white" stroke-width="1.14286"
      stroke-linecap="round" stroke-linejoin="round" />
  </g>
  <defs>
    <clipPath id="clip0_45140_93878">
      <rect width="16" height="16" fill="white" />
    </clipPath>
  </defs>
</svg>