<svg width="60" height="52" viewBox="0 0 60 52" fill="none" xmlns="http://www.w3.org/2000/svg">
  <path fill-rule="evenodd" clip-rule="evenodd"
    d="M9.51169 16.2676C8.42219 16.2676 7.41833 16.8583 6.88922 17.8106L0 30.2112H3.08061L9.29566 18.5918H50.352L56.6899 30.2112H59.6479L52.7587 17.8106C52.2296 16.8583 51.2257 16.2676 50.1362 16.2676H9.51169Z"
    fill="white" fill-opacity="0.15" />
  <path fill-rule="evenodd" clip-rule="evenodd"
    d="M29.8238 35.6349C32.6047 35.6349 34.859 33.3805 34.859 30.5997C34.859 30.4692 34.854 30.3399 34.8443 30.2119H59.6479V49.0007C59.6479 50.6575 58.3047 52.0006 56.6479 52.0006H3C1.34314 52.0006 0 50.6575 0 49.0006V30.2119H24.8033C24.7935 30.3399 24.7886 30.4692 24.7886 30.5997C24.7886 33.3805 27.0429 35.6349 29.8238 35.6349Z"
    fill="white" fill-opacity="0.15" />
  <rect x="12.7124" y="1.54883" width="2.32394" height="10.8451" rx="1.16197"
    transform="rotate(-30 12.7124 1.54883)" fill="white" fill-opacity="0.15" />
  <rect x="28.6619" width="2.32394" height="10.8451" rx="1.16197" fill="white" fill-opacity="0.15" />
  <rect x="44.9233" width="2.32394" height="10.8451" rx="1.16197" transform="rotate(30 44.9233 0)"
    fill="white" fill-opacity="0.15" />
</svg>
