<svg width="16" height="16" viewBox="0 0 16 16" fill="none" xmlns="http://www.w3.org/2000/svg">
  <path
    d="M11.5975 1.994C11.7169 2.06566 11.8029 2.18182 11.8367 2.31692C11.8704 2.45202 11.8491 2.59499 11.7775 2.71439C11.7058 2.83379 11.5896 2.91982 11.4545 2.95358C11.3194 2.98733 11.1765 2.96604 11.0571 2.89438C10.1338 2.34007 9.07686 2.04814 8 2.05C4.71385 2.05 2.05 4.71385 2.05 8C2.05 11.2862 4.71385 13.95 8 13.95C11.2861 13.95 13.95 11.2861 13.95 8C13.9519 6.92329 13.6601 5.86645 13.106 4.94327C13.0705 4.88416 13.047 4.81863 13.0369 4.75044C13.0267 4.68224 13.0301 4.61272 13.0468 4.54583C13.0635 4.47894 13.0933 4.41601 13.1343 4.36061C13.1754 4.30522 13.2269 4.25845 13.286 4.22298C13.3452 4.1875 13.4107 4.16402 13.4789 4.15388C13.5471 4.14373 13.6166 4.14711 13.6835 4.16383C13.7504 4.18056 13.8133 4.21029 13.8687 4.25133C13.9241 4.29238 13.9709 4.34393 14.0063 4.40305C14.6584 5.48941 15.0019 6.73298 15 8C15 11.8659 11.8659 15 8 15C4.13407 15 1 11.8659 1 8C1 4.13408 4.13407 1 8 1C9.2845 1 10.5195 1.34703 11.5975 1.994Z"
    fill="#FFC55C" />
</svg>