<svg width="150" height="130" viewBox="0 0 150 130" fill="none" xmlns="http://www.w3.org/2000/svg">
  <g opacity="0.03">
    <path
      d="M148.962 74.348C154.842 61.1664 125.77 24.3391 97.9956 8.99613C80.4886 -2.8899 62.2465 -1.25696 58.5519 3.9619C50.4437 15.4152 85.4003 25.1201 108.779 36.4451C103.753 38.6351 99.0174 42.5652 96.2326 47.5913C87.5169 38.0441 68.3873 29.8225 45.9407 36.4451C30.8144 40.9079 18.2433 51.4292 13.3846 67.3204C12.2041 66.794 10.897 66.5015 9.52176 66.5015C4.26304 66.5015 0 70.7789 0 76.0554C0 81.3318 4.26304 85.6092 9.52176 85.6092C10.4965 85.6092 13.5442 84.9532 13.5442 84.9532L62.2465 85.3073C42.7694 116.31 27.3769 120.842 27.3769 126.213C27.3769 131.584 42.1047 130.129 47.6347 128.127C74.1073 118.543 102.54 88.673 107.419 80.0746C127.908 82.6395 145.127 82.9428 148.962 74.348Z"
      fill="url(#paint0_linear_40537_80225)" />
    <path fill-rule="evenodd" clip-rule="evenodd"
      d="M108.777 36.4475C108.778 36.4481 108.779 36.4486 108.78 36.4491C109.864 36.0209 109.689 34.415 109.391 33.154C108.707 30.2555 96.9073 18.5641 85.8265 13.3275C70.729 6.19265 59.6112 6.55969 57.9668 9.84756C61.0417 16.1728 75.3008 22.1114 90.1932 28.3136C96.5466 30.9597 103.015 33.6537 108.78 36.4462C108.779 36.4466 108.778 36.4471 108.777 36.4475Z"
      fill="url(#paint1_linear_40537_80225)" />
    <path fill-rule="evenodd" clip-rule="evenodd"
      d="M89.6167 100.104C86.563 98.933 83.1134 97.8587 79.1916 96.8839C83.3729 89.3768 84.2503 78.2633 80.3013 71.2367C74.7594 61.3756 67.8025 56.1269 51.6366 56.127C42.7452 56.127 18.8059 59.1319 18.3809 79.1833C18.3363 81.2876 18.3798 83.2161 18.5316 84.9896L62.2465 85.3074C56.3534 94.6878 50.8341 101.645 46.0021 106.935C51.8035 108.427 56.5912 109.679 60.9866 110.829C65.1577 111.92 68.9756 112.918 72.9715 113.941C78.999 109.535 84.6653 104.731 89.6167 100.104Z"
      fill="url(#paint2_linear_40537_80225)" />
    <path
      d="M12.8008 82.9285C14.5867 98.1606 23.2143 104.13 40.8441 105.897C58.4738 107.663 68.5865 106.478 82.0499 107.707C93.2944 108.734 103.334 114.483 107.059 112.496C110.411 110.708 108.536 104.248 104.05 100.103C98.2363 94.7307 90.1894 90.9953 76.0305 89.6697C78.8522 81.9178 78.0615 71.0486 73.6792 65.1351C67.3427 56.5848 55.6468 52.719 40.8441 54.408C25.3786 56.1726 10.5597 63.8123 12.8008 82.9285Z"
      fill="url(#paint3_linear_40537_80225)" />
  </g>
  <defs>
    <linearGradient id="paint0_linear_40537_80225" x1="44.1794" y1="62.675" x2="147.747"
      y2="91.9461" gradientUnits="userSpaceOnUse">
      <stop stop-color="white" />
      <stop offset="1" stop-color="white" />
    </linearGradient>
    <linearGradient id="paint1_linear_40537_80225" x1="130.264" y1="60.7013" x2="55.3207"
      y2="-14.172" gradientUnits="userSpaceOnUse">
      <stop stop-color="#8697FF" />
      <stop offset="1" stop-color="#8697FF" stop-opacity="0" />
    </linearGradient>
    <linearGradient id="paint2_linear_40537_80225" x1="91.6948" y1="102.721" x2="19.8252"
      y2="61.5397" gradientUnits="userSpaceOnUse">
      <stop stop-color="#8697FF" />
      <stop offset="1" stop-color="#8697FF" stop-opacity="0" />
    </linearGradient>
    <linearGradient id="paint3_linear_40537_80225" x1="50.3589" y1="61.8995" x2="99.0579"
      y2="123.569" gradientUnits="userSpaceOnUse">
      <stop stop-color="white" />
      <stop offset="0.983895" stop-color="#D1D8FF" />
    </linearGradient>
  </defs>
</svg>