<svg width="79" height="69" viewBox="0 0 79 69" fill="none" xmlns="http://www.w3.org/2000/svg">
  <g opacity="0.03">
    <path
      d="M78.3244 39.7086C81.4164 32.7777 66.1301 13.4138 51.5263 5.3464C42.3211 -0.903306 32.7294 -0.0447006 30.7867 2.69939C26.5234 8.72157 44.9037 13.8244 57.1961 19.7791C54.5537 20.9306 52.0636 22.9971 50.5993 25.6399C46.0166 20.6199 35.9582 16.2969 24.1557 19.7791C16.2023 22.1257 9.59237 27.6578 7.03768 36.0135C6.41693 35.7367 5.72965 35.5829 5.00657 35.5829C2.24152 35.5829 0 37.8319 0 40.6063C0 43.3807 2.24152 45.6298 5.00657 45.6298C5.51909 45.6298 7.12157 45.2848 7.12157 45.2848L32.7294 45.471C22.4882 61.7723 14.3949 64.1553 14.3949 66.9794C14.3949 69.8035 22.1388 69.0382 25.0465 67.9855C38.9658 62.9462 53.9158 47.2407 56.4812 42.7196C67.2544 44.0683 76.3082 44.2278 78.3244 39.7086Z"
      fill="url(#paint0_linear_40537_80225)" />
    <path fill-rule="evenodd" clip-rule="evenodd"
      d="M57.1943 19.7808C57.195 19.7811 57.1957 19.7814 57.1964 19.7817C57.7661 19.5565 57.674 18.7122 57.5176 18.0491C57.158 16.5251 50.9535 10.3777 45.1272 7.6243C37.1889 3.87278 31.3432 4.06576 30.4785 5.79453C32.0954 9.12032 39.5928 12.2428 47.4232 15.5039C50.7638 16.8952 54.165 18.3117 57.1961 19.78C57.1955 19.7803 57.1949 19.7806 57.1943 19.7808Z"
      fill="url(#paint1_linear_40537_80225)" />
    <path fill-rule="evenodd" clip-rule="evenodd"
      d="M47.12 53.2502C45.5143 52.6345 43.7005 52.0696 41.6384 51.557C43.837 47.6098 44.2983 41.7663 42.222 38.0717C39.308 32.8867 35.65 30.1269 27.1499 30.127C22.4749 30.127 9.88748 31.707 9.66401 42.25C9.64056 43.3565 9.66343 44.3705 9.74328 45.303L32.7287 45.4701C29.63 50.4024 26.728 54.0604 24.1873 56.8421C27.2378 57.6263 29.7551 58.2848 32.0662 58.8893C34.2594 59.463 36.2669 59.988 38.3679 60.526C41.5372 58.2091 44.5165 55.6829 47.12 53.2502Z"
      fill="url(#paint2_linear_40537_80225)" />
    <path
      d="M6.73062 44.2196C7.66961 52.2287 12.206 55.3674 21.4758 56.2963C30.7456 57.2252 36.0629 56.6021 43.1419 57.2483C49.0544 57.788 54.3335 60.8111 56.2919 59.7664C58.0544 58.8262 57.0684 55.4294 54.7099 53.2501C51.6528 50.4253 47.4218 48.4612 39.9769 47.7642C41.4606 43.6882 41.0449 37.9732 38.7406 34.8638C35.4089 30.368 29.2592 28.3354 21.4758 29.2235C13.344 30.1513 5.55221 34.1683 6.73062 44.2196Z"
      fill="url(#paint3_linear_40537_80225)" />
  </g>
  <defs>
    <linearGradient id="paint0_linear_40537_80225" x1="23.2296" y1="33.5709" x2="77.6857"
      y2="48.9617" gradientUnits="userSpaceOnUse">
      <stop stop-color="white" />
      <stop offset="1" stop-color="white" />
    </linearGradient>
    <linearGradient id="paint1_linear_40537_80225" x1="68.4926" y1="32.5336" x2="29.0872"
      y2="-6.83503" gradientUnits="userSpaceOnUse">
      <stop stop-color="#8697FF" />
      <stop offset="1" stop-color="#8697FF" stop-opacity="0" />
    </linearGradient>
    <linearGradient id="paint2_linear_40537_80225" x1="48.2127" y1="54.6262" x2="10.4235"
      y2="32.973" gradientUnits="userSpaceOnUse">
      <stop stop-color="#8697FF" />
      <stop offset="1" stop-color="#8697FF" stop-opacity="0" />
    </linearGradient>
    <linearGradient id="paint3_linear_40537_80225" x1="26.4788" y1="33.1625" x2="52.0848"
      y2="65.5883" gradientUnits="userSpaceOnUse">
      <stop stop-color="white" />
      <stop offset="0.983895" stop-color="#D1D8FF" />
    </linearGradient>
  </defs>
</svg>
