<svg width="17" height="17" viewBox="0 0 17 17" fill="none" xmlns="http://www.w3.org/2000/svg">
  <path
    d="M12.1974 7.74411C12.1974 9.10755 11.6774 10.3563 10.8163 11.3178C10.8163 11.3178 13.906 14.2708 14.4867 14.8135C14.9638 15.2591 14.4166 15.9513 13.8 15.3253C13.4288 14.9482 10.1903 11.916 10.1903 11.916C9.18118 12.7453 7.86852 13.2464 6.43266 13.2464C3.24887 13.2464 0.667969 10.7823 0.667969 7.74409C0.667969 4.70583 3.24887 2.24219 6.43266 2.24219C9.61647 2.24219 12.1974 4.70584 12.1974 7.74409V7.74411ZM6.43264 3.1143C3.75426 3.1143 1.58212 5.18741 1.58212 7.74371C1.58212 10.3008 3.75426 12.3739 6.43264 12.3739C9.11187 12.3739 11.284 10.3008 11.284 7.74371C11.284 5.18741 9.11189 3.1143 6.43264 3.1143V3.1143Z"
    fill="#707280" />
</svg>
