<svg width="16" height="15" viewBox="0 0 16 15" fill="none" xmlns="http://www.w3.org/2000/svg">
  <path
    d="M12.8041 6.36296C12.8041 7.7665 12.2681 9.05201 11.3805 10.0417C11.3805 10.0417 14.5653 13.0816 15.1638 13.6403C15.6557 14.099 15.0915 14.8115 14.456 14.1671C14.0734 13.7789 10.7352 10.6576 10.7352 10.6576C9.69508 11.5112 8.34203 12.0271 6.86199 12.0271C3.58023 12.0271 0.919922 9.49055 0.919922 6.36295C0.919922 3.23532 3.58023 0.699219 6.86199 0.699219C10.1438 0.699219 12.8041 3.23534 12.8041 6.36295V6.36296ZM6.86197 1.59698C4.10117 1.59698 1.8622 3.73106 1.8622 6.36255C1.8622 8.99488 4.10117 11.129 6.86197 11.129C9.62364 11.129 11.8626 8.99487 11.8626 6.36255C11.8626 3.73106 9.62366 1.59698 6.86197 1.59698Z"
    fill="#D9D9D9" />
</svg>