<svg width="32" height="32" viewBox="0 0 32 32" fill="none" xmlns="http://www.w3.org/2000/svg">
  <rect width="32" height="32" rx="16" fill="#FFEAF7" />
  <path fill-rule="evenodd" clip-rule="evenodd"
    d="M12.901 12.2844C12.8545 12.4638 12.7733 12.6322 12.6621 12.7803C12.4551 13.0501 12.1811 13.2606 11.8676 13.3906C11.5856 13.5127 11.287 13.5916 10.9817 13.6247C10.9189 13.6327 10.8539 13.6376 10.7908 13.6424L10.7806 13.6432C10.5872 13.6506 10.4013 13.72 10.25 13.8411C10.0988 13.9624 9.99012 14.1291 9.93995 14.3167C9.91701 14.4101 9.8999 14.5049 9.88886 14.6005C9.87128 14.7446 9.86226 14.8921 9.85246 15.0517C9.84546 15.1662 9.83799 15.287 9.82679 15.4171C9.76115 15.9472 9.60847 16.4627 9.37507 16.9427C9.32739 17.0436 9.27878 17.1414 9.23095 17.2375C8.97506 17.7523 8.74383 18.2174 8.81018 18.8404C8.86213 19.3203 9.10689 19.6419 9.43208 19.9736C9.58654 20.1323 9.79132 20.2679 10.0039 20.4086C10.5989 20.8025 11.2548 21.2368 11.0387 22.331C10.8618 23.2175 9.39855 24.1479 7.34184 24.4728C7.54133 24.4424 7.1019 23.6892 7.05313 23.6056L7.05018 23.6006C6.99348 23.5114 6.93538 23.4235 6.87743 23.3357C6.71006 23.0824 6.54331 22.8303 6.41327 22.5508C6.06965 21.8208 5.91036 20.9763 6.05114 20.1765C6.17869 19.4526 6.65515 18.8743 7.1138 18.3175C7.18862 18.2268 7.26289 18.1366 7.33515 18.0465C7.94865 17.2812 8.59233 16.2784 8.73473 15.285C8.74679 15.1986 8.75752 15.1045 8.7688 15.0055C8.78902 14.8283 8.81095 14.6353 8.84541 14.443C8.89651 14.111 9.00011 13.7893 9.15216 13.49C9.25591 13.2937 9.39257 13.1169 9.55613 12.9672C9.64137 12.8877 9.6976 12.7817 9.71588 12.6663C9.73408 12.551 9.71324 12.4328 9.65669 12.3306L6.37803 6.40688L11.0873 12.2448C11.141 12.3124 11.2087 12.3674 11.2859 12.4058C11.363 12.4441 11.4476 12.465 11.5337 12.4668C11.6198 12.4687 11.7052 12.4515 11.7839 12.4164C11.8626 12.3814 11.9327 12.3294 11.9891 12.2641C12.0488 12.1943 12.0826 12.1059 12.0849 12.0138C12.0872 11.9218 12.0578 11.8318 12.0017 11.759C11.7827 11.4779 11.5548 11.193 11.328 10.9093C11.2363 10.7946 11.1446 10.6799 11.0538 10.566L9.86871 9.09265L7.49016 6.15092L6.05108 4L7.79527 5.88741L10.3271 8.69941L11.5902 10.1088C11.7063 10.2401 11.8223 10.3702 11.9383 10.5002C12.2413 10.84 12.5443 11.1797 12.8473 11.5401L12.9161 11.6243L12.9312 11.7548C12.9515 11.9317 12.9413 12.1109 12.901 12.2844ZM25.0124 14.2642L25.0174 14.2718C25.0165 13.6437 24.6293 12.6073 23.8457 11.6104L23.8273 11.586C23.5859 11.2863 23.3228 11.0049 23.0403 10.7441C22.9875 10.6927 22.9305 10.6422 22.8727 10.5917C22.5106 10.2745 22.1149 9.99835 21.6927 9.76829L21.6625 9.75313C20.3358 9.02739 18.6093 8.6536 16.4805 9.07453C16.1946 8.72586 15.8867 8.39601 15.5586 8.087C15.0562 7.60603 14.4647 7.22882 13.8179 6.97651C13.1768 6.74077 12.4902 6.65662 11.8114 6.73066C12.4657 6.78985 13.103 6.97262 13.6896 7.26949C14.2562 7.57446 14.7665 7.97485 15.1982 8.45325C15.6357 8.94161 16.047 9.45306 16.4302 9.98552L16.5264 10.1113C16.9013 10.6018 17.283 11.1012 17.7586 11.5456C18.0204 11.793 18.3124 12.0061 18.6277 12.1796C18.7115 12.2225 18.7962 12.2629 18.8792 12.2983C18.9621 12.3337 19.04 12.3665 19.1239 12.3968C19.2856 12.4599 19.4532 12.5122 19.6209 12.5601C20.2914 12.7521 20.9777 12.8211 21.6482 12.8582C21.7415 12.8631 21.8346 12.8677 21.9273 12.8723C22.1668 12.8842 22.4042 12.8959 22.638 12.9129C22.9583 12.932 23.276 12.9822 23.5867 13.0627C24.0535 13.185 24.4644 13.4643 24.7509 13.8541C24.8483 13.984 24.9357 14.121 25.0124 14.2642ZM23.0498 10.7451C23.0161 10.7138 22.9818 10.6829 22.9477 10.652C22.9257 10.6322 22.9038 10.6124 22.8822 10.5926C22.8989 10.608 22.9156 10.6234 22.9323 10.639C22.9717 10.6755 23.011 10.712 23.0498 10.7451ZM22.2117 16.9455C20.0556 16.0666 17.8003 15.1472 18.136 12.5669C18.8559 13.339 19.9859 13.5009 21.215 13.6771C22.3299 13.8368 23.5262 14.0083 24.5719 14.6574C27.0392 16.188 26.6788 19.1616 25.8407 20.2562C25.9163 18.4555 24.1022 17.7161 22.2117 16.9455ZM13.5251 15.654C14.0942 15.5993 15.307 15.3021 14.7647 14.3431C14.6481 14.148 14.479 13.99 14.2769 13.887C14.0749 13.7841 13.848 13.7406 13.6224 13.7613C13.3935 13.7861 13.1776 13.8809 13.0041 14.033C12.8307 14.1851 12.7079 14.3871 12.6527 14.6117C12.4843 15.2389 12.6627 15.7382 13.5251 15.654ZM13.3616 8.0667C13.0046 7.65246 12.4506 7.43524 11.9075 7.35614C11.8872 7.49201 11.8743 7.6289 11.869 7.76617C11.8446 8.89681 12.2444 10.1387 13.018 11.0017C13.2654 11.2807 13.5639 11.5092 13.8971 11.6752C14.0899 11.7695 14.6012 12.0035 14.7906 11.793C14.8049 11.7738 14.814 11.751 14.8168 11.727C14.8196 11.7031 14.8161 11.6788 14.8065 11.6567C14.7751 11.5666 14.7145 11.4847 14.6543 11.4035C14.6116 11.346 14.5691 11.2887 14.5375 11.2289C14.5054 11.1687 14.4711 11.1099 14.4369 11.0513C14.3726 10.941 14.3084 10.8309 14.2592 10.7112C14.1293 10.3977 14.0617 10.0643 13.9943 9.73197C13.9808 9.66555 13.9673 9.59874 13.9533 9.53247C13.8502 9.01977 13.7186 8.48094 13.3616 8.0667ZM20.9896 17.0861C20.4357 18.6388 21.329 19.9501 22.217 21.2538C23.2103 22.7121 24.1971 24.1606 23.1443 25.9263C25.1901 25.0777 26.1614 22.514 25.3124 20.48C24.7775 19.1934 23.4881 18.4959 22.2913 17.8486C21.827 17.5974 21.3765 17.3537 20.9896 17.0861ZM15.003 20.7924C14.6322 20.9444 14.2826 21.1439 13.9629 21.386C14.6899 21.1211 15.4531 20.9698 16.2258 20.9372C16.3658 20.9289 16.5068 20.9223 16.6489 20.9157C16.8946 20.9044 17.1444 20.8929 17.3991 20.8716C17.8167 20.8431 18.2286 20.7581 18.6235 20.6189C19.0375 20.4735 19.4141 20.2377 19.7265 19.9286C20.0421 19.6095 20.2634 19.2088 20.3659 18.7709C20.4562 18.3573 20.4435 17.9277 20.3291 17.5203C20.2146 17.1127 20.0019 16.7399 19.7097 16.4346C19.8507 16.7937 19.9374 17.172 19.967 17.5569C19.9925 17.9152 19.944 18.2749 19.8245 18.6135C19.7079 18.9344 19.5172 19.2229 19.2681 19.4554C19.0107 19.6902 18.7127 19.8756 18.3889 20.0026C17.9388 20.1848 17.4298 20.2593 16.8997 20.3369C16.6579 20.3723 16.4116 20.4084 16.1645 20.4556C15.7672 20.5287 15.378 20.6416 15.003 20.7924ZM21.43 27.2022L21.3945 27.2309C21.3007 27.3065 21.2055 27.3836 21.103 27.4528C20.9722 27.5392 20.8352 27.6159 20.6932 27.6817C20.3972 27.8268 20.072 27.9008 19.7427 27.8981C18.851 27.8813 18.2207 27.2145 17.852 26.461C17.7553 26.2635 17.6701 26.0599 17.585 25.8562C17.4486 25.5304 17.3123 25.2045 17.1287 24.9034C16.7021 24.2038 15.9721 23.6406 15.1173 23.7449C14.7686 23.7887 14.4417 23.9461 14.2481 24.2501C13.7385 25.044 14.4703 26.1562 15.403 25.9987C15.4824 25.9866 15.56 25.9651 15.6343 25.9348C15.7085 25.9031 15.7776 25.8608 15.8397 25.8093C15.97 25.7003 16.0682 25.5577 16.1238 25.3968C16.1851 25.229 16.1987 25.0474 16.1632 24.8723C16.125 24.6892 16.0173 24.5284 15.8632 24.4235C16.0424 24.5078 16.1821 24.6588 16.2529 24.8445C16.3262 25.0356 16.3451 25.2434 16.3073 25.4448C16.2707 25.6545 16.1787 25.8505 16.0408 26.0123C15.9676 26.0954 15.8829 26.1677 15.7894 26.2269C15.6967 26.2854 15.5974 26.3326 15.4936 26.3675C15.283 26.4398 15.059 26.4631 14.8382 26.4358C14.5281 26.3913 14.2358 26.264 13.9917 26.0669C13.9466 26.0312 13.9034 25.9937 13.8614 25.9548C13.6954 25.8109 13.5447 25.6498 13.4117 25.4742C13.3521 25.4083 13.2915 25.3432 13.2282 25.2806C12.9294 24.9656 12.5768 24.707 12.1872 24.517C11.9186 24.3985 11.6374 24.3109 11.3492 24.256C11.2041 24.2257 11.0575 24.2038 10.9108 24.1853C10.8949 24.1837 10.8643 24.1783 10.8262 24.1717C10.7038 24.1503 10.5043 24.1155 10.4691 24.1482C10.9225 23.729 11.4166 23.3567 11.9442 23.0369C12.4859 22.714 13.0675 22.464 13.6741 22.2935C14.3029 22.1157 14.9607 22.065 15.6092 22.1444C15.943 22.1847 16.27 22.2697 16.5814 22.397C16.9077 22.528 17.2089 22.7149 17.4715 22.9494C17.7314 23.1953 17.9414 23.4895 18.09 23.8156C18.2241 24.1211 18.3242 24.4404 18.3883 24.7678C18.4227 24.9441 18.4487 25.1377 18.4754 25.3381C18.5976 26.2514 18.7388 27.3053 19.7855 27.4889C19.852 27.5019 19.9191 27.5115 19.9866 27.5176L20.1953 27.5226C20.3388 27.5123 20.4814 27.4918 20.6219 27.4612C20.9131 27.3924 21.1969 27.2951 21.4692 27.1707L21.43 27.2022ZM13.4668 25.5357C13.4918 25.5644 13.5172 25.5929 13.5429 25.6211C13.5324 25.6094 13.5219 25.5976 13.5114 25.5858C13.4966 25.5691 13.4817 25.5524 13.4668 25.5357Z"
    fill="#F6007B" />
</svg>