<svg width="1440" height="900" viewBox="0 0 1440 900" fill="none" xmlns="http://www.w3.org/2000/svg">
<g clip-path="url(#clip0_2_463)">
<rect width="1440" height="900" rx="12" fill="url(#paint0_linear_2_463)"/>
<mask id="mask0_2_463" style="mask-type:alpha" maskUnits="userSpaceOnUse" x="0" y="0" width="1440" height="900">
<rect width="1440" height="900" fill="#EBEBEB"/>
</mask>
<g mask="url(#mask0_2_463)">
<g opacity="0.2" filter="url(#filter0_f_2_463)">
<ellipse cx="123.189" cy="273.884" rx="409.314" ry="404.26" fill="#13AAA1" fill-opacity="0.8"/>
</g>
<g opacity="0.2" filter="url(#filter1_f_2_463)">
<ellipse cx="1129.63" cy="779.26" rx="409.314" ry="404.26" fill="#13AAA1" fill-opacity="0.8"/>
</g>
<g opacity="0.2" filter="url(#filter2_f_2_463)">
<ellipse rx="404.591" ry="408.987" transform="matrix(0.258072 0.966126 -0.967689 0.252146 1621.18 745.666)" fill="#B61AFF" fill-opacity="0.6"/>
</g>
<g opacity="0.2" filter="url(#filter3_f_2_463)">
<ellipse cx="152.864" cy="-161.707" rx="409.314" ry="404.26" fill="#B61AFF" fill-opacity="0.6"/>
</g>
<g opacity="0.05" filter="url(#filter4_bd_2_463)">
<rect x="1271.9" y="564" width="492.209" height="492.209" rx="24" transform="rotate(73.4828 1271.9 564)" fill="white" fill-opacity="0.5"/>
</g>
<g opacity="0.05" filter="url(#filter5_bd_2_463)">
<rect x="1563.38" y="623.883" width="492.209" height="492.209" rx="24" transform="rotate(73.4828 1563.38 623.883)" fill="white" fill-opacity="0.5"/>
</g>
<g opacity="0.05" filter="url(#filter6_bd_2_463)">
<rect x="307.344" y="-243" width="320.569" height="320.569" rx="24" transform="rotate(73.4828 307.344 -243)" fill="white" fill-opacity="0.5"/>
</g>
</g>
<g filter="url(#filter7_d_2_463)">
<path d="M799.364 395.54C805.656 381.438 774.553 342.039 744.839 325.624C726.11 312.908 706.594 314.655 702.641 320.239C693.966 332.492 731.364 342.874 756.375 354.99C750.999 357.333 745.933 361.538 742.953 366.915C733.629 356.701 713.163 347.905 689.149 354.99C672.966 359.765 659.517 371.021 654.319 388.022C653.056 387.459 651.658 387.146 650.187 387.146C644.561 387.146 640 391.722 640 397.367C640 403.012 644.561 407.588 650.187 407.588C651.23 407.588 654.49 406.886 654.49 406.886L706.594 407.265C685.756 440.433 669.289 445.281 669.289 451.027C669.289 456.773 685.045 455.216 690.961 453.075C719.283 442.821 749.701 410.866 754.921 401.667C776.841 404.411 795.262 404.735 799.364 395.54Z" fill="url(#paint1_linear_2_463)"/>
<path fill-rule="evenodd" clip-rule="evenodd" d="M756.37 354.989C756.372 354.989 756.373 354.99 756.374 354.99C757.534 354.532 757.346 352.814 757.028 351.465C756.296 348.364 743.672 335.856 731.817 330.254C715.664 322.62 703.77 323.014 702.012 326.532C705.302 333.299 720.556 339.652 736.488 346.287C743.286 349.118 750.206 352 756.373 354.988C756.372 354.988 756.371 354.988 756.37 354.989Z" fill="url(#paint2_linear_2_463)"/>
<path fill-rule="evenodd" clip-rule="evenodd" d="M735.876 423.1C732.609 421.847 728.918 420.698 724.722 419.655C729.195 411.623 730.134 399.734 725.909 392.216C719.98 381.666 712.537 376.051 695.242 376.051C685.73 376.051 660.119 379.266 659.664 400.718C659.616 402.968 659.663 405.031 659.825 406.928L706.596 407.268C700.291 417.305 694.386 424.748 689.216 430.408C695.422 432.004 700.543 433.343 705.245 434.573C709.708 435.741 713.793 436.809 718.068 437.904C724.516 433.19 730.578 428.05 735.876 423.1Z" fill="url(#paint3_linear_2_463)"/>
<path d="M653.693 404.72C655.604 421.016 664.834 427.402 683.695 429.292C702.556 431.182 713.375 429.914 727.778 431.229C739.808 432.327 750.549 438.478 754.534 436.353C758.12 434.44 756.114 427.528 751.315 423.094C745.095 417.346 736.486 413.35 721.339 411.932C724.357 403.639 723.511 392.01 718.823 385.684C712.044 376.536 699.531 372.401 683.695 374.208C667.149 376.095 651.295 384.269 653.693 404.72Z" fill="url(#paint4_linear_2_463)"/>
</g>
<path d="M526.738 497.258H537.344C539.518 497.258 541.387 497.583 542.949 498.234C544.525 498.885 545.736 499.849 546.582 501.125C547.428 502.401 547.852 503.97 547.852 505.832C547.852 507.355 547.591 508.664 547.07 509.758C546.562 510.839 545.84 511.743 544.902 512.473C543.978 513.189 542.891 513.762 541.641 514.191L539.785 515.168H530.566L530.527 510.598H537.383C538.411 510.598 539.264 510.415 539.941 510.051C540.618 509.686 541.126 509.178 541.465 508.527C541.816 507.876 541.992 507.121 541.992 506.262C541.992 505.35 541.823 504.562 541.484 503.898C541.146 503.234 540.632 502.727 539.941 502.375C539.251 502.023 538.385 501.848 537.344 501.848H532.598V525.695H526.738V497.258ZM542.637 525.695L536.152 513.02L542.344 512.98L548.906 525.422V525.695H542.637ZM563.418 520.93V511.516C563.418 510.839 563.307 510.259 563.086 509.777C562.865 509.283 562.52 508.898 562.051 508.625C561.595 508.352 561.003 508.215 560.273 508.215C559.648 508.215 559.108 508.326 558.652 508.547C558.197 508.755 557.845 509.061 557.598 509.465C557.35 509.855 557.227 510.318 557.227 510.852H551.602C551.602 509.953 551.81 509.1 552.227 508.293C552.643 507.486 553.249 506.776 554.043 506.164C554.837 505.539 555.781 505.051 556.875 504.699C557.982 504.348 559.219 504.172 560.586 504.172C562.227 504.172 563.685 504.445 564.961 504.992C566.237 505.539 567.24 506.359 567.969 507.453C568.711 508.547 569.082 509.914 569.082 511.555V520.598C569.082 521.757 569.154 522.707 569.297 523.449C569.44 524.178 569.648 524.816 569.922 525.363V525.695H564.238C563.965 525.122 563.757 524.406 563.613 523.547C563.483 522.674 563.418 521.802 563.418 520.93ZM564.16 512.824L564.199 516.008H561.055C560.312 516.008 559.668 516.092 559.121 516.262C558.574 516.431 558.125 516.672 557.773 516.984C557.422 517.284 557.161 517.635 556.992 518.039C556.836 518.443 556.758 518.885 556.758 519.367C556.758 519.849 556.868 520.285 557.09 520.676C557.311 521.053 557.63 521.353 558.047 521.574C558.464 521.783 558.952 521.887 559.512 521.887C560.358 521.887 561.094 521.717 561.719 521.379C562.344 521.04 562.826 520.624 563.164 520.129C563.516 519.634 563.698 519.165 563.711 518.723L565.195 521.105C564.987 521.639 564.701 522.193 564.336 522.766C563.984 523.339 563.535 523.879 562.988 524.387C562.441 524.882 561.784 525.292 561.016 525.617C560.247 525.93 559.336 526.086 558.281 526.086C556.94 526.086 555.723 525.819 554.629 525.285C553.548 524.738 552.689 523.99 552.051 523.039C551.426 522.076 551.113 520.982 551.113 519.758C551.113 518.651 551.322 517.668 551.738 516.809C552.155 515.949 552.767 515.227 553.574 514.641C554.395 514.042 555.417 513.592 556.641 513.293C557.865 512.98 559.284 512.824 560.898 512.824H564.16ZM573.418 495.695H579.043V520.852L578.477 525.695H573.418V495.695ZM592.422 514.914V515.324C592.422 516.9 592.253 518.345 591.914 519.66C591.589 520.975 591.081 522.115 590.391 523.078C589.701 524.029 588.841 524.771 587.812 525.305C586.797 525.826 585.599 526.086 584.219 526.086C582.93 526.086 581.81 525.826 580.859 525.305C579.922 524.784 579.134 524.048 578.496 523.098C577.858 522.147 577.344 521.034 576.953 519.758C576.562 518.482 576.27 517.089 576.074 515.578V514.68C576.27 513.169 576.562 511.776 576.953 510.5C577.344 509.224 577.858 508.111 578.496 507.16C579.134 506.21 579.922 505.474 580.859 504.953C581.797 504.432 582.904 504.172 584.18 504.172C585.573 504.172 586.784 504.439 587.812 504.973C588.854 505.493 589.714 506.236 590.391 507.199C591.081 508.15 591.589 509.283 591.914 510.598C592.253 511.9 592.422 513.339 592.422 514.914ZM586.797 515.324V514.914C586.797 514.055 586.732 513.247 586.602 512.492C586.484 511.724 586.276 511.053 585.977 510.48C585.677 509.895 585.267 509.432 584.746 509.094C584.238 508.755 583.581 508.586 582.773 508.586C582.005 508.586 581.354 508.716 580.82 508.977C580.286 509.237 579.844 509.602 579.492 510.07C579.154 510.539 578.9 511.099 578.73 511.75C578.561 512.388 578.457 513.091 578.418 513.859V516.418C578.457 517.447 578.626 518.358 578.926 519.152C579.238 519.934 579.707 520.552 580.332 521.008C580.97 521.451 581.797 521.672 582.812 521.672C583.607 521.672 584.264 521.516 584.785 521.203C585.306 520.891 585.71 520.448 585.996 519.875C586.296 519.302 586.504 518.632 586.621 517.863C586.738 517.082 586.797 516.236 586.797 515.324ZM595.918 495.695H601.543V520.852L600.977 525.695H595.918V495.695ZM614.922 514.914V515.324C614.922 516.9 614.753 518.345 614.414 519.66C614.089 520.975 613.581 522.115 612.891 523.078C612.201 524.029 611.341 524.771 610.312 525.305C609.297 525.826 608.099 526.086 606.719 526.086C605.43 526.086 604.31 525.826 603.359 525.305C602.422 524.784 601.634 524.048 600.996 523.098C600.358 522.147 599.844 521.034 599.453 519.758C599.062 518.482 598.77 517.089 598.574 515.578V514.68C598.77 513.169 599.062 511.776 599.453 510.5C599.844 509.224 600.358 508.111 600.996 507.16C601.634 506.21 602.422 505.474 603.359 504.953C604.297 504.432 605.404 504.172 606.68 504.172C608.073 504.172 609.284 504.439 610.312 504.973C611.354 505.493 612.214 506.236 612.891 507.199C613.581 508.15 614.089 509.283 614.414 510.598C614.753 511.9 614.922 513.339 614.922 514.914ZM609.297 515.324V514.914C609.297 514.055 609.232 513.247 609.102 512.492C608.984 511.724 608.776 511.053 608.477 510.48C608.177 509.895 607.767 509.432 607.246 509.094C606.738 508.755 606.081 508.586 605.273 508.586C604.505 508.586 603.854 508.716 603.32 508.977C602.786 509.237 602.344 509.602 601.992 510.07C601.654 510.539 601.4 511.099 601.23 511.75C601.061 512.388 600.957 513.091 600.918 513.859V516.418C600.957 517.447 601.126 518.358 601.426 519.152C601.738 519.934 602.207 520.552 602.832 521.008C603.47 521.451 604.297 521.672 605.312 521.672C606.107 521.672 606.764 521.516 607.285 521.203C607.806 520.891 608.21 520.448 608.496 519.875C608.796 519.302 609.004 518.632 609.121 517.863C609.238 517.082 609.297 516.236 609.297 515.324ZM624.453 523.312L630.059 504.562H636.094L627.598 528.879C627.415 529.413 627.168 529.986 626.855 530.598C626.556 531.21 626.146 531.789 625.625 532.336C625.117 532.896 624.473 533.352 623.691 533.703C622.923 534.055 621.979 534.23 620.859 534.23C620.326 534.23 619.889 534.198 619.551 534.133C619.212 534.068 618.809 533.977 618.34 533.859V529.738C618.483 529.738 618.633 529.738 618.789 529.738C618.945 529.751 619.095 529.758 619.238 529.758C619.98 529.758 620.586 529.673 621.055 529.504C621.523 529.335 621.901 529.074 622.188 528.723C622.474 528.384 622.702 527.941 622.871 527.395L624.453 523.312ZM622.109 504.562L626.699 519.875L627.5 525.832L623.672 526.242L616.074 504.562H622.109ZM655.508 521.184L661.172 497.258H664.336L665.059 501.242L659.023 525.695H655.625L655.508 521.184ZM652.598 497.258L657.285 521.184L656.895 525.695H653.105L646.797 497.258H652.598ZM670.039 521.086L674.668 497.258H680.469L674.18 525.695H670.391L670.039 521.086ZM666.113 497.258L671.816 521.281L671.66 525.695H668.262L662.188 501.223L662.969 497.258H666.113ZM694.043 520.93V511.516C694.043 510.839 693.932 510.259 693.711 509.777C693.49 509.283 693.145 508.898 692.676 508.625C692.22 508.352 691.628 508.215 690.898 508.215C690.273 508.215 689.733 508.326 689.277 508.547C688.822 508.755 688.47 509.061 688.223 509.465C687.975 509.855 687.852 510.318 687.852 510.852H682.227C682.227 509.953 682.435 509.1 682.852 508.293C683.268 507.486 683.874 506.776 684.668 506.164C685.462 505.539 686.406 505.051 687.5 504.699C688.607 504.348 689.844 504.172 691.211 504.172C692.852 504.172 694.31 504.445 695.586 504.992C696.862 505.539 697.865 506.359 698.594 507.453C699.336 508.547 699.707 509.914 699.707 511.555V520.598C699.707 521.757 699.779 522.707 699.922 523.449C700.065 524.178 700.273 524.816 700.547 525.363V525.695H694.863C694.59 525.122 694.382 524.406 694.238 523.547C694.108 522.674 694.043 521.802 694.043 520.93ZM694.785 512.824L694.824 516.008H691.68C690.938 516.008 690.293 516.092 689.746 516.262C689.199 516.431 688.75 516.672 688.398 516.984C688.047 517.284 687.786 517.635 687.617 518.039C687.461 518.443 687.383 518.885 687.383 519.367C687.383 519.849 687.493 520.285 687.715 520.676C687.936 521.053 688.255 521.353 688.672 521.574C689.089 521.783 689.577 521.887 690.137 521.887C690.983 521.887 691.719 521.717 692.344 521.379C692.969 521.04 693.451 520.624 693.789 520.129C694.141 519.634 694.323 519.165 694.336 518.723L695.82 521.105C695.612 521.639 695.326 522.193 694.961 522.766C694.609 523.339 694.16 523.879 693.613 524.387C693.066 524.882 692.409 525.292 691.641 525.617C690.872 525.93 689.961 526.086 688.906 526.086C687.565 526.086 686.348 525.819 685.254 525.285C684.173 524.738 683.314 523.99 682.676 523.039C682.051 522.076 681.738 520.982 681.738 519.758C681.738 518.651 681.947 517.668 682.363 516.809C682.78 515.949 683.392 515.227 684.199 514.641C685.02 514.042 686.042 513.592 687.266 513.293C688.49 512.98 689.909 512.824 691.523 512.824H694.785ZM709.98 495.695V525.695H704.336V495.695H709.98ZM720.566 495.695V525.695H714.922V495.695H720.566ZM734.941 526.086C733.301 526.086 731.829 525.826 730.527 525.305C729.225 524.771 728.118 524.035 727.207 523.098C726.309 522.16 725.618 521.073 725.137 519.836C724.655 518.586 724.414 517.258 724.414 515.852V515.07C724.414 513.469 724.642 512.004 725.098 510.676C725.553 509.348 726.204 508.195 727.051 507.219C727.91 506.242 728.952 505.493 730.176 504.973C731.4 504.439 732.78 504.172 734.316 504.172C735.814 504.172 737.142 504.419 738.301 504.914C739.46 505.409 740.43 506.112 741.211 507.023C742.005 507.935 742.604 509.029 743.008 510.305C743.411 511.568 743.613 512.974 743.613 514.523V516.867H726.816V513.117H738.086V512.688C738.086 511.906 737.943 511.21 737.656 510.598C737.383 509.973 736.966 509.478 736.406 509.113C735.846 508.749 735.13 508.566 734.258 508.566C733.516 508.566 732.878 508.729 732.344 509.055C731.81 509.38 731.374 509.836 731.035 510.422C730.71 511.008 730.462 511.698 730.293 512.492C730.137 513.273 730.059 514.133 730.059 515.07V515.852C730.059 516.698 730.176 517.479 730.41 518.195C730.658 518.911 731.003 519.53 731.445 520.051C731.901 520.572 732.448 520.975 733.086 521.262C733.737 521.548 734.473 521.691 735.293 521.691C736.309 521.691 737.253 521.496 738.125 521.105C739.01 520.702 739.772 520.096 740.41 519.289L743.145 522.258C742.702 522.896 742.096 523.508 741.328 524.094C740.573 524.68 739.661 525.161 738.594 525.539C737.526 525.904 736.309 526.086 734.941 526.086ZM757.168 504.562V508.547H744.863V504.562H757.168ZM747.91 499.348H753.535V519.328C753.535 519.94 753.613 520.409 753.77 520.734C753.939 521.06 754.186 521.288 754.512 521.418C754.837 521.535 755.247 521.594 755.742 521.594C756.094 521.594 756.406 521.581 756.68 521.555C756.966 521.516 757.207 521.477 757.402 521.438L757.422 525.578C756.94 525.734 756.419 525.858 755.859 525.949C755.299 526.04 754.681 526.086 754.004 526.086C752.767 526.086 751.686 525.884 750.762 525.48C749.85 525.064 749.147 524.4 748.652 523.488C748.158 522.577 747.91 521.379 747.91 519.895V499.348ZM779.414 525.695H773.223L773.262 521.125H779.414C780.951 521.125 782.246 520.78 783.301 520.09C784.355 519.387 785.15 518.365 785.684 517.023C786.23 515.682 786.504 514.061 786.504 512.16V510.773C786.504 509.315 786.348 508.033 786.035 506.926C785.736 505.819 785.286 504.888 784.688 504.133C784.089 503.378 783.353 502.811 782.48 502.434C781.608 502.043 780.605 501.848 779.473 501.848H773.105V497.258H779.473C781.374 497.258 783.112 497.583 784.688 498.234C786.276 498.872 787.65 499.79 788.809 500.988C789.967 502.186 790.859 503.618 791.484 505.285C792.122 506.939 792.441 508.781 792.441 510.812V512.16C792.441 514.178 792.122 516.021 791.484 517.688C790.859 519.354 789.967 520.786 788.809 521.984C787.663 523.169 786.289 524.087 784.688 524.738C783.099 525.376 781.341 525.695 779.414 525.695ZM776.543 497.258V525.695H770.684V497.258H776.543ZM806.074 526.086C804.434 526.086 802.962 525.826 801.66 525.305C800.358 524.771 799.251 524.035 798.34 523.098C797.441 522.16 796.751 521.073 796.27 519.836C795.788 518.586 795.547 517.258 795.547 515.852V515.07C795.547 513.469 795.775 512.004 796.23 510.676C796.686 509.348 797.337 508.195 798.184 507.219C799.043 506.242 800.085 505.493 801.309 504.973C802.533 504.439 803.913 504.172 805.449 504.172C806.947 504.172 808.275 504.419 809.434 504.914C810.592 505.409 811.562 506.112 812.344 507.023C813.138 507.935 813.737 509.029 814.141 510.305C814.544 511.568 814.746 512.974 814.746 514.523V516.867H797.949V513.117H809.219V512.688C809.219 511.906 809.076 511.21 808.789 510.598C808.516 509.973 808.099 509.478 807.539 509.113C806.979 508.749 806.263 508.566 805.391 508.566C804.648 508.566 804.01 508.729 803.477 509.055C802.943 509.38 802.507 509.836 802.168 510.422C801.842 511.008 801.595 511.698 801.426 512.492C801.27 513.273 801.191 514.133 801.191 515.07V515.852C801.191 516.698 801.309 517.479 801.543 518.195C801.79 518.911 802.135 519.53 802.578 520.051C803.034 520.572 803.581 520.975 804.219 521.262C804.87 521.548 805.605 521.691 806.426 521.691C807.441 521.691 808.385 521.496 809.258 521.105C810.143 520.702 810.905 520.096 811.543 519.289L814.277 522.258C813.835 522.896 813.229 523.508 812.461 524.094C811.706 524.68 810.794 525.161 809.727 525.539C808.659 525.904 807.441 526.086 806.074 526.086ZM829.375 519.855C829.375 519.452 829.258 519.087 829.023 518.762C828.789 518.436 828.353 518.137 827.715 517.863C827.09 517.577 826.185 517.316 825 517.082C823.932 516.848 822.936 516.555 822.012 516.203C821.1 515.839 820.306 515.402 819.629 514.895C818.965 514.387 818.444 513.788 818.066 513.098C817.689 512.395 817.5 511.594 817.5 510.695C817.5 509.81 817.689 508.977 818.066 508.195C818.457 507.414 819.01 506.724 819.727 506.125C820.456 505.513 821.341 505.038 822.383 504.699C823.438 504.348 824.622 504.172 825.938 504.172C827.773 504.172 829.349 504.465 830.664 505.051C831.992 505.637 833.008 506.444 833.711 507.473C834.427 508.488 834.785 509.647 834.785 510.949H829.16C829.16 510.402 829.043 509.914 828.809 509.484C828.587 509.042 828.236 508.697 827.754 508.449C827.285 508.189 826.673 508.059 825.918 508.059C825.293 508.059 824.753 508.169 824.297 508.391C823.841 508.599 823.49 508.885 823.242 509.25C823.008 509.602 822.891 509.992 822.891 510.422C822.891 510.747 822.956 511.04 823.086 511.301C823.229 511.548 823.457 511.776 823.77 511.984C824.082 512.193 824.486 512.388 824.98 512.57C825.488 512.74 826.113 512.896 826.855 513.039C828.379 513.352 829.74 513.762 830.938 514.27C832.135 514.764 833.086 515.441 833.789 516.301C834.492 517.147 834.844 518.26 834.844 519.641C834.844 520.578 834.635 521.438 834.219 522.219C833.802 523 833.203 523.684 832.422 524.27C831.641 524.842 830.703 525.292 829.609 525.617C828.529 525.93 827.311 526.086 825.957 526.086C823.991 526.086 822.324 525.734 820.957 525.031C819.603 524.328 818.574 523.436 817.871 522.355C817.181 521.262 816.836 520.142 816.836 518.996H822.168C822.194 519.764 822.389 520.383 822.754 520.852C823.132 521.32 823.607 521.659 824.18 521.867C824.766 522.076 825.397 522.18 826.074 522.18C826.803 522.18 827.409 522.082 827.891 521.887C828.372 521.678 828.737 521.405 828.984 521.066C829.245 520.715 829.375 520.311 829.375 519.855ZM844.121 495.676V525.695H838.496V495.676H844.121ZM857.441 504.562L848.262 515.031L843.34 520.012L841.289 515.949L845.195 510.988L850.684 504.562H857.441ZM851.602 525.695L845.352 515.93L849.238 512.531L858.086 525.695H851.602ZM870.215 504.562V508.547H857.91V504.562H870.215ZM860.957 499.348H866.582V519.328C866.582 519.94 866.66 520.409 866.816 520.734C866.986 521.06 867.233 521.288 867.559 521.418C867.884 521.535 868.294 521.594 868.789 521.594C869.141 521.594 869.453 521.581 869.727 521.555C870.013 521.516 870.254 521.477 870.449 521.438L870.469 525.578C869.987 525.734 869.466 525.858 868.906 525.949C868.346 526.04 867.728 526.086 867.051 526.086C865.814 526.086 864.733 525.884 863.809 525.48C862.897 525.064 862.194 524.4 861.699 523.488C861.204 522.577 860.957 521.379 860.957 519.895V499.348ZM872.012 515.344V514.934C872.012 513.384 872.233 511.958 872.676 510.656C873.118 509.341 873.763 508.202 874.609 507.238C875.456 506.275 876.497 505.526 877.734 504.992C878.971 504.445 880.391 504.172 881.992 504.172C883.594 504.172 885.02 504.445 886.27 504.992C887.52 505.526 888.568 506.275 889.414 507.238C890.273 508.202 890.924 509.341 891.367 510.656C891.81 511.958 892.031 513.384 892.031 514.934V515.344C892.031 516.88 891.81 518.306 891.367 519.621C890.924 520.923 890.273 522.062 889.414 523.039C888.568 524.003 887.526 524.751 886.289 525.285C885.052 525.819 883.633 526.086 882.031 526.086C880.43 526.086 879.004 525.819 877.754 525.285C876.517 524.751 875.469 524.003 874.609 523.039C873.763 522.062 873.118 520.923 872.676 519.621C872.233 518.306 872.012 516.88 872.012 515.344ZM877.637 514.934V515.344C877.637 516.229 877.715 517.056 877.871 517.824C878.027 518.592 878.275 519.27 878.613 519.855C878.965 520.428 879.421 520.878 879.98 521.203C880.54 521.529 881.224 521.691 882.031 521.691C882.812 521.691 883.483 521.529 884.043 521.203C884.603 520.878 885.052 520.428 885.391 519.855C885.729 519.27 885.977 518.592 886.133 517.824C886.302 517.056 886.387 516.229 886.387 515.344V514.934C886.387 514.074 886.302 513.267 886.133 512.512C885.977 511.743 885.723 511.066 885.371 510.48C885.033 509.882 884.583 509.413 884.023 509.074C883.464 508.736 882.786 508.566 881.992 508.566C881.198 508.566 880.521 508.736 879.961 509.074C879.414 509.413 878.965 509.882 878.613 510.48C878.275 511.066 878.027 511.743 877.871 512.512C877.715 513.267 877.637 514.074 877.637 514.934ZM901.113 508.625V533.82H895.488V504.562H900.703L901.113 508.625ZM914.492 514.895V515.305C914.492 516.841 914.31 518.267 913.945 519.582C913.594 520.897 913.073 522.043 912.383 523.02C911.693 523.983 910.833 524.738 909.805 525.285C908.789 525.819 907.617 526.086 906.289 526.086C905 526.086 903.88 525.826 902.93 525.305C901.979 524.784 901.178 524.055 900.527 523.117C899.889 522.167 899.375 521.066 898.984 519.816C898.594 518.566 898.294 517.225 898.086 515.793V514.719C898.294 513.182 898.594 511.776 898.984 510.5C899.375 509.211 899.889 508.098 900.527 507.16C901.178 506.21 901.973 505.474 902.91 504.953C903.861 504.432 904.974 504.172 906.25 504.172C907.591 504.172 908.77 504.426 909.785 504.934C910.814 505.441 911.673 506.171 912.363 507.121C913.066 508.072 913.594 509.204 913.945 510.52C914.31 511.835 914.492 513.293 914.492 514.895ZM908.848 515.305V514.895C908.848 513.996 908.77 513.169 908.613 512.414C908.47 511.646 908.236 510.975 907.91 510.402C907.598 509.829 907.181 509.387 906.66 509.074C906.152 508.749 905.534 508.586 904.805 508.586C904.036 508.586 903.379 508.71 902.832 508.957C902.298 509.204 901.862 509.562 901.523 510.031C901.185 510.5 900.931 511.06 900.762 511.711C900.592 512.362 900.488 513.098 900.449 513.918V516.633C900.514 517.596 900.697 518.462 900.996 519.23C901.296 519.986 901.758 520.585 902.383 521.027C903.008 521.47 903.828 521.691 904.844 521.691C905.586 521.691 906.211 521.529 906.719 521.203C907.227 520.865 907.637 520.402 907.949 519.816C908.275 519.23 908.503 518.553 908.633 517.785C908.776 517.017 908.848 516.19 908.848 515.305Z" fill="white"/>
</g>
<defs>
<filter id="filter0_f_2_463" x="-486.125" y="-330.376" width="1218.63" height="1208.52" filterUnits="userSpaceOnUse" color-interpolation-filters="sRGB">
<feFlood flood-opacity="0" result="BackgroundImageFix"/>
<feBlend mode="normal" in="SourceGraphic" in2="BackgroundImageFix" result="shape"/>
<feGaussianBlur stdDeviation="100" result="effect1_foregroundBlur_2_463"/>
</filter>
<filter id="filter1_f_2_463" x="520.312" y="175" width="1218.63" height="1208.52" filterUnits="userSpaceOnUse" color-interpolation-filters="sRGB">
<feFlood flood-opacity="0" result="BackgroundImageFix"/>
<feBlend mode="normal" in="SourceGraphic" in2="BackgroundImageFix" result="shape"/>
<feGaussianBlur stdDeviation="100" result="effect1_foregroundBlur_2_463"/>
</filter>
<filter id="filter2_f_2_463" x="1011.77" y="141.307" width="1218.83" height="1208.72" filterUnits="userSpaceOnUse" color-interpolation-filters="sRGB">
<feFlood flood-opacity="0" result="BackgroundImageFix"/>
<feBlend mode="normal" in="SourceGraphic" in2="BackgroundImageFix" result="shape"/>
<feGaussianBlur stdDeviation="100" result="effect1_foregroundBlur_2_463"/>
</filter>
<filter id="filter3_f_2_463" x="-456.45" y="-765.968" width="1218.63" height="1208.52" filterUnits="userSpaceOnUse" color-interpolation-filters="sRGB">
<feFlood flood-opacity="0" result="BackgroundImageFix"/>
<feBlend mode="normal" in="SourceGraphic" in2="BackgroundImageFix" result="shape"/>
<feGaussianBlur stdDeviation="100" result="effect1_foregroundBlur_2_463"/>
</filter>
<filter id="filter4_bd_2_463" x="605.827" y="369.827" width="1000.18" height="1000.18" filterUnits="userSpaceOnUse" color-interpolation-filters="sRGB">
<feFlood flood-opacity="0" result="BackgroundImageFix"/>
<feGaussianBlur in="BackgroundImage" stdDeviation="100"/>
<feComposite in2="SourceAlpha" operator="in" result="effect1_backgroundBlur_2_463"/>
<feColorMatrix in="SourceAlpha" type="matrix" values="0 0 0 0 0 0 0 0 0 0 0 0 0 0 0 0 0 0 127 0" result="hardAlpha"/>
<feOffset dy="20"/>
<feGaussianBlur stdDeviation="20"/>
<feColorMatrix type="matrix" values="0 0 0 0 0.192708 0 0 0 0 0.31622 0 0 0 0 0.625 0 0 0 0.23 0"/>
<feBlend mode="normal" in2="effect1_backgroundBlur_2_463" result="effect2_dropShadow_2_463"/>
<feBlend mode="normal" in="SourceGraphic" in2="effect2_dropShadow_2_463" result="shape"/>
</filter>
<filter id="filter5_bd_2_463" x="897.304" y="429.709" width="1000.18" height="1000.18" filterUnits="userSpaceOnUse" color-interpolation-filters="sRGB">
<feFlood flood-opacity="0" result="BackgroundImageFix"/>
<feGaussianBlur in="BackgroundImage" stdDeviation="100"/>
<feComposite in2="SourceAlpha" operator="in" result="effect1_backgroundBlur_2_463"/>
<feColorMatrix in="SourceAlpha" type="matrix" values="0 0 0 0 0 0 0 0 0 0 0 0 0 0 0 0 0 0 127 0" result="hardAlpha"/>
<feOffset dy="20"/>
<feGaussianBlur stdDeviation="20"/>
<feColorMatrix type="matrix" values="0 0 0 0 0.133611 0 0 0 0 0.271627 0 0 0 0 0.616667 0 0 0 0.32 0"/>
<feBlend mode="normal" in2="effect1_backgroundBlur_2_463" result="effect2_dropShadow_2_463"/>
<feBlend mode="normal" in="SourceGraphic" in2="effect2_dropShadow_2_463" result="shape"/>
</filter>
<filter id="filter6_bd_2_463" x="-194.17" y="-437.173" width="786.826" height="786.826" filterUnits="userSpaceOnUse" color-interpolation-filters="sRGB">
<feFlood flood-opacity="0" result="BackgroundImageFix"/>
<feGaussianBlur in="BackgroundImage" stdDeviation="100"/>
<feComposite in2="SourceAlpha" operator="in" result="effect1_backgroundBlur_2_463"/>
<feColorMatrix in="SourceAlpha" type="matrix" values="0 0 0 0 0 0 0 0 0 0 0 0 0 0 0 0 0 0 127 0" result="hardAlpha"/>
<feOffset dy="20"/>
<feGaussianBlur stdDeviation="20"/>
<feColorMatrix type="matrix" values="0 0 0 0 0.133611 0 0 0 0 0.271627 0 0 0 0 0.616667 0 0 0 0.32 0"/>
<feBlend mode="normal" in2="effect1_backgroundBlur_2_463" result="effect2_dropShadow_2_463"/>
<feBlend mode="normal" in="SourceGraphic" in2="effect2_dropShadow_2_463" result="shape"/>
</filter>
<filter id="filter7_d_2_463" x="560" y="260" width="320.183" height="299.012" filterUnits="userSpaceOnUse" color-interpolation-filters="sRGB">
<feFlood flood-opacity="0" result="BackgroundImageFix"/>
<feColorMatrix in="SourceAlpha" type="matrix" values="0 0 0 0 0 0 0 0 0 0 0 0 0 0 0 0 0 0 127 0" result="hardAlpha"/>
<feOffset dy="24"/>
<feGaussianBlur stdDeviation="40"/>
<feComposite in2="hardAlpha" operator="out"/>
<feColorMatrix type="matrix" values="0 0 0 0 0.256205 0 0 0 0 0.381526 0 0 0 0 0.741826 0 0 0 0.26 0"/>
<feBlend mode="normal" in2="BackgroundImageFix" result="effect1_dropShadow_2_463"/>
<feBlend mode="normal" in="SourceGraphic" in2="effect1_dropShadow_2_463" result="shape"/>
</filter>
<linearGradient id="paint0_linear_2_463" x1="0" y1="0" x2="1552.92" y2="331.272" gradientUnits="userSpaceOnUse">
<stop stop-color="#8BA8FF"/>
<stop offset="1" stop-color="#8C96FF"/>
</linearGradient>
<linearGradient id="paint1_linear_2_463" x1="687.265" y1="383.052" x2="798.065" y2="414.367" gradientUnits="userSpaceOnUse">
<stop stop-color="white"/>
<stop offset="1" stop-color="white"/>
</linearGradient>
<linearGradient id="paint2_linear_2_463" x1="779.358" y1="380.936" x2="699.181" y2="300.834" gradientUnits="userSpaceOnUse">
<stop stop-color="#8697FF"/>
<stop offset="1" stop-color="#8697FF" stop-opacity="0"/>
</linearGradient>
<linearGradient id="paint3_linear_2_463" x1="738.099" y1="425.899" x2="661.21" y2="381.841" gradientUnits="userSpaceOnUse">
<stop stop-color="#8697FF"/>
<stop offset="1" stop-color="#8697FF" stop-opacity="0"/>
</linearGradient>
<linearGradient id="paint4_linear_2_463" x1="693.874" y1="382.222" x2="745.974" y2="448.198" gradientUnits="userSpaceOnUse">
<stop stop-color="white"/>
<stop offset="0.983895" stop-color="#D1D8FF"/>
</linearGradient>
<clipPath id="clip0_2_463">
<rect width="1440" height="900" rx="12" fill="white"/>
</clipPath>
</defs>
</svg>
