<svg width="1440" height="900" viewBox="0 0 1440 900" fill="none" xmlns="http://www.w3.org/2000/svg">
<g clip-path="url(#clip0_15071_16652)">
<rect width="1440" height="900" rx="12" fill="url(#paint0_linear_15071_16652)"/>
<mask id="mask0_15071_16652" style="mask-type:alpha" maskUnits="userSpaceOnUse" x="0" y="0" width="1440" height="900">
<rect width="1440" height="900" fill="#EBEBEB"/>
</mask>
<g mask="url(#mask0_15071_16652)">
<g opacity="0.2" filter="url(#filter0_f_15071_16652)">
<ellipse cx="123.189" cy="273.884" rx="409.314" ry="404.26" fill="#13AAA1" fill-opacity="0.8"/>
</g>
<g opacity="0.2" filter="url(#filter1_f_15071_16652)">
<ellipse cx="1129.63" cy="779.26" rx="409.314" ry="404.26" fill="#13AAA1" fill-opacity="0.8"/>
</g>
<g opacity="0.2" filter="url(#filter2_f_15071_16652)">
<ellipse cx="404.591" cy="408.987" rx="404.591" ry="408.987" transform="matrix(0.258072 0.966126 -0.967689 0.252146 1912.54 251.656)" fill="#B61AFF" fill-opacity="0.6"/>
</g>
<g opacity="0.2" filter="url(#filter3_f_15071_16652)">
<ellipse cx="152.863" cy="-161.707" rx="409.314" ry="404.26" fill="#B61AFF" fill-opacity="0.6"/>
</g>
<g opacity="0.05" filter="url(#filter4_bd_15071_16652)">
<rect x="1271.9" y="564" width="492.209" height="492.209" rx="24" transform="rotate(73.4828 1271.9 564)" fill="white" fill-opacity="0.5"/>
</g>
<g opacity="0.05" filter="url(#filter5_bd_15071_16652)">
<rect x="1563.38" y="623.883" width="492.209" height="492.209" rx="24" transform="rotate(73.4828 1563.38 623.883)" fill="white" fill-opacity="0.5"/>
</g>
<g opacity="0.05" filter="url(#filter6_bd_15071_16652)">
<rect x="307.344" y="-243" width="320.569" height="320.569" rx="24" transform="rotate(73.4828 307.344 -243)" fill="white" fill-opacity="0.5"/>
</g>
</g>
<g filter="url(#filter7_d_15071_16652)">
<path d="M799.364 395.54C805.656 381.438 774.553 342.039 744.839 325.624C726.11 312.908 706.594 314.655 702.641 320.239C693.966 332.492 731.364 342.874 756.375 354.99C750.999 357.333 745.933 361.538 742.953 366.915C733.629 356.701 713.163 347.905 689.149 354.99C672.966 359.765 659.517 371.021 654.319 388.022C653.056 387.459 651.658 387.146 650.187 387.146C644.561 387.146 640 391.722 640 397.367C640 403.012 644.561 407.588 650.187 407.588C651.23 407.588 654.49 406.886 654.49 406.886L706.594 407.265C685.756 440.433 669.289 445.281 669.289 451.027C669.289 456.773 685.045 455.216 690.961 453.075C719.283 442.821 749.701 410.866 754.921 401.667C776.841 404.411 795.262 404.735 799.364 395.54Z" fill="url(#paint1_linear_15071_16652)"/>
<path fill-rule="evenodd" clip-rule="evenodd" d="M756.37 354.989C756.372 354.989 756.373 354.99 756.374 354.99C757.534 354.532 757.346 352.814 757.028 351.465C756.296 348.364 743.672 335.856 731.817 330.254C715.664 322.62 703.77 323.014 702.012 326.532C705.302 333.299 720.556 339.652 736.488 346.287C743.286 349.118 750.206 352 756.373 354.988C756.372 354.988 756.371 354.988 756.37 354.989Z" fill="url(#paint2_linear_15071_16652)"/>
<path fill-rule="evenodd" clip-rule="evenodd" d="M735.876 423.1C732.609 421.847 728.918 420.698 724.722 419.655C729.195 411.623 730.134 399.734 725.909 392.216C719.98 381.666 712.537 376.051 695.242 376.051C685.73 376.051 660.119 379.266 659.664 400.718C659.617 402.968 659.663 405.031 659.825 406.928L706.597 407.268C700.291 417.305 694.386 424.748 689.216 430.408C695.422 432.004 700.544 433.343 705.246 434.573C709.708 435.741 713.793 436.809 718.068 437.904C724.517 433.19 730.579 428.05 735.876 423.1Z" fill="url(#paint3_linear_15071_16652)"/>
<path d="M653.694 404.72C655.604 421.016 664.834 427.402 683.695 429.292C702.556 431.182 713.375 429.914 727.779 431.229C739.809 432.327 750.55 438.478 754.535 436.353C758.121 434.44 756.114 427.528 751.316 423.094C745.096 417.346 736.487 413.35 721.339 411.932C724.358 403.639 723.512 392.01 718.824 385.684C712.045 376.536 699.532 372.401 683.695 374.208C667.15 376.095 651.296 384.269 653.694 404.72Z" fill="url(#paint4_linear_15071_16652)"/>
</g>
<path d="M587.754 497.258H598.359C600.534 497.258 602.402 497.583 603.965 498.234C605.54 498.885 606.751 499.849 607.598 501.125C608.444 502.401 608.867 503.97 608.867 505.832C608.867 507.355 608.607 508.664 608.086 509.758C607.578 510.839 606.855 511.743 605.918 512.473C604.993 513.189 603.906 513.762 602.656 514.191L600.801 515.168H591.582L591.543 510.598H598.398C599.427 510.598 600.28 510.415 600.957 510.051C601.634 509.686 602.142 509.178 602.48 508.527C602.832 507.876 603.008 507.121 603.008 506.262C603.008 505.35 602.839 504.562 602.5 503.898C602.161 503.234 601.647 502.727 600.957 502.375C600.267 502.023 599.401 501.848 598.359 501.848H593.613V525.695H587.754V497.258ZM603.652 525.695L597.168 513.02L603.359 512.98L609.922 525.422V525.695H603.652ZM624.434 520.93V511.516C624.434 510.839 624.323 510.259 624.102 509.777C623.88 509.283 623.535 508.898 623.066 508.625C622.611 508.352 622.018 508.215 621.289 508.215C620.664 508.215 620.124 508.326 619.668 508.547C619.212 508.755 618.861 509.061 618.613 509.465C618.366 509.855 618.242 510.318 618.242 510.852H612.617C612.617 509.953 612.826 509.1 613.242 508.293C613.659 507.486 614.264 506.776 615.059 506.164C615.853 505.539 616.797 505.051 617.891 504.699C618.997 504.348 620.234 504.172 621.602 504.172C623.242 504.172 624.701 504.445 625.977 504.992C627.253 505.539 628.255 506.359 628.984 507.453C629.727 508.547 630.098 509.914 630.098 511.555V520.598C630.098 521.757 630.169 522.707 630.312 523.449C630.456 524.178 630.664 524.816 630.938 525.363V525.695H625.254C624.98 525.122 624.772 524.406 624.629 523.547C624.499 522.674 624.434 521.802 624.434 520.93ZM625.176 512.824L625.215 516.008H622.07C621.328 516.008 620.684 516.092 620.137 516.262C619.59 516.431 619.141 516.672 618.789 516.984C618.438 517.284 618.177 517.635 618.008 518.039C617.852 518.443 617.773 518.885 617.773 519.367C617.773 519.849 617.884 520.285 618.105 520.676C618.327 521.053 618.646 521.353 619.062 521.574C619.479 521.783 619.967 521.887 620.527 521.887C621.374 521.887 622.109 521.717 622.734 521.379C623.359 521.04 623.841 520.624 624.18 520.129C624.531 519.634 624.714 519.165 624.727 518.723L626.211 521.105C626.003 521.639 625.716 522.193 625.352 522.766C625 523.339 624.551 523.879 624.004 524.387C623.457 524.882 622.799 525.292 622.031 525.617C621.263 525.93 620.352 526.086 619.297 526.086C617.956 526.086 616.738 525.819 615.645 525.285C614.564 524.738 613.704 523.99 613.066 523.039C612.441 522.076 612.129 520.982 612.129 519.758C612.129 518.651 612.337 517.668 612.754 516.809C613.171 515.949 613.783 515.227 614.59 514.641C615.41 514.042 616.432 513.592 617.656 513.293C618.88 512.98 620.299 512.824 621.914 512.824H625.176ZM634.434 495.695H640.059V520.852L639.492 525.695H634.434V495.695ZM653.438 514.914V515.324C653.438 516.9 653.268 518.345 652.93 519.66C652.604 520.975 652.096 522.115 651.406 523.078C650.716 524.029 649.857 524.771 648.828 525.305C647.812 525.826 646.615 526.086 645.234 526.086C643.945 526.086 642.826 525.826 641.875 525.305C640.938 524.784 640.15 524.048 639.512 523.098C638.874 522.147 638.359 521.034 637.969 519.758C637.578 518.482 637.285 517.089 637.09 515.578V514.68C637.285 513.169 637.578 511.776 637.969 510.5C638.359 509.224 638.874 508.111 639.512 507.16C640.15 506.21 640.938 505.474 641.875 504.953C642.812 504.432 643.919 504.172 645.195 504.172C646.589 504.172 647.799 504.439 648.828 504.973C649.87 505.493 650.729 506.236 651.406 507.199C652.096 508.15 652.604 509.283 652.93 510.598C653.268 511.9 653.438 513.339 653.438 514.914ZM647.812 515.324V514.914C647.812 514.055 647.747 513.247 647.617 512.492C647.5 511.724 647.292 511.053 646.992 510.48C646.693 509.895 646.283 509.432 645.762 509.094C645.254 508.755 644.596 508.586 643.789 508.586C643.021 508.586 642.37 508.716 641.836 508.977C641.302 509.237 640.859 509.602 640.508 510.07C640.169 510.539 639.915 511.099 639.746 511.75C639.577 512.388 639.473 513.091 639.434 513.859V516.418C639.473 517.447 639.642 518.358 639.941 519.152C640.254 519.934 640.723 520.552 641.348 521.008C641.986 521.451 642.812 521.672 643.828 521.672C644.622 521.672 645.28 521.516 645.801 521.203C646.322 520.891 646.725 520.448 647.012 519.875C647.311 519.302 647.52 518.632 647.637 517.863C647.754 517.082 647.812 516.236 647.812 515.324ZM656.934 495.695H662.559V520.852L661.992 525.695H656.934V495.695ZM675.938 514.914V515.324C675.938 516.9 675.768 518.345 675.43 519.66C675.104 520.975 674.596 522.115 673.906 523.078C673.216 524.029 672.357 524.771 671.328 525.305C670.312 525.826 669.115 526.086 667.734 526.086C666.445 526.086 665.326 525.826 664.375 525.305C663.438 524.784 662.65 524.048 662.012 523.098C661.374 522.147 660.859 521.034 660.469 519.758C660.078 518.482 659.785 517.089 659.59 515.578V514.68C659.785 513.169 660.078 511.776 660.469 510.5C660.859 509.224 661.374 508.111 662.012 507.16C662.65 506.21 663.438 505.474 664.375 504.953C665.312 504.432 666.419 504.172 667.695 504.172C669.089 504.172 670.299 504.439 671.328 504.973C672.37 505.493 673.229 506.236 673.906 507.199C674.596 508.15 675.104 509.283 675.43 510.598C675.768 511.9 675.938 513.339 675.938 514.914ZM670.312 515.324V514.914C670.312 514.055 670.247 513.247 670.117 512.492C670 511.724 669.792 511.053 669.492 510.48C669.193 509.895 668.783 509.432 668.262 509.094C667.754 508.755 667.096 508.586 666.289 508.586C665.521 508.586 664.87 508.716 664.336 508.977C663.802 509.237 663.359 509.602 663.008 510.07C662.669 510.539 662.415 511.099 662.246 511.75C662.077 512.388 661.973 513.091 661.934 513.859V516.418C661.973 517.447 662.142 518.358 662.441 519.152C662.754 519.934 663.223 520.552 663.848 521.008C664.486 521.451 665.312 521.672 666.328 521.672C667.122 521.672 667.78 521.516 668.301 521.203C668.822 520.891 669.225 520.448 669.512 519.875C669.811 519.302 670.02 518.632 670.137 517.863C670.254 517.082 670.312 516.236 670.312 515.324ZM685.469 523.312L691.074 504.562H697.109L688.613 528.879C688.431 529.413 688.184 529.986 687.871 530.598C687.572 531.21 687.161 531.789 686.641 532.336C686.133 532.896 685.488 533.352 684.707 533.703C683.939 534.055 682.995 534.23 681.875 534.23C681.341 534.23 680.905 534.198 680.566 534.133C680.228 534.068 679.824 533.977 679.355 533.859V529.738C679.499 529.738 679.648 529.738 679.805 529.738C679.961 529.751 680.111 529.758 680.254 529.758C680.996 529.758 681.602 529.673 682.07 529.504C682.539 529.335 682.917 529.074 683.203 528.723C683.49 528.384 683.717 527.941 683.887 527.395L685.469 523.312ZM683.125 504.562L687.715 519.875L688.516 525.832L684.688 526.242L677.09 504.562H683.125ZM718.398 525.695H712.207L712.246 521.125H718.398C719.935 521.125 721.23 520.78 722.285 520.09C723.34 519.387 724.134 518.365 724.668 517.023C725.215 515.682 725.488 514.061 725.488 512.16V510.773C725.488 509.315 725.332 508.033 725.02 506.926C724.72 505.819 724.271 504.888 723.672 504.133C723.073 503.378 722.337 502.811 721.465 502.434C720.592 502.043 719.59 501.848 718.457 501.848H712.09V497.258H718.457C720.358 497.258 722.096 497.583 723.672 498.234C725.26 498.872 726.634 499.79 727.793 500.988C728.952 502.186 729.844 503.618 730.469 505.285C731.107 506.939 731.426 508.781 731.426 510.812V512.16C731.426 514.178 731.107 516.021 730.469 517.688C729.844 519.354 728.952 520.786 727.793 521.984C726.647 523.169 725.273 524.087 723.672 524.738C722.083 525.376 720.326 525.695 718.398 525.695ZM715.527 497.258V525.695H709.668V497.258H715.527ZM745.059 526.086C743.418 526.086 741.947 525.826 740.645 525.305C739.342 524.771 738.236 524.035 737.324 523.098C736.426 522.16 735.736 521.073 735.254 519.836C734.772 518.586 734.531 517.258 734.531 515.852V515.07C734.531 513.469 734.759 512.004 735.215 510.676C735.671 509.348 736.322 508.195 737.168 507.219C738.027 506.242 739.069 505.493 740.293 504.973C741.517 504.439 742.897 504.172 744.434 504.172C745.931 504.172 747.259 504.419 748.418 504.914C749.577 505.409 750.547 506.112 751.328 507.023C752.122 507.935 752.721 509.029 753.125 510.305C753.529 511.568 753.73 512.974 753.73 514.523V516.867H736.934V513.117H748.203V512.688C748.203 511.906 748.06 511.21 747.773 510.598C747.5 509.973 747.083 509.478 746.523 509.113C745.964 508.749 745.247 508.566 744.375 508.566C743.633 508.566 742.995 508.729 742.461 509.055C741.927 509.38 741.491 509.836 741.152 510.422C740.827 511.008 740.579 511.698 740.41 512.492C740.254 513.273 740.176 514.133 740.176 515.07V515.852C740.176 516.698 740.293 517.479 740.527 518.195C740.775 518.911 741.12 519.53 741.562 520.051C742.018 520.572 742.565 520.975 743.203 521.262C743.854 521.548 744.59 521.691 745.41 521.691C746.426 521.691 747.37 521.496 748.242 521.105C749.128 520.702 749.889 520.096 750.527 519.289L753.262 522.258C752.819 522.896 752.214 523.508 751.445 524.094C750.69 524.68 749.779 525.161 748.711 525.539C747.643 525.904 746.426 526.086 745.059 526.086ZM768.359 519.855C768.359 519.452 768.242 519.087 768.008 518.762C767.773 518.436 767.337 518.137 766.699 517.863C766.074 517.577 765.169 517.316 763.984 517.082C762.917 516.848 761.921 516.555 760.996 516.203C760.085 515.839 759.29 515.402 758.613 514.895C757.949 514.387 757.428 513.788 757.051 513.098C756.673 512.395 756.484 511.594 756.484 510.695C756.484 509.81 756.673 508.977 757.051 508.195C757.441 507.414 757.995 506.724 758.711 506.125C759.44 505.513 760.326 505.038 761.367 504.699C762.422 504.348 763.607 504.172 764.922 504.172C766.758 504.172 768.333 504.465 769.648 505.051C770.977 505.637 771.992 506.444 772.695 507.473C773.411 508.488 773.77 509.647 773.77 510.949H768.145C768.145 510.402 768.027 509.914 767.793 509.484C767.572 509.042 767.22 508.697 766.738 508.449C766.27 508.189 765.658 508.059 764.902 508.059C764.277 508.059 763.737 508.169 763.281 508.391C762.826 508.599 762.474 508.885 762.227 509.25C761.992 509.602 761.875 509.992 761.875 510.422C761.875 510.747 761.94 511.04 762.07 511.301C762.214 511.548 762.441 511.776 762.754 511.984C763.066 512.193 763.47 512.388 763.965 512.57C764.473 512.74 765.098 512.896 765.84 513.039C767.363 513.352 768.724 513.762 769.922 514.27C771.12 514.764 772.07 515.441 772.773 516.301C773.477 517.147 773.828 518.26 773.828 519.641C773.828 520.578 773.62 521.438 773.203 522.219C772.786 523 772.188 523.684 771.406 524.27C770.625 524.842 769.688 525.292 768.594 525.617C767.513 525.93 766.296 526.086 764.941 526.086C762.975 526.086 761.309 525.734 759.941 525.031C758.587 524.328 757.559 523.436 756.855 522.355C756.165 521.262 755.82 520.142 755.82 518.996H761.152C761.178 519.764 761.374 520.383 761.738 520.852C762.116 521.32 762.591 521.659 763.164 521.867C763.75 522.076 764.382 522.18 765.059 522.18C765.788 522.18 766.393 522.082 766.875 521.887C767.357 521.678 767.721 521.405 767.969 521.066C768.229 520.715 768.359 520.311 768.359 519.855ZM783.105 495.676V525.695H777.48V495.676H783.105ZM796.426 504.562L787.246 515.031L782.324 520.012L780.273 515.949L784.18 510.988L789.668 504.562H796.426ZM790.586 525.695L784.336 515.93L788.223 512.531L797.07 525.695H790.586ZM809.199 504.562V508.547H796.895V504.562H809.199ZM799.941 499.348H805.566V519.328C805.566 519.94 805.645 520.409 805.801 520.734C805.97 521.06 806.217 521.288 806.543 521.418C806.868 521.535 807.279 521.594 807.773 521.594C808.125 521.594 808.438 521.581 808.711 521.555C808.997 521.516 809.238 521.477 809.434 521.438L809.453 525.578C808.971 525.734 808.451 525.858 807.891 525.949C807.331 526.04 806.712 526.086 806.035 526.086C804.798 526.086 803.717 525.884 802.793 525.48C801.882 525.064 801.178 524.4 800.684 523.488C800.189 522.577 799.941 521.379 799.941 519.895V499.348ZM810.996 515.344V514.934C810.996 513.384 811.217 511.958 811.66 510.656C812.103 509.341 812.747 508.202 813.594 507.238C814.44 506.275 815.482 505.526 816.719 504.992C817.956 504.445 819.375 504.172 820.977 504.172C822.578 504.172 824.004 504.445 825.254 504.992C826.504 505.526 827.552 506.275 828.398 507.238C829.258 508.202 829.909 509.341 830.352 510.656C830.794 511.958 831.016 513.384 831.016 514.934V515.344C831.016 516.88 830.794 518.306 830.352 519.621C829.909 520.923 829.258 522.062 828.398 523.039C827.552 524.003 826.51 524.751 825.273 525.285C824.036 525.819 822.617 526.086 821.016 526.086C819.414 526.086 817.988 525.819 816.738 525.285C815.501 524.751 814.453 524.003 813.594 523.039C812.747 522.062 812.103 520.923 811.66 519.621C811.217 518.306 810.996 516.88 810.996 515.344ZM816.621 514.934V515.344C816.621 516.229 816.699 517.056 816.855 517.824C817.012 518.592 817.259 519.27 817.598 519.855C817.949 520.428 818.405 520.878 818.965 521.203C819.525 521.529 820.208 521.691 821.016 521.691C821.797 521.691 822.467 521.529 823.027 521.203C823.587 520.878 824.036 520.428 824.375 519.855C824.714 519.27 824.961 518.592 825.117 517.824C825.286 517.056 825.371 516.229 825.371 515.344V514.934C825.371 514.074 825.286 513.267 825.117 512.512C824.961 511.743 824.707 511.066 824.355 510.48C824.017 509.882 823.568 509.413 823.008 509.074C822.448 508.736 821.771 508.566 820.977 508.566C820.182 508.566 819.505 508.736 818.945 509.074C818.398 509.413 817.949 509.882 817.598 510.48C817.259 511.066 817.012 511.743 816.855 512.512C816.699 513.267 816.621 514.074 816.621 514.934ZM840.098 508.625V533.82H834.473V504.562H839.688L840.098 508.625ZM853.477 514.895V515.305C853.477 516.841 853.294 518.267 852.93 519.582C852.578 520.897 852.057 522.043 851.367 523.02C850.677 523.983 849.818 524.738 848.789 525.285C847.773 525.819 846.602 526.086 845.273 526.086C843.984 526.086 842.865 525.826 841.914 525.305C840.964 524.784 840.163 524.055 839.512 523.117C838.874 522.167 838.359 521.066 837.969 519.816C837.578 518.566 837.279 517.225 837.07 515.793V514.719C837.279 513.182 837.578 511.776 837.969 510.5C838.359 509.211 838.874 508.098 839.512 507.16C840.163 506.21 840.957 505.474 841.895 504.953C842.845 504.432 843.958 504.172 845.234 504.172C846.576 504.172 847.754 504.426 848.77 504.934C849.798 505.441 850.658 506.171 851.348 507.121C852.051 508.072 852.578 509.204 852.93 510.52C853.294 511.835 853.477 513.293 853.477 514.895ZM847.832 515.305V514.895C847.832 513.996 847.754 513.169 847.598 512.414C847.454 511.646 847.22 510.975 846.895 510.402C846.582 509.829 846.165 509.387 845.645 509.074C845.137 508.749 844.518 508.586 843.789 508.586C843.021 508.586 842.363 508.71 841.816 508.957C841.283 509.204 840.846 509.562 840.508 510.031C840.169 510.5 839.915 511.06 839.746 511.711C839.577 512.362 839.473 513.098 839.434 513.918V516.633C839.499 517.596 839.681 518.462 839.98 519.23C840.28 519.986 840.742 520.585 841.367 521.027C841.992 521.47 842.812 521.691 843.828 521.691C844.57 521.691 845.195 521.529 845.703 521.203C846.211 520.865 846.621 520.402 846.934 519.816C847.259 519.23 847.487 518.553 847.617 517.785C847.76 517.017 847.832 516.19 847.832 515.305Z" fill="white"/>
</g>
<defs>
<filter id="filter0_f_15071_16652" x="-486.125" y="-330.376" width="1218.63" height="1208.52" filterUnits="userSpaceOnUse" color-interpolation-filters="sRGB">
<feFlood flood-opacity="0" result="BackgroundImageFix"/>
<feBlend mode="normal" in="SourceGraphic" in2="BackgroundImageFix" result="shape"/>
<feGaussianBlur stdDeviation="100" result="effect1_foregroundBlur_15071_16652"/>
</filter>
<filter id="filter1_f_15071_16652" x="520.312" y="175" width="1218.63" height="1208.52" filterUnits="userSpaceOnUse" color-interpolation-filters="sRGB">
<feFlood flood-opacity="0" result="BackgroundImageFix"/>
<feBlend mode="normal" in="SourceGraphic" in2="BackgroundImageFix" result="shape"/>
<feGaussianBlur stdDeviation="100" result="effect1_foregroundBlur_15071_16652"/>
</filter>
<filter id="filter2_f_15071_16652" x="1011.77" y="141.307" width="1218.83" height="1208.72" filterUnits="userSpaceOnUse" color-interpolation-filters="sRGB">
<feFlood flood-opacity="0" result="BackgroundImageFix"/>
<feBlend mode="normal" in="SourceGraphic" in2="BackgroundImageFix" result="shape"/>
<feGaussianBlur stdDeviation="100" result="effect1_foregroundBlur_15071_16652"/>
</filter>
<filter id="filter3_f_15071_16652" x="-456.45" y="-765.968" width="1218.63" height="1208.52" filterUnits="userSpaceOnUse" color-interpolation-filters="sRGB">
<feFlood flood-opacity="0" result="BackgroundImageFix"/>
<feBlend mode="normal" in="SourceGraphic" in2="BackgroundImageFix" result="shape"/>
<feGaussianBlur stdDeviation="100" result="effect1_foregroundBlur_15071_16652"/>
</filter>
<filter id="filter4_bd_15071_16652" x="605.827" y="369.827" width="1000.18" height="1000.18" filterUnits="userSpaceOnUse" color-interpolation-filters="sRGB">
<feFlood flood-opacity="0" result="BackgroundImageFix"/>
<feGaussianBlur in="BackgroundImageFix" stdDeviation="100"/>
<feComposite in2="SourceAlpha" operator="in" result="effect1_backgroundBlur_15071_16652"/>
<feColorMatrix in="SourceAlpha" type="matrix" values="0 0 0 0 0 0 0 0 0 0 0 0 0 0 0 0 0 0 127 0" result="hardAlpha"/>
<feOffset dy="20"/>
<feGaussianBlur stdDeviation="20"/>
<feColorMatrix type="matrix" values="0 0 0 0 0.192708 0 0 0 0 0.31622 0 0 0 0 0.625 0 0 0 0.23 0"/>
<feBlend mode="normal" in2="effect1_backgroundBlur_15071_16652" result="effect2_dropShadow_15071_16652"/>
<feBlend mode="normal" in="SourceGraphic" in2="effect2_dropShadow_15071_16652" result="shape"/>
</filter>
<filter id="filter5_bd_15071_16652" x="897.304" y="429.709" width="1000.18" height="1000.18" filterUnits="userSpaceOnUse" color-interpolation-filters="sRGB">
<feFlood flood-opacity="0" result="BackgroundImageFix"/>
<feGaussianBlur in="BackgroundImageFix" stdDeviation="100"/>
<feComposite in2="SourceAlpha" operator="in" result="effect1_backgroundBlur_15071_16652"/>
<feColorMatrix in="SourceAlpha" type="matrix" values="0 0 0 0 0 0 0 0 0 0 0 0 0 0 0 0 0 0 127 0" result="hardAlpha"/>
<feOffset dy="20"/>
<feGaussianBlur stdDeviation="20"/>
<feColorMatrix type="matrix" values="0 0 0 0 0.133611 0 0 0 0 0.271627 0 0 0 0 0.616667 0 0 0 0.32 0"/>
<feBlend mode="normal" in2="effect1_backgroundBlur_15071_16652" result="effect2_dropShadow_15071_16652"/>
<feBlend mode="normal" in="SourceGraphic" in2="effect2_dropShadow_15071_16652" result="shape"/>
</filter>
<filter id="filter6_bd_15071_16652" x="-194.17" y="-437.173" width="786.826" height="786.826" filterUnits="userSpaceOnUse" color-interpolation-filters="sRGB">
<feFlood flood-opacity="0" result="BackgroundImageFix"/>
<feGaussianBlur in="BackgroundImageFix" stdDeviation="100"/>
<feComposite in2="SourceAlpha" operator="in" result="effect1_backgroundBlur_15071_16652"/>
<feColorMatrix in="SourceAlpha" type="matrix" values="0 0 0 0 0 0 0 0 0 0 0 0 0 0 0 0 0 0 127 0" result="hardAlpha"/>
<feOffset dy="20"/>
<feGaussianBlur stdDeviation="20"/>
<feColorMatrix type="matrix" values="0 0 0 0 0.133611 0 0 0 0 0.271627 0 0 0 0 0.616667 0 0 0 0.32 0"/>
<feBlend mode="normal" in2="effect1_backgroundBlur_15071_16652" result="effect2_dropShadow_15071_16652"/>
<feBlend mode="normal" in="SourceGraphic" in2="effect2_dropShadow_15071_16652" result="shape"/>
</filter>
<filter id="filter7_d_15071_16652" x="560" y="260" width="320.183" height="299.012" filterUnits="userSpaceOnUse" color-interpolation-filters="sRGB">
<feFlood flood-opacity="0" result="BackgroundImageFix"/>
<feColorMatrix in="SourceAlpha" type="matrix" values="0 0 0 0 0 0 0 0 0 0 0 0 0 0 0 0 0 0 127 0" result="hardAlpha"/>
<feOffset dy="24"/>
<feGaussianBlur stdDeviation="40"/>
<feComposite in2="hardAlpha" operator="out"/>
<feColorMatrix type="matrix" values="0 0 0 0 0.256205 0 0 0 0 0.381526 0 0 0 0 0.741826 0 0 0 0.26 0"/>
<feBlend mode="normal" in2="BackgroundImageFix" result="effect1_dropShadow_15071_16652"/>
<feBlend mode="normal" in="SourceGraphic" in2="effect1_dropShadow_15071_16652" result="shape"/>
</filter>
<linearGradient id="paint0_linear_15071_16652" x1="0" y1="0" x2="1552.92" y2="331.272" gradientUnits="userSpaceOnUse">
<stop stop-color="#8082FF"/>
<stop offset="1" stop-color="#8BA4FF"/>
</linearGradient>
<linearGradient id="paint1_linear_15071_16652" x1="687.265" y1="383.052" x2="798.065" y2="414.367" gradientUnits="userSpaceOnUse">
<stop stop-color="white"/>
<stop offset="1" stop-color="white"/>
</linearGradient>
<linearGradient id="paint2_linear_15071_16652" x1="779.358" y1="380.936" x2="699.181" y2="300.834" gradientUnits="userSpaceOnUse">
<stop stop-color="#8697FF"/>
<stop offset="1" stop-color="#8697FF" stop-opacity="0"/>
</linearGradient>
<linearGradient id="paint3_linear_15071_16652" x1="738.099" y1="425.899" x2="661.21" y2="381.841" gradientUnits="userSpaceOnUse">
<stop stop-color="#8697FF"/>
<stop offset="1" stop-color="#8697FF" stop-opacity="0"/>
</linearGradient>
<linearGradient id="paint4_linear_15071_16652" x1="693.875" y1="382.222" x2="745.975" y2="448.198" gradientUnits="userSpaceOnUse">
<stop stop-color="white"/>
<stop offset="0.983895" stop-color="#D1D8FF"/>
</linearGradient>
<clipPath id="clip0_15071_16652">
<rect width="1440" height="900" rx="12" fill="white"/>
</clipPath>
</defs>
</svg>
