<svg width="32" height="32" viewBox="0 0 32 32" fill="none" xmlns="http://www.w3.org/2000/svg">
<rect width="32" height="32" rx="16" fill="white"/>
<path d="M8.00073 19.4655C8.01902 18.6919 8.18007 18.0765 8.50709 17.5076C10.7608 13.5913 13.0155 9.67644 15.2711 5.76298C15.6558 5.09558 16.1474 4.87264 16.7367 5.06393C16.9323 5.12793 17.1123 5.22568 17.2227 5.39306C17.5961 5.95568 17.9639 6.52744 18.2192 7.15686C18.4429 7.70682 18.3381 8.2399 18.0505 8.7364C15.5327 13.0807 13.0127 17.4232 10.4903 21.7638C10.3257 22.0451 10.1781 22.3397 9.9938 22.6077C9.72585 22.998 9.24833 22.9994 9.00922 22.5936C8.44609 21.6382 8.10167 20.5699 8.00073 19.4655V19.4655Z" fill="black"/>
<path d="M19.942 24.4636C19.942 24.7724 19.897 25.0804 19.7311 25.3378C19.2465 26.0784 18.7085 26.7633 17.7682 26.961C17.3603 27.0468 16.9735 26.9645 16.6078 26.7943C15.2735 26.1726 13.9424 25.5448 12.6147 24.9109C11.5401 24.3989 11.173 23.2231 11.763 22.1998C12.2347 21.3812 12.7096 20.564 13.1878 19.7482C13.7927 18.7123 14.8715 18.5576 15.7323 19.4015C16.9327 20.5788 18.1199 21.7701 19.3105 22.9572C19.5131 23.1519 19.6737 23.3859 19.7823 23.645C19.8909 23.9041 19.9453 24.1827 19.942 24.4636V24.4636Z" fill="black"/>
<path d="M20.7075 17.6217C21.5036 17.6217 22.3004 17.6091 23.0986 17.626C23.8765 17.6414 24.5003 17.9699 24.9201 18.6352C25.3062 19.2463 25.2753 19.9468 24.7949 20.4883C24.182 21.1805 23.5242 21.8318 22.8258 22.4377C22.1556 23.0179 21.2406 22.9891 20.5922 22.3674C19.5373 21.3554 18.5077 20.3174 17.4739 19.2836C17.1673 18.9762 17.0555 18.6035 17.2446 18.1921C17.424 17.8018 17.7566 17.6295 18.1779 17.6232C19.0204 17.6182 19.8636 17.6217 20.7075 17.6217Z" fill="#2161FF"/>
<path d="M19.2125 16.331C18.6625 16.331 18.1126 16.3373 17.5626 16.331C16.4107 16.3162 15.8044 15.2761 16.3671 14.2732C16.9044 13.3177 17.4529 12.3681 18.0127 11.4243C18.7068 10.2604 20.067 10.2667 20.7512 11.432C21.2599 12.297 21.7616 13.1661 22.2562 14.039C22.8188 15.0349 22.2443 16.1932 21.1036 16.3036C20.4784 16.3641 19.8419 16.3141 19.2111 16.3141L19.2125 16.331Z" fill="black"/>
</svg>
