<svg width="32" height="32" viewBox="0 0 32 32" fill="none" xmlns="http://www.w3.org/2000/svg">
<rect width="32" height="32" rx="16" fill="#17C123"/>
<path d="M13.1373 6H17.8792V13.8142H14.9389V8.51549H12.3047L13.1373 6.00074V6Z" fill="white"/>
<path fill-rule="evenodd" clip-rule="evenodd" d="M16.3379 25.6349C17.0481 25.6349 17.7514 25.495 18.4075 25.2232C19.0637 24.9514 19.6599 24.5531 20.1621 24.0509C20.6643 23.5487 21.0626 22.9525 21.3344 22.2963C21.6062 21.6402 21.7461 20.9369 21.7461 20.2267C21.7461 19.5165 21.6062 18.8132 21.3344 18.1571C21.0626 17.5009 20.6643 16.9047 20.1621 16.4025C19.6599 15.9003 19.0637 15.5019 18.4075 15.2302C17.7514 14.9584 17.0481 14.8185 16.3379 14.8185C14.9035 14.8185 13.5279 15.3883 12.5137 16.4025C11.4995 17.4167 10.9297 18.7923 10.9297 20.2267C10.9297 21.661 11.4995 23.0366 12.5137 24.0509C13.5279 25.0651 14.9035 25.6349 16.3379 25.6349ZM16.3379 23.1791C16.7295 23.1853 17.1185 23.1135 17.4821 22.9679C17.8458 22.8223 18.1768 22.6058 18.4559 22.3311C18.7351 22.0563 18.9568 21.7287 19.1081 21.3674C19.2594 21.0062 19.3374 20.6184 19.3374 20.2267C19.3374 19.835 19.2594 19.4472 19.1081 19.0859C18.9568 18.7246 18.7351 18.3971 18.4559 18.1223C18.1768 17.8475 17.8458 17.631 17.4821 17.4854C17.1185 17.3398 16.7295 17.268 16.3379 17.2742C15.5548 17.2742 14.8037 17.5853 14.2499 18.1391C13.6962 18.6929 13.3851 19.4439 13.3851 20.2271C13.3851 21.0102 13.6962 21.7612 14.2499 22.315C14.8037 22.8688 15.5548 23.1799 16.3379 23.1799V23.1791Z" fill="white"/>
</svg>
