<svg width="20" height="20" viewBox="0 0 20 20" fill="none" xmlns="http://www.w3.org/2000/svg">
<path d="M3.61877 3.5V3C3.61877 2.17157 4.29035 1.5 5.11877 1.5H18C18.8284 1.5 19.5 2.17158 19.5 3.00001L19.5 14.0508C19.5 15.1273 18.6273 16 17.5508 16V16" stroke="#8697FF"/>
<path d="M3.61877 3.5V3C3.61877 2.17157 4.29035 1.5 5.11877 1.5H18C18.8284 1.5 19.5 2.17158 19.5 3.00001L19.5 14.0508C19.5 15.1273 18.6273 16 17.5508 16V16" stroke="#8697FF"/>
<path d="M0.625 5.50329C0.625 5.02005 1.01675 4.6283 1.5 4.6283H15.5773C16.0606 4.6283 16.4523 5.02005 16.4523 5.5033V17.5C16.4523 17.9833 16.0606 18.375 15.5773 18.375H1.5C1.01675 18.375 0.625 17.9833 0.625 17.5V5.50329Z" stroke="#8697FF" stroke-width="1.25"/>
<path d="M0.625 5.50329C0.625 5.02005 1.01675 4.6283 1.5 4.6283H15.5773C16.0606 4.6283 16.4523 5.02005 16.4523 5.5033V17.5C16.4523 17.9833 16.0606 18.375 15.5773 18.375H1.5C1.01675 18.375 0.625 17.9833 0.625 17.5V5.50329Z" stroke="#8697FF" stroke-width="1.25"/>
<path d="M7.77796 8.16169C8.79323 7.14642 10.4393 7.14642 11.4546 8.16169C12.4699 9.17696 12.4699 10.823 11.4546 11.8383L8.8496 14.4433C7.83433 15.4586 6.18825 15.4586 5.17298 14.4433C4.15771 13.428 4.15771 11.7819 5.17298 10.7667L7.77796 8.16169Z" stroke="#8697FF"/>
<path d="M6.12727 7.54175C5.73675 7.15122 5.10358 7.15122 4.71306 7.54175C4.32254 7.93227 4.32253 8.56544 4.71306 8.95596L10.4217 14.6646C10.8122 15.0551 11.4454 15.0552 11.8359 14.6646C12.2265 14.2741 12.2265 13.6409 11.8359 13.2504L6.12727 7.54175Z" fill="#8697FF" stroke="#525767"/>
</svg>
