<svg width="20" height="20" viewBox="0 0 20 20" fill="none" xmlns="http://www.w3.org/2000/svg">
<path d="M3.61877 3.5V3C3.61877 2.17157 4.29035 1.5 5.11877 1.5H18C18.8284 1.5 19.5 2.17158 19.5 3.00001L19.5 14.0508C19.5 15.1273 18.6273 16 17.5508 16V16" stroke="#8697FF"/>
<path d="M3.61877 3.5V3C3.61877 2.17157 4.29035 1.5 5.11877 1.5H18C18.8284 1.5 19.5 2.17158 19.5 3.00001L19.5 14.0508C19.5 15.1273 18.6273 16 17.5508 16V16" stroke="#8697FF"/>
<path d="M0.625 5.50329C0.625 5.02005 1.01675 4.6283 1.5 4.6283H15.5773C16.0606 4.6283 16.4523 5.02005 16.4523 5.5033V17.5C16.4523 17.9833 16.0606 18.375 15.5773 18.375H1.5C1.01675 18.375 0.625 17.9833 0.625 17.5V5.50329Z" stroke="#8697FF" stroke-width="1.25"/>
<path d="M0.625 5.50329C0.625 5.02005 1.01675 4.6283 1.5 4.6283H15.5773C16.0606 4.6283 16.4523 5.02005 16.4523 5.5033V17.5C16.4523 17.9833 16.0606 18.375 15.5773 18.375H1.5C1.01675 18.375 0.625 17.9833 0.625 17.5V5.50329Z" stroke="#8697FF" stroke-width="1.25"/>
<path d="M5 8L12 15" stroke="#8697FF" stroke-linecap="round" stroke-linejoin="round"/>
<path d="M5 15L12 8" stroke="#8697FF" stroke-linecap="round" stroke-linejoin="round"/>
</svg>
