<svg width="338" height="60" viewBox="0 0 338 60" fill="none" xmlns="http://www.w3.org/2000/svg">
<path d="M97.1918 30.416V26.6H103.06C104.26 26.6 105.184 26.3 105.832 25.7C106.504 25.076 106.84 24.224 106.84 23.144C106.84 22.16 106.504 21.344 105.832 20.696C105.184 20.024 104.26 19.688 103.06 19.688H97.1918V15.692H103.492C105.124 15.692 106.552 16.016 107.776 16.664C109.024 17.288 109.984 18.152 110.656 19.256C111.352 20.36 111.7 21.632 111.7 23.072C111.7 24.56 111.352 25.856 110.656 26.96C109.984 28.04 109.024 28.892 107.776 29.516C106.528 30.116 105.076 30.416 103.42 30.416H97.1918ZM93.5918 41V15.692H98.4878V41H93.5918ZM107.416 41L99.0638 30.056L103.564 28.652L113.356 41H107.416Z" fill="white"/>
<path d="M122.403 41.36C120.819 41.36 119.391 40.964 118.119 40.172C116.847 39.38 115.851 38.3 115.131 36.932C114.411 35.564 114.051 34.028 114.051 32.324C114.051 30.596 114.411 29.048 115.131 27.68C115.851 26.312 116.847 25.232 118.119 24.44C119.391 23.648 120.819 23.252 122.403 23.252C123.651 23.252 124.767 23.504 125.751 24.008C126.735 24.512 127.515 25.22 128.091 26.132C128.691 27.02 129.015 28.028 129.063 29.156V35.42C129.015 36.572 128.691 37.592 128.091 38.48C127.515 39.368 126.735 40.076 125.751 40.604C124.767 41.108 123.651 41.36 122.403 41.36ZM123.267 37.004C124.587 37.004 125.655 36.572 126.471 35.708C127.287 34.82 127.695 33.68 127.695 32.288C127.695 31.376 127.503 30.572 127.119 29.876C126.759 29.156 126.243 28.604 125.571 28.22C124.923 27.812 124.155 27.608 123.267 27.608C122.403 27.608 121.635 27.812 120.963 28.22C120.315 28.604 119.799 29.156 119.415 29.876C119.055 30.572 118.875 31.376 118.875 32.288C118.875 33.224 119.055 34.052 119.415 34.772C119.799 35.468 120.315 36.02 120.963 36.428C121.635 36.812 122.403 37.004 123.267 37.004ZM127.443 41V36.32L128.199 32.072L127.443 27.896V23.612H132.123V41H127.443Z" fill="white"/>
<path d="M145.943 41.36C144.695 41.36 143.567 41.096 142.559 40.568C141.551 40.04 140.747 39.32 140.147 38.408C139.547 37.496 139.223 36.476 139.175 35.348V29.156C139.223 28.028 139.547 27.02 140.147 26.132C140.771 25.22 141.587 24.512 142.595 24.008C143.603 23.504 144.719 23.252 145.943 23.252C147.551 23.252 148.991 23.648 150.263 24.44C151.535 25.232 152.531 26.312 153.251 27.68C153.995 29.048 154.367 30.596 154.367 32.324C154.367 34.028 153.995 35.564 153.251 36.932C152.531 38.3 151.535 39.38 150.263 40.172C148.991 40.964 147.551 41.36 145.943 41.36ZM145.151 37.004C146.015 37.004 146.771 36.812 147.419 36.428C148.091 36.02 148.607 35.468 148.967 34.772C149.351 34.052 149.543 33.224 149.543 32.288C149.543 31.376 149.351 30.572 148.967 29.876C148.607 29.156 148.091 28.604 147.419 28.22C146.747 27.812 145.979 27.608 145.115 27.608C144.251 27.608 143.483 27.812 142.811 28.22C142.163 28.604 141.647 29.156 141.263 29.876C140.903 30.572 140.723 31.376 140.723 32.288C140.723 33.224 140.903 34.052 141.263 34.772C141.647 35.468 142.175 36.02 142.847 36.428C143.519 36.812 144.287 37.004 145.151 37.004ZM136.295 41V14.972H141.011V27.896L140.219 32.072L140.975 36.32V41H136.295Z" fill="white"/>
<path d="M167.107 41.36C165.859 41.36 164.731 41.096 163.723 40.568C162.715 40.04 161.911 39.32 161.311 38.408C160.711 37.496 160.387 36.476 160.339 35.348V29.156C160.387 28.028 160.711 27.02 161.311 26.132C161.935 25.22 162.751 24.512 163.759 24.008C164.767 23.504 165.883 23.252 167.107 23.252C168.715 23.252 170.155 23.648 171.427 24.44C172.699 25.232 173.695 26.312 174.415 27.68C175.159 29.048 175.531 30.596 175.531 32.324C175.531 34.028 175.159 35.564 174.415 36.932C173.695 38.3 172.699 39.38 171.427 40.172C170.155 40.964 168.715 41.36 167.107 41.36ZM166.315 37.004C167.179 37.004 167.935 36.812 168.583 36.428C169.255 36.02 169.771 35.468 170.131 34.772C170.515 34.052 170.707 33.224 170.707 32.288C170.707 31.376 170.515 30.572 170.131 29.876C169.771 29.156 169.255 28.604 168.583 28.22C167.911 27.812 167.143 27.608 166.279 27.608C165.415 27.608 164.647 27.812 163.975 28.22C163.327 28.604 162.811 29.156 162.427 29.876C162.067 30.572 161.887 31.376 161.887 32.288C161.887 33.224 162.067 34.052 162.427 34.772C162.811 35.468 163.339 36.02 164.011 36.428C164.683 36.812 165.451 37.004 166.315 37.004ZM157.459 41V14.972H162.175V27.896L161.383 32.072L162.139 36.32V41H157.459Z" fill="white"/>
<path d="M183.568 41.144L176.296 23.612H181.408L186.232 37.004H184.504L189.508 23.612H194.656L186.916 41.108L183.568 41.144ZM178.744 48.272L184.036 37.076L186.916 41.108L183.748 48.272H178.744Z" fill="white"/>
<path d="M207.928 41V36.644H214.372C216.004 36.644 217.432 36.308 218.656 35.636C219.88 34.94 220.828 33.968 221.5 32.72C222.196 31.472 222.544 29.996 222.544 28.292C222.544 26.636 222.196 25.196 221.5 23.972C220.804 22.724 219.844 21.764 218.62 21.092C217.396 20.396 215.98 20.048 214.372 20.048H207.82V15.692H214.444C216.316 15.692 218.044 16.004 219.628 16.628C221.236 17.252 222.628 18.14 223.804 19.292C225.004 20.42 225.928 21.752 226.576 23.288C227.248 24.824 227.584 26.504 227.584 28.328C227.584 30.152 227.248 31.844 226.576 33.404C225.928 34.94 225.016 36.284 223.84 37.436C222.664 38.564 221.272 39.44 219.664 40.064C218.08 40.688 216.364 41 214.516 41H207.928ZM204.58 41V15.692H209.476V41H204.58Z" fill="white"/>
<path d="M239.287 41.36C237.463 41.36 235.843 40.976 234.427 40.208C233.011 39.416 231.883 38.336 231.043 36.968C230.227 35.6 229.819 34.04 229.819 32.288C229.819 30.56 230.215 29.024 231.007 27.68C231.823 26.312 232.927 25.232 234.319 24.44C235.711 23.624 237.259 23.216 238.963 23.216C240.643 23.216 242.119 23.6 243.391 24.368C244.687 25.112 245.695 26.144 246.415 27.464C247.159 28.76 247.531 30.236 247.531 31.892C247.531 32.204 247.507 32.528 247.459 32.864C247.435 33.176 247.375 33.536 247.279 33.944L232.663 33.98V30.452L245.083 30.416L243.175 31.892C243.127 30.86 242.935 29.996 242.599 29.3C242.287 28.604 241.819 28.076 241.195 27.716C240.595 27.332 239.851 27.14 238.963 27.14C238.027 27.14 237.211 27.356 236.515 27.788C235.819 28.196 235.279 28.784 234.895 29.552C234.535 30.296 234.355 31.184 234.355 32.216C234.355 33.272 234.547 34.196 234.931 34.988C235.339 35.756 235.915 36.356 236.659 36.788C237.403 37.196 238.267 37.4 239.251 37.4C240.139 37.4 240.943 37.256 241.663 36.968C242.383 36.656 243.007 36.2 243.535 35.6L246.307 38.372C245.467 39.356 244.435 40.1 243.211 40.604C242.011 41.108 240.703 41.36 239.287 41.36Z" fill="white"/>
<path d="M256.423 41.396C255.439 41.396 254.467 41.264 253.507 41C252.571 40.736 251.707 40.376 250.915 39.92C250.123 39.44 249.439 38.864 248.863 38.192L251.671 35.348C252.271 36.02 252.967 36.524 253.759 36.86C254.551 37.196 255.427 37.364 256.387 37.364C257.155 37.364 257.731 37.256 258.115 37.04C258.523 36.824 258.727 36.5 258.727 36.068C258.727 35.588 258.511 35.216 258.079 34.952C257.671 34.688 257.131 34.472 256.459 34.304C255.787 34.112 255.079 33.908 254.335 33.692C253.615 33.452 252.919 33.152 252.247 32.792C251.575 32.408 251.023 31.892 250.591 31.244C250.183 30.572 249.979 29.708 249.979 28.652C249.979 27.548 250.243 26.588 250.771 25.772C251.323 24.956 252.103 24.32 253.111 23.864C254.119 23.408 255.307 23.18 256.675 23.18C258.115 23.18 259.411 23.432 260.563 23.936C261.739 24.44 262.711 25.196 263.479 26.204L260.635 29.048C260.107 28.4 259.507 27.932 258.835 27.644C258.187 27.356 257.479 27.212 256.711 27.212C256.015 27.212 255.475 27.32 255.091 27.536C254.731 27.752 254.551 28.052 254.551 28.436C254.551 28.868 254.755 29.204 255.163 29.444C255.595 29.684 256.147 29.9 256.819 30.092C257.491 30.26 258.187 30.464 258.907 30.704C259.651 30.92 260.347 31.232 260.995 31.64C261.667 32.048 262.207 32.588 262.615 33.26C263.047 33.932 263.263 34.796 263.263 35.852C263.263 37.556 262.651 38.912 261.427 39.92C260.203 40.904 258.535 41.396 256.423 41.396Z" fill="white"/>
<path d="M277.531 41L270.799 32.036L277.495 23.612H282.931L275.083 33.116L275.263 30.812L283.291 41H277.531ZM266.443 41V14.972H271.159V41H266.443Z" fill="white"/>
<path d="M286.964 41V16.376H291.68V41H286.964ZM282.896 27.752V23.612H295.748V27.752H282.896Z" fill="white"/>
<path d="M306.15 41.36C304.398 41.36 302.814 40.964 301.398 40.172C300.006 39.356 298.89 38.264 298.05 36.896C297.234 35.504 296.826 33.956 296.826 32.252C296.826 30.548 297.234 29.024 298.05 27.68C298.866 26.312 299.982 25.232 301.398 24.44C302.814 23.624 304.386 23.216 306.114 23.216C307.89 23.216 309.474 23.624 310.866 24.44C312.282 25.232 313.398 26.312 314.214 27.68C315.03 29.024 315.438 30.548 315.438 32.252C315.438 33.956 315.03 35.504 314.214 36.896C313.398 38.264 312.282 39.356 310.866 40.172C309.474 40.964 307.902 41.36 306.15 41.36ZM306.114 36.968C307.002 36.968 307.782 36.776 308.454 36.392C309.15 35.984 309.678 35.432 310.038 34.736C310.422 34.016 310.614 33.2 310.614 32.288C310.614 31.376 310.422 30.572 310.038 29.876C309.654 29.18 309.126 28.64 308.454 28.256C307.782 27.848 307.002 27.644 306.114 27.644C305.25 27.644 304.482 27.848 303.81 28.256C303.138 28.64 302.61 29.18 302.226 29.876C301.842 30.572 301.65 31.376 301.65 32.288C301.65 33.2 301.842 34.016 302.226 34.736C302.61 35.432 303.138 35.984 303.81 36.392C304.482 36.776 305.25 36.968 306.114 36.968Z" fill="white"/>
<path d="M328.123 41.36C326.875 41.36 325.747 41.108 324.739 40.604C323.731 40.076 322.927 39.368 322.327 38.48C321.727 37.592 321.403 36.572 321.355 35.42V29.264C321.403 28.112 321.727 27.092 322.327 26.204C322.951 25.292 323.755 24.572 324.739 24.044C325.747 23.516 326.875 23.252 328.123 23.252C329.731 23.252 331.171 23.648 332.443 24.44C333.715 25.232 334.711 26.312 335.431 27.68C336.175 29.048 336.547 30.596 336.547 32.324C336.547 34.028 336.175 35.564 335.431 36.932C334.711 38.3 333.715 39.38 332.443 40.172C331.171 40.964 329.731 41.36 328.123 41.36ZM327.295 37.004C328.159 37.004 328.927 36.812 329.599 36.428C330.271 36.02 330.787 35.468 331.147 34.772C331.531 34.052 331.723 33.224 331.723 32.288C331.723 31.376 331.531 30.572 331.147 29.876C330.787 29.156 330.271 28.604 329.599 28.22C328.927 27.812 328.159 27.608 327.295 27.608C326.455 27.608 325.699 27.812 325.027 28.22C324.355 28.604 323.827 29.156 323.443 29.876C323.083 30.572 322.903 31.376 322.903 32.288C322.903 33.224 323.083 34.052 323.443 34.772C323.827 35.468 324.343 36.02 324.991 36.428C325.663 36.812 326.431 37.004 327.295 37.004ZM318.475 48.272V23.612H323.191V28.184L322.399 32.396L323.155 36.608V48.272H318.475Z" fill="white"/>
<g filter="url(#filter0_i_32691_93398)">
<path d="M69.1989 34.0423C71.7334 28.3613 59.2038 12.4896 47.2338 5.87712C39.6887 0.754521 31.8268 1.45828 30.2345 3.70749C26.74 8.6436 41.8055 12.8262 51.8811 17.707C49.7152 18.6508 47.6742 20.3446 46.474 22.5107C42.7177 18.3961 34.4733 14.8528 24.7994 17.707C18.2803 19.6304 12.8624 24.1648 10.7685 31.0135C10.2597 30.7867 9.69633 30.6606 9.10366 30.6606C6.83727 30.6606 5 32.5041 5 34.7781C5 37.0521 6.83727 38.8956 9.10366 38.8956C9.52375 38.8956 10.8372 38.6129 10.8372 38.6129L31.8268 38.7655C23.4326 52.1269 16.7988 54.0801 16.7988 56.3949C16.7988 58.7097 23.1462 58.0824 25.5295 57.2196C36.9385 53.0891 49.1924 40.216 51.2951 36.5103C60.1254 37.6157 67.5464 37.7464 69.1989 34.0423Z" fill="url(#paint0_linear_32691_93398)"/>
</g>
<path fill-rule="evenodd" clip-rule="evenodd" d="M51.8694 17.7014C52.2804 17.488 52.2058 16.8273 52.0824 16.3042C51.7876 15.055 46.7021 10.0163 41.9265 7.75942C35.5251 4.7342 30.7838 4.83838 29.9573 6.19189C31.2292 8.93731 37.4117 11.5122 43.8707 14.2021C46.6045 15.3407 49.3879 16.4999 51.8694 17.7014Z" fill="url(#paint1_linear_32691_93398)"/>
<path fill-rule="evenodd" clip-rule="evenodd" d="M43.6222 45.1429C42.3062 44.6381 40.8194 44.1751 39.1292 43.755C40.9312 40.5196 41.3093 35.73 39.6074 32.7017C37.219 28.4518 34.2207 26.1897 27.2536 26.1897C23.4216 26.1897 13.1043 27.4848 12.9212 36.1265C12.9019 37.0332 12.9207 37.8642 12.9861 38.6285L31.8268 38.7655C29.2868 42.8084 26.908 45.8069 24.8254 48.0869C27.3257 48.7297 29.389 49.2694 31.2833 49.7649C33.0809 50.2351 34.7264 50.6655 36.4485 51.1064C39.0462 49.2075 41.4883 47.1368 43.6222 45.1429Z" fill="url(#paint2_linear_32691_93398)"/>
<path d="M51.8235 16.4002C51.9027 16.8023 51.927 17.308 51.5088 17.4077C43.9203 13.9167 31.2835 10.1363 33.1024 7.54237C33.7903 6.56136 37.9833 6.78852 43.4836 9.48859C47.511 11.4656 51.6416 15.4759 51.8235 16.4002Z" fill="url(#paint3_linear_32691_93398)"/>
<path d="M52.2319 17.0003C52.292 17.2781 52.2933 17.6171 51.8754 17.6261C44.5304 14.27 32.2075 10.0309 34.1227 8.55776C34.847 8.00062 38.9822 8.72526 44.2984 11.2705C48.1909 13.1341 52.0937 16.3618 52.2319 17.0003Z" fill="url(#paint4_linear_32691_93398)"/>
<path d="M10.5169 37.7404C11.2866 44.3051 15.0049 46.8778 22.6029 47.6392C30.2009 48.4005 34.5593 47.8898 40.3616 48.4195C45.2078 48.8619 49.5348 51.3397 51.1401 50.4834C52.5847 49.7128 51.7765 46.9286 49.8434 45.1423C47.3376 42.8269 43.8696 41.2171 37.7674 40.6458C38.9835 37.3048 38.6428 32.6205 36.7541 30.0719C34.0232 26.3869 28.9825 24.7209 22.6029 25.4488C15.9376 26.2093 9.55104 29.5018 10.5169 37.7404Z" fill="url(#paint5_linear_32691_93398)"/>
<path d="M10.4248 37.4756C11.1416 44.0105 14.7148 46.5586 22.0332 47.288C29.3516 48.0174 33.5531 47.4922 39.1421 47.9977C43.8101 48.4199 47.9701 50.8713 49.5201 50.0124C50.9151 49.2394 50.1468 46.4696 48.2908 44.698C45.8851 42.4016 42.5494 40.8115 36.6717 40.2656C37.8561 36.9338 37.5454 32.2699 35.7351 29.7388C33.1176 26.0793 28.2668 24.4392 22.1168 25.1883C15.6915 25.971 9.52512 29.2743 10.4248 37.4756Z" fill="url(#paint6_linear_32691_93398)"/>
<defs>
<filter id="filter0_i_32691_93398" x="5" y="2" width="64.5283" height="56" filterUnits="userSpaceOnUse" color-interpolation-filters="sRGB">
<feFlood flood-opacity="0" result="BackgroundImageFix"/>
<feBlend mode="normal" in="SourceGraphic" in2="BackgroundImageFix" result="shape"/>
<feColorMatrix in="SourceAlpha" type="matrix" values="0 0 0 0 0 0 0 0 0 0 0 0 0 0 0 0 0 0 127 0" result="hardAlpha"/>
<feOffset dx="-0.876453" dy="0.876453"/>
<feComposite in2="hardAlpha" operator="arithmetic" k2="-1" k3="1"/>
<feColorMatrix type="matrix" values="0 0 0 0 1 0 0 0 0 1 0 0 0 0 1 0 0 0 0.19 0"/>
<feBlend mode="normal" in2="shape" result="effect1_innerShadow_32691_93398"/>
</filter>
<linearGradient id="paint0_linear_32691_93398" x1="24.0403" y1="29.0115" x2="75.0104" y2="34.9099" gradientUnits="userSpaceOnUse">
<stop stop-color="#8697FF"/>
<stop offset="0.570959" stop-color="#979FFF"/>
<stop offset="1" stop-color="#C6ABFF"/>
</linearGradient>
<linearGradient id="paint1_linear_32691_93398" x1="61.1951" y1="29.5357" x2="26.8557" y2="-2.75848" gradientUnits="userSpaceOnUse">
<stop stop-color="#8697FF"/>
<stop offset="1" stop-color="#5156D8" stop-opacity="0"/>
</linearGradient>
<linearGradient id="paint2_linear_32691_93398" x1="44.5179" y1="46.2706" x2="13.5438" y2="28.5224" gradientUnits="userSpaceOnUse">
<stop stop-color="#465EED"/>
<stop offset="1" stop-color="#8697FF" stop-opacity="0"/>
</linearGradient>
<linearGradient id="paint3_linear_32691_93398" x1="42.7981" y1="7.63191" x2="42.0515" y2="16.6224" gradientUnits="userSpaceOnUse">
<stop stop-color="#6A78EA"/>
<stop offset="1" stop-color="#6A78EA" stop-opacity="0"/>
</linearGradient>
<linearGradient id="paint4_linear_32691_93398" x1="43.7043" y1="9.94406" x2="42.5608" y2="15.8105" gradientUnits="userSpaceOnUse">
<stop stop-color="#6A78EA"/>
<stop offset="1" stop-color="#6A78EA" stop-opacity="0"/>
</linearGradient>
<linearGradient id="paint5_linear_32691_93398" x1="26.7036" y1="28.6774" x2="47.6917" y2="55.2554" gradientUnits="userSpaceOnUse">
<stop stop-color="#B9C2FF"/>
<stop offset="0.983895" stop-color="#6277F1"/>
</linearGradient>
<linearGradient id="paint6_linear_32691_93398" x1="26.056" y1="28.3882" x2="47.0501" y2="54.066" gradientUnits="userSpaceOnUse">
<stop stop-color="#8898FF"/>
<stop offset="0.983895" stop-color="#6277F1"/>
</linearGradient>
</defs>
</svg>
