<svg width="634" height="164" viewBox="0 0 634 164" fill="none" xmlns="http://www.w3.org/2000/svg">
<g clip-path="url(#clip0_32691_93412)">
<g filter="url(#filter0_d_32691_93412)">
<path d="M17.9672 64.2369C14.4147 64.2369 11.382 63.587 8.86928 62.2873C6.35651 60.9876 4.12534 59.1031 2.17578 56.6336L6.33485 52.4745C7.76453 54.4674 9.41083 55.9838 11.2737 57.0235C13.1367 58.02 15.4328 58.5182 18.1622 58.5182C20.8483 58.5182 22.9928 57.9333 24.5958 56.7636C26.242 55.5938 27.0652 53.9909 27.0652 51.9547C27.0652 50.265 26.6753 48.9003 25.8955 47.8606C25.1156 46.8208 24.0542 45.976 22.7112 45.3261C21.4115 44.633 19.9818 44.0264 18.4221 43.5065C16.8625 42.9433 15.3028 42.3585 13.7432 41.7519C12.1835 41.1021 10.7539 40.3223 9.45415 39.4125C8.15444 38.4593 7.09301 37.2246 6.26986 35.7083C5.49004 34.192 5.10013 32.2857 5.10013 29.9896C5.10013 27.4335 5.70666 25.2673 6.91972 23.491C8.1761 21.6714 9.86572 20.2851 11.9886 19.332C14.1548 18.3355 16.5809 17.8373 19.2669 17.8373C22.213 17.8373 24.8557 18.4222 27.1952 19.5919C29.5346 20.7183 31.4409 22.213 32.9139 24.0759L28.7548 28.235C27.4118 26.6753 25.9604 25.5056 24.4008 24.7258C22.8845 23.9459 21.1299 23.556 19.137 23.556C16.7109 23.556 14.783 24.0976 13.3533 25.1807C11.9236 26.2204 11.2088 27.6934 11.2088 29.5997C11.2088 31.116 11.5987 32.3507 12.3785 33.3038C13.2016 34.2136 14.2631 34.9935 15.5628 35.6433C16.8625 36.2932 18.2922 36.8997 19.8518 37.4629C21.4548 37.9828 23.0361 38.5677 24.5958 39.2175C26.1554 39.8674 27.5851 40.6905 28.8848 41.687C30.1845 42.6834 31.2243 43.9831 32.0041 45.5861C32.8272 47.1457 33.2388 49.117 33.2388 51.4998C33.2388 55.4855 31.8525 58.6048 29.0797 60.8577C26.3504 63.1105 22.6462 64.2369 17.9672 64.2369Z" fill="white"/>
<path d="M56.6782 64.2369C54.3388 64.2369 52.2159 63.7603 50.3097 62.8072C48.4468 61.8108 46.9521 60.4461 45.8257 58.7131C44.6993 56.9802 44.0711 55.009 43.9411 52.7995V43.5065C44.0711 41.2537 44.6993 39.2825 45.8257 37.5929C46.9954 35.8599 48.5117 34.5169 50.3747 33.5638C52.2809 32.5673 54.3821 32.0691 56.6782 32.0691C59.4943 32.0691 62.0287 32.784 64.2815 34.2136C66.5777 35.6433 68.3756 37.5712 69.6753 39.9973C70.975 42.4235 71.6249 45.1528 71.6249 48.1855C71.6249 51.2182 70.975 53.9475 69.6753 56.3737C68.3756 58.7998 66.5777 60.7277 64.2815 62.1574C62.0287 63.5437 59.4943 64.2369 56.6782 64.2369ZM55.7035 58.7131C57.653 58.7131 59.3643 58.2582 60.8373 57.3484C62.3103 56.4386 63.48 55.2039 64.3465 53.6443C65.213 52.0413 65.6462 50.2 65.6462 48.1205C65.6462 46.0843 65.213 44.2647 64.3465 42.6617C63.48 41.0588 62.3103 39.824 60.8373 38.9576C59.3643 38.0478 57.6747 37.5929 55.7684 37.5929C53.8189 37.5929 52.1076 38.0478 50.6346 38.9576C49.1616 39.824 48.0135 41.0588 47.1904 42.6617C46.3672 44.2647 45.9557 46.106 45.9557 48.1855C45.9557 50.2217 46.3456 52.0413 47.1254 53.6443C47.9485 55.2039 49.0966 56.4386 50.5696 57.3484C52.0859 58.2582 53.7972 58.7131 55.7035 58.7131ZM40.4319 76.5191V32.719H46.2806V40.8421L45.1758 48.3155L46.2806 55.8538V76.5191H40.4319Z" fill="white"/>
<path d="M92.5522 64.2369C89.4762 64.2369 86.7035 63.5437 84.2341 62.1574C81.7646 60.7277 79.8151 58.7998 78.3854 56.3737C76.9557 53.9475 76.2409 51.1965 76.2409 48.1205C76.2409 45.0879 76.9341 42.3585 78.3204 39.9323C79.7501 37.5062 81.6563 35.6 84.0391 34.2136C86.4653 32.784 89.173 32.0691 92.1623 32.0691C95.0217 32.0691 97.5344 32.719 99.7006 34.0187C101.91 35.3184 103.621 37.1163 104.834 39.4125C106.091 41.7086 106.719 44.308 106.719 47.2107C106.719 47.644 106.697 48.1205 106.654 48.6404C106.611 49.117 106.524 49.6802 106.394 50.33H80.335V45.4561H103.275L101.13 47.3407C101.13 45.2612 100.762 43.5065 100.026 42.0769C99.2891 40.6039 98.2493 39.4775 96.9062 38.6976C95.5632 37.8745 93.9386 37.4629 92.0323 37.4629C90.0395 37.4629 88.2849 37.8961 86.7685 38.7626C85.2522 39.6291 84.0825 40.8421 83.2593 42.4018C82.4362 43.9614 82.0246 45.8027 82.0246 47.9256C82.0246 50.0917 82.4578 51.998 83.3243 53.6443C84.1908 55.2473 85.4255 56.5036 87.0285 57.4134C88.6314 58.2799 90.4727 58.7131 92.5522 58.7131C94.2852 58.7131 95.8665 58.4099 97.2962 57.8033C98.7692 57.1968 100.026 56.287 101.065 55.074L104.834 58.9081C103.361 60.641 101.542 61.9624 99.3757 62.8722C97.2528 63.782 94.9783 64.2369 92.5522 64.2369Z" fill="white"/>
<path d="M127.198 64.2369C124.165 64.2369 121.414 63.5221 118.945 62.0924C116.519 60.6627 114.591 58.7348 113.161 56.3087C111.775 53.8392 111.082 51.1098 111.082 48.1205C111.082 45.0879 111.775 42.3585 113.161 39.9323C114.591 37.5062 116.519 35.6 118.945 34.2136C121.414 32.784 124.165 32.0691 127.198 32.0691C129.581 32.0691 131.79 32.524 133.827 33.4338C135.863 34.3003 137.617 35.5783 139.09 37.2679L135.191 41.1671C134.238 40.0407 133.068 39.1959 131.682 38.6326C130.339 38.0261 128.844 37.7228 127.198 37.7228C125.249 37.7228 123.516 38.1777 121.999 39.0875C120.483 39.954 119.292 41.1671 118.425 42.7267C117.559 44.2864 117.125 46.0843 117.125 48.1205C117.125 50.1567 117.559 51.9547 118.425 53.5143C119.292 55.074 120.483 56.3087 121.999 57.2185C123.516 58.1283 125.249 58.5832 127.198 58.5832C128.844 58.5832 130.339 58.3016 131.682 57.7384C133.068 57.1318 134.26 56.2654 135.256 55.1389L139.09 59.0381C137.661 60.6844 135.906 61.9624 133.827 62.8722C131.79 63.782 129.581 64.2369 127.198 64.2369Z" fill="white"/>
<path d="M144.956 63.587V32.719H150.805V63.587H144.956ZM147.88 26.5454C146.797 26.5454 145.909 26.1988 145.216 25.5056C144.523 24.7691 144.176 23.8593 144.176 22.7762C144.176 21.7364 144.523 20.87 145.216 20.1768C145.909 19.4403 146.797 19.072 147.88 19.072C148.963 19.072 149.851 19.4403 150.545 20.1768C151.238 20.87 151.584 21.7364 151.584 22.7762C151.584 23.8593 151.238 24.7691 150.545 25.5056C149.851 26.1988 148.963 26.5454 147.88 26.5454Z" fill="white"/>
<path d="M172.551 64.2369C169.735 64.2369 167.179 63.5437 164.883 62.1574C162.586 60.7277 160.767 58.7998 159.424 56.3737C158.124 53.9475 157.474 51.2182 157.474 48.1855C157.474 45.1528 158.124 42.4235 159.424 39.9973C160.767 37.5712 162.565 35.6433 164.818 34.2136C167.114 32.784 169.691 32.0691 172.551 32.0691C174.89 32.0691 176.97 32.5673 178.789 33.5638C180.652 34.5169 182.147 35.8599 183.273 37.5929C184.4 39.2825 185.028 41.2537 185.158 43.5065V52.7995C185.028 55.009 184.4 56.9802 183.273 58.7131C182.19 60.4461 180.717 61.8108 178.854 62.8072C177.035 63.7603 174.934 64.2369 172.551 64.2369ZM173.526 58.7131C176.428 58.7131 178.768 57.7384 180.544 55.7888C182.32 53.7959 183.208 51.2615 183.208 48.1855C183.208 46.0626 182.797 44.2214 181.974 42.6617C181.194 41.0588 180.067 39.824 178.594 38.9576C177.121 38.0478 175.41 37.5929 173.461 37.5929C171.511 37.5929 169.778 38.0478 168.262 38.9576C166.789 39.8674 165.619 41.1238 164.753 42.7267C163.929 44.2864 163.518 46.0843 163.518 48.1205C163.518 50.2 163.929 52.0413 164.753 53.6443C165.619 55.2039 166.81 56.4386 168.327 57.3484C169.843 58.2582 171.576 58.7131 173.526 58.7131ZM182.819 63.587V55.2689L183.923 47.7306L182.819 40.2573V32.719H188.732V63.587H182.819Z" fill="white"/>
<path d="M197.247 63.587V17.1875H203.096V63.587H197.247Z" fill="white"/>
<path d="M211.718 63.587V32.719H217.567V63.587H211.718ZM214.643 26.5454C213.559 26.5454 212.671 26.1988 211.978 25.5056C211.285 24.7691 210.938 23.8593 210.938 22.7762C210.938 21.7364 211.285 20.87 211.978 20.1768C212.671 19.4403 213.559 19.072 214.643 19.072C215.726 19.072 216.614 19.4403 217.307 20.1768C218 20.87 218.347 21.7364 218.347 22.7762C218.347 23.8593 218 24.7691 217.307 25.5056C216.614 26.1988 215.726 26.5454 214.643 26.5454Z" fill="white"/>
<path d="M223.717 60.4028L242.043 35.9033H248.931L230.605 60.4028H223.717ZM223.717 63.587V60.4028L228.916 58.2582H248.541V63.587H223.717ZM224.821 38.0478V32.719H248.931V35.9033L243.537 38.0478H224.821Z" fill="white"/>
<path d="M268.977 64.2369C265.902 64.2369 263.129 63.5437 260.659 62.1574C258.19 60.7277 256.24 58.7998 254.811 56.3737C253.381 53.9475 252.666 51.1965 252.666 48.1205C252.666 45.0879 253.359 42.3585 254.746 39.9323C256.175 37.5062 258.082 35.6 260.464 34.2136C262.891 32.784 265.598 32.0691 268.588 32.0691C271.447 32.0691 273.96 32.719 276.126 34.0187C278.335 35.3184 280.047 37.1163 281.26 39.4125C282.516 41.7086 283.144 44.308 283.144 47.2107C283.144 47.644 283.123 48.1205 283.079 48.6404C283.036 49.117 282.949 49.6802 282.819 50.33H256.76V45.4561H279.7L277.556 47.3407C277.556 45.2612 277.187 43.5065 276.451 42.0769C275.714 40.6039 274.675 39.4775 273.332 38.6976C271.988 37.8745 270.364 37.4629 268.458 37.4629C266.465 37.4629 264.71 37.8961 263.194 38.7626C261.677 39.6291 260.508 40.8421 259.685 42.4018C258.861 43.9614 258.45 45.8027 258.45 47.9256C258.45 50.0917 258.883 51.998 259.75 53.6443C260.616 55.2473 261.851 56.5036 263.454 57.4134C265.057 58.2799 266.898 58.7131 268.977 58.7131C270.71 58.7131 272.292 58.4099 273.721 57.8033C275.194 57.1968 276.451 56.287 277.491 55.074L281.26 58.9081C279.787 60.641 277.967 61.9624 275.801 62.8722C273.678 63.782 271.404 64.2369 268.977 64.2369Z" fill="white"/>
<path d="M302.584 64.2369C299.724 64.2369 297.168 63.5437 294.915 62.1574C292.662 60.7277 290.865 58.7998 289.522 56.3737C288.222 53.9475 287.572 51.2182 287.572 48.1855C287.572 45.1528 288.222 42.4235 289.522 39.9973C290.865 37.5712 292.662 35.6433 294.915 34.2136C297.168 32.784 299.724 32.0691 302.584 32.0691C304.88 32.0691 306.959 32.5673 308.822 33.5638C310.685 34.5169 312.18 35.8599 313.306 37.5929C314.476 39.2825 315.126 41.2537 315.256 43.5065V52.7995C315.126 55.009 314.498 56.9802 313.371 58.7131C312.245 60.4461 310.75 61.8108 308.887 62.8072C307.024 63.7603 304.923 64.2369 302.584 64.2369ZM303.558 58.7131C305.508 58.7131 307.198 58.2582 308.627 57.3484C310.1 56.4386 311.248 55.2039 312.071 53.6443C312.895 52.0413 313.306 50.2217 313.306 48.1855C313.306 46.0626 312.873 44.2214 312.006 42.6617C311.183 41.1021 310.035 39.8674 308.562 38.9576C307.133 38.0478 305.443 37.5929 303.493 37.5929C301.544 37.5929 299.833 38.0478 298.36 38.9576C296.887 39.8674 295.717 41.1238 294.85 42.7267C294.027 44.2864 293.616 46.0843 293.616 48.1205C293.616 50.2 294.027 52.0413 294.85 53.6443C295.717 55.2039 296.887 56.4386 298.36 57.3484C299.876 58.2582 301.609 58.7131 303.558 58.7131ZM318.83 63.587H312.916V55.2689L314.021 47.7306L312.916 40.2573V17.1875H318.83V63.587Z" fill="white"/>
<path d="M362.373 64.2369C359.123 64.2369 356.112 63.652 353.34 62.4823C350.567 61.2692 348.141 59.6013 346.061 57.4784C344.025 55.3556 342.444 52.8861 341.317 50.0701C340.191 47.254 339.628 44.2431 339.628 41.0371C339.628 37.7878 340.191 34.7552 341.317 31.9391C342.444 29.1231 344.025 26.6753 346.061 24.5958C348.141 22.4729 350.545 20.8266 353.275 19.6569C356.047 18.4438 359.058 17.8373 362.308 17.8373C365.86 17.8373 368.98 18.4438 371.666 19.6569C374.352 20.87 376.735 22.5163 378.814 24.5958L374.59 28.8198C373.16 27.2169 371.406 25.9605 369.326 25.0507C367.29 24.1409 364.95 23.686 362.308 23.686C359.925 23.686 357.737 24.1192 355.744 24.9857C353.751 25.8089 352.018 27.0003 350.545 28.5599C349.072 30.1196 347.924 31.9608 347.101 34.0837C346.321 36.2065 345.931 38.5243 345.931 41.0371C345.931 43.5499 346.321 45.8677 347.101 47.9905C347.924 50.1134 349.072 51.9547 350.545 53.5143C352.018 55.074 353.751 56.287 355.744 57.1535C357.737 57.9766 359.925 58.3882 362.308 58.3882C365.124 58.3882 367.572 57.9333 369.651 57.0235C371.731 56.0704 373.485 54.7924 374.915 53.1894L379.139 57.3484C377.059 59.5146 374.612 61.2042 371.796 62.4173C369.023 63.6304 365.882 64.2369 362.373 64.2369Z" fill="white"/>
<path d="M385.603 63.587V17.1875H391.452V63.587H385.603Z" fill="white"/>
<path d="M400.074 63.587V32.719H405.923V63.587H400.074ZM402.999 26.5454C401.916 26.5454 401.028 26.1988 400.334 25.5056C399.641 24.7691 399.295 23.8593 399.295 22.7762C399.295 21.7364 399.641 20.87 400.334 20.1768C401.028 19.4403 401.916 19.072 402.999 19.072C404.082 19.072 404.97 19.4403 405.663 20.1768C406.356 20.87 406.703 21.7364 406.703 22.7762C406.703 23.8593 406.356 24.7691 405.663 25.5056C404.97 26.1988 404.082 26.5454 402.999 26.5454Z" fill="white"/>
<path d="M428.839 64.2369C425.763 64.2369 422.99 63.5437 420.521 62.1574C418.052 60.7277 416.102 58.7998 414.672 56.3737C413.243 53.9475 412.528 51.1965 412.528 48.1205C412.528 45.0879 413.221 42.3585 414.607 39.9323C416.037 37.5062 417.943 35.6 420.326 34.2136C422.752 32.784 425.46 32.0691 428.449 32.0691C431.309 32.0691 433.821 32.719 435.988 34.0187C438.197 35.3184 439.908 37.1163 441.121 39.4125C442.378 41.7086 443.006 44.308 443.006 47.2107C443.006 47.644 442.984 48.1205 442.941 48.6404C442.898 49.117 442.811 49.6802 442.681 50.33H416.622V45.4561H439.562L437.417 47.3407C437.417 45.2612 437.049 43.5065 436.312 42.0769C435.576 40.6039 434.536 39.4775 433.193 38.6976C431.85 37.8745 430.225 37.4629 428.319 37.4629C426.326 37.4629 424.572 37.8961 423.055 38.7626C421.539 39.6291 420.369 40.8421 419.546 42.4018C418.723 43.9614 418.311 45.8027 418.311 47.9256C418.311 50.0917 418.745 51.998 419.611 53.6443C420.478 55.2473 421.712 56.5036 423.315 57.4134C424.918 58.2799 426.76 58.7131 428.839 58.7131C430.572 58.7131 432.153 58.4099 433.583 57.8033C435.056 57.1968 436.312 56.287 437.352 55.074L441.121 58.9081C439.648 60.641 437.829 61.9624 435.663 62.8722C433.54 63.782 431.265 64.2369 428.839 64.2369Z" fill="white"/>
<path d="M471.218 63.587V45.5861C471.218 43.2466 470.482 41.3187 469.009 39.8024C467.536 38.2861 465.629 37.5279 463.29 37.5279C461.73 37.5279 460.344 37.8745 459.131 38.5677C457.918 39.2608 456.965 40.214 456.272 41.427C455.578 42.6401 455.232 44.0264 455.232 45.5861L452.827 44.2214C452.827 41.8819 453.347 39.8024 454.387 37.9828C455.427 36.1632 456.878 34.7335 458.741 33.6938C460.604 32.6107 462.705 32.0691 465.045 32.0691C467.384 32.0691 469.442 32.654 471.218 33.8237C473.038 34.9935 474.468 36.5314 475.507 38.4377C476.547 40.3006 477.067 42.2935 477.067 44.4163V63.587H471.218ZM449.383 63.587V32.719H455.232V63.587H449.383Z" fill="white"/>
<path d="M489.349 63.587V19.7869H495.197V63.587H489.349ZM481.745 38.0478V32.719H502.801V38.0478H481.745Z" fill="white"/>
<path d="M526.466 63.587V28.105C526.466 25.8089 526.965 23.816 527.961 22.1263C528.958 20.3934 530.322 19.0287 532.055 18.0323C533.832 17.0358 535.889 16.5376 538.229 16.5376C540.005 16.5376 541.543 16.8409 542.843 17.4474C544.142 18.0539 545.334 18.9421 546.417 20.1118L542.583 23.881C542.02 23.2744 541.391 22.8195 540.698 22.5163C540.005 22.1697 539.16 21.9964 538.164 21.9964C536.301 21.9964 534.85 22.5379 533.81 23.621C532.813 24.7041 532.315 26.1988 532.315 28.105V63.587H526.466ZM518.863 38.0478V32.719H542.128V38.0478H518.863Z" fill="white"/>
<path d="M560.328 64.2369C557.296 64.2369 554.566 63.5221 552.14 62.0924C549.714 60.6627 547.786 58.7348 546.357 56.3087C544.927 53.8392 544.212 51.0882 544.212 48.0555C544.212 45.0662 544.927 42.3801 546.357 39.9973C547.786 37.5712 549.714 35.6433 552.14 34.2136C554.566 32.784 557.296 32.0691 560.328 32.0691C563.318 32.0691 566.026 32.784 568.452 34.2136C570.921 35.6 572.871 37.5062 574.3 39.9323C575.73 42.3585 576.445 45.0662 576.445 48.0555C576.445 51.0882 575.73 53.8392 574.3 56.3087C572.871 58.7348 570.921 60.6627 568.452 62.0924C566.026 63.5221 563.318 64.2369 560.328 64.2369ZM560.328 58.5832C562.278 58.5832 564.011 58.1283 565.527 57.2185C567.044 56.3087 568.235 55.074 569.101 53.5143C569.968 51.9113 570.401 50.0917 570.401 48.0555C570.401 46.0626 569.946 44.2864 569.037 42.7267C568.17 41.1671 566.979 39.954 565.462 39.0875C563.989 38.1777 562.278 37.7228 560.328 37.7228C558.379 37.7228 556.646 38.1777 555.13 39.0875C553.613 39.954 552.422 41.1671 551.555 42.7267C550.689 44.2864 550.256 46.0626 550.256 48.0555C550.256 50.0917 550.689 51.9113 551.555 53.5143C552.422 55.074 553.613 56.3087 555.13 57.2185C556.646 58.1283 558.379 58.5832 560.328 58.5832Z" fill="white"/>
<path d="M583.035 63.587V32.719H588.883V63.587H583.035ZM588.883 45.976L586.674 45.0012C586.674 41.0588 587.584 37.9178 589.403 35.5783C591.223 33.2389 593.844 32.0691 597.267 32.0691C598.826 32.0691 600.234 32.3507 601.491 32.9139C602.747 33.4338 603.917 34.3219 605 35.5783L601.166 39.5424C600.516 38.8493 599.801 38.351 599.021 38.0478C598.241 37.7445 597.332 37.5929 596.292 37.5929C594.126 37.5929 592.349 38.2861 590.963 39.6724C589.577 41.0588 588.883 43.16 588.883 45.976Z" fill="white"/>
</g>
<g filter="url(#filter1_di_32691_93412)">
<path d="M11.1063 139.262V132.687H25.8618C29.7864 132.687 33.2269 131.846 36.1831 130.164C39.1393 128.431 41.4329 126.061 43.0639 123.054C44.7458 120.047 45.5868 116.581 45.5868 112.656C45.5868 108.783 44.7458 105.342 43.0639 102.335C41.3819 99.3278 39.0628 96.9832 36.1066 95.3012C33.1504 93.6192 29.7355 92.7783 25.8618 92.7783H11.1828V86.2033H26.0147C29.8884 86.2033 33.4562 86.8659 36.7182 88.191C40.0312 89.5162 42.8855 91.3766 45.281 93.7721C47.7275 96.1677 49.6134 98.971 50.9386 102.182C52.3147 105.393 53.0028 108.91 53.0028 112.733C53.0028 116.504 52.3147 120.021 50.9386 123.283C49.6134 126.494 47.753 129.298 45.3575 131.693C42.9619 134.089 40.1077 135.949 36.7947 137.274C33.5327 138.599 29.9903 139.262 26.1677 139.262H11.1063ZM6.36621 139.262V86.2033H13.5528V139.262H6.36621Z" fill="url(#paint0_linear_32691_93412)"/>
<path d="M77.18 140.026C73.867 140.026 70.8599 139.211 68.1585 137.58C65.4572 135.898 63.3165 133.63 61.7364 130.776C60.2073 127.921 59.4428 124.71 59.4428 121.142C59.4428 117.575 60.2073 114.364 61.7364 111.509C63.3165 108.655 65.4317 106.387 68.0821 104.705C70.7834 103.023 73.8161 102.182 77.18 102.182C79.9323 102.182 82.3789 102.768 84.5195 103.94C86.7112 105.062 88.4696 106.642 89.7948 108.681C91.12 110.668 91.8591 112.987 92.012 115.638V126.571C91.8591 129.17 91.12 131.489 89.7948 133.528C88.5206 135.567 86.7877 137.172 84.596 138.345C82.4553 139.466 79.9833 140.026 77.18 140.026ZM78.3268 133.528C81.7417 133.528 84.4941 132.381 86.5838 130.088C88.6735 127.743 89.7184 124.761 89.7184 121.142C89.7184 118.645 89.2342 116.479 88.2658 114.644C87.3483 112.758 86.0231 111.305 84.2902 110.286C82.5572 109.216 80.544 108.681 78.2504 108.681C75.9568 108.681 73.918 109.216 72.1341 110.286C70.4011 111.356 69.025 112.835 68.0056 114.72C67.0372 116.555 66.553 118.67 66.553 121.066C66.553 123.513 67.0372 125.679 68.0056 127.565C69.025 129.399 70.4266 130.852 72.2105 131.922C73.9945 132.993 76.0332 133.528 78.3268 133.528ZM89.2597 139.262V129.476L90.5594 120.607L89.2597 111.815V102.947H96.2169V139.262H89.2597Z" fill="url(#paint1_linear_32691_93412)"/>
<path d="M125.348 140.026C122.596 140.026 120.098 139.466 117.856 138.345C115.664 137.172 113.906 135.567 112.58 133.528C111.255 131.489 110.516 129.17 110.363 126.571V115.638C110.516 112.987 111.255 110.668 112.58 108.681C113.957 106.642 115.74 105.062 117.932 103.94C120.175 102.768 122.647 102.182 125.348 102.182C128.661 102.182 131.643 103.023 134.293 104.705C136.994 106.387 139.11 108.655 140.639 111.509C142.168 114.364 142.932 117.575 142.932 121.142C142.932 124.71 142.168 127.921 140.639 130.776C139.11 133.63 136.994 135.898 134.293 137.58C131.643 139.211 128.661 140.026 125.348 140.026ZM124.201 133.528C126.495 133.528 128.508 132.993 130.241 131.922C131.974 130.852 133.35 129.399 134.37 127.565C135.389 125.679 135.899 123.513 135.899 121.066C135.899 118.67 135.389 116.53 134.37 114.644C133.35 112.758 131.974 111.305 130.241 110.286C128.508 109.216 126.52 108.681 124.278 108.681C121.984 108.681 119.971 109.216 118.238 110.286C116.505 111.305 115.154 112.758 114.186 114.644C113.217 116.53 112.733 118.696 112.733 121.142C112.733 123.538 113.192 125.679 114.109 127.565C115.078 129.399 116.429 130.852 118.161 131.922C119.945 132.993 121.959 133.528 124.201 133.528ZM106.235 154.476V102.947H113.116V112.503L111.816 121.295L113.116 130.164V154.476H106.235Z" fill="url(#paint2_linear_32691_93412)"/>
<path d="M169.846 140.026C167.094 140.026 164.597 139.466 162.354 138.345C160.162 137.172 158.404 135.567 157.079 133.528C155.753 131.489 155.014 129.17 154.861 126.571V115.638C155.014 112.987 155.753 110.668 157.079 108.681C158.455 106.642 160.239 105.062 162.43 103.94C164.673 102.768 167.145 102.182 169.846 102.182C173.159 102.182 176.141 103.023 178.791 104.705C181.493 106.387 183.608 108.655 185.137 111.509C186.666 114.364 187.431 117.575 187.431 121.142C187.431 124.71 186.666 127.921 185.137 130.776C183.608 133.63 181.493 135.898 178.791 137.58C176.141 139.211 173.159 140.026 169.846 140.026ZM168.7 133.528C170.993 133.528 173.006 132.993 174.739 131.922C176.472 130.852 177.848 129.399 178.868 127.565C179.887 125.679 180.397 123.513 180.397 121.066C180.397 118.67 179.887 116.53 178.868 114.644C177.848 112.758 176.472 111.305 174.739 110.286C173.006 109.216 171.019 108.681 168.776 108.681C166.482 108.681 164.469 109.216 162.736 110.286C161.003 111.305 159.653 112.758 158.684 114.644C157.716 116.53 157.232 118.696 157.232 121.142C157.232 123.538 157.69 125.679 158.608 127.565C159.576 129.399 160.927 130.852 162.66 131.922C164.444 132.993 166.457 133.528 168.7 133.528ZM150.733 154.476V102.947H157.614V112.503L156.314 121.295L157.614 130.164V154.476H150.733Z" fill="url(#paint3_linear_32691_93412)"/>
<path d="M227.113 140.026C222.934 140.026 219.366 139.262 216.41 137.733C213.453 136.204 210.828 133.987 208.535 131.081L213.428 126.188C215.11 128.533 217.047 130.317 219.238 131.54C221.43 132.712 224.131 133.299 227.342 133.299C230.502 133.299 233.025 132.61 234.911 131.234C236.848 129.858 237.816 127.972 237.816 125.577C237.816 123.589 237.358 121.983 236.44 120.76C235.523 119.537 234.274 118.543 232.694 117.779C231.165 116.963 229.483 116.249 227.648 115.638C225.813 114.975 223.978 114.287 222.143 113.574C220.309 112.809 218.627 111.892 217.098 110.821C215.569 109.7 214.32 108.247 213.351 106.463C212.434 104.68 211.975 102.437 211.975 99.7355C211.975 96.7283 212.689 94.1799 214.116 92.0902C215.594 89.9495 217.582 88.3185 220.079 87.1971C222.628 86.0249 225.482 85.4387 228.642 85.4387C232.108 85.4387 235.217 86.1268 237.969 87.503C240.722 88.8282 242.964 90.5866 244.697 92.7783L239.804 97.6713C238.224 95.8364 236.517 94.4602 234.682 93.5428C232.898 92.6253 230.834 92.1666 228.489 92.1666C225.635 92.1666 223.367 92.8037 221.685 94.078C220.003 95.3012 219.162 97.0342 219.162 99.2768C219.162 101.061 219.621 102.513 220.538 103.635C221.506 104.705 222.755 105.622 224.284 106.387C225.813 107.151 227.495 107.865 229.33 108.528C231.216 109.139 233.076 109.827 234.911 110.592C236.746 111.356 238.428 112.325 239.957 113.497C241.486 114.669 242.709 116.198 243.627 118.084C244.595 119.919 245.08 122.238 245.08 125.042C245.08 129.731 243.449 133.401 240.187 136.051C236.975 138.701 232.618 140.026 227.113 140.026Z" fill="url(#paint4_linear_32691_93412)"/>
<path d="M269.839 140.026C266.22 140.026 262.958 139.211 260.053 137.58C257.148 135.898 254.854 133.63 253.172 130.776C251.49 127.921 250.649 124.685 250.649 121.066C250.649 117.498 251.465 114.287 253.096 111.433C254.778 108.579 257.02 106.336 259.824 104.705C262.678 103.023 265.864 102.182 269.38 102.182C272.744 102.182 275.701 102.947 278.249 104.476C280.848 106.005 282.862 108.12 284.289 110.821C285.767 113.523 286.506 116.581 286.506 119.996C286.506 120.505 286.48 121.066 286.429 121.678C286.379 122.238 286.277 122.901 286.124 123.665H255.466V117.931H282.454L279.931 120.149C279.931 117.702 279.498 115.638 278.631 113.956C277.765 112.223 276.542 110.898 274.961 109.98C273.381 109.012 271.47 108.528 269.227 108.528C266.883 108.528 264.819 109.037 263.035 110.057C261.251 111.076 259.875 112.503 258.906 114.338C257.938 116.173 257.454 118.339 257.454 120.837C257.454 123.385 257.963 125.628 258.983 127.565C260.002 129.45 261.455 130.929 263.341 131.999C265.226 133.018 267.393 133.528 269.839 133.528C271.878 133.528 273.738 133.171 275.42 132.458C277.153 131.744 278.631 130.674 279.855 129.247L284.289 133.757C282.556 135.796 280.415 137.351 277.867 138.421C275.369 139.491 272.693 140.026 269.839 140.026Z" fill="url(#paint5_linear_32691_93412)"/>
<path d="M310.599 140.026C307.031 140.026 303.795 139.185 300.889 137.504C298.035 135.822 295.767 133.553 294.085 130.699C292.454 127.794 291.638 124.583 291.638 121.066C291.638 117.498 292.454 114.287 294.085 111.433C295.767 108.579 298.035 106.336 300.889 104.705C303.795 103.023 307.031 102.182 310.599 102.182C313.402 102.182 316.002 102.717 318.397 103.788C320.793 104.807 322.857 106.311 324.59 108.298L320.003 112.886C318.881 111.56 317.505 110.566 315.874 109.904C314.294 109.19 312.536 108.833 310.599 108.833C308.305 108.833 306.267 109.369 304.483 110.439C302.699 111.458 301.297 112.886 300.278 114.72C299.258 116.555 298.749 118.67 298.749 121.066C298.749 123.462 299.258 125.577 300.278 127.412C301.297 129.247 302.699 130.699 304.483 131.77C306.267 132.84 308.305 133.375 310.599 133.375C312.536 133.375 314.294 133.044 315.874 132.381C317.505 131.668 318.907 130.648 320.079 129.323L324.59 133.91C322.908 135.847 320.844 137.351 318.397 138.421C316.002 139.491 313.402 140.026 310.599 140.026Z" fill="url(#paint6_linear_32691_93412)"/>
<path d="M346.017 140.026C343.06 140.026 340.385 139.364 337.989 138.039C335.644 136.663 333.81 134.777 332.484 132.381C331.159 129.986 330.497 127.208 330.497 124.048V102.947H337.377V123.742C337.377 125.73 337.709 127.463 338.371 128.941C339.085 130.368 340.104 131.464 341.429 132.228C342.755 132.993 344.309 133.375 346.093 133.375C348.794 133.375 350.91 132.534 352.439 130.852C353.968 129.119 354.732 126.749 354.732 123.742V102.947H361.613V124.048C361.613 127.208 360.95 129.986 359.625 132.381C358.3 134.777 356.465 136.663 354.121 138.039C351.827 139.364 349.126 140.026 346.017 140.026Z" fill="url(#paint7_linear_32691_93412)"/>
<path d="M370.835 139.262V102.947H377.716V139.262H370.835ZM377.716 118.543L375.117 117.396C375.117 112.758 376.187 109.063 378.328 106.311C380.468 103.558 383.552 102.182 387.579 102.182C389.413 102.182 391.07 102.513 392.548 103.176C394.026 103.788 395.402 104.832 396.677 106.311L392.166 110.974C391.401 110.159 390.56 109.573 389.643 109.216C388.725 108.859 387.655 108.681 386.432 108.681C383.883 108.681 381.794 109.496 380.163 111.127C378.532 112.758 377.716 115.23 377.716 118.543Z" fill="url(#paint8_linear_32691_93412)"/>
<path d="M401.598 139.262V102.947H408.478V139.262H401.598ZM405.038 95.6835C403.764 95.6835 402.719 95.2757 401.903 94.4602C401.088 93.5938 400.68 92.5234 400.68 91.2492C400.68 90.0259 401.088 89.0066 401.903 88.191C402.719 87.3246 403.764 86.8913 405.038 86.8913C406.312 86.8913 407.357 87.3246 408.173 88.191C408.988 89.0066 409.396 90.0259 409.396 91.2492C409.396 92.5234 408.988 93.5938 408.173 94.4602C407.357 95.2757 406.312 95.6835 405.038 95.6835Z" fill="url(#paint9_linear_32691_93412)"/>
<path d="M424.2 139.262V87.7323H431.081V139.262H424.2ZM415.255 109.216V102.947H440.026V109.216H415.255Z" fill="url(#paint10_linear_32691_93412)"/>
<path d="M458.693 139.568L442.943 102.947H450.589L462.286 131.617H459.84L472.149 102.947H479.794L462.821 139.568H458.693ZM448.295 154.476L458.999 132.534L462.821 139.568L455.94 154.476H448.295Z" fill="url(#paint11_linear_32691_93412)"/>
</g>
</g>
<defs>
<filter id="filter0_d_32691_93412" x="-2.60256" y="16.5376" width="612.381" height="69.5382" filterUnits="userSpaceOnUse" color-interpolation-filters="sRGB">
<feFlood flood-opacity="0" result="BackgroundImageFix"/>
<feColorMatrix in="SourceAlpha" type="matrix" values="0 0 0 0 0 0 0 0 0 0 0 0 0 0 0 0 0 0 127 0" result="hardAlpha"/>
<feOffset dy="4.77834"/>
<feGaussianBlur stdDeviation="2.38917"/>
<feComposite in2="hardAlpha" operator="out"/>
<feColorMatrix type="matrix" values="0 0 0 0 0 0 0 0 0 0 0 0 0 0 0 0 0 0 0.08 0"/>
<feBlend mode="normal" in2="BackgroundImageFix" result="effect1_dropShadow_32691_93412"/>
<feBlend mode="normal" in="SourceGraphic" in2="effect1_dropShadow_32691_93412" result="shape"/>
</filter>
<filter id="filter1_di_32691_93412" x="1.58787" y="85.4387" width="482.984" height="78.5942" filterUnits="userSpaceOnUse" color-interpolation-filters="sRGB">
<feFlood flood-opacity="0" result="BackgroundImageFix"/>
<feColorMatrix in="SourceAlpha" type="matrix" values="0 0 0 0 0 0 0 0 0 0 0 0 0 0 0 0 0 0 127 0" result="hardAlpha"/>
<feOffset dy="4.77834"/>
<feGaussianBlur stdDeviation="2.38917"/>
<feComposite in2="hardAlpha" operator="out"/>
<feColorMatrix type="matrix" values="0 0 0 0 0 0 0 0 0 0 0 0 0 0 0 0 0 0 0.08 0"/>
<feBlend mode="normal" in2="BackgroundImageFix" result="effect1_dropShadow_32691_93412"/>
<feBlend mode="normal" in="SourceGraphic" in2="effect1_dropShadow_32691_93412" result="shape"/>
<feColorMatrix in="SourceAlpha" type="matrix" values="0 0 0 0 0 0 0 0 0 0 0 0 0 0 0 0 0 0 127 0" result="hardAlpha"/>
<feOffset dy="0.955668"/>
<feGaussianBlur stdDeviation="0.477834"/>
<feComposite in2="hardAlpha" operator="arithmetic" k2="-1" k3="1"/>
<feColorMatrix type="matrix" values="0 0 0 0 1 0 0 0 0 1 0 0 0 0 1 0 0 0 0.5 0"/>
<feBlend mode="normal" in2="shape" result="effect2_innerShadow_32691_93412"/>
</filter>
<linearGradient id="paint0_linear_32691_93412" x1="1.13975" y1="100.901" x2="484.916" y2="136.665" gradientUnits="userSpaceOnUse">
<stop stop-color="#8DA6FF"/>
<stop offset="0.428082" stop-color="#A8A0FF"/>
<stop offset="1" stop-color="#CCA4FF"/>
</linearGradient>
<linearGradient id="paint1_linear_32691_93412" x1="1.13975" y1="100.901" x2="484.916" y2="136.665" gradientUnits="userSpaceOnUse">
<stop stop-color="#8DA6FF"/>
<stop offset="0.428082" stop-color="#A8A0FF"/>
<stop offset="1" stop-color="#CCA4FF"/>
</linearGradient>
<linearGradient id="paint2_linear_32691_93412" x1="1.13975" y1="100.901" x2="484.916" y2="136.665" gradientUnits="userSpaceOnUse">
<stop stop-color="#8DA6FF"/>
<stop offset="0.428082" stop-color="#A8A0FF"/>
<stop offset="1" stop-color="#CCA4FF"/>
</linearGradient>
<linearGradient id="paint3_linear_32691_93412" x1="1.13975" y1="100.901" x2="484.916" y2="136.665" gradientUnits="userSpaceOnUse">
<stop stop-color="#8DA6FF"/>
<stop offset="0.428082" stop-color="#A8A0FF"/>
<stop offset="1" stop-color="#CCA4FF"/>
</linearGradient>
<linearGradient id="paint4_linear_32691_93412" x1="1.13975" y1="100.901" x2="484.916" y2="136.665" gradientUnits="userSpaceOnUse">
<stop stop-color="#8DA6FF"/>
<stop offset="0.428082" stop-color="#A8A0FF"/>
<stop offset="1" stop-color="#CCA4FF"/>
</linearGradient>
<linearGradient id="paint5_linear_32691_93412" x1="1.13975" y1="100.901" x2="484.916" y2="136.665" gradientUnits="userSpaceOnUse">
<stop stop-color="#8DA6FF"/>
<stop offset="0.428082" stop-color="#A8A0FF"/>
<stop offset="1" stop-color="#CCA4FF"/>
</linearGradient>
<linearGradient id="paint6_linear_32691_93412" x1="1.13975" y1="100.901" x2="484.916" y2="136.665" gradientUnits="userSpaceOnUse">
<stop stop-color="#8DA6FF"/>
<stop offset="0.428082" stop-color="#A8A0FF"/>
<stop offset="1" stop-color="#CCA4FF"/>
</linearGradient>
<linearGradient id="paint7_linear_32691_93412" x1="1.13975" y1="100.901" x2="484.916" y2="136.665" gradientUnits="userSpaceOnUse">
<stop stop-color="#8DA6FF"/>
<stop offset="0.428082" stop-color="#A8A0FF"/>
<stop offset="1" stop-color="#CCA4FF"/>
</linearGradient>
<linearGradient id="paint8_linear_32691_93412" x1="1.13975" y1="100.901" x2="484.916" y2="136.665" gradientUnits="userSpaceOnUse">
<stop stop-color="#8DA6FF"/>
<stop offset="0.428082" stop-color="#A8A0FF"/>
<stop offset="1" stop-color="#CCA4FF"/>
</linearGradient>
<linearGradient id="paint9_linear_32691_93412" x1="1.13975" y1="100.901" x2="484.916" y2="136.665" gradientUnits="userSpaceOnUse">
<stop stop-color="#8DA6FF"/>
<stop offset="0.428082" stop-color="#A8A0FF"/>
<stop offset="1" stop-color="#CCA4FF"/>
</linearGradient>
<linearGradient id="paint10_linear_32691_93412" x1="1.13975" y1="100.901" x2="484.916" y2="136.665" gradientUnits="userSpaceOnUse">
<stop stop-color="#8DA6FF"/>
<stop offset="0.428082" stop-color="#A8A0FF"/>
<stop offset="1" stop-color="#CCA4FF"/>
</linearGradient>
<linearGradient id="paint11_linear_32691_93412" x1="1.13975" y1="100.901" x2="484.916" y2="136.665" gradientUnits="userSpaceOnUse">
<stop stop-color="#8DA6FF"/>
<stop offset="0.428082" stop-color="#A8A0FF"/>
<stop offset="1" stop-color="#CCA4FF"/>
</linearGradient>
<clipPath id="clip0_32691_93412">
<rect width="634" height="164" fill="white"/>
</clipPath>
</defs>
</svg>
