<svg width="684" height="156" viewBox="0 0 684 156" fill="none" xmlns="http://www.w3.org/2000/svg">
<g filter="url(#filter0_d_37134_62407)">
<path d="M9.712 55.024V48.488H24.38C28.2813 48.488 31.7013 47.652 34.64 45.98C37.5787 44.2573 39.8587 41.9013 41.48 38.912C43.152 35.9227 43.988 32.4773 43.988 28.576C43.988 24.7253 43.152 21.3053 41.48 18.316C39.808 15.3267 37.5027 12.996 34.564 11.324C31.6253 9.652 28.2307 8.816 24.38 8.816H9.788V2.28H24.532C28.3827 2.28 31.9293 2.93867 35.172 4.256C38.4653 5.57333 41.3027 7.42267 43.684 9.804C46.116 12.1853 47.9907 14.972 49.308 18.164C50.676 21.356 51.36 24.852 51.36 28.652C51.36 32.4013 50.676 35.8973 49.308 39.14C47.9907 42.332 46.1413 45.1187 43.76 47.5C41.3787 49.8813 38.5413 51.7307 35.248 53.048C32.0053 54.3653 28.484 55.024 24.684 55.024H9.712ZM5 55.024V2.28H12.144V55.024H5Z" fill="white"/>
<path d="M76.7618 55.784C73.1645 55.784 69.9218 54.9733 67.0338 53.352C64.1458 51.68 61.8658 49.4253 60.1938 46.588C58.5218 43.7507 57.6858 40.5333 57.6858 36.936C57.6858 33.3893 58.4965 30.1973 60.1178 27.36C61.7898 24.5227 64.0191 22.2933 66.8058 20.672C69.6431 19 72.8098 18.164 76.3058 18.164C79.6498 18.164 82.5885 18.924 85.1218 20.444C87.7058 21.964 89.7071 24.0667 91.1258 26.752C92.5951 29.4373 93.3298 32.4773 93.3298 35.872C93.3298 36.3787 93.3045 36.936 93.2538 37.544C93.2031 38.1013 93.1018 38.76 92.9498 39.52H62.4738V33.82H89.3018L86.7938 36.024C86.7938 33.592 86.3631 31.54 85.5018 29.868C84.6405 28.1453 83.4245 26.828 81.8538 25.916C80.2831 24.9533 78.3831 24.472 76.1538 24.472C73.8231 24.472 71.7711 24.9787 69.9978 25.992C68.2245 27.0053 66.8565 28.424 65.8938 30.248C64.9311 32.072 64.4498 34.2253 64.4498 36.708C64.4498 39.2413 64.9565 41.4707 65.9698 43.396C66.9831 45.2707 68.4271 46.74 70.3018 47.804C72.1765 48.8173 74.3298 49.324 76.7618 49.324C78.7885 49.324 80.6378 48.9693 82.3098 48.26C84.0325 47.5507 85.5018 46.4867 86.7178 45.068L91.1258 49.552C89.4031 51.5787 87.2751 53.124 84.7418 54.188C82.2591 55.252 79.5991 55.784 76.7618 55.784Z" fill="white"/>
<path d="M116.064 55.784C112.72 55.784 109.731 54.9733 107.096 53.352C104.461 51.68 102.359 49.4253 100.788 46.588C99.2679 43.7507 98.5079 40.5587 98.5079 37.012C98.5079 33.4653 99.2679 30.2733 100.788 27.436C102.359 24.5987 104.461 22.344 107.096 20.672C109.731 19 112.72 18.164 116.064 18.164C118.749 18.164 121.181 18.7467 123.36 19.912C125.539 21.0267 127.287 22.5973 128.604 24.624C129.972 26.6 130.732 28.9053 130.884 31.54V42.408C130.732 44.992 129.997 47.2973 128.68 49.324C127.363 51.3507 125.615 52.9467 123.436 54.112C121.257 55.2267 118.8 55.784 116.064 55.784ZM117.204 49.324C119.484 49.324 121.46 48.792 123.132 47.728C124.855 46.664 126.197 45.22 127.16 43.396C128.123 41.5213 128.604 39.3933 128.604 37.012C128.604 34.5293 128.097 32.376 127.084 30.552C126.121 28.728 124.779 27.284 123.056 26.22C121.384 25.156 119.408 24.624 117.128 24.624C114.848 24.624 112.847 25.156 111.124 26.22C109.401 27.284 108.033 28.7533 107.02 30.628C106.057 32.452 105.576 34.5547 105.576 36.936C105.576 39.368 106.057 41.5213 107.02 43.396C108.033 45.22 109.401 46.664 111.124 47.728C112.897 48.792 114.924 49.324 117.204 49.324ZM135.064 55.024H128.148V45.296L129.44 36.48L128.148 27.74V0.759998H135.064V55.024Z" fill="white"/>
<path d="M145.098 55.024V18.924H151.938V55.024H145.098ZM148.518 11.704C147.252 11.704 146.213 11.2987 145.402 10.488C144.592 9.62667 144.186 8.56267 144.186 7.296C144.186 6.08 144.592 5.06667 145.402 4.256C146.213 3.39466 147.252 2.964 148.518 2.964C149.785 2.964 150.824 3.39466 151.634 4.256C152.445 5.06667 152.85 6.08 152.85 7.296C152.85 8.56267 152.445 9.62667 151.634 10.488C150.824 11.2987 149.785 11.704 148.518 11.704Z" fill="white"/>
<path d="M178.51 55.784C174.964 55.784 171.746 54.948 168.858 53.276C166.021 51.604 163.766 49.3493 162.094 46.512C160.473 43.624 159.662 40.432 159.662 36.936C159.662 33.3893 160.473 30.1973 162.094 27.36C163.766 24.5227 166.021 22.2933 168.858 20.672C171.746 19 174.964 18.164 178.51 18.164C181.297 18.164 183.881 18.696 186.262 19.76C188.644 20.7733 190.696 22.268 192.418 24.244L187.858 28.804C186.744 27.4867 185.376 26.4987 183.754 25.84C182.184 25.1307 180.436 24.776 178.51 24.776C176.23 24.776 174.204 25.308 172.43 26.372C170.657 27.3853 169.264 28.804 168.25 30.628C167.237 32.452 166.73 34.5547 166.73 36.936C166.73 39.3173 167.237 41.42 168.25 43.244C169.264 45.068 170.657 46.512 172.43 47.576C174.204 48.64 176.23 49.172 178.51 49.172C180.436 49.172 182.184 48.8427 183.754 48.184C185.376 47.4747 186.769 46.4613 187.934 45.144L192.418 49.704C190.746 51.6293 188.694 53.124 186.262 54.188C183.881 55.252 181.297 55.784 178.51 55.784Z" fill="white"/>
<path d="M213.812 55.784C210.518 55.784 207.529 54.9733 204.844 53.352C202.158 51.68 200.03 49.4253 198.46 46.588C196.94 43.7507 196.18 40.5587 196.18 37.012C196.18 33.4653 196.94 30.2733 198.46 27.436C200.03 24.5987 202.133 22.344 204.768 20.672C207.453 19 210.468 18.164 213.812 18.164C216.548 18.164 218.98 18.7467 221.108 19.912C223.286 21.0267 225.034 22.5973 226.352 24.624C227.669 26.6 228.404 28.9053 228.556 31.54V42.408C228.404 44.992 227.669 47.2973 226.352 49.324C225.085 51.3507 223.362 52.9467 221.184 54.112C219.056 55.2267 216.598 55.784 213.812 55.784ZM214.952 49.324C218.346 49.324 221.082 48.184 223.16 45.904C225.237 43.5733 226.276 40.6093 226.276 37.012C226.276 34.5293 225.794 32.376 224.832 30.552C223.92 28.6773 222.602 27.2333 220.88 26.22C219.157 25.156 217.156 24.624 214.876 24.624C212.596 24.624 210.569 25.156 208.796 26.22C207.073 27.284 205.705 28.7533 204.692 30.628C203.729 32.452 203.248 34.5547 203.248 36.936C203.248 39.368 203.729 41.5213 204.692 43.396C205.705 45.22 207.098 46.664 208.872 47.728C210.645 48.792 212.672 49.324 214.952 49.324ZM225.82 55.024V45.296L227.112 36.48L225.82 27.74V18.924H232.736V55.024H225.82Z" fill="white"/>
<path d="M248.094 55.024V3.8H254.934V55.024H248.094ZM239.202 25.156V18.924H263.826V25.156H239.202Z" fill="white"/>
<path d="M286.133 55.784C282.536 55.784 279.293 54.9733 276.405 53.352C273.517 51.68 271.237 49.4253 269.565 46.588C267.893 43.7507 267.057 40.5333 267.057 36.936C267.057 33.3893 267.868 30.1973 269.489 27.36C271.161 24.5227 273.39 22.2933 276.177 20.672C279.014 19 282.181 18.164 285.677 18.164C289.021 18.164 291.96 18.924 294.493 20.444C297.077 21.964 299.078 24.0667 300.497 26.752C301.966 29.4373 302.701 32.4773 302.701 35.872C302.701 36.3787 302.676 36.936 302.625 37.544C302.574 38.1013 302.473 38.76 302.321 39.52H271.845V33.82H298.673L296.165 36.024C296.165 33.592 295.734 31.54 294.873 29.868C294.012 28.1453 292.796 26.828 291.225 25.916C289.654 24.9533 287.754 24.472 285.525 24.472C283.194 24.472 281.142 24.9787 279.369 25.992C277.596 27.0053 276.228 28.424 275.265 30.248C274.302 32.072 273.821 34.2253 273.821 36.708C273.821 39.2413 274.328 41.4707 275.341 43.396C276.354 45.2707 277.798 46.74 279.673 47.804C281.548 48.8173 283.701 49.324 286.133 49.324C288.16 49.324 290.009 48.9693 291.681 48.26C293.404 47.5507 294.873 46.4867 296.089 45.068L300.497 49.552C298.774 51.5787 296.646 53.124 294.113 54.188C291.63 55.252 288.97 55.784 286.133 55.784Z" fill="white"/>
<path d="M325.435 55.784C322.091 55.784 319.102 54.9733 316.467 53.352C313.832 51.68 311.73 49.4253 310.159 46.588C308.639 43.7507 307.879 40.5587 307.879 37.012C307.879 33.4653 308.639 30.2733 310.159 27.436C311.73 24.5987 313.832 22.344 316.467 20.672C319.102 19 322.091 18.164 325.435 18.164C328.12 18.164 330.552 18.7467 332.731 19.912C334.91 21.0267 336.658 22.5973 337.975 24.624C339.343 26.6 340.103 28.9053 340.255 31.54V42.408C340.103 44.992 339.368 47.2973 338.051 49.324C336.734 51.3507 334.986 52.9467 332.807 54.112C330.628 55.2267 328.171 55.784 325.435 55.784ZM326.575 49.324C328.855 49.324 330.831 48.792 332.503 47.728C334.226 46.664 335.568 45.22 336.531 43.396C337.494 41.5213 337.975 39.3933 337.975 37.012C337.975 34.5293 337.468 32.376 336.455 30.552C335.492 28.728 334.15 27.284 332.427 26.22C330.755 25.156 328.779 24.624 326.499 24.624C324.219 24.624 322.218 25.156 320.495 26.22C318.772 27.284 317.404 28.7533 316.391 30.628C315.428 32.452 314.947 34.5547 314.947 36.936C314.947 39.368 315.428 41.5213 316.391 43.396C317.404 45.22 318.772 46.664 320.495 47.728C322.268 48.792 324.295 49.324 326.575 49.324ZM344.435 55.024H337.519V45.296L338.811 36.48L337.519 27.74V0.759998H344.435V55.024Z" fill="white"/>
<path d="M395.358 55.784C391.558 55.784 388.037 55.1 384.794 53.732C381.551 52.3133 378.714 50.3627 376.282 47.88C373.901 45.3973 372.051 42.5093 370.734 39.216C369.417 35.9227 368.758 32.4013 368.758 28.652C368.758 24.852 369.417 21.3053 370.734 18.012C372.051 14.7187 373.901 11.856 376.282 9.424C378.714 6.94133 381.526 5.016 384.718 3.648C387.961 2.22933 391.482 1.52 395.282 1.52C399.437 1.52 403.085 2.22933 406.226 3.648C409.367 5.06667 412.154 6.992 414.586 9.424L409.646 14.364C407.974 12.4893 405.922 11.02 403.49 9.956C401.109 8.892 398.373 8.36 395.282 8.36C392.495 8.36 389.937 8.86667 387.606 9.88C385.275 10.8427 383.249 12.236 381.526 14.06C379.803 15.884 378.461 18.0373 377.498 20.52C376.586 23.0027 376.13 25.7133 376.13 28.652C376.13 31.5907 376.586 34.3013 377.498 36.784C378.461 39.2667 379.803 41.42 381.526 43.244C383.249 45.068 385.275 46.4867 387.606 47.5C389.937 48.4627 392.495 48.944 395.282 48.944C398.575 48.944 401.438 48.412 403.87 47.348C406.302 46.2333 408.354 44.7387 410.026 42.864L414.966 47.728C412.534 50.2613 409.671 52.2373 406.378 53.656C403.135 55.0747 399.462 55.784 395.358 55.784Z" fill="white"/>
<path d="M422.526 55.024V0.759998H429.366V55.024H422.526Z" fill="white"/>
<path d="M439.45 55.024V18.924H446.29V55.024H439.45ZM442.87 11.704C441.603 11.704 440.565 11.2987 439.754 10.488C438.943 9.62667 438.538 8.56267 438.538 7.296C438.538 6.08 438.943 5.06667 439.754 4.256C440.565 3.39466 441.603 2.964 442.87 2.964C444.137 2.964 445.175 3.39466 445.986 4.256C446.797 5.06667 447.202 6.08 447.202 7.296C447.202 8.56267 446.797 9.62667 445.986 10.488C445.175 11.2987 444.137 11.704 442.87 11.704Z" fill="white"/>
<path d="M473.09 55.784C469.493 55.784 466.25 54.9733 463.362 53.352C460.474 51.68 458.194 49.4253 456.522 46.588C454.85 43.7507 454.014 40.5333 454.014 36.936C454.014 33.3893 454.825 30.1973 456.446 27.36C458.118 24.5227 460.347 22.2933 463.134 20.672C465.971 19 469.138 18.164 472.634 18.164C475.978 18.164 478.917 18.924 481.45 20.444C484.034 21.964 486.035 24.0667 487.454 26.752C488.923 29.4373 489.658 32.4773 489.658 35.872C489.658 36.3787 489.633 36.936 489.582 37.544C489.531 38.1013 489.43 38.76 489.278 39.52H458.802V33.82H485.63L483.122 36.024C483.122 33.592 482.691 31.54 481.83 29.868C480.969 28.1453 479.753 26.828 478.182 25.916C476.611 24.9533 474.711 24.472 472.482 24.472C470.151 24.472 468.099 24.9787 466.326 25.992C464.553 27.0053 463.185 28.424 462.222 30.248C461.259 32.072 460.778 34.2253 460.778 36.708C460.778 39.2413 461.285 41.4707 462.298 43.396C463.311 45.2707 464.755 46.74 466.63 47.804C468.505 48.8173 470.658 49.324 473.09 49.324C475.117 49.324 476.966 48.9693 478.638 48.26C480.361 47.5507 481.83 46.4867 483.046 45.068L487.454 49.552C485.731 51.5787 483.603 53.124 481.07 54.188C478.587 55.252 475.927 55.784 473.09 55.784Z" fill="white"/>
<path d="M522.652 55.024V33.972C522.652 31.236 521.791 28.9813 520.068 27.208C518.345 25.4347 516.116 24.548 513.38 24.548C511.556 24.548 509.935 24.9533 508.516 25.764C507.097 26.5747 505.983 27.6893 505.172 29.108C504.361 30.5267 503.956 32.148 503.956 33.972L501.144 32.376C501.144 29.64 501.752 27.208 502.968 25.08C504.184 22.952 505.881 21.28 508.06 20.064C510.239 18.7973 512.696 18.164 515.432 18.164C518.168 18.164 520.575 18.848 522.652 20.216C524.78 21.584 526.452 23.3827 527.668 25.612C528.884 27.7907 529.492 30.1213 529.492 32.604V55.024H522.652ZM497.116 55.024V18.924H503.956V55.024H497.116Z" fill="white"/>
<path d="M543.855 55.024V3.8H550.695V55.024H543.855ZM534.963 25.156V18.924H559.587V25.156H534.963Z" fill="white"/>
<path d="M587.265 55.024V13.528C587.265 10.8427 587.847 8.512 589.013 6.536C590.178 4.50933 591.774 2.91333 593.8 1.748C595.878 0.582666 598.284 0 601.021 0C603.098 0 604.896 0.354666 606.417 1.064C607.937 1.77333 609.33 2.812 610.596 4.18L606.112 8.588C605.454 7.87867 604.719 7.34667 603.909 6.992C603.098 6.58667 602.11 6.384 600.945 6.384C598.766 6.384 597.068 7.01733 595.852 8.284C594.687 9.55067 594.104 11.2987 594.104 13.528V55.024H587.265ZM578.372 25.156V18.924H605.581V25.156H578.372Z" fill="white"/>
<path d="M626.866 55.784C623.319 55.784 620.127 54.948 617.29 53.276C614.453 51.604 612.198 49.3493 610.526 46.512C608.854 43.624 608.018 40.4067 608.018 36.86C608.018 33.364 608.854 30.2227 610.526 27.436C612.198 24.5987 614.453 22.344 617.29 20.672C620.127 19 623.319 18.164 626.866 18.164C630.362 18.164 633.529 19 636.366 20.672C639.254 22.2933 641.534 24.5227 643.206 27.36C644.878 30.1973 645.714 33.364 645.714 36.86C645.714 40.4067 644.878 43.624 643.206 46.512C641.534 49.3493 639.254 51.604 636.366 53.276C633.529 54.948 630.362 55.784 626.866 55.784ZM626.866 49.172C629.146 49.172 631.173 48.64 632.946 47.576C634.719 46.512 636.113 45.068 637.126 43.244C638.139 41.3693 638.646 39.2413 638.646 36.86C638.646 34.5293 638.114 32.452 637.05 30.628C636.037 28.804 634.643 27.3853 632.87 26.372C631.147 25.308 629.146 24.776 626.866 24.776C624.586 24.776 622.559 25.308 620.786 26.372C619.013 27.3853 617.619 28.804 616.606 30.628C615.593 32.452 615.086 34.5293 615.086 36.86C615.086 39.2413 615.593 41.3693 616.606 43.244C617.619 45.068 619.013 46.512 620.786 47.576C622.559 48.64 624.586 49.172 626.866 49.172Z" fill="white"/>
<path d="M653.421 55.024V18.924H660.261V55.024H653.421ZM660.261 34.428L657.677 33.288C657.677 28.6773 658.741 25.004 660.869 22.268C662.997 19.532 666.062 18.164 670.065 18.164C671.889 18.164 673.535 18.4933 675.005 19.152C676.474 19.76 677.842 20.7987 679.109 22.268L674.625 26.904C673.865 26.0933 673.029 25.5107 672.117 25.156C671.205 24.8013 670.141 24.624 668.925 24.624C666.391 24.624 664.314 25.4347 662.693 27.056C661.071 28.6773 660.261 31.1347 660.261 34.428Z" fill="white"/>
</g>
<g filter="url(#filter1_di_37134_62407)">
<path d="M9.712 131.024V124.488H24.38C28.2813 124.488 31.7013 123.652 34.64 121.98C37.5787 120.257 39.8587 117.901 41.48 114.912C43.152 111.922 43.988 108.477 43.988 104.576C43.988 100.725 43.152 97.3049 41.48 94.3155C39.808 91.3262 37.5027 88.9955 34.564 87.3235C31.6253 85.6515 28.2307 84.8155 24.38 84.8155H9.788V78.2795H24.532C28.3827 78.2795 31.9293 78.9382 35.172 80.2555C38.4653 81.5729 41.3027 83.4222 43.684 85.8035C46.116 88.1849 47.9907 90.9715 49.308 94.1635C50.676 97.3555 51.36 100.852 51.36 104.652C51.36 108.401 50.676 111.897 49.308 115.14C47.9907 118.332 46.1413 121.118 43.76 123.5C41.3787 125.881 38.5413 127.73 35.248 129.048C32.0053 130.365 28.484 131.024 24.684 131.024H9.712ZM5 131.024V78.2795H12.144V131.024H5Z" fill="url(#paint0_linear_37134_62407)"/>
<path d="M75.3938 131.784C72.1005 131.784 69.1111 130.973 66.4258 129.352C63.7405 127.68 61.6125 125.425 60.0418 122.588C58.5218 119.75 57.7618 116.558 57.7618 113.012C57.7618 109.465 58.5218 106.273 60.0418 103.436C61.6125 100.598 63.7151 98.3435 66.3498 96.6715C69.0351 94.9995 72.0498 94.1635 75.3938 94.1635C78.1298 94.1635 80.5618 94.7462 82.6898 95.9115C84.8685 97.0262 86.6165 98.5969 87.9338 100.624C89.2511 102.6 89.9858 104.905 90.1378 107.54V118.408C89.9858 120.992 89.2511 123.297 87.9338 125.324C86.6671 127.35 84.9445 128.946 82.7658 130.112C80.6378 131.226 78.1805 131.784 75.3938 131.784ZM76.5338 125.324C79.9285 125.324 82.6645 124.184 84.7418 121.904C86.8191 119.573 87.8578 116.609 87.8578 113.012C87.8578 110.529 87.3765 108.376 86.4138 106.552C85.5018 104.677 84.1845 103.233 82.4618 102.22C80.7392 101.156 78.7378 100.624 76.4578 100.624C74.1778 100.624 72.1511 101.156 70.3778 102.22C68.6551 103.284 67.2871 104.753 66.2738 106.628C65.3111 108.452 64.8298 110.554 64.8298 112.936C64.8298 115.368 65.3111 117.521 66.2738 119.396C67.2871 121.22 68.6805 122.664 70.4538 123.728C72.2271 124.792 74.2538 125.324 76.5338 125.324ZM87.4018 131.024V121.296L88.6938 112.48L87.4018 103.74V94.9235H94.3178V131.024H87.4018Z" fill="url(#paint1_linear_37134_62407)"/>
<path d="M123.276 131.784C120.54 131.784 118.058 131.226 115.828 130.112C113.65 128.946 111.902 127.35 110.584 125.324C109.267 123.297 108.532 120.992 108.38 118.408V107.54C108.532 104.905 109.267 102.6 110.584 100.624C111.952 98.5969 113.726 97.0262 115.904 95.9115C118.134 94.7462 120.591 94.1635 123.276 94.1635C126.57 94.1635 129.534 94.9995 132.168 96.6715C134.854 98.3435 136.956 100.598 138.476 103.436C139.996 106.273 140.756 109.465 140.756 113.012C140.756 116.558 139.996 119.75 138.476 122.588C136.956 125.425 134.854 127.68 132.168 129.352C129.534 130.973 126.57 131.784 123.276 131.784ZM122.136 125.324C124.416 125.324 126.418 124.792 128.14 123.728C129.863 122.664 131.231 121.22 132.244 119.396C133.258 117.521 133.764 115.368 133.764 112.936C133.764 110.554 133.258 108.426 132.244 106.552C131.231 104.677 129.863 103.233 128.14 102.22C126.418 101.156 124.442 100.624 122.212 100.624C119.932 100.624 117.931 101.156 116.208 102.22C114.486 103.233 113.143 104.677 112.18 106.552C111.218 108.426 110.736 110.58 110.736 113.012C110.736 115.393 111.192 117.521 112.104 119.396C113.067 121.22 114.41 122.664 116.132 123.728C117.906 124.792 119.907 125.324 122.136 125.324ZM104.276 146.148V94.9235H111.116V104.424L109.824 113.164L111.116 121.98V146.148H104.276Z" fill="url(#paint2_linear_37134_62407)"/>
<path d="M167.511 131.784C164.775 131.784 162.292 131.226 160.063 130.112C157.884 128.946 156.136 127.35 154.819 125.324C153.501 123.297 152.767 120.992 152.615 118.408V107.54C152.767 104.905 153.501 102.6 154.819 100.624C156.187 98.5969 157.96 97.0262 160.139 95.9115C162.368 94.7462 164.825 94.1635 167.511 94.1635C170.804 94.1635 173.768 94.9995 176.403 96.6715C179.088 98.3435 181.191 100.598 182.711 103.436C184.231 106.273 184.991 109.465 184.991 113.012C184.991 116.558 184.231 119.75 182.711 122.588C181.191 125.425 179.088 127.68 176.403 129.352C173.768 130.973 170.804 131.784 167.511 131.784ZM166.371 125.324C168.651 125.324 170.652 124.792 172.375 123.728C174.097 122.664 175.465 121.22 176.479 119.396C177.492 117.521 177.999 115.368 177.999 112.936C177.999 110.554 177.492 108.426 176.479 106.552C175.465 104.677 174.097 103.233 172.375 102.22C170.652 101.156 168.676 100.624 166.447 100.624C164.167 100.624 162.165 101.156 160.443 102.22C158.72 103.233 157.377 104.677 156.415 106.552C155.452 108.426 154.971 110.58 154.971 113.012C154.971 115.393 155.427 117.521 156.339 119.396C157.301 121.22 158.644 122.664 160.367 123.728C162.14 124.792 164.141 125.324 166.371 125.324ZM148.511 146.148V94.9235H155.351V104.424L154.059 113.164L155.351 121.98V146.148H148.511Z" fill="url(#paint3_linear_37134_62407)"/>
<path d="M224.438 131.784C220.283 131.784 216.736 131.024 213.798 129.504C210.859 127.984 208.25 125.78 205.97 122.892L210.834 118.028C212.506 120.358 214.431 122.132 216.61 123.348C218.788 124.513 221.474 125.096 224.666 125.096C227.807 125.096 230.315 124.412 232.19 123.044C234.115 121.676 235.078 119.801 235.078 117.42C235.078 115.444 234.622 113.848 233.71 112.632C232.798 111.416 231.556 110.428 229.986 109.668C228.466 108.857 226.794 108.148 224.97 107.54C223.146 106.881 221.322 106.197 219.498 105.488C217.674 104.728 216.002 103.816 214.482 102.752C212.962 101.637 211.72 100.193 210.758 98.4195C209.846 96.6462 209.39 94.4169 209.39 91.7315C209.39 88.7422 210.099 86.2089 211.518 84.1315C212.987 82.0035 214.963 80.3822 217.446 79.2675C219.979 78.1022 222.816 77.5195 225.958 77.5195C229.403 77.5195 232.494 78.2035 235.23 79.5715C237.966 80.8889 240.195 82.6369 241.918 84.8155L237.054 89.6795C235.483 87.8555 233.786 86.4875 231.962 85.5755C230.188 84.6635 228.136 84.2075 225.806 84.2075C222.968 84.2075 220.714 84.8409 219.042 86.1075C217.37 87.3235 216.534 89.0462 216.534 91.2755C216.534 93.0489 216.99 94.4929 217.902 95.6075C218.864 96.6715 220.106 97.5835 221.626 98.3435C223.146 99.1035 224.818 99.8129 226.642 100.472C228.516 101.08 230.366 101.764 232.19 102.524C234.014 103.284 235.686 104.246 237.206 105.412C238.726 106.577 239.942 108.097 240.854 109.972C241.816 111.796 242.298 114.101 242.298 116.888C242.298 121.549 240.676 125.197 237.434 127.832C234.242 130.466 229.91 131.784 224.438 131.784Z" fill="url(#paint4_linear_37134_62407)"/>
<path d="M266.91 131.784C263.313 131.784 260.07 130.973 257.182 129.352C254.294 127.68 252.014 125.425 250.342 122.588C248.67 119.75 247.834 116.533 247.834 112.936C247.834 109.389 248.645 106.197 250.266 103.36C251.938 100.522 254.168 98.2929 256.954 96.6715C259.792 94.9995 262.958 94.1635 266.454 94.1635C269.798 94.1635 272.737 94.9235 275.27 96.4435C277.854 97.9635 279.856 100.066 281.274 102.752C282.744 105.437 283.478 108.477 283.478 111.872C283.478 112.378 283.453 112.936 283.402 113.544C283.352 114.101 283.25 114.76 283.098 115.52H252.622V109.82H279.45L276.942 112.024C276.942 109.592 276.512 107.54 275.65 105.868C274.789 104.145 273.573 102.828 272.002 101.916C270.432 100.953 268.532 100.472 266.302 100.472C263.972 100.472 261.92 100.978 260.146 101.992C258.373 103.005 257.005 104.424 256.042 106.248C255.08 108.072 254.598 110.225 254.598 112.708C254.598 115.241 255.105 117.47 256.118 119.396C257.132 121.27 258.576 122.74 260.45 123.804C262.325 124.817 264.478 125.324 266.91 125.324C268.937 125.324 270.786 124.969 272.458 124.26C274.181 123.55 275.65 122.486 276.866 121.068L281.274 125.552C279.552 127.578 277.424 129.124 274.89 130.188C272.408 131.252 269.748 131.784 266.91 131.784Z" fill="url(#paint5_linear_37134_62407)"/>
<path d="M307.428 131.784C303.882 131.784 300.664 130.948 297.776 129.276C294.939 127.604 292.684 125.349 291.012 122.512C289.391 119.624 288.58 116.432 288.58 112.936C288.58 109.389 289.391 106.197 291.012 103.36C292.684 100.522 294.939 98.2929 297.776 96.6715C300.664 94.9995 303.882 94.1635 307.428 94.1635C310.215 94.1635 312.799 94.6955 315.18 95.7595C317.562 96.7729 319.614 98.2675 321.336 100.244L316.776 104.804C315.662 103.486 314.294 102.498 312.672 101.84C311.102 101.13 309.354 100.776 307.428 100.776C305.148 100.776 303.122 101.308 301.348 102.372C299.575 103.385 298.182 104.804 297.168 106.628C296.155 108.452 295.648 110.554 295.648 112.936C295.648 115.317 296.155 117.42 297.168 119.244C298.182 121.068 299.575 122.512 301.348 123.576C303.122 124.64 305.148 125.172 307.428 125.172C309.354 125.172 311.102 124.842 312.672 124.184C314.294 123.474 315.687 122.461 316.852 121.144L321.336 125.704C319.664 127.629 317.612 129.124 315.18 130.188C312.799 131.252 310.215 131.784 307.428 131.784Z" fill="url(#paint6_linear_37134_62407)"/>
<path d="M342.636 131.784C339.697 131.784 337.037 131.125 334.656 129.808C332.325 128.44 330.501 126.565 329.184 124.184C327.867 121.802 327.208 119.041 327.208 115.9V94.9235H334.048V115.596C334.048 117.572 334.377 119.294 335.036 120.764C335.745 122.182 336.759 123.272 338.076 124.032C339.393 124.792 340.939 125.172 342.712 125.172C345.397 125.172 347.5 124.336 349.02 122.664C350.54 120.941 351.3 118.585 351.3 115.596V94.9235H358.14V115.9C358.14 119.041 357.481 121.802 356.164 124.184C354.847 126.565 353.023 128.44 350.692 129.808C348.412 131.125 345.727 131.784 342.636 131.784Z" fill="url(#paint7_linear_37134_62407)"/>
<path d="M367.307 131.024V94.9235H374.147V131.024H367.307ZM374.147 110.428L371.563 109.288C371.563 104.677 372.627 101.004 374.755 98.2675C376.883 95.5315 379.949 94.1635 383.951 94.1635C385.775 94.1635 387.422 94.4929 388.891 95.1515C390.361 95.7595 391.729 96.7982 392.995 98.2675L388.511 102.904C387.751 102.093 386.915 101.51 386.003 101.156C385.091 100.801 384.027 100.624 382.811 100.624C380.278 100.624 378.201 101.434 376.579 103.056C374.958 104.677 374.147 107.134 374.147 110.428Z" fill="url(#paint8_linear_37134_62407)"/>
<path d="M397.887 131.024V94.9235H404.727V131.024H397.887ZM401.307 87.7035C400.041 87.7035 399.002 87.2982 398.191 86.4875C397.381 85.6262 396.975 84.5622 396.975 83.2955C396.975 82.0795 397.381 81.0662 398.191 80.2555C399.002 79.3942 400.041 78.9635 401.307 78.9635C402.574 78.9635 403.613 79.3942 404.423 80.2555C405.234 81.0662 405.639 82.0795 405.639 83.2955C405.639 84.5622 405.234 85.6262 404.423 86.4875C403.613 87.2982 402.574 87.7035 401.307 87.7035Z" fill="url(#paint9_linear_37134_62407)"/>
<path d="M420.355 131.024V79.7995H427.195V131.024H420.355ZM411.463 101.156V94.9235H436.087V101.156H411.463Z" fill="url(#paint10_linear_37134_62407)"/>
<path d="M454.644 131.328L438.988 94.9235H446.588L458.216 123.424H455.784L468.02 94.9235H475.62L458.748 131.328H454.644ZM444.308 146.148L454.948 124.336L458.748 131.328L451.908 146.148H444.308Z" fill="url(#paint11_linear_37134_62407)"/>
</g>
<defs>
<filter id="filter0_d_37134_62407" x="0.22166" y="0" width="683.665" height="65.3399" filterUnits="userSpaceOnUse" color-interpolation-filters="sRGB">
<feFlood flood-opacity="0" result="BackgroundImageFix"/>
<feColorMatrix in="SourceAlpha" type="matrix" values="0 0 0 0 0 0 0 0 0 0 0 0 0 0 0 0 0 0 127 0" result="hardAlpha"/>
<feOffset dy="4.77834"/>
<feGaussianBlur stdDeviation="2.38917"/>
<feComposite in2="hardAlpha" operator="out"/>
<feColorMatrix type="matrix" values="0 0 0 0 0 0 0 0 0 0 0 0 0 0 0 0 0 0 0.08 0"/>
<feBlend mode="normal" in2="BackgroundImageFix" result="effect1_dropShadow_37134_62407"/>
<feBlend mode="normal" in="SourceGraphic" in2="effect1_dropShadow_37134_62407" result="shape"/>
</filter>
<filter id="filter1_di_37134_62407" x="0.22166" y="77.5195" width="480.177" height="78.1856" filterUnits="userSpaceOnUse" color-interpolation-filters="sRGB">
<feFlood flood-opacity="0" result="BackgroundImageFix"/>
<feColorMatrix in="SourceAlpha" type="matrix" values="0 0 0 0 0 0 0 0 0 0 0 0 0 0 0 0 0 0 127 0" result="hardAlpha"/>
<feOffset dy="4.77834"/>
<feGaussianBlur stdDeviation="2.38917"/>
<feComposite in2="hardAlpha" operator="out"/>
<feColorMatrix type="matrix" values="0 0 0 0 0 0 0 0 0 0 0 0 0 0 0 0 0 0 0.08 0"/>
<feBlend mode="normal" in2="BackgroundImageFix" result="effect1_dropShadow_37134_62407"/>
<feBlend mode="normal" in="SourceGraphic" in2="effect1_dropShadow_37134_62407" result="shape"/>
<feColorMatrix in="SourceAlpha" type="matrix" values="0 0 0 0 0 0 0 0 0 0 0 0 0 0 0 0 0 0 127 0" result="hardAlpha"/>
<feOffset dy="0.955668"/>
<feGaussianBlur stdDeviation="0.477834"/>
<feComposite in2="hardAlpha" operator="arithmetic" k2="-1" k3="1"/>
<feColorMatrix type="matrix" values="0 0 0 0 1 0 0 0 0 1 0 0 0 0 1 0 0 0 0.5 0"/>
<feBlend mode="normal" in2="shape" result="effect2_innerShadow_37134_62407"/>
</filter>
<linearGradient id="paint0_linear_37134_62407" x1="-0.195468" y1="92.8898" x2="480.712" y2="128.442" gradientUnits="userSpaceOnUse">
<stop stop-color="#8DA6FF"/>
<stop offset="0.428082" stop-color="#A8A0FF"/>
<stop offset="1" stop-color="#CCA4FF"/>
</linearGradient>
<linearGradient id="paint1_linear_37134_62407" x1="-0.195468" y1="92.8898" x2="480.712" y2="128.442" gradientUnits="userSpaceOnUse">
<stop stop-color="#8DA6FF"/>
<stop offset="0.428082" stop-color="#A8A0FF"/>
<stop offset="1" stop-color="#CCA4FF"/>
</linearGradient>
<linearGradient id="paint2_linear_37134_62407" x1="-0.195468" y1="92.8898" x2="480.712" y2="128.442" gradientUnits="userSpaceOnUse">
<stop stop-color="#8DA6FF"/>
<stop offset="0.428082" stop-color="#A8A0FF"/>
<stop offset="1" stop-color="#CCA4FF"/>
</linearGradient>
<linearGradient id="paint3_linear_37134_62407" x1="-0.195468" y1="92.8898" x2="480.712" y2="128.442" gradientUnits="userSpaceOnUse">
<stop stop-color="#8DA6FF"/>
<stop offset="0.428082" stop-color="#A8A0FF"/>
<stop offset="1" stop-color="#CCA4FF"/>
</linearGradient>
<linearGradient id="paint4_linear_37134_62407" x1="-0.195468" y1="92.8898" x2="480.712" y2="128.442" gradientUnits="userSpaceOnUse">
<stop stop-color="#8DA6FF"/>
<stop offset="0.428082" stop-color="#A8A0FF"/>
<stop offset="1" stop-color="#CCA4FF"/>
</linearGradient>
<linearGradient id="paint5_linear_37134_62407" x1="-0.195468" y1="92.8898" x2="480.712" y2="128.442" gradientUnits="userSpaceOnUse">
<stop stop-color="#8DA6FF"/>
<stop offset="0.428082" stop-color="#A8A0FF"/>
<stop offset="1" stop-color="#CCA4FF"/>
</linearGradient>
<linearGradient id="paint6_linear_37134_62407" x1="-0.195468" y1="92.8898" x2="480.712" y2="128.442" gradientUnits="userSpaceOnUse">
<stop stop-color="#8DA6FF"/>
<stop offset="0.428082" stop-color="#A8A0FF"/>
<stop offset="1" stop-color="#CCA4FF"/>
</linearGradient>
<linearGradient id="paint7_linear_37134_62407" x1="-0.195468" y1="92.8898" x2="480.712" y2="128.442" gradientUnits="userSpaceOnUse">
<stop stop-color="#8DA6FF"/>
<stop offset="0.428082" stop-color="#A8A0FF"/>
<stop offset="1" stop-color="#CCA4FF"/>
</linearGradient>
<linearGradient id="paint8_linear_37134_62407" x1="-0.195468" y1="92.8898" x2="480.712" y2="128.442" gradientUnits="userSpaceOnUse">
<stop stop-color="#8DA6FF"/>
<stop offset="0.428082" stop-color="#A8A0FF"/>
<stop offset="1" stop-color="#CCA4FF"/>
</linearGradient>
<linearGradient id="paint9_linear_37134_62407" x1="-0.195468" y1="92.8898" x2="480.712" y2="128.442" gradientUnits="userSpaceOnUse">
<stop stop-color="#8DA6FF"/>
<stop offset="0.428082" stop-color="#A8A0FF"/>
<stop offset="1" stop-color="#CCA4FF"/>
</linearGradient>
<linearGradient id="paint10_linear_37134_62407" x1="-0.195468" y1="92.8898" x2="480.712" y2="128.442" gradientUnits="userSpaceOnUse">
<stop stop-color="#8DA6FF"/>
<stop offset="0.428082" stop-color="#A8A0FF"/>
<stop offset="1" stop-color="#CCA4FF"/>
</linearGradient>
<linearGradient id="paint11_linear_37134_62407" x1="-0.195468" y1="92.8898" x2="480.712" y2="128.442" gradientUnits="userSpaceOnUse">
<stop stop-color="#8DA6FF"/>
<stop offset="0.428082" stop-color="#A8A0FF"/>
<stop offset="1" stop-color="#CCA4FF"/>
</linearGradient>
</defs>
</svg>
