<svg width="56" height="56" viewBox="0 0 56 56" fill="none" xmlns="http://www.w3.org/2000/svg">
<g clip-path="url(#clip0_13_107)">
<rect width="56" height="56" rx="28" fill="url(#paint0_linear_13_107)"/>
<g filter="url(#filter0_d_13_107)">
<path fill-rule="evenodd" clip-rule="evenodd" d="M29.5 16C29.5 15.1716 28.8284 14.5 28 14.5C27.1716 14.5 26.5 15.1716 26.5 16V26.5H16C15.1716 26.5 14.5 27.1716 14.5 28C14.5 28.8284 15.1716 29.5 16 29.5H26.5V40C26.5 40.8284 27.1716 41.5 28 41.5C28.8284 41.5 29.5 40.8284 29.5 40V29.5H40C40.8284 29.5 41.5 28.8284 41.5 28C41.5 27.1716 40.8284 26.5 40 26.5H29.5V16Z" fill="url(#paint1_linear_13_107)" shape-rendering="crispEdges"/>
</g>
</g>
<defs>
<filter id="filter0_d_13_107" x="2.5" y="6.5" width="51" height="51" filterUnits="userSpaceOnUse" color-interpolation-filters="sRGB">
<feFlood flood-opacity="0" result="BackgroundImageFix"/>
<feColorMatrix in="SourceAlpha" type="matrix" values="0 0 0 0 0 0 0 0 0 0 0 0 0 0 0 0 0 0 127 0" result="hardAlpha"/>
<feOffset dy="4"/>
<feGaussianBlur stdDeviation="6"/>
<feComposite in2="hardAlpha" operator="out"/>
<feColorMatrix type="matrix" values="0 0 0 0 0.224435 0 0 0 0 0.309191 0 0 0 0 0.675181 0 0 0 0.24 0"/>
<feBlend mode="normal" in2="BackgroundImageFix" result="effect1_dropShadow_13_107"/>
<feBlend mode="normal" in="SourceGraphic" in2="effect1_dropShadow_13_107" result="shape"/>
</filter>
<linearGradient id="paint0_linear_13_107" x1="13" y1="4.5" x2="57.8022" y2="19.3002" gradientUnits="userSpaceOnUse">
<stop stop-color="#80A4FF"/>
<stop offset="1" stop-color="#8287F2"/>
</linearGradient>
<linearGradient id="paint1_linear_13_107" x1="28" y1="14.5" x2="28" y2="41.5" gradientUnits="userSpaceOnUse">
<stop stop-color="white"/>
<stop offset="1" stop-color="white" stop-opacity="0.6"/>
</linearGradient>
<clipPath id="clip0_13_107">
<rect width="56" height="56" rx="28" fill="white"/>
</clipPath>
</defs>
</svg>
