<svg width="100" height="29" viewBox="0 0 100 29" fill="none" xmlns="http://www.w3.org/2000/svg">
<path d="M26.2808 15.6876C27.1267 13.7914 22.9447 8.49392 18.9495 6.28687C16.4311 4.57709 13.807 4.81199 13.2756 5.56271C12.1092 7.21024 17.1377 8.60627 20.5006 10.2353C19.7777 10.5504 19.0964 11.1157 18.6958 11.8387C17.4421 10.4653 14.6904 9.28269 11.4615 10.2353C9.28561 10.8773 7.47728 12.3908 6.77837 14.6767C6.60855 14.601 6.42053 14.5589 6.22271 14.5589C5.46625 14.5589 4.85303 15.1742 4.85303 15.9332C4.85303 16.6922 5.46625 17.3075 6.22271 17.3075C6.36292 17.3075 6.80132 17.2131 6.80132 17.2131L13.807 17.264C11.0053 21.7237 8.79113 22.3756 8.79113 23.1482C8.79113 23.9208 10.9097 23.7115 11.7052 23.4235C15.5132 22.0449 19.6032 17.7482 20.305 16.5113C23.2523 16.8803 25.7292 16.9239 26.2808 15.6876Z" fill="url(#paint0_linear_2_152)"/>
<path fill-rule="evenodd" clip-rule="evenodd" d="M20.5001 10.2356C20.5003 10.2356 20.5005 10.2357 20.5006 10.2358C20.6565 10.1742 20.6313 9.94321 20.5885 9.76181C20.4901 9.34487 18.7927 7.6631 17.1988 6.90982C15.0268 5.88338 13.4274 5.9363 13.1912 6.40939C13.6336 7.31922 15.6847 8.17342 17.8268 9.06557C18.7407 9.44619 19.6712 9.83371 20.5004 10.2354C20.5003 10.2355 20.5002 10.2355 20.5001 10.2356Z" fill="url(#paint1_linear_2_152)"/>
<path fill-rule="evenodd" clip-rule="evenodd" d="M17.744 19.3926C17.3048 19.2242 16.8086 19.0697 16.2445 18.9294C16.846 17.8496 16.9722 16.2509 16.4041 15.2402C15.6069 13.8217 14.6062 13.0666 12.2808 13.0667C11.0018 13.0667 7.55815 13.4989 7.49702 16.3833C7.49061 16.6859 7.49686 16.9633 7.51869 17.2183L13.807 17.264C12.9592 18.6135 12.1653 19.6143 11.4702 20.3753C12.3047 20.5898 12.9935 20.77 13.6258 20.9354C14.2257 21.0923 14.7749 21.2359 15.3496 21.3831C16.2167 20.7493 17.0318 20.0581 17.744 19.3926Z" fill="url(#paint2_linear_2_152)"/>
<path d="M6.69446 16.9219C6.95134 19.113 8.19241 19.9717 10.7284 20.2258C13.2644 20.4799 14.7191 20.3094 16.6558 20.4862C18.2733 20.6339 19.7175 21.4609 20.2533 21.1751C20.7355 20.9179 20.4657 19.9886 19.8205 19.3924C18.9841 18.6196 17.8266 18.0823 15.7899 17.8916C16.1958 16.7765 16.082 15.213 15.4517 14.3623C14.5402 13.1324 12.8577 12.5763 10.7284 12.8193C8.50374 13.0731 6.37207 14.1721 6.69446 16.9219Z" fill="url(#paint3_linear_2_152)"/>
<path d="M33.0573 14.5638H33.417C33.7928 14.5638 34.0811 14.4784 34.282 14.3076C34.4828 14.1368 34.5833 13.8914 34.5833 13.5712C34.5833 13.251 34.4828 13.0055 34.282 12.8348C34.0811 12.664 33.7928 12.5786 33.417 12.5786H33.0573V14.5638ZM37.2464 19.0143H34.8749L33.0573 15.9192V19.0143H31.1523V10.967H34.1168C34.525 10.967 34.8813 11.0346 35.1859 11.1698C35.4904 11.2979 35.7399 11.4758 35.9343 11.7034C36.1351 11.9311 36.2842 12.1944 36.3814 12.4932C36.485 12.7921 36.5369 13.1123 36.5369 13.4538C36.5369 14.0657 36.4008 14.5638 36.1287 14.948C35.863 15.3251 35.4677 15.5812 34.9429 15.7164L37.2464 19.0143Z" fill="#8697FF"/>
<path d="M38.8138 16.2607C38.8138 16.4386 38.8429 16.6058 38.9013 16.7624C38.9596 16.9118 39.0373 17.0434 39.1345 17.1572C39.2382 17.2711 39.3581 17.36 39.4941 17.4241C39.6367 17.4881 39.789 17.5201 39.951 17.5201C40.1065 17.5201 40.2523 17.4881 40.3883 17.4241C40.5309 17.36 40.6508 17.2711 40.7479 17.1572C40.8516 17.0434 40.9326 16.9118 40.9909 16.7624C41.0557 16.6129 41.0881 16.4528 41.0881 16.2821C41.0881 16.1113 41.0557 15.9512 40.9909 15.8018C40.9326 15.6453 40.8516 15.5101 40.7479 15.3962C40.6508 15.2824 40.5309 15.1934 40.3883 15.1294C40.2523 15.0654 40.1065 15.0334 39.951 15.0334C39.789 15.0334 39.6367 15.0654 39.4941 15.1294C39.3581 15.1934 39.2382 15.2824 39.1345 15.3962C39.0373 15.5101 38.9596 15.6417 38.9013 15.7911C38.8429 15.9334 38.8138 16.09 38.8138 16.2607ZM41.0298 13.5392H42.7987V19.0143H41.0298V18.406C40.654 18.9254 40.1453 19.1851 39.5039 19.1851C39.141 19.1851 38.8073 19.1139 38.5028 18.9716C38.1982 18.8222 37.9326 18.6159 37.7058 18.3526C37.479 18.0893 37.3008 17.7798 37.1712 17.4241C37.0481 17.0683 36.9865 16.6805 36.9865 16.2607C36.9865 15.8694 37.0481 15.4994 37.1712 15.1508C37.2943 14.795 37.466 14.4855 37.6863 14.2222C37.9066 13.959 38.1691 13.7526 38.4736 13.6032C38.7782 13.4467 39.1151 13.3684 39.4844 13.3684C40.1065 13.3684 40.6216 13.6068 41.0298 14.0835V13.5392Z" fill="#8697FF"/>
<path d="M47.3879 16.2927C47.3879 16.122 47.3588 15.9619 47.3005 15.8125C47.2422 15.6559 47.1612 15.5207 47.0575 15.4069C46.9538 15.2931 46.8339 15.2041 46.6979 15.1401C46.5618 15.0689 46.4128 15.0334 46.2508 15.0334C46.0953 15.0334 45.9495 15.0654 45.8134 15.1294C45.6773 15.1934 45.5575 15.2824 45.4538 15.3962C45.3566 15.5101 45.2756 15.6453 45.2108 15.8018C45.1525 15.9512 45.1233 16.1113 45.1233 16.2821C45.1233 16.4528 45.1525 16.6129 45.2108 16.7624C45.2691 16.9118 45.3501 17.0434 45.4538 17.1572C45.5575 17.264 45.6773 17.3529 45.8134 17.4241C45.956 17.4881 46.105 17.5201 46.2605 17.5201C46.416 17.5201 46.5618 17.4881 46.6979 17.4241C46.8339 17.36 46.9506 17.2711 47.0478 17.1572C47.1514 17.0434 47.2324 16.9118 47.2908 16.7624C47.3556 16.6129 47.3879 16.4564 47.3879 16.2927ZM45.1719 10.1559V14.0835C45.5866 13.6068 46.105 13.3684 46.727 13.3684C47.0964 13.3684 47.4333 13.4467 47.7378 13.6032C48.0489 13.7526 48.3113 13.959 48.5251 14.2222C48.7454 14.4784 48.9171 14.7843 49.0402 15.1401C49.1634 15.4887 49.2249 15.8623 49.2249 16.2607C49.2249 16.6663 49.1601 17.047 49.0305 17.4027C48.9074 17.7585 48.7325 18.068 48.5057 18.3313C48.2789 18.5945 48.01 18.8044 47.699 18.9609C47.3944 19.1104 47.064 19.1851 46.7076 19.1851C46.0596 19.1851 45.5477 18.9254 45.1719 18.406V19.0143H43.4127V10.1559H45.1719Z" fill="#8697FF"/>
<path d="M53.6197 16.2927C53.6197 16.122 53.5906 15.9619 53.5323 15.8125C53.4739 15.6559 53.393 15.5207 53.2893 15.4069C53.1856 15.2931 53.0657 15.2041 52.9297 15.1401C52.7936 15.0689 52.6446 15.0334 52.4826 15.0334C52.3271 15.0334 52.1813 15.0654 52.0452 15.1294C51.9091 15.1934 51.7893 15.2824 51.6856 15.3962C51.5884 15.5101 51.5074 15.6453 51.4426 15.8018C51.3843 15.9512 51.3551 16.1113 51.3551 16.2821C51.3551 16.4528 51.3843 16.6129 51.4426 16.7624C51.5009 16.9118 51.5819 17.0434 51.6856 17.1572C51.7893 17.264 51.9091 17.3529 52.0452 17.4241C52.1877 17.4881 52.3368 17.5201 52.4923 17.5201C52.6478 17.5201 52.7936 17.4881 52.9297 17.4241C53.0657 17.36 53.1824 17.2711 53.2796 17.1572C53.3832 17.0434 53.4642 16.9118 53.5225 16.7624C53.5873 16.6129 53.6197 16.4564 53.6197 16.2927ZM51.4037 10.1559V14.0835C51.8184 13.6068 52.3368 13.3684 52.9588 13.3684C53.3282 13.3684 53.6651 13.4467 53.9696 13.6032C54.2807 13.7526 54.5431 13.959 54.7569 14.2222C54.9772 14.4784 55.1489 14.7843 55.272 15.1401C55.3951 15.4887 55.4567 15.8623 55.4567 16.2607C55.4567 16.6663 55.3919 17.047 55.2623 17.4027C55.1392 17.7585 54.9642 18.068 54.7375 18.3313C54.5107 18.5945 54.2418 18.8044 53.9308 18.9609C53.6262 19.1104 53.2958 19.1851 52.9394 19.1851C52.2914 19.1851 51.7795 18.9254 51.4037 18.406V19.0143H49.6445V10.1559H51.4037Z" fill="#8697FF"/>
<path d="M57.4183 18.2672L55.0079 13.5392H57.049L58.3806 16.3461L59.6732 13.5392H61.6949L57.6905 21.7466H55.7175L57.4183 18.2672Z" fill="#8697FF"/>
<path d="M65.8287 10.967L67.0922 16.1647L68.6473 10.967H70.1635L71.7187 16.1647L72.9822 10.967H74.9746L72.7878 19.0143H70.8439L69.4054 14.3503L67.967 19.0143H66.0231L63.8362 10.967H65.8287Z" fill="#8697FF"/>
<path d="M76.2994 16.2607C76.2994 16.4386 76.3286 16.6058 76.3869 16.7624C76.4452 16.9118 76.523 17.0434 76.6202 17.1572C76.7238 17.2711 76.8437 17.36 76.9798 17.4241C77.1223 17.4881 77.2746 17.5201 77.4366 17.5201C77.5921 17.5201 77.7379 17.4881 77.874 17.4241C78.0165 17.36 78.1364 17.2711 78.2336 17.1572C78.3373 17.0434 78.4183 16.9118 78.4766 16.7624C78.5414 16.6129 78.5738 16.4528 78.5738 16.2821C78.5738 16.1113 78.5414 15.9512 78.4766 15.8018C78.4183 15.6453 78.3373 15.5101 78.2336 15.3962C78.1364 15.2824 78.0165 15.1934 77.874 15.1294C77.7379 15.0654 77.5921 15.0334 77.4366 15.0334C77.2746 15.0334 77.1223 15.0654 76.9798 15.1294C76.8437 15.1934 76.7238 15.2824 76.6202 15.3962C76.523 15.5101 76.4452 15.6417 76.3869 15.7911C76.3286 15.9334 76.2994 16.09 76.2994 16.2607ZM78.5155 13.5392H80.2844V19.0143H78.5155V18.406C78.1396 18.9254 77.631 19.1851 76.9895 19.1851C76.6267 19.1851 76.293 19.1139 75.9884 18.9716C75.6839 18.8222 75.4182 18.6159 75.1914 18.3526C74.9646 18.0893 74.7865 17.7798 74.6569 17.4241C74.5337 17.0683 74.4722 16.6805 74.4722 16.2607C74.4722 15.8694 74.5337 15.4994 74.6569 15.1508C74.78 14.795 74.9517 14.4855 75.172 14.2222C75.3923 13.959 75.6547 13.7526 75.9593 13.6032C76.2638 13.4467 76.6007 13.3684 76.9701 13.3684C77.5921 13.3684 78.1072 13.6068 78.5155 14.0835V13.5392Z" fill="#8697FF"/>
<path d="M82.6576 10.1559V19.0143H80.8984V10.1559H82.6576Z" fill="#8697FF"/>
<path d="M85.0358 10.1559V19.0143H83.2766V10.1559H85.0358Z" fill="#8697FF"/>
<path d="M89.2996 15.4816C89.2412 15.2112 89.1214 14.9942 88.9399 14.8306C88.7585 14.6669 88.5382 14.5851 88.279 14.5851C88.0069 14.5851 87.7833 14.6634 87.6084 14.8199C87.4399 14.9764 87.333 15.197 87.2876 15.4816H89.2996ZM87.239 16.6023C87.239 17.4347 87.5954 17.851 88.3082 17.851C88.6905 17.851 88.9788 17.6802 89.1732 17.3387H90.8741C90.5307 18.591 89.6721 19.2171 88.2985 19.2171C87.8773 19.2171 87.4917 19.1495 87.1419 19.0143C86.792 18.872 86.4907 18.6728 86.238 18.4166C85.9917 18.1605 85.8006 17.8545 85.6645 17.4988C85.5284 17.143 85.4604 16.7446 85.4604 16.3034C85.4604 15.848 85.5252 15.4389 85.6548 15.076C85.7844 14.7061 85.9691 14.393 86.2088 14.1368C86.4485 13.8807 86.7369 13.685 87.0738 13.5498C87.4172 13.4075 87.8028 13.3364 88.2304 13.3364C88.6516 13.3364 89.0307 13.4075 89.3676 13.5498C89.7045 13.685 89.9896 13.8843 90.2229 14.1475C90.4562 14.4108 90.6343 14.7345 90.7575 15.1187C90.8806 15.4958 90.9421 15.9228 90.9421 16.3995V16.6023H87.239Z" fill="#8697FF"/>
<path d="M93.3943 15.1508V19.0143H91.6351V15.1508H91.0519V13.5392H91.6351V11.8956H93.3943V13.5392H94.3954V15.1508H93.3943Z" fill="#8697FF"/>
<defs>
<linearGradient id="paint0_linear_2_152" x1="11.2081" y1="14.0084" x2="26.1061" y2="18.219" gradientUnits="userSpaceOnUse">
<stop stop-color="#8697FF"/>
<stop offset="1" stop-color="#ABB7FF"/>
</linearGradient>
<linearGradient id="paint1_linear_2_152" x1="23.5911" y1="13.7244" x2="12.8107" y2="2.95395" gradientUnits="userSpaceOnUse">
<stop stop-color="#8697FF"/>
<stop offset="1" stop-color="#5156D8" stop-opacity="0"/>
</linearGradient>
<linearGradient id="paint2_linear_2_152" x1="18.0429" y1="19.769" x2="7.70476" y2="13.8453" gradientUnits="userSpaceOnUse">
<stop stop-color="#465EED"/>
<stop offset="1" stop-color="#8697FF" stop-opacity="0"/>
</linearGradient>
<linearGradient id="paint3_linear_2_152" x1="12.0971" y1="13.8969" x2="19.1023" y2="22.7678" gradientUnits="userSpaceOnUse">
<stop stop-color="#8898FF"/>
<stop offset="0.983895" stop-color="#6277F1"/>
</linearGradient>
</defs>
</svg>
