<svg width="24" height="24" viewBox="0 0 24 24" fill="none" xmlns="http://www.w3.org/2000/svg">
<path d="M11.998 21.9922C14.7594 21.9922 17.2594 20.8729 19.0691 19.0632C20.8787 17.2536 21.998 14.7536 21.998 11.9922C21.998 9.23079 20.8787 6.73079 19.0691 4.92112C17.2594 3.11148 14.7594 1.99219 11.998 1.99219C9.23665 1.99219 6.73665 3.11148 4.92698 4.92112C3.11734 6.73079 1.99805 9.23079 1.99805 11.9922C1.99805 14.7536 3.11734 17.2536 4.92698 19.0632C6.73665 20.8729 9.23665 21.9922 11.998 21.9922Z" fill="#FFDB5C" stroke="#FFDB5C" stroke-width="1.5" stroke-linejoin="round"/>
<path d="M13.002 17.2578C13.002 17.8101 12.5542 18.2578 12.002 18.2578C11.4497 18.2578 11.002 17.8101 11.002 17.2578C11.002 16.7055 11.4497 16.2578 12.002 16.2578C12.5542 16.2578 13.002 16.7055 13.002 17.2578Z" fill="white" stroke="white" stroke-width="0.5"/>
<path d="M12 6V14Z" fill="white"/>
<path d="M12 6V14" stroke="white" stroke-width="1.5" stroke-linecap="round" stroke-linejoin="round"/>
</svg>
