<svg width="26" height="26" viewBox="0 0 26 26" fill="none" xmlns="http://www.w3.org/2000/svg">
<path d="M12.4791 21.3303H4.14595C3.28303 21.3303 2.5835 20.6307 2.5835 19.7678V6.22652C2.5835 5.3636 3.28303 4.66406 4.14595 4.66406H21.8538C22.7167 4.66406 23.4162 5.3636 23.4162 6.22652V13.9776" stroke="#13141A" stroke-width="1.56246" stroke-linecap="round" stroke-linejoin="round"/>
<path d="M2.5835 6.22652C2.5835 5.3636 3.28303 4.66406 4.14595 4.66406H21.8538C22.7167 4.66406 23.4162 5.3636 23.4162 6.22652V10.9139H2.5835V6.22652Z" stroke="#13141A" stroke-width="1.56246"/>
<path d="M18.2083 17.6875L16.125 19.7708L18.2083 21.854" stroke="#13141A" stroke-width="1.56246" stroke-linecap="round" stroke-linejoin="round"/>
<path d="M21.3335 17.6875L23.4168 19.7708L21.3335 21.854" stroke="#13141A" stroke-width="1.56246" stroke-linecap="round" stroke-linejoin="round"/>
<path d="M4.66673 7.7943C4.66672 7.21902 5.13308 6.75266 5.70836 6.75266C6.28364 6.75266 6.75 7.21902 6.75 7.7943C6.75 8.36958 6.28364 8.83594 5.70836 8.83594C5.13308 8.83594 4.66673 8.36958 4.66673 7.7943Z" fill="#13141A"/>
<path d="M7.79173 7.7943C7.79172 7.21902 8.25808 6.75266 8.83336 6.75266C9.40864 6.75266 9.875 7.21902 9.875 7.7943C9.875 8.36958 9.40864 8.83594 8.83336 8.83594C8.25808 8.83594 7.79173 8.36958 7.79173 7.7943Z" fill="#13141A"/>
</svg>
