<svg width="26" height="26" viewBox="0 0 26 26" fill="none" xmlns="http://www.w3.org/2000/svg">
<path d="M14.0413 19.25H3.62467C3.04938 19.25 2.58301 18.7836 2.58301 18.2083V4.66667C2.58301 4.09137 3.04938 3.625 3.62467 3.625H22.3747C22.95 3.625 23.4163 4.09137 23.4163 4.66667V18.2083C23.4163 18.7836 22.95 19.25 22.3747 19.25H18.208" stroke="#13141A" stroke-width="1.5625" stroke-linecap="round" stroke-linejoin="round"/>
<path d="M6.75 7.78906H19.25" stroke="#13141A" stroke-width="1.5625" stroke-linecap="round" stroke-linejoin="round"/>
<path d="M6.75 11.4375H9.875" stroke="#13141A" stroke-width="1.5625" stroke-linecap="round" stroke-linejoin="round"/>
<path d="M6.75 15.0859H8.83333" stroke="#13141A" stroke-width="1.5625" stroke-linecap="round" stroke-linejoin="round"/>
<path d="M16.125 17.6875C17.8509 17.6875 19.25 16.2884 19.25 14.5625C19.25 12.8366 17.8509 11.4375 16.125 11.4375C14.3991 11.4375 13 12.8366 13 14.5625C13 16.2884 14.3991 17.6875 16.125 17.6875Z" stroke="#13141A" stroke-width="1.5625"/>
<path d="M16.1253 21.3322L18.2087 22.3739V16.8906C18.2087 16.8906 17.6146 17.6864 16.1253 17.6864C14.6361 17.6864 14.042 16.9051 14.042 16.9051V22.3739L16.1253 21.3322Z" stroke="#13141A" stroke-width="1.5625" stroke-linecap="round" stroke-linejoin="round"/>
</svg>
