<svg width="243" height="34" viewBox="0 0 243 34" fill="none" xmlns="http://www.w3.org/2000/svg">
<path d="M3.6 15.444V11.628H9.468C10.668 11.628 11.592 11.328 12.24 10.728C12.912 10.104 13.248 9.252 13.248 8.172C13.248 7.188 12.912 6.372 12.24 5.724C11.592 5.052 10.668 4.716 9.468 4.716H3.6V0.720001H9.9C11.532 0.720001 12.96 1.044 14.184 1.692C15.432 2.316 16.392 3.18 17.064 4.284C17.76 5.388 18.108 6.66 18.108 8.1C18.108 9.588 17.76 10.884 17.064 11.988C16.392 13.068 15.432 13.92 14.184 14.544C12.936 15.144 11.484 15.444 9.828 15.444H3.6ZM0 26.028V0.720001H4.896V26.028H0ZM13.824 26.028L5.472 15.084L9.972 13.68L19.764 26.028H13.824Z" fill="white"/>
<path d="M28.811 26.388C27.227 26.388 25.799 25.992 24.527 25.2C23.255 24.408 22.259 23.328 21.539 21.96C20.819 20.592 20.459 19.056 20.459 17.352C20.459 15.624 20.819 14.076 21.539 12.708C22.259 11.34 23.255 10.26 24.527 9.468C25.799 8.676 27.227 8.28 28.811 8.28C30.059 8.28 31.175 8.532 32.159 9.036C33.143 9.54 33.923 10.248 34.499 11.16C35.099 12.048 35.423 13.056 35.471 14.184V20.448C35.423 21.6 35.099 22.62 34.499 23.508C33.923 24.396 33.143 25.104 32.159 25.632C31.175 26.136 30.059 26.388 28.811 26.388ZM29.675 22.032C30.995 22.032 32.063 21.6 32.879 20.736C33.695 19.848 34.103 18.708 34.103 17.316C34.103 16.404 33.911 15.6 33.527 14.904C33.167 14.184 32.651 13.632 31.979 13.248C31.331 12.84 30.563 12.636 29.675 12.636C28.811 12.636 28.043 12.84 27.371 13.248C26.723 13.632 26.207 14.184 25.823 14.904C25.463 15.6 25.283 16.404 25.283 17.316C25.283 18.252 25.463 19.08 25.823 19.8C26.207 20.496 26.723 21.048 27.371 21.456C28.043 21.84 28.811 22.032 29.675 22.032ZM33.851 26.028V21.348L34.607 17.1L33.851 12.924V8.64H38.531V26.028H33.851Z" fill="white"/>
<path d="M52.351 26.388C51.103 26.388 49.975 26.124 48.967 25.596C47.959 25.068 47.155 24.348 46.555 23.436C45.955 22.524 45.631 21.504 45.583 20.376V14.184C45.631 13.056 45.955 12.048 46.555 11.16C47.179 10.248 47.995 9.54 49.003 9.036C50.011 8.532 51.127 8.28 52.351 8.28C53.959 8.28 55.399 8.676 56.671 9.468C57.943 10.26 58.939 11.34 59.659 12.708C60.403 14.076 60.775 15.624 60.775 17.352C60.775 19.056 60.403 20.592 59.659 21.96C58.939 23.328 57.943 24.408 56.671 25.2C55.399 25.992 53.959 26.388 52.351 26.388ZM51.559 22.032C52.423 22.032 53.179 21.84 53.827 21.456C54.499 21.048 55.015 20.496 55.375 19.8C55.759 19.08 55.951 18.252 55.951 17.316C55.951 16.404 55.759 15.6 55.375 14.904C55.015 14.184 54.499 13.632 53.827 13.248C53.155 12.84 52.387 12.636 51.523 12.636C50.659 12.636 49.891 12.84 49.219 13.248C48.571 13.632 48.055 14.184 47.671 14.904C47.311 15.6 47.131 16.404 47.131 17.316C47.131 18.252 47.311 19.08 47.671 19.8C48.055 20.496 48.583 21.048 49.255 21.456C49.927 21.84 50.695 22.032 51.559 22.032ZM42.703 26.028V0H47.419V12.924L46.627 17.1L47.383 21.348V26.028H42.703Z" fill="white"/>
<path d="M73.5151 26.388C72.2671 26.388 71.1391 26.124 70.1311 25.596C69.1231 25.068 68.3191 24.348 67.7191 23.436C67.1191 22.524 66.7951 21.504 66.7471 20.376V14.184C66.7951 13.056 67.1191 12.048 67.7191 11.16C68.3431 10.248 69.1591 9.54 70.1671 9.036C71.1751 8.532 72.2911 8.28 73.5151 8.28C75.1231 8.28 76.5631 8.676 77.8351 9.468C79.1071 10.26 80.1031 11.34 80.8231 12.708C81.5671 14.076 81.9391 15.624 81.9391 17.352C81.9391 19.056 81.5671 20.592 80.8231 21.96C80.1031 23.328 79.1071 24.408 77.8351 25.2C76.5631 25.992 75.1231 26.388 73.5151 26.388ZM72.7231 22.032C73.5871 22.032 74.3431 21.84 74.9911 21.456C75.6631 21.048 76.1791 20.496 76.5391 19.8C76.9231 19.08 77.1151 18.252 77.1151 17.316C77.1151 16.404 76.9231 15.6 76.5391 14.904C76.1791 14.184 75.6631 13.632 74.9911 13.248C74.3191 12.84 73.5511 12.636 72.6871 12.636C71.8231 12.636 71.0551 12.84 70.3831 13.248C69.7351 13.632 69.2191 14.184 68.8351 14.904C68.4751 15.6 68.2951 16.404 68.2951 17.316C68.2951 18.252 68.4751 19.08 68.8351 19.8C69.2191 20.496 69.7471 21.048 70.4191 21.456C71.0911 21.84 71.8591 22.032 72.7231 22.032ZM63.8671 26.028V0H68.5831V12.924L67.7911 17.1L68.5471 21.348V26.028H63.8671Z" fill="white"/>
<path d="M89.9758 26.172L82.7038 8.64H87.8158L92.6398 22.032H90.9118L95.9158 8.64H101.064L93.3238 26.136L89.9758 26.172ZM85.1518 33.3L90.4438 22.104L93.3238 26.136L90.1558 33.3H85.1518Z" fill="white"/>
<path d="M114.336 26.028V21.672H120.78C122.412 21.672 123.84 21.336 125.064 20.664C126.288 19.968 127.236 18.996 127.908 17.748C128.604 16.5 128.952 15.024 128.952 13.32C128.952 11.664 128.604 10.224 127.908 9C127.212 7.752 126.252 6.792 125.028 6.12C123.804 5.424 122.388 5.076 120.78 5.076H114.228V0.720001H120.852C122.724 0.720001 124.452 1.032 126.036 1.656C127.644 2.28 129.036 3.168 130.212 4.32C131.412 5.448 132.336 6.78 132.984 8.316C133.656 9.852 133.992 11.532 133.992 13.356C133.992 15.18 133.656 16.872 132.984 18.432C132.336 19.968 131.424 21.312 130.248 22.464C129.072 23.592 127.68 24.468 126.072 25.092C124.488 25.716 122.772 26.028 120.924 26.028H114.336ZM110.988 26.028V0.720001H115.884V26.028H110.988Z" fill="white"/>
<path d="M145.695 26.388C143.871 26.388 142.251 26.004 140.835 25.236C139.419 24.444 138.291 23.364 137.451 21.996C136.635 20.628 136.227 19.068 136.227 17.316C136.227 15.588 136.623 14.052 137.415 12.708C138.231 11.34 139.335 10.26 140.727 9.468C142.119 8.652 143.667 8.244 145.371 8.244C147.051 8.244 148.527 8.628 149.799 9.396C151.095 10.14 152.103 11.172 152.823 12.492C153.567 13.788 153.939 15.264 153.939 16.92C153.939 17.232 153.915 17.556 153.867 17.892C153.843 18.204 153.783 18.564 153.687 18.972L139.071 19.008V15.48L151.491 15.444L149.583 16.92C149.535 15.888 149.343 15.024 149.007 14.328C148.695 13.632 148.227 13.104 147.603 12.744C147.003 12.36 146.259 12.168 145.371 12.168C144.435 12.168 143.619 12.384 142.923 12.816C142.227 13.224 141.687 13.812 141.303 14.58C140.943 15.324 140.763 16.212 140.763 17.244C140.763 18.3 140.955 19.224 141.339 20.016C141.747 20.784 142.323 21.384 143.067 21.816C143.811 22.224 144.675 22.428 145.659 22.428C146.547 22.428 147.351 22.284 148.071 21.996C148.791 21.684 149.415 21.228 149.943 20.628L152.715 23.4C151.875 24.384 150.843 25.128 149.619 25.632C148.419 26.136 147.111 26.388 145.695 26.388Z" fill="white"/>
<path d="M162.831 26.424C161.847 26.424 160.875 26.292 159.915 26.028C158.979 25.764 158.115 25.404 157.323 24.948C156.531 24.468 155.847 23.892 155.271 23.22L158.079 20.376C158.679 21.048 159.375 21.552 160.167 21.888C160.959 22.224 161.835 22.392 162.795 22.392C163.563 22.392 164.139 22.284 164.523 22.068C164.931 21.852 165.135 21.528 165.135 21.096C165.135 20.616 164.919 20.244 164.487 19.98C164.079 19.716 163.539 19.5 162.867 19.332C162.195 19.14 161.487 18.936 160.743 18.72C160.023 18.48 159.327 18.18 158.655 17.82C157.983 17.436 157.431 16.92 156.999 16.272C156.591 15.6 156.387 14.736 156.387 13.68C156.387 12.576 156.651 11.616 157.179 10.8C157.731 9.984 158.511 9.348 159.519 8.892C160.527 8.436 161.715 8.208 163.083 8.208C164.523 8.208 165.819 8.46 166.971 8.964C168.147 9.468 169.119 10.224 169.887 11.232L167.043 14.076C166.515 13.428 165.915 12.96 165.243 12.672C164.595 12.384 163.887 12.24 163.119 12.24C162.423 12.24 161.883 12.348 161.499 12.564C161.139 12.78 160.959 13.08 160.959 13.464C160.959 13.896 161.163 14.232 161.571 14.472C162.003 14.712 162.555 14.928 163.227 15.12C163.899 15.288 164.595 15.492 165.315 15.732C166.059 15.948 166.755 16.26 167.403 16.668C168.075 17.076 168.615 17.616 169.023 18.288C169.455 18.96 169.671 19.824 169.671 20.88C169.671 22.584 169.059 23.94 167.835 24.948C166.611 25.932 164.943 26.424 162.831 26.424Z" fill="white"/>
<path d="M183.939 26.028L177.207 17.064L183.903 8.64H189.339L181.491 18.144L181.671 15.84L189.699 26.028H183.939ZM172.851 26.028V0H177.567V26.028H172.851Z" fill="white"/>
<path d="M193.372 26.028V1.404H198.088V26.028H193.372ZM189.304 12.78V8.64H202.156V12.78H189.304Z" fill="white"/>
<path d="M212.559 26.388C210.807 26.388 209.223 25.992 207.807 25.2C206.415 24.384 205.299 23.292 204.459 21.924C203.643 20.532 203.235 18.984 203.235 17.28C203.235 15.576 203.643 14.052 204.459 12.708C205.275 11.34 206.391 10.26 207.807 9.468C209.223 8.652 210.795 8.244 212.523 8.244C214.299 8.244 215.883 8.652 217.275 9.468C218.691 10.26 219.807 11.34 220.623 12.708C221.439 14.052 221.847 15.576 221.847 17.28C221.847 18.984 221.439 20.532 220.623 21.924C219.807 23.292 218.691 24.384 217.275 25.2C215.883 25.992 214.311 26.388 212.559 26.388ZM212.523 21.996C213.411 21.996 214.191 21.804 214.863 21.42C215.559 21.012 216.087 20.46 216.447 19.764C216.831 19.044 217.023 18.228 217.023 17.316C217.023 16.404 216.831 15.6 216.447 14.904C216.063 14.208 215.535 13.668 214.863 13.284C214.191 12.876 213.411 12.672 212.523 12.672C211.659 12.672 210.891 12.876 210.219 13.284C209.547 13.668 209.019 14.208 208.635 14.904C208.251 15.6 208.059 16.404 208.059 17.316C208.059 18.228 208.251 19.044 208.635 19.764C209.019 20.46 209.547 21.012 210.219 21.42C210.891 21.804 211.659 21.996 212.523 21.996Z" fill="white"/>
<path d="M234.531 26.388C233.283 26.388 232.155 26.136 231.147 25.632C230.139 25.104 229.335 24.396 228.735 23.508C228.135 22.62 227.811 21.6 227.763 20.448V14.292C227.811 13.14 228.135 12.12 228.735 11.232C229.359 10.32 230.163 9.6 231.147 9.072C232.155 8.544 233.283 8.28 234.531 8.28C236.139 8.28 237.579 8.676 238.851 9.468C240.123 10.26 241.119 11.34 241.839 12.708C242.583 14.076 242.955 15.624 242.955 17.352C242.955 19.056 242.583 20.592 241.839 21.96C241.119 23.328 240.123 24.408 238.851 25.2C237.579 25.992 236.139 26.388 234.531 26.388ZM233.703 22.032C234.567 22.032 235.335 21.84 236.007 21.456C236.679 21.048 237.195 20.496 237.555 19.8C237.939 19.08 238.131 18.252 238.131 17.316C238.131 16.404 237.939 15.6 237.555 14.904C237.195 14.184 236.679 13.632 236.007 13.248C235.335 12.84 234.567 12.636 233.703 12.636C232.863 12.636 232.107 12.84 231.435 13.248C230.763 13.632 230.235 14.184 229.851 14.904C229.491 15.6 229.311 16.404 229.311 17.316C229.311 18.252 229.491 19.08 229.851 19.8C230.235 20.496 230.751 21.048 231.399 21.456C232.071 21.84 232.839 22.032 233.703 22.032ZM224.883 33.3V8.64H229.599V13.212L228.807 17.424L229.563 21.636V33.3H224.883Z" fill="white"/>
</svg>
