<svg width="20" height="20" viewBox="0 0 20 20" fill="none" xmlns="http://www.w3.org/2000/svg">
<g clip-path="url(#clip0_46728_53745)">
<path d="M4.16667 5.83594H5C5.44203 5.83594 5.86595 5.66034 6.17851 5.34778C6.49107 5.03522 6.66667 4.6113 6.66667 4.16927C6.66667 3.94826 6.75446 3.7363 6.91074 3.58002C7.06702 3.42374 7.27899 3.33594 7.5 3.33594H12.5C12.721 3.33594 12.933 3.42374 13.0893 3.58002C13.2455 3.7363 13.3333 3.94826 13.3333 4.16927C13.3333 4.6113 13.5089 5.03522 13.8215 5.34778C14.134 5.66034 14.558 5.83594 15 5.83594H15.8333C16.2754 5.83594 16.6993 6.01153 17.0118 6.32409C17.3244 6.63665 17.5 7.06058 17.5 7.5026V15.0026C17.5 15.4446 17.3244 15.8686 17.0118 16.1811C16.6993 16.4937 16.2754 16.6693 15.8333 16.6693H4.16667C3.72464 16.6693 3.30072 16.4937 2.98816 16.1811C2.67559 15.8686 2.5 15.4446 2.5 15.0026V7.5026C2.5 7.06058 2.67559 6.63665 2.98816 6.32409C3.30072 6.01153 3.72464 5.83594 4.16667 5.83594Z" stroke="white" stroke-width="1.25" stroke-linecap="round" stroke-linejoin="round"/>
<path d="M7.5 10.8359C7.5 11.499 7.76339 12.1349 8.23223 12.6037C8.70107 13.0725 9.33696 13.3359 10 13.3359C10.663 13.3359 11.2989 13.0725 11.7678 12.6037C12.2366 12.1349 12.5 11.499 12.5 10.8359C12.5 10.1729 12.2366 9.53701 11.7678 9.06817C11.2989 8.59933 10.663 8.33594 10 8.33594C9.33696 8.33594 8.70107 8.59933 8.23223 9.06817C7.76339 9.53701 7.5 10.1729 7.5 10.8359Z" stroke="white" stroke-width="1.25" stroke-linecap="round" stroke-linejoin="round"/>
</g>
<defs>
<clipPath id="clip0_46728_53745">
<rect width="20" height="20" fill="white"/>
</clipPath>
</defs>
</svg>
