<svg t="1682364812336" class="icon" viewBox="0 0 1024 1024" version="1.1" xmlns="http://www.w3.org/2000/svg" p-id="2693" width="200" height="200"><path d="M512.769662 0C283.983532 0 96.79488 199.987876 96.79488 444.773036V991.939864a32.798012 32.798012 0 0 0 20.798739 30.398157 27.198351 27.198351 0 0 0 11.199321 1.599903 28.798254 28.798254 0 0 0 23.998545-11.199321L272.784211 879.946653l94.394277 131.192047a33.437973 33.437973 0 0 0 25.598448 12.799224 33.437973 33.437973 0 0 0 25.598448-12.799224l94.394278-127.992241 92.794374 126.392338a31.99806 31.99806 0 0 0 51.196896 0l95.99418-129.592144 118.392823 132.79195a31.99806 31.99806 0 0 0 35.197866 7.999515 31.99806 31.99806 0 0 0 20.798739-30.398157V443.173133C928.744443 198.387973 741.555791 0 512.769662 0z m351.978661 907.145004l-87.994666-99.193986a31.99806 31.99806 0 0 0-25.598448-11.199321 28.158293 28.158293 0 0 0-23.998545 12.799224l-92.794374 126.392337-92.794374-126.392337a33.437973 33.437973 0 0 0-25.598448-12.799224 33.437973 33.437973 0 0 0-25.598449 12.799224l-94.394277 126.392337-92.794374-126.392337a30.398157 30.398157 0 0 0-23.998545-12.799224h-1.599903a28.798254 28.798254 0 0 0-23.998545 11.199321l-91.194472 100.793889v-463.971871C162.390903 233.585839 320.781301 63.99612 514.369565 63.99612s351.978661 171.189622 351.978661 380.776916v462.371968zM672.759962 351.978661a63.99612 63.99612 0 1 0 63.99612 63.996121 63.99612 63.99612 0 0 0-63.99612-63.996121z m-319.980601 0a63.99612 63.99612 0 1 0 63.99612 63.996121 63.99612 63.99612 0 0 0-63.99612-63.996121z" fill="#ffffff" p-id="2694"></path></svg>
