<svg t="1673945154575" class="icon" viewBox="0 0 1024 1024" version="1.1" xmlns="http://www.w3.org/2000/svg" p-id="5102" width="200" height="200"><path d="M760 432V144c0-17.7-14.3-32-32-32H296c-17.7 0-32 14.3-32 32v288c-66.2 0-120 52.1-120 116v356c0 4.4 3.6 8 8 8h56c4.4 0 8-3.6 8-8V548c0-24.3 21.6-44 48.1-44H759.9c26.5 0 48.1 19.7 48.1 44v356c0 4.4 3.6 8 8 8h56c4.4 0 8-3.6 8-8V548c0-63.9-53.8-116-120-116z m-424 0V184h352v248H336z" p-id="5103" fill="#ffffff"></path><path d="M456 248h-48c-4.4 0-8 3.6-8 8v48c0 4.4 3.6 8 8 8h48c4.4 0 8-3.6 8-8v-48c0-4.4-3.6-8-8-8zM616 248h-48c-4.4 0-8 3.6-8 8v48c0 4.4 3.6 8 8 8h48c4.4 0 8-3.6 8-8v-48c0-4.4-3.6-8-8-8z" p-id="5104" fill="#ffffff"></path></svg>
