<svg width="41" height="41" viewBox="0 0 41 41" fill="none" xmlns="http://www.w3.org/2000/svg">
<g opacity="0.5">
<path d="M20.8456 33.3414H5.84402C4.46316 33.3414 3.34375 32.222 3.34375 30.8411V9.17214C3.34375 7.79129 4.46316 6.67188 5.84402 6.67188H34.1804C35.5613 6.67188 36.6806 7.79129 36.6806 9.17214V20.791" stroke="white" stroke-width="2.50027" stroke-linecap="round" stroke-linejoin="round"/>
<path d="M3.34375 9.17214C3.34375 7.79129 4.46316 6.67188 5.84402 6.67188H34.1804C35.5613 6.67188 36.6806 7.79129 36.6806 9.17214V16.6729H3.34375V9.17214Z" stroke="white" stroke-width="2.50027"/>
<path d="M28.125 25.6406L35.1968 32.7124" stroke="white" stroke-width="2.50027" stroke-linecap="round" stroke-linejoin="round"/>
<path d="M35.2109 25.6406L28.1391 32.7124" stroke="white" stroke-width="2.50027" stroke-linecap="round" stroke-linejoin="round"/>
<path d="M6.66631 11.6613C6.66631 10.7407 7.41258 9.99444 8.33316 9.99444C9.25373 9.99444 10 10.7407 10 11.6613C10 12.5819 9.25373 13.3281 8.33316 13.3281C7.41258 13.3281 6.66631 12.5819 6.66631 11.6613Z" fill="white"/>
<path d="M11.6663 11.6613C11.6663 10.7407 12.4126 9.99444 13.3332 9.99444C14.2537 9.99444 15 10.7407 15 11.6613C15 12.5819 14.2537 13.3281 13.3332 13.3281C12.4126 13.3281 11.6663 12.5819 11.6663 11.6613Z" fill="white"/>
</g>
</svg>
