<svg width="52" height="45" viewBox="0 0 52 45" fill="none" xmlns="http://www.w3.org/2000/svg">
<g opacity="0.3">
<path d="M1.5 4C1.5 2.61929 2.61929 1.5 4 1.5H20.5798C21.154 1.5 21.7107 1.69764 22.1563 2.05971L23.098 0.900775L22.1563 2.05972L27.9519 6.76863C28.9323 7.56519 30.157 8 31.4202 8H48C49.3807 8 50.5 9.11929 50.5 10.5V41C50.5 42.3807 49.3807 43.5 48 43.5H4C2.61929 43.5 1.5 42.3807 1.5 41V4Z" stroke="white" stroke-width="3"/>
<path fill-rule="evenodd" clip-rule="evenodd" d="M25 33.5C25 34.3284 25.6716 35 26.5 35C27.3284 35 28 34.3284 28 33.5V27H34.5C35.3284 27 36 26.3284 36 25.5C36 24.6716 35.3284 24 34.5 24H28V17.5C28 16.6716 27.3284 16 26.5 16C25.6716 16 25 16.6716 25 17.5V24H18.5C17.6716 24 17 24.6716 17 25.5C17 26.3284 17.6716 27 18.5 27H25V33.5Z" fill="white"/>
</g>
</svg>
