<svg width="29" height="28" viewBox="0 0 29 28" fill="none" xmlns="http://www.w3.org/2000/svg">
<g opacity="0.6">
<path d="M22.1127 11.25V11.25C22.1127 9.32723 20.554 7.76852 18.6312 7.76852H15.0849C14.1041 7.76852 13.1574 7.40815 12.4249 6.75591L11.5901 6.01261C10.8576 5.36037 9.91097 5 8.93015 5H5.90234C3.6932 5 1.90234 6.79086 1.90234 9V22.1667C1.90234 23.2712 2.79777 24.1667 3.90234 24.1667H19.656C20.6546 24.1667 21.5197 23.4743 21.7384 22.5V22.5" stroke="white" stroke-width="2"/>
<path d="M8.61509 10.0479H24.4644C25.8309 10.0479 26.795 11.3878 26.3607 12.6834L23.2537 21.9536C22.8439 23.1762 21.6987 24.0002 20.4092 24.0002H3.91098C3.25468 24.0002 2.7763 23.3787 2.94429 22.7443L5.71502 12.28C6.06341 10.9642 7.25397 10.0479 8.61509 10.0479Z" stroke="white" stroke-width="2"/>
</g>
</svg>
