<svg width="80" height="80" viewBox="0 0 80 80" fill="none" xmlns="http://www.w3.org/2000/svg">
<circle cx="40" cy="40" r="40" fill="white" fill-opacity="0.1"/>
<g opacity="0.5">
<path d="M40.8368 53.3394H25.8352C24.4544 53.3394 23.335 52.2201 23.335 50.8392V29.1702C23.335 27.7893 24.4544 26.6699 25.8352 26.6699H54.1716C55.5525 26.6699 56.6718 27.7893 56.6718 29.1702V40.7891" stroke="white" stroke-width="2.50027" stroke-linecap="round" stroke-linejoin="round"/>
<path d="M23.335 29.1702C23.335 27.7893 24.4544 26.6699 25.8352 26.6699H54.1716C55.5525 26.6699 56.6718 27.7893 56.6718 29.1702V36.671H23.335V29.1702Z" stroke="white" stroke-width="2.50027"/>
<path d="M48.125 45.6367L55.1968 52.7085" stroke="white" stroke-width="2.50027" stroke-linecap="round" stroke-linejoin="round"/>
<path d="M55.2056 45.6367L48.1337 52.7085" stroke="white" stroke-width="2.50027" stroke-linecap="round" stroke-linejoin="round"/>
<path d="M26.6663 31.6632C26.6663 30.7427 27.4126 29.9964 28.3332 29.9964C29.2537 29.9964 30 30.7427 30 31.6632C30 32.5838 29.2537 33.3301 28.3332 33.3301C27.4126 33.3301 26.6663 32.5838 26.6663 31.6632Z" fill="white"/>
<path d="M31.6663 31.6632C31.6663 30.7427 32.4126 29.9964 33.3332 29.9964C34.2537 29.9964 35 30.7427 35 31.6632C35 32.5838 34.2537 33.3301 33.3332 33.3301C32.4126 33.3301 31.6663 32.5838 31.6663 31.6632Z" fill="white"/>
</g>
</svg>
