<svg width="40" height="40" viewBox="0 0 40 40" fill="none" xmlns="http://www.w3.org/2000/svg">
<g opacity="0.7">
<path d="M20.0026 36.6693C24.6049 36.6693 28.7716 34.8038 31.7877 31.7877C34.8038 28.7716 36.6693 24.6049 36.6693 20.0026C36.6693 15.4003 34.8038 11.2336 31.7877 8.21749C28.7716 5.20142 24.6049 3.33594 20.0026 3.33594C15.4003 3.33594 11.2336 5.20142 8.21749 8.21749C5.20142 11.2336 3.33594 15.4003 3.33594 20.0026C3.33594 24.6049 5.20142 28.7716 8.21749 31.7877C11.2336 34.8038 15.4003 36.6693 20.0026 36.6693Z" stroke="#FF7171" stroke-width="3" stroke-linejoin="round"/>
<path fill-rule="evenodd" clip-rule="evenodd" d="M19.9974 30.8307C21.148 30.8307 22.0807 29.898 22.0807 28.7474C22.0807 27.5968 21.148 26.6641 19.9974 26.6641C18.8468 26.6641 17.9141 27.5968 17.9141 28.7474C17.9141 29.898 18.8468 30.8307 19.9974 30.8307Z" fill="#FF7171"/>
<path d="M20 10V23.3333V10Z" fill="#FF7171"/>
<path d="M20 10V23.3333" stroke="#FF7171" stroke-width="3" stroke-linecap="round" stroke-linejoin="round"/>
</g>
</svg>
