<svg width="373" height="301" viewBox="0 0 373 301" fill="none" xmlns="http://www.w3.org/2000/svg">
<g opacity="0.2">
<path fill-rule="evenodd" clip-rule="evenodd" d="M6.73438 22.5905C11.5133 47.8266 21.2643 82.4132 44.6938 110.718C68.2182 139.138 105.347 160.998 164.334 160.998C278.862 160.998 326.768 236.136 348.319 274.623L348.309 274.628L359.168 294.208L343.341 289.674C342.013 289.293 340.629 290.061 340.249 291.388C339.868 292.716 340.636 294.1 341.964 294.48L363.593 300.677C364.921 301.057 366.305 300.289 366.685 298.962L372.882 277.332C373.262 276.005 372.494 274.62 371.167 274.24C369.84 273.86 368.455 274.628 368.075 275.955L363.541 291.783L353.005 272.786L353.017 272.78C331.406 234.081 282.306 155.998 164.334 155.998C106.774 155.998 71.0809 134.755 48.5455 107.53C25.9152 80.1906 16.3681 46.5907 11.6471 21.6602L6.73438 22.5905Z" fill="white"/>
<circle cx="8.78125" cy="19.5303" r="8.00293" fill="white"/>
<circle cx="8.78125" cy="19.5303" r="7.00293" stroke="black" stroke-opacity="0.28" stroke-width="2"/>
</g>
</svg>
