<svg width="16" height="16" viewBox="0 0 16 16" fill="none" xmlns="http://www.w3.org/2000/svg">
<path d="M10.3822 3.78418C10.6613 3.52217 11.0396 3.375 11.4341 3.375C11.8285 3.375 12.2069 3.52217 12.4859 3.78418L13.5646 4.79611C13.8434 5.05853 14 5.41423 14 5.78509C14 6.15595 13.8434 6.51165 13.5646 6.77408L6.61824 13.3038C6.48002 13.4337 6.31592 13.5367 6.13532 13.607C5.95473 13.6773 5.76117 13.7135 5.5657 13.7135H3.49637C3.36472 13.7135 3.23847 13.6643 3.14538 13.5768C3.0523 13.4893 3 13.3707 3 13.2469V11.3019C3 10.931 3.15675 10.5749 3.43587 10.3126L10.3822 3.78418ZM11.7847 4.44329C11.6916 4.35601 11.5656 4.30699 11.4341 4.30699C11.3026 4.30699 11.1765 4.35601 11.0835 4.44329L10.1512 5.31952L11.9305 6.99184L12.8627 6.11562C12.9555 6.02815 13.0077 5.90963 13.0077 5.78606C13.0077 5.6625 12.9555 5.54398 12.8627 5.45651L11.7847 4.44329ZM11.2285 7.65095L9.45 5.97927L4.13779 10.9717C4.09165 11.0149 4.05502 11.0663 4.03001 11.1228C4.005 11.1794 3.9921 11.24 3.99204 11.3013V12.781H5.5657C5.63085 12.781 5.69536 12.7688 5.75552 12.7453C5.81568 12.7218 5.87032 12.6874 5.91632 12.644L11.2285 7.65095Z" fill="#8697FF"/>
</svg>
