<svg width="16" height="16" viewBox="0 0 16 16" fill="none" xmlns="http://www.w3.org/2000/svg">
<path d="M13 6.80325C13 2.63766 13 3.33659 13 3.33659C13 2.9684 12.7015 2.66992 12.3333 2.66992H3.66667C3.29848 2.66992 3 2.9684 3 3.33659V14.0033C3 14.3714 3.29848 14.6699 3.66667 14.6699H6.4" stroke="#707280" stroke-linecap="round" stroke-linejoin="round"/>
<path d="M14.8021 11.3652H8.80078V14.7946H14.8021V11.3652Z" stroke="#707280" stroke-linecap="round" stroke-linejoin="round"/>
<path d="M13.0837 11.3669V10.0809C13.0837 9.37066 12.508 8.79492 11.7977 8.79492C11.0875 8.79492 10.5117 9.37066 10.5117 10.0809V11.3669" stroke="#707280" stroke-linecap="round" stroke-linejoin="round"/>
<path d="M6 1.33008V3.33008" stroke="#707280" stroke-linecap="round" stroke-linejoin="round"/>
<path d="M10 1.33008V3.33008" stroke="#707280" stroke-linecap="round" stroke-linejoin="round"/>
<path d="M5.33398 5.53516H10.6673" stroke="#707280" stroke-linecap="round" stroke-linejoin="round"/>
<path d="M5.33398 8.20508H7.73398" stroke="#707280" stroke-linecap="round" stroke-linejoin="round"/>
</svg>
