<svg width="58" height="58" viewBox="0 0 58 58" fill="none" xmlns="http://www.w3.org/2000/svg">
<path d="M28.9889 55.6575C36.3527 55.6575 43.0193 52.6728 47.8451 47.847C52.6708 43.0213 55.6556 36.3546 55.6556 28.9909C55.6556 21.6272 52.6708 14.9605 47.8451 10.1347C43.0193 5.30899 36.3527 2.32422 28.9889 2.32422C21.6252 2.32422 14.9585 5.30899 10.1327 10.1347C5.30704 14.9605 2.32227 21.6272 2.32227 28.9909C2.32227 36.3546 5.30704 43.0213 10.1327 47.847C14.9585 52.6728 21.6252 55.6575 28.9889 55.6575Z" stroke="white" stroke-width="4" stroke-linejoin="round"/>
<path fill-rule="evenodd" clip-rule="evenodd" d="M29.012 46.0163C30.6734 46.0163 32.0202 44.6695 32.0202 43.0081C32.0202 41.3468 30.6734 40 29.012 40C27.3507 40 26.0039 41.3468 26.0039 43.0081C26.0039 44.6695 27.3507 46.0163 29.012 46.0163Z" fill="white"/>
<path d="M29 13V34.3333" stroke="white" stroke-width="4" stroke-linecap="round" stroke-linejoin="round"/>
</svg>
