<svg width="13" height="13" viewBox="0 0 13 13" fill="none" xmlns="http://www.w3.org/2000/svg">
<g clip-path="url(#clip0_36896_61762)">
<path d="M6.50114 11.9173C7.9969 11.9173 9.35106 11.311 10.3313 10.3308C11.3115 9.35058 11.9178 7.99641 11.9178 6.50065C11.9178 5.00489 11.3115 3.65073 10.3313 2.67049C9.35106 1.69027 7.9969 1.08398 6.50114 1.08398C5.00538 1.08398 3.65121 1.69027 2.67098 2.67049C1.69075 3.65073 1.08447 5.00489 1.08447 6.50065C1.08447 7.99641 1.69075 9.35058 2.67098 10.3308C3.65121 11.311 5.00538 11.9173 6.50114 11.9173Z" stroke="#707280" stroke-linejoin="round"/>
<path fill-rule="evenodd" clip-rule="evenodd" d="M6.4974 10.1901C6.87134 10.1901 7.17448 9.88696 7.17448 9.51302C7.17448 9.13908 6.87134 8.83594 6.4974 8.83594C6.12346 8.83594 5.82031 9.13908 5.82031 9.51302C5.82031 9.88696 6.12346 10.1901 6.4974 10.1901Z" fill="#707280"/>
<rect x="6" y="3" width="1" height="5" rx="0.5" fill="#707280"/>
</g>
<defs>
<clipPath id="clip0_36896_61762">
<rect width="13" height="13" fill="white"/>
</clipPath>
</defs>
</svg>
