<svg width="200" height="200" viewBox="0 0 200 200" fill="none" xmlns="http://www.w3.org/2000/svg">
<path d="M193.847 111.832C201.294 95.1951 164.477 48.7137 129.303 29.3486C107.132 14.3467 84.0304 16.4077 79.3515 22.9946C69.0833 37.4504 113.353 49.6994 142.959 63.9932C136.595 66.7573 130.597 71.7177 127.071 78.0614C116.033 66.0113 91.8072 55.6345 63.3807 63.9932C44.2247 69.6259 28.3046 82.9053 22.1515 102.962C20.6564 102.298 19.0011 101.929 17.2596 101.929C10.5999 101.929 5.20117 107.327 5.20117 113.987C5.20117 120.647 10.5999 126.046 17.2596 126.046C18.494 126.046 22.3536 125.218 22.3536 125.218L84.0304 125.664C59.3645 164.794 39.8715 170.514 39.8715 177.293C39.8715 184.073 58.5228 182.236 65.526 179.709C99.0509 167.612 135.058 129.912 141.237 119.06C167.185 122.297 188.991 122.68 193.847 111.832Z" fill="url(#paint0_linear_22935_7314)"/>
<path fill-rule="evenodd" clip-rule="evenodd" d="M142.84 63.9342C142.884 63.9532 142.927 63.9721 142.97 63.9911C144.343 63.4505 144.121 61.4237 143.744 59.8321C142.878 56.1738 127.934 41.4175 113.902 34.8082C94.7616 25.7934 80.6724 26.2672 78.6133 30.4293C82.5167 38.4092 100.568 45.9018 119.42 53.727C127.423 57.0485 135.57 60.4301 142.84 63.9342Z" fill="url(#paint1_linear_22935_7314)"/>
<path fill-rule="evenodd" clip-rule="evenodd" d="M118.699 144.341C114.834 142.864 110.47 141.51 105.509 140.281C110.804 130.806 111.915 116.779 106.914 107.911C99.8956 95.4644 91.0854 88.8398 70.6128 88.8398C59.3528 88.8399 29.0358 92.6326 28.4976 117.94C28.4411 120.597 28.4963 123.032 28.6887 125.271L84.0296 125.672C76.5686 137.508 69.5809 146.287 63.4629 152.964C70.8163 154.848 76.8837 156.429 82.4537 157.881C87.7317 159.257 92.5631 160.517 97.619 161.807C105.253 156.245 112.428 150.18 118.699 144.341Z" fill="url(#paint2_linear_22935_7314)"/>
<path d="M21.4161 122.665C23.6776 141.89 34.6037 149.424 56.9301 151.654C79.2565 153.884 92.0633 152.388 109.113 153.939C123.354 155.235 136.068 162.491 140.785 159.984C145.03 157.727 142.655 149.573 136.975 144.342C129.612 137.561 119.421 132.846 101.49 131.173C105.064 121.389 104.063 107.671 98.5127 100.207C90.4882 89.4152 75.6764 84.5361 56.9302 86.6678C37.3446 88.895 18.5778 98.5375 21.4161 122.665Z" fill="url(#paint3_linear_22935_7314)"/>
<defs>
<linearGradient id="paint0_linear_22935_7314" x1="61.1502" y1="97.0992" x2="192.243" y2="134.275" gradientUnits="userSpaceOnUse">
<stop stop-color="#8797FF"/>
<stop offset="1" stop-color="#AAA8FF"/>
</linearGradient>
<linearGradient id="paint1_linear_22935_7314" x1="170.18" y1="94.6008" x2="75.5911" y2="-0.228677" gradientUnits="userSpaceOnUse">
<stop stop-color="#3B22A0"/>
<stop offset="1" stop-color="#5156D8" stop-opacity="0"/>
</linearGradient>
<linearGradient id="paint2_linear_22935_7314" x1="121.33" y1="147.646" x2="30.4741" y2="95.4145" gradientUnits="userSpaceOnUse">
<stop stop-color="#3B1E8F"/>
<stop offset="1" stop-color="#6A6FFB" stop-opacity="0"/>
</linearGradient>
<linearGradient id="paint3_linear_22935_7314" x1="68.9798" y1="96.1231" x2="130.397" y2="174.16" gradientUnits="userSpaceOnUse">
<stop stop-color="#8898FF"/>
<stop offset="0.983895" stop-color="#5F47F1"/>
</linearGradient>
</defs>
</svg>
