<svg width="16" height="16" viewBox="0 0 16 16" fill="none" xmlns="http://www.w3.org/2000/svg">
<g opacity="0.8">
<path d="M10.3822 3.39579C10.6613 3.14235 11.0396 3 11.4341 3C11.8285 3 12.2069 3.14235 12.4859 3.39579L13.5646 4.37458C13.8434 4.62842 14 4.97247 14 5.33119C14 5.68991 13.8434 6.03397 13.5646 6.2878L6.61824 12.6037C6.48001 12.7294 6.31592 12.829 6.13532 12.897C5.95473 12.965 5.76117 13 5.5657 13H3.49637C3.36472 13 3.23847 12.9525 3.14538 12.8678C3.0523 12.7832 3 12.6684 3 12.5487V10.6674C3 10.3086 3.15675 9.96423 3.43587 9.71047L10.3822 3.39579ZM11.7847 4.03332C11.6916 3.94889 11.5655 3.90147 11.4341 3.90147C11.3026 3.90147 11.1765 3.94889 11.0835 4.03332L10.1512 4.88086L11.9304 6.49844L12.8627 5.6509C12.9555 5.56629 13.0077 5.45165 13.0077 5.33213C13.0077 5.21261 12.9555 5.09797 12.8627 5.01336L11.7847 4.03332ZM11.2285 7.13597L9.45 5.51901L4.13779 10.348C4.09165 10.3898 4.05502 10.4395 4.03001 10.4942C4.005 10.5489 3.9921 10.6075 3.99204 10.6668V12.0981H5.5657C5.63085 12.098 5.69536 12.0863 5.75552 12.0636C5.81568 12.0408 5.87032 12.0075 5.91632 11.9656L11.2285 7.13597Z" fill="#8697FF"/>
</g>
</svg>
