<svg width="14" height="15" viewBox="0 0 14 15" fill="none" xmlns="http://www.w3.org/2000/svg">
<g opacity="0.6" clip-path="url(#clip0_42104_83267)">
<path d="M14 0.980469H0V14.9805H14V0.980469Z" fill="white" fill-opacity="0.01"/>
<path d="M6.9974 13.8112C8.60821 13.8112 10.0665 13.1583 11.1222 12.1026C12.1778 11.047 12.8307 9.58868 12.8307 7.97786C12.8307 6.36705 12.1778 4.90871 11.1222 3.85307C10.0665 2.79745 8.60821 2.14453 6.9974 2.14453C5.38658 2.14453 3.92825 2.79745 2.8726 3.85307C1.81698 4.90871 1.16406 6.36705 1.16406 7.97786C1.16406 9.58868 1.81698 11.047 2.8726 12.1026C3.92825 13.1583 5.38658 13.8112 6.9974 13.8112Z" stroke="white" stroke-linejoin="round"/>
<path fill-rule="evenodd" clip-rule="evenodd" d="M7.0026 4.19141C7.40531 4.19141 7.73177 4.51787 7.73177 4.92057C7.73177 5.32328 7.40531 5.64974 7.0026 5.64974C6.5999 5.64974 6.27344 5.32328 6.27344 4.92057C6.27344 4.51787 6.5999 4.19141 7.0026 4.19141Z" fill="white"/>
<path d="M7.14583 10.8997V6.81641H6.85417H6.5625" stroke="white" stroke-linecap="round" stroke-linejoin="round"/>
<path d="M6.125 10.8945H8.16667" stroke="white" stroke-linecap="round" stroke-linejoin="round"/>
</g>
<defs>
<clipPath id="clip0_42104_83267">
<rect width="14" height="14" fill="white" transform="translate(0 0.980469)"/>
</clipPath>
</defs>
</svg>
