<svg width="560" height="194" viewBox="0 0 560 194" fill="none" xmlns="http://www.w3.org/2000/svg">
<path d="M230.356 44C233.32 19.2146 254.416 0 280 0C305.584 0 326.68 19.2146 329.644 44H544C552.837 44 560 51.1634 560 60V169.017C560 169.017 542.28 163.115 475.728 162.384C398.503 161.535 318.556 166.017 280 169.017C263.975 170.264 249.461 171.502 235.738 172.672C187.983 176.744 157.969 179 99 179C23.0845 179 0 160.987 0 160.987V60C0 51.1634 7.16345 44 16 44H230.356Z" fill="url(#paint0_linear_0_1)"/>
<circle cx="50.5" cy="175.5" r="18.5" fill="white" fill-opacity="0.05"/>
<circle cx="99" cy="159" r="7" fill="white" fill-opacity="0.19"/>
<circle cx="423.5" cy="157.5" r="16.5" fill="white" fill-opacity="0.08"/>
<circle cx="514" cy="143" r="7" fill="white" fill-opacity="0.19"/>
<circle cx="120" cy="119" r="4" fill="white" fill-opacity="0.37"/>
<circle cx="518" cy="82" r="4" fill="white" fill-opacity="0.37"/>
<circle cx="80" cy="79" r="4" fill="white" fill-opacity="0.49"/>
<circle cx="486.5" cy="119.5" r="5.5" fill="white" fill-opacity="0.49"/>
<path d="M260.5 22.0233L280.009 16.3297L299.5 22.0233V33.6996C299.5 45.9721 291.646 56.8674 280.003 60.7469C268.356 56.8675 260.5 45.9697 260.5 33.6941V22.0233Z" fill="white" stroke="white" stroke-width="3.25" stroke-linejoin="round"/>
<path d="M270.25 36.9167L277.833 44.5L290.833 31.5" stroke="#8697FF" stroke-width="3.5" stroke-linecap="round" stroke-linejoin="round"/>
<defs>
<linearGradient id="paint0_linear_0_1" x1="0" y1="0" x2="537.825" y2="224.332" gradientUnits="userSpaceOnUse">
<stop stop-color="#8BA8FF"/>
<stop offset="1" stop-color="#8C96FF"/>
</linearGradient>
</defs>
</svg>
