<svg width="560" height="199" viewBox="0 0 560 199" fill="none" xmlns="http://www.w3.org/2000/svg">
<path d="M230.356 44C233.32 19.2146 254.416 0 280 0C305.584 0 326.68 19.2146 329.644 44H544C552.837 44 560 51.1634 560 69V189.017C560 189.017 542.28 183.115 475.728 182.384C398.503 181.535 318.556 186.017 280 189.017C263.975 190.264 249.461 191.502 235.738 192.672C187.983 196.744 157.969 199 99 199C23.0845 199 0 180.987 0 180.987V69C0 51.1634 7.16345 44 16 44H230.356Z" fill="url(#paint0_linear_0_1)"/>
<circle cx="99" cy="179" r="7" fill="white" fill-opacity="0.19"/>
<circle cx="423.5" cy="177.5" r="16.5" fill="white" fill-opacity="0.08"/>
<circle cx="514" cy="163" r="7" fill="white" fill-opacity="0.19"/>
<circle cx="120" cy="139" r="4" fill="white" fill-opacity="0.37"/>
<circle cx="518" cy="102" r="4" fill="white" fill-opacity="0.37"/>
<circle cx="80" cy="99" r="4" fill="white" fill-opacity="0.49"/>
<circle cx="486.5" cy="139.5" r="5.5" fill="white" fill-opacity="0.49"/>
<path d="M262.5 25.0233L282.009 19.3297L301.5 25.0233V36.6996C301.5 48.9721 293.646 59.8674 282.003 63.7469C270.356 59.8675 262.5 48.9697 262.5 36.6941V25.0233Z" fill="white" stroke="white" stroke-width="3.25" stroke-linejoin="round"/>
<path d="M272.25 39.9167L279.833 47.5L292.833 34.5" stroke="#8697FF" stroke-width="3.5" stroke-linecap="round" stroke-linejoin="round"/>
<defs>
<linearGradient id="paint0_linear_0_1" x1="0" y1="0" x2="553.484" y2="207.661" gradientUnits="userSpaceOnUse">
<stop stop-color="#8BA8FF"/>
<stop offset="1" stop-color="#8C96FF"/>
</linearGradient>
</defs>
</svg>
