<svg width="86" height="83" viewBox="0 0 86 83" fill="none" xmlns="http://www.w3.org/2000/svg">
<path d="M9.30555 82.1406L13.8004 80.9375L15.0036 78.3267L22.7902 78.5313L30.8915 76.3632L32.7175 73.5356L40.2965 73.8471L48.2084 71.7279C53.7049 70.2621 55.5676 63.361 51.5368 59.3302L23.0773 30.8401C19.0465 26.8094 12.1454 28.6415 10.6797 34.1686L8.31923 42.9843L8.64902 50.1419L5.96185 51.797L3.54951 60.8082L3.95258 67.6727L1.31733 69.1506L0.266887 73.0714C-1.22938 78.5679 3.80907 83.6064 9.30555 82.1406V82.1406Z" fill="#F9C23C"/>
<path d="M17.7042 67.344C13.1849 63.1209 9.33736 58.0397 5.93565 51.8989L8.31135 43.0312C12.2139 51.5752 16.6049 57.9603 21.8724 62.8797C26.9505 67.6219 32.9661 71.1152 40.4077 73.8207L30.8561 76.3766C25.9642 73.9429 21.6128 70.99 17.7073 67.344H17.7042ZM6.97693 75.9949C4.81661 73.9615 2.91422 71.6704 1.3125 69.1731L3.58743 60.675C5.73411 65.2248 8.1373 68.7181 11.1481 71.5366C14.1529 74.3459 17.8905 76.6025 22.8679 78.5141L13.7407 80.957C11.3015 79.5705 9.03168 77.9053 6.97693 75.9949V75.9949Z" fill="#3F5FFF"/>
<path d="M52.2357 69.2897C56.5108 65.0147 51.1975 52.8003 40.3878 41.9905C29.578 31.1808 17.3941 25.8675 13.1191 30.1425C8.84405 34.4176 14.1573 46.632 24.9671 57.4417C35.7768 68.2515 47.9912 73.5342 52.2357 69.2897Z" fill="#6D4534"/>
<path d="M29.3377 13.0365C31.2048 16.5117 32.3609 20.3241 32.7383 24.251C33.1158 28.1779 32.7072 32.1407 31.5362 35.908C29.5818 42.3724 25.4769 47.9749 19.902 51.7867C18.3142 49.8019 16.94 47.817 15.7797 45.8932C20.033 42.9928 23.168 38.7265 24.6656 33.801C26.4673 27.9686 25.8871 21.8003 23.0167 16.426C22.0701 14.6549 22.7419 12.4869 24.4824 11.5708C26.2535 10.6242 28.4216 11.2959 29.3377 13.0365ZM61.5226 41.8717C64.264 39.7042 67.5188 38.2814 70.9715 37.7411C74.4242 37.2007 77.958 37.5612 81.2306 38.7875C81.6245 38.9343 82.0436 39.002 82.4637 38.9868C82.8839 38.9717 83.297 38.8739 83.6793 38.6991C84.0617 38.5243 84.4059 38.2758 84.6923 37.968C84.9786 37.6602 85.2016 37.299 85.3483 36.905C85.4951 36.511 85.5628 36.0919 85.5477 35.6718C85.5325 35.2516 85.4347 34.8386 85.2599 34.4562C85.0851 34.0738 84.8367 33.7296 84.5288 33.4433C84.221 33.1569 83.8598 32.934 83.4658 32.7872C79.1622 31.177 74.5158 30.7047 69.9762 31.4162C65.4366 32.1277 61.1575 33.9988 57.5529 36.8485C57.2231 37.1091 56.9478 37.4322 56.7429 37.7992C56.5379 38.1663 56.4072 38.5701 56.3583 38.9876C56.3094 39.4051 56.3432 39.8282 56.4578 40.2327C56.5724 40.6371 56.7655 41.0151 57.0262 41.3449C57.2868 41.6747 57.6099 41.95 57.9769 42.155C58.344 42.3599 58.7478 42.4906 59.1653 42.5395C59.5828 42.5884 60.0059 42.5546 60.4104 42.44C60.8148 42.3254 61.1928 42.1323 61.5226 41.8717ZM12.2375 20.4262C13.1769 20.4262 14.0779 20.053 14.7422 19.3887C15.4065 18.7244 15.7797 17.8235 15.7797 16.884C15.7797 15.9446 15.4065 15.0436 14.7422 14.3793C14.0779 13.7151 13.1769 13.3419 12.2375 13.3419C11.298 13.3419 10.3971 13.7151 9.73279 14.3793C9.0685 15.0436 8.69531 15.9446 8.69531 16.884C8.69531 17.8235 9.0685 18.7244 9.73279 19.3887C10.3971 20.053 11.298 20.4262 12.2375 20.4262ZM73.6759 16.884C73.6759 17.8235 73.3027 18.7244 72.6385 19.3887C71.9742 20.053 71.0732 20.4262 70.1338 20.4262C69.1943 20.4262 68.2934 20.053 67.6291 19.3887C66.9648 18.7244 66.5916 17.8235 66.5916 16.884C66.5916 15.9446 66.9648 15.0436 67.6291 14.3793C68.2934 13.7151 69.1943 13.3419 70.1338 13.3419C71.0732 13.3419 71.9742 13.7151 72.6385 14.3793C73.3027 15.0436 73.6759 15.9446 73.6759 16.884V16.884Z" fill="#F70A8D"/>
<path d="M32.027 2.93146C32.027 3.70893 31.7181 4.45456 31.1684 5.00431C30.6186 5.55407 29.873 5.86291 29.0955 5.86291C28.318 5.86291 27.5724 5.55407 27.0227 5.00431C26.4729 4.45456 26.1641 3.70893 26.1641 2.93146C26.1641 2.15399 26.4729 1.40836 27.0227 0.858604C27.5724 0.308849 28.318 0 29.0955 0C29.873 0 30.6186 0.308849 31.1684 0.858604C31.7181 1.40836 32.027 2.15399 32.027 2.93146V2.93146ZM71.6933 65.3776C71.6933 66.1632 71.3812 66.9166 70.8257 67.472C70.2702 68.0275 69.5168 68.3396 68.7313 68.3396C67.9457 68.3396 67.1923 68.0275 66.6368 67.472C66.0813 66.9166 65.7693 66.1632 65.7693 65.3776C65.7693 64.592 66.0813 63.8386 66.6368 63.2832C67.1923 62.7277 67.9457 62.4156 68.7313 62.4156C69.5168 62.4156 70.2702 62.7277 70.8257 63.2832C71.3812 63.8386 71.6933 64.592 71.6933 65.3776V65.3776Z" fill="#F9C23C"/>
<path d="M59.9365 3.1121C59.4468 2.67316 58.822 2.4146 58.1654 2.37924C57.3733 2.33727 56.5965 2.60827 56.0024 3.1338C55.4083 3.65933 55.0446 4.39729 54.9896 5.18855C54.7759 8.54751 52.4551 14.6242 51.5696 16.6701C51.5696 16.6854 51.5604 16.7006 51.5543 16.7159C51.3867 17.1335 51.2065 17.5459 51.0138 17.9526C49.9411 16.6253 48.4976 15.6473 46.8671 15.1433L46.7754 15.1128C42.6531 13.7386 38.1643 15.9678 36.7902 20.1207C36.1184 22.136 36.2711 24.2736 37.2177 26.1668C38.1643 28.06 39.7827 29.4647 41.7981 30.1365C42.0118 30.2098 42.2347 30.2556 42.4515 30.2739C43.9967 30.6922 45.4899 30.7075 46.9251 30.3197C46.8381 30.7402 46.7373 31.1578 46.6228 31.5717C46.1953 33.1595 47.1419 34.8085 48.7297 35.236C49.495 35.4406 50.3102 35.3339 50.9969 34.939C51.6836 34.5441 52.186 33.8933 52.3941 33.129C53.079 30.6635 53.3808 28.1072 53.2888 25.55C54.8766 23.559 56.147 21.3665 57.0966 18.9908L57.1424 18.8809C57.7073 17.5129 60.6785 10.3247 60.9747 5.52445C61.0052 4.57783 60.6083 3.69229 59.9365 3.1121V3.1121ZM45.0349 20.7925C45.8746 21.0734 46.7388 21.5436 47.1052 23.4674C45.6029 24.8629 44.6379 24.7102 43.7829 24.4262C43.6807 24.3922 43.5767 24.3637 43.4715 24.3407C43.0836 24.1548 42.7726 23.8395 42.592 23.4491C42.472 23.2258 42.4017 22.9792 42.3859 22.7262C42.3701 22.4733 42.4092 22.2198 42.5004 21.9834C42.8363 20.9757 43.9356 20.426 44.9433 20.7619L45.0349 20.7925V20.7925ZM49.6764 46.29C60.0891 43.3891 70.9905 44.7021 80.3956 50.0154C82.1361 51.0231 82.7469 53.1912 81.8003 54.9012C80.8231 56.6417 78.6245 57.2524 76.884 56.2753C73.0833 54.1279 68.8958 52.7527 64.562 52.2286C60.2282 51.7046 55.8336 52.0421 51.6307 53.2217C44.5769 55.176 38.5307 59.3289 34.1641 65.0697C32.3014 63.7872 30.3776 62.3214 28.4844 60.6725C33.7671 53.7408 41.1263 48.6718 49.6764 46.29V46.29ZM44.6501 42.702C44.6501 43.6334 44.2802 44.5266 43.6216 45.1851C42.963 45.8437 42.0698 46.2137 41.1385 46.2137C40.2072 46.2137 39.314 45.8437 38.6554 45.1851C37.9968 44.5266 37.6269 43.6334 37.6269 42.702C37.6269 41.7707 37.9968 40.8775 38.6554 40.2189C39.314 39.5604 40.2072 39.1904 41.1385 39.1904C42.0698 39.1904 42.963 39.5604 43.6216 40.2189C44.2802 40.8775 44.6501 41.7707 44.6501 42.702V42.702Z" fill="#00A6ED"/>
</svg>
