<svg width="231" height="196" viewBox="0 0 231 196" fill="none" xmlns="http://www.w3.org/2000/svg">
<ellipse cx="86.5" cy="168.25" rx="86.5" ry="4.5" fill="#D2E1E9"/>
<path d="M19 152H47.5V166.25H19V152Z" fill="#455A64"/>
<path d="M171 161.5H19C8.50725 161.5 0 152.993 0 142.5V19C0 8.50725 8.50725 0 19 0H171C181.493 0 190 8.50725 190 19V142.5C190 152.993 181.493 161.5 171 161.5Z" fill="#78909C"/>
<path d="M171 147.25H19C16.378 147.25 14.25 145.122 14.25 142.5V19C14.25 16.378 16.378 14.25 19 14.25H171C173.622 14.25 175.75 16.378 175.75 19V142.5C175.75 145.122 173.622 147.25 171 147.25Z" fill="#90A4AE"/>
<path d="M118.75 33.25C92.5158 33.25 71.25 54.5158 71.25 80.75C71.25 106.984 92.5158 128.25 118.75 128.25C144.984 128.25 166.25 106.984 166.25 80.75C166.25 54.5158 144.984 33.25 118.75 33.25ZM118.75 114C100.386 114 85.5 99.1135 85.5 80.75C85.5 62.3865 100.386 47.5 118.75 47.5C137.114 47.5 152 62.3865 152 80.75C152 99.1135 137.114 114 118.75 114Z" fill="#37474F"/>
<path d="M148.741 57.475L150.656 55.5608C152.513 53.7035 152.513 50.7015 150.656 48.8443C148.798 46.987 145.797 46.987 143.939 48.8443L142.025 50.7585C144.538 52.7108 146.789 54.9623 148.741 57.475ZM88.7585 57.475C90.7108 54.9623 92.9623 52.7108 95.475 50.7585L93.5608 48.8443C91.7035 46.987 88.7015 46.987 86.8443 48.8443C84.987 50.7015 84.987 53.7035 86.8443 55.5608L88.7585 57.475ZM80.75 80.75C80.75 79.1398 80.883 77.558 81.0778 76H78.375C75.753 76 73.625 78.128 73.625 80.75C73.625 83.372 75.753 85.5 78.375 85.5H81.0778C80.883 83.942 80.75 82.3602 80.75 80.75ZM118.75 42.75C120.36 42.75 121.942 42.883 123.5 43.0778V40.375C123.5 37.753 121.372 35.625 118.75 35.625C116.128 35.625 114 37.753 114 40.375V43.0778C115.558 42.883 117.14 42.75 118.75 42.75ZM148.741 104.025C146.789 106.538 144.538 108.789 142.025 110.741L143.939 112.656C144.866 113.582 146.081 114.048 147.297 114.048C148.513 114.048 149.729 113.582 150.656 112.656C152.513 110.798 152.513 107.797 150.656 105.939L148.741 104.025ZM88.7585 104.025L86.8443 105.939C84.987 107.797 84.987 110.798 86.8443 112.656C87.7705 113.582 88.9865 114.048 90.2025 114.048C91.4185 114.048 92.6345 113.582 93.5608 112.656L95.475 110.741C92.9623 108.789 90.7108 106.538 88.7585 104.025ZM159.125 76H156.422C156.617 77.558 156.75 79.1398 156.75 80.75C156.75 82.3602 156.617 83.942 156.422 85.5H159.125C161.747 85.5 163.875 83.372 163.875 80.75C163.875 78.128 161.747 76 159.125 76ZM118.75 118.75C117.14 118.75 115.558 118.617 114 118.422V121.125C114 123.747 116.128 125.875 118.75 125.875C121.372 125.875 123.5 123.747 123.5 121.125V118.422C121.942 118.617 120.36 118.75 118.75 118.75Z" fill="#B0BEC5"/>
<path d="M38 61.75C32.756 61.75 28.5 66.006 28.5 71.25V109.25C28.5 114.494 32.756 118.75 38 118.75C43.244 118.75 47.5 114.494 47.5 109.25V71.25C47.5 66.006 43.244 61.75 38 61.75Z" fill="#455A64"/>
<path d="M38 52.25C32.756 52.25 28.5 56.506 28.5 61.75V99.75C28.5 104.994 32.756 109.25 38 109.25C43.244 109.25 47.5 104.994 47.5 99.75V61.75C47.5 56.506 43.244 52.25 38 52.25Z" fill="#CFD8DC"/>
<path d="M183.5 100.75C170.902 100.75 158.82 105.754 149.912 114.662C141.004 123.57 136 135.652 136 148.25C136 160.848 141.004 172.93 149.912 181.838C158.82 190.746 170.902 195.75 183.5 195.75C196.098 195.75 208.18 190.746 217.088 181.838C225.996 172.93 231 160.848 231 148.25C231 135.652 225.996 123.57 217.088 114.662C208.18 105.754 196.098 100.75 183.5 100.75Z" fill="#27C193"/>
<path d="M204.84 126.156L177.808 153.236L164.855 140.316L154.766 150.424L177.827 173.424L214.943 136.245L204.84 126.156Z" fill="white"/>
</svg>
