<svg width="24" height="24" viewBox="0 0 24 24" fill="none" xmlns="http://www.w3.org/2000/svg">
<path d="M15.5719 5.67334C15.9905 5.28033 16.558 5.05957 17.1497 5.05957C17.7413 5.05957 18.3088 5.28033 18.7274 5.67334L20.3454 7.19123C20.7636 7.58487 20.9985 8.11842 20.9985 8.67471C20.9985 9.231 20.7636 9.76455 20.3454 10.1582L9.9259 19.9527C9.71856 20.1476 9.47241 20.3022 9.20152 20.4076C8.93063 20.513 8.64029 20.5673 8.34709 20.5673H5.24308C5.04562 20.5673 4.85624 20.4935 4.71661 20.3623C4.57698 20.231 4.49854 20.053 4.49854 19.8674V16.9499C4.49854 16.3936 4.73366 15.8595 5.15233 15.466L15.5719 5.67334ZM17.6756 6.66201C17.536 6.53108 17.3469 6.45755 17.1497 6.45755C16.9525 6.45755 16.7633 6.53108 16.6237 6.66201L15.2254 7.97635L17.8942 10.4848L19.2926 9.1705C19.4319 9.0393 19.5101 8.86152 19.5101 8.67617C19.5101 8.49081 19.4319 8.31303 19.2926 8.18183L17.6756 6.66201ZM16.8413 11.4735L14.1735 8.96598L6.20522 16.4546C6.136 16.5195 6.08107 16.5965 6.04355 16.6813C6.00604 16.7661 5.98669 16.8571 5.9866 16.9489V19.1686H8.34709C8.44482 19.1685 8.54157 19.1503 8.63181 19.1151C8.72206 19.0798 8.80402 19.0282 8.87301 18.9631L16.8413 11.4735Z" fill="#8697FF"/>
</svg>
