<svg width="60" height="53" viewBox="0 0 60 53" fill="none" xmlns="http://www.w3.org/2000/svg">
<path d="M54.375 26.5H45V18.9286C45 14.7879 48.2812 11.3571 52.5 11.3571H53.4375C54.9609 11.3571 56.25 10.1741 56.25 8.51786V2.83929C56.25 1.30134 54.9609 0 53.4375 0H52.5C42.0703 0 33.75 8.51786 33.75 18.9286V47.3214C33.75 50.5156 36.2109 53 39.375 53H54.375C57.4219 53 60 50.5156 60 47.3214V32.1786C60 29.1027 57.4219 26.5 54.375 26.5ZM20.625 26.5H11.25V18.9286C11.25 14.7879 14.5312 11.3571 18.75 11.3571H19.6875C21.2109 11.3571 22.5 10.1741 22.5 8.51786V2.83929C22.5 1.30134 21.2109 0 19.6875 0H18.75C8.32031 0 0 8.51786 0 18.9286V47.3214C0 50.5156 2.46094 53 5.625 53H20.625C23.6719 53 26.25 50.5156 26.25 47.3214V32.1786C26.25 29.1027 23.6719 26.5 20.625 26.5Z" fill="#C3CADB"/>
</svg>
