<svg width="32" height="32" viewBox="0 0 32 32" fill="none" xmlns="http://www.w3.org/2000/svg">
<path d="M25.7743 9.83167C25.7743 15.5552 21.3299 16.4441 21.3299 21.7783C21.3299 24.5321 18.5539 24.7641 16.441 24.7641C14.6161 24.7641 10.5867 24.0717 10.5867 21.7766C10.5867 16.445 6.21875 15.5561 6.21875 9.83167C6.21875 4.47078 10.9165 0.125 16.0703 0.125C21.2259 0.125 25.7743 4.47078 25.7743 9.83167Z" fill="#FFD983"/>
<path d="M19.7049 28.892C19.7049 29.628 17.7191 31.1143 16.0009 31.1143C14.2827 31.1143 12.2969 29.628 12.2969 28.892C12.2969 28.156 14.2818 28.4476 16.0009 28.4476C17.7191 28.4476 19.7049 28.156 19.7049 28.892Z" fill="#CCD6DD"/>
<path d="M20.183 9.15125C20.1005 9.06863 20.0026 9.00309 19.8947 8.95836C19.7869 8.91364 19.6713 8.89062 19.5546 8.89062C19.4378 8.89062 19.3222 8.91364 19.2144 8.95836C19.1065 9.00309 19.0086 9.06863 18.9261 9.15125L15.999 12.0784L13.0719 9.15125C12.9894 9.06872 12.8914 9.00325 12.7836 8.95859C12.6757 8.91393 12.5602 8.89094 12.4434 8.89094C12.3267 8.89094 12.2112 8.91393 12.1033 8.95859C11.9955 9.00325 11.8975 9.06872 11.815 9.15125C11.7325 9.23378 11.667 9.33175 11.6223 9.43958C11.5777 9.54741 11.5547 9.66298 11.5547 9.77969C11.5547 9.89641 11.5777 10.012 11.6223 10.1198C11.667 10.2276 11.7325 10.3256 11.815 10.4081L15.1101 13.7032V23.113C15.1101 23.3488 15.2038 23.5749 15.3705 23.7416C15.5372 23.9083 15.7632 24.0019 15.999 24.0019C16.2347 24.0019 16.4608 23.9083 16.6275 23.7416C16.7942 23.5749 16.8879 23.3488 16.8879 23.113V13.7032L20.183 10.4081C20.2656 10.3257 20.3312 10.2277 20.3759 10.1199C20.4206 10.012 20.4436 9.89643 20.4436 9.77969C20.4436 9.66295 20.4206 9.54736 20.3759 9.43952C20.3312 9.33169 20.2656 9.23373 20.183 9.15125Z" fill="#FFCC4D"/>
<path d="M21.3307 27.5521C21.3307 28.0236 21.1434 28.4758 20.81 28.8092C20.4766 29.1426 20.0244 29.3299 19.553 29.3299H12.4418C11.9703 29.3299 11.5182 29.1426 11.1848 28.8092C10.8514 28.4758 10.6641 28.0236 10.6641 27.5521V22.2188H21.3307V27.5521Z" fill="#99AAB5"/>
<path d="M10.6668 28.4473C10.4443 28.4464 10.2301 28.3621 10.0666 28.211C9.90322 28.0599 9.80244 27.8529 9.78423 27.6311C9.76602 27.4092 9.83171 27.1886 9.96831 27.0129C10.1049 26.8371 10.3025 26.719 10.522 26.6819L21.1886 24.9042C21.3038 24.8843 21.4218 24.8876 21.5357 24.9136C21.6496 24.9397 21.7572 24.9881 21.8523 25.0561C21.9473 25.1241 22.028 25.2102 22.0895 25.3095C22.1511 25.4089 22.1923 25.5194 22.2108 25.6348C22.2301 25.7499 22.2264 25.8677 22.2001 25.9814C22.1737 26.0951 22.1252 26.2024 22.0574 26.2974C21.9895 26.3923 21.9036 26.4729 21.8046 26.5347C21.7055 26.5964 21.5953 26.638 21.4802 26.657L10.8135 28.4348C10.7651 28.4433 10.716 28.4475 10.6668 28.4473ZM10.6668 24.8917C10.4443 24.8909 10.2301 24.8066 10.0666 24.6554C9.90322 24.5043 9.80244 24.2974 9.78423 24.0755C9.76602 23.8537 9.83171 23.6331 9.96831 23.4573C10.1049 23.2816 10.3025 23.1635 10.522 23.1264L21.1886 21.3486C21.3038 21.3289 21.4217 21.3322 21.5356 21.3583C21.6494 21.3845 21.757 21.4329 21.852 21.5008C21.9471 21.5688 22.0277 21.6549 22.0893 21.7542C22.1509 21.8534 22.1922 21.9639 22.2108 22.0793C22.2301 22.1944 22.2264 22.3121 22.2001 22.4258C22.1737 22.5395 22.1252 22.6469 22.0574 22.7418C21.9895 22.8368 21.9036 22.9174 21.8046 22.9791C21.7055 23.0408 21.5953 23.0824 21.4802 23.1015L10.8135 24.8793C10.7651 24.8878 10.716 24.8919 10.6668 24.8917Z" fill="#CCD6DD"/>
</svg>
