<svg width="210" height="180" viewBox="0 0 210 180" fill="none" xmlns="http://www.w3.org/2000/svg">
<g opacity="0.05">
<path d="M208.927 102.993C217.175 84.7327 176.399 33.7165 137.444 12.4622C112.89 -4.00333 87.3041 -1.74124 82.1222 5.48835C70.75 21.3544 119.779 34.7985 152.568 50.4867C145.52 53.5205 138.877 58.9648 134.972 65.9274C122.747 52.7018 95.917 41.3125 64.4344 50.4867C43.2189 56.669 25.5872 71.244 18.7727 93.2578C17.1169 92.5285 15.2836 92.1233 13.3548 92.1233C5.97915 92.1233 0 98.0487 0 105.358C0 112.668 5.97915 118.593 13.3548 118.593C14.7219 118.593 18.9965 117.684 18.9965 117.684L87.3041 118.175C59.9864 161.122 38.3977 167.4 38.3977 174.841C38.3977 182.281 59.0543 180.265 66.8103 177.491C103.94 164.215 143.818 122.837 150.661 110.926C179.398 114.479 203.549 114.899 208.927 102.993Z" fill="url(#paint0_linear_2_263)"/>
<path fill-rule="evenodd" clip-rule="evenodd" d="M152.568 50.4888C152.569 50.4892 152.57 50.4896 152.571 50.49C154.091 49.8967 153.845 47.6721 153.428 45.9253C152.468 41.9101 135.918 25.7142 120.377 18.46C99.1992 8.57504 83.6047 9.08479 81.3013 13.6409C85.6133 22.4034 105.613 30.6301 126.501 39.2223C135.412 42.8877 144.484 46.6197 152.57 50.4881C152.569 50.4883 152.569 50.4886 152.568 50.4888Z" fill="url(#paint1_linear_2_263)"/>
<path fill-rule="evenodd" clip-rule="evenodd" d="M125.693 138.673C121.41 137.051 116.572 135.562 111.071 134.212C116.936 123.813 118.166 108.417 112.628 98.6835C104.855 85.0231 95.0972 77.7522 72.4236 77.7522C59.953 77.7522 26.3767 81.915 25.7806 109.692C25.7181 112.606 25.7791 115.278 25.992 117.734L87.3056 118.174C79.0397 131.169 71.2984 140.807 64.5209 148.136C72.6579 150.202 79.3728 151.937 85.5377 153.53C91.3877 155.041 96.7424 156.424 102.347 157.841C110.801 151.738 118.748 145.082 125.693 138.673Z" fill="url(#paint2_linear_2_263)"/>
<path d="M17.954 114.881C20.4587 135.982 32.5595 144.251 57.2862 146.698C82.0129 149.146 96.1965 147.504 115.08 149.207C130.851 150.629 144.932 158.593 150.157 155.841C154.858 153.364 152.228 144.415 145.937 138.673C137.782 131.231 126.496 126.056 106.637 124.22C110.595 113.481 109.486 98.4242 103.339 90.2323C94.452 78.3877 78.0479 73.0325 57.2862 75.3723C35.595 77.8167 14.8106 88.3999 17.954 114.881Z" fill="url(#paint3_linear_2_263)"/>
</g>
<defs>
<linearGradient id="paint0_linear_2_263" x1="61.9641" y1="86.8226" x2="206.954" y2="128.312" gradientUnits="userSpaceOnUse">
<stop stop-color="#8697FF"/>
<stop offset="1" stop-color="#ABB7FF"/>
</linearGradient>
<linearGradient id="paint1_linear_2_263" x1="182.704" y1="84.0861" x2="78.8927" y2="-20.9226" gradientUnits="userSpaceOnUse">
<stop stop-color="#8697FF"/>
<stop offset="1" stop-color="#5156D8" stop-opacity="0"/>
</linearGradient>
<linearGradient id="paint2_linear_2_263" x1="128.607" y1="142.298" x2="28.4278" y2="84.1793" gradientUnits="userSpaceOnUse">
<stop stop-color="#465EED"/>
<stop offset="1" stop-color="#8697FF" stop-opacity="0"/>
</linearGradient>
<linearGradient id="paint3_linear_2_263" x1="70.6313" y1="85.75" x2="137.895" y2="171.99" gradientUnits="userSpaceOnUse">
<stop stop-color="#8898FF"/>
<stop offset="0.983895" stop-color="#6277F1"/>
</linearGradient>
</defs>
</svg>
