<svg width="176" height="153" viewBox="0 0 176 153" fill="none" xmlns="http://www.w3.org/2000/svg">
<g opacity="0.3">
<path d="M174.458 87.0737C181.346 71.6359 147.297 28.5051 114.769 10.5359C94.2654 -3.38455 72.9008 -1.4721 68.5738 4.64004C59.0778 18.0538 100.018 29.4198 127.398 42.6832C121.512 45.248 115.966 49.8508 112.704 55.7372C102.497 44.5558 80.0927 34.927 53.8041 42.6832C36.0887 47.9099 21.3659 60.232 15.6756 78.8432C14.293 78.2267 12.7621 77.8841 11.1515 77.8841C4.99272 77.8841 0 82.8937 0 89.0733C0 95.2529 4.99272 100.262 11.1515 100.262C12.2931 100.262 15.8625 99.4942 15.8625 99.4942L72.9008 99.9089C50.0899 136.218 32.0629 141.526 32.0629 147.816C32.0629 154.107 49.3116 152.402 55.7881 150.057C86.7917 138.833 120.091 103.851 125.805 93.7804C149.801 96.7844 169.968 97.1397 174.458 87.0737Z" fill="url(#paint0_linear_2_503)"/>
<path fill-rule="evenodd" clip-rule="evenodd" d="M127.396 42.6866C127.397 42.6871 127.398 42.6876 127.4 42.6881C128.669 42.1865 128.463 40.3058 128.115 38.829C127.314 35.4344 113.494 21.7418 100.517 15.6089C82.8337 7.25215 69.8123 7.68275 67.8881 11.5343C71.4893 18.9421 88.189 25.8971 105.63 33.161C113.071 36.2599 120.647 39.4151 127.398 42.6856C127.398 42.6859 127.397 42.6862 127.396 42.6866Z" fill="url(#paint1_linear_2_503)"/>
<path fill-rule="evenodd" clip-rule="evenodd" d="M104.954 117.239C101.378 115.868 97.3387 114.61 92.7462 113.468C97.6432 104.676 98.6708 91.6604 94.0459 83.4311C87.5554 71.8822 79.4078 65.7351 60.4748 65.7351C50.0616 65.7351 22.0247 69.2544 21.5269 92.7379C21.4747 95.2016 21.5256 97.4597 21.7033 99.5362L72.9008 99.9084C65.9984 110.895 59.534 119.044 53.8746 125.24C60.6696 126.987 66.2772 128.453 71.4252 129.8C76.3097 131.077 80.7805 132.247 85.4597 133.445C92.519 128.285 99.1554 122.658 104.954 117.239Z" fill="url(#paint2_linear_2_503)"/>
<path d="M14.9922 97.1233C17.0837 114.963 27.1881 121.954 47.8354 124.023C68.4828 126.092 80.3264 124.704 96.0942 126.143C109.263 127.345 121.022 134.079 125.384 131.752C129.31 129.658 127.114 122.092 121.861 117.238C115.051 110.946 105.627 106.571 89.0446 105.018C92.3492 95.9396 91.4232 83.2101 86.2907 76.2844C78.8697 66.2705 65.1719 61.7431 47.8355 63.7212C29.7229 65.7878 12.3675 74.7352 14.9922 97.1233Z" fill="url(#paint3_linear_2_503)"/>
</g>
<defs>
<linearGradient id="paint0_linear_2_503" x1="51.7413" y1="73.4027" x2="173.036" y2="107.684" gradientUnits="userSpaceOnUse">
<stop stop-color="white"/>
<stop offset="1" stop-color="white"/>
</linearGradient>
<linearGradient id="paint1_linear_2_503" x1="152.56" y1="71.0914" x2="64.7896" y2="-16.5981" gradientUnits="userSpaceOnUse">
<stop stop-color="#8697FF"/>
<stop offset="1" stop-color="#8697FF" stop-opacity="0"/>
</linearGradient>
<linearGradient id="paint2_linear_2_503" x1="107.388" y1="120.304" x2="23.2181" y2="72.0749" gradientUnits="userSpaceOnUse">
<stop stop-color="#8697FF"/>
<stop offset="1" stop-color="#8697FF" stop-opacity="0"/>
</linearGradient>
<linearGradient id="paint3_linear_2_503" x1="58.9789" y1="72.4949" x2="116.013" y2="144.72" gradientUnits="userSpaceOnUse">
<stop stop-color="white"/>
<stop offset="0.983895" stop-color="#D1D8FF"/>
</linearGradient>
</defs>
</svg>
