<svg width="40" height="40" viewBox="0 0 40 40" fill="none" xmlns="http://www.w3.org/2000/svg">
<path d="M33.3327 22.5007V5.00065C33.3327 4.08018 32.5865 3.33398 31.666 3.33398H8.33268C7.41221 3.33398 6.66602 4.08018 6.66602 5.00065V35.0007C6.66602 35.9212 7.41221 36.6673 8.33268 36.6673H17.4993" stroke="#BABEC5" stroke-width="1.5" stroke-linecap="round" stroke-linejoin="round"/>
<path d="M14.166 10H25.8327" stroke="#BABEC5" stroke-width="1.5" stroke-linecap="round" stroke-linejoin="round"/>
<path d="M14.166 16.666H25.8327" stroke="#BABEC5" stroke-width="1.5" stroke-linecap="round" stroke-linejoin="round"/>
<path d="M14.166 23.334H19.166" stroke="#BABEC5" stroke-width="1.5" stroke-linecap="round" stroke-linejoin="round"/>
<path d="M32.5 36.666L29.6129 33.7789M29.6129 33.7789C30.367 33.0249 30.8333 31.9833 30.8333 30.8327C30.8333 28.5315 28.9678 26.666 26.6667 26.666C24.3655 26.666 22.5 28.5315 22.5 30.8327C22.5 33.1338 24.3655 34.9993 26.6667 34.9993C27.8172 34.9993 28.8589 34.533 29.6129 33.7789Z" stroke="#BABEC5" stroke-width="1.5" stroke-linecap="round" stroke-linejoin="round"/>
</svg>
