<svg width="22" height="22" viewBox="0 0 22 22" fill="none" xmlns="http://www.w3.org/2000/svg">
<path d="M11 22C17.0751 22 22 17.0751 22 11C22 4.92487 17.0751 0 11 0C4.92487 0 0 4.92487 0 11C0 17.0751 4.92487 22 11 22Z" fill="#17181D"/>
<path d="M6.04579 10.9983L6.05372 13.9069L8.5252 15.3612V17.0641L4.60733 14.7663V10.1477L6.04579 10.9983ZM6.04579 8.0896V9.78456L4.60645 8.93311V7.23816L6.04579 6.38672L7.49218 7.23816L6.04579 8.0896ZM9.55733 7.23816L10.9967 6.38672L12.4431 7.23816L10.9967 8.0896L9.55733 7.23816Z" fill="#F1B90C"/>
<path d="M7.08594 13.304V11.6011L8.52528 12.4526V14.1475L7.08594 13.304ZM9.55741 15.9712L10.9968 16.8226L12.4431 15.9712V17.6661L10.9968 18.5176L9.55741 17.6661V15.9712ZM14.5074 7.23816L15.9468 6.38672L17.3932 7.23816V8.93311L15.9468 9.78456V8.0896L14.5074 7.23816ZM15.9468 13.9069L15.9547 10.9983L17.394 10.1468V14.7654L13.4762 17.0632V15.3604L15.9468 13.9069Z" fill="#F1B90C"/>
<path d="M14.9149 13.3044L13.4756 14.148V12.453L14.9149 11.6016V13.3044Z" fill="#F1B90C"/>
<path d="M14.9146 8.69401L14.9226 10.3969L12.444 11.8512V14.7669L11.0047 15.6104L9.56534 14.7669V11.8512L7.08682 10.3969V8.69401L8.53233 7.84257L10.9959 9.30395L13.4744 7.84257L14.9208 8.69401H14.9146ZM7.08594 5.78624L10.9968 3.48047L14.9146 5.78624L13.4753 6.63768L10.9968 5.1763L8.52528 6.63768L7.08594 5.78624Z" fill="#F1B90C"/>
</svg>
