<svg width="24" height="24" viewBox="0 0 24 24" fill="none" xmlns="http://www.w3.org/2000/svg">
<rect width="24" height="24" rx="12" fill="#4D84FF"/>
<path d="M11.7546 12.7214C11.7576 13.8103 10.9827 14.7467 9.9108 14.9495C8.83893 15.1523 7.77448 14.5638 7.37808 13.5493L8.24149 12.6854V12.7214C8.24135 13.3144 8.6609 13.8249 9.24355 13.9407C9.8262 14.0565 10.4097 13.7454 10.6371 13.1976C10.8646 12.6498 10.6727 12.0179 10.1788 11.6884C9.68489 11.3589 9.02654 11.4235 8.60638 11.8427L6.1222 14.3222C5.47381 14.9701 4.4982 15.1642 3.6505 14.814C2.80279 14.4637 2.25 13.6382 2.25 12.7225C2.25 11.8068 2.80279 10.9812 3.6505 10.631C4.4982 10.2808 5.47381 10.4749 6.1222 11.1228C6.25029 11.2521 6.29951 11.4399 6.25131 11.6153C6.20311 11.7907 6.06483 11.9271 5.88855 11.9731C5.71227 12.0191 5.52477 11.9678 5.39668 11.8385C4.9091 11.3535 4.12008 11.3544 3.63362 11.8405C3.14717 12.3266 3.14717 13.1141 3.63362 13.6002C4.12008 14.0864 4.9091 14.0873 5.39668 13.6023L7.8851 11.1334C8.53286 10.4854 9.50807 10.2911 10.3554 10.6412C11.2027 10.9913 11.7551 11.8167 11.7546 12.732V12.7214ZM21.6 12.7214C21.6002 13.8092 20.8251 14.7433 19.7543 14.9458C18.6835 15.1483 17.6199 14.5618 17.2214 13.5493L18.0849 12.6854V12.7214C18.0847 13.3144 18.5043 13.8249 19.0869 13.9407C19.6696 14.0565 20.253 13.7454 20.4805 13.1976C20.708 12.6498 20.5161 12.0179 20.0222 11.6884C19.5282 11.3589 18.8699 11.4235 18.4497 11.8427L15.974 14.3095C15.3284 14.964 14.3503 15.1636 13.4991 14.8148C12.6478 14.4659 12.0925 13.6378 12.094 12.7193V9.54316C12.0817 9.35338 12.1762 9.17255 12.3391 9.07395C12.502 8.97535 12.7063 8.97535 12.8693 9.07395C13.0322 9.17255 13.1266 9.35338 13.1144 9.54316V10.8327C13.7424 10.4198 14.5346 10.3445 15.2294 10.6317C15.9241 10.9188 16.4311 11.5311 16.5829 12.2662L17.7285 11.1228C18.3768 10.4755 19.3518 10.2816 20.1992 10.6315C21.0465 10.9814 21.5994 11.8062 21.6 12.7214ZM15.6092 12.7214C15.6092 12.0338 15.0507 11.4764 14.3618 11.4764C13.6729 11.4764 13.1144 12.0338 13.1144 12.7214C13.1144 13.4091 13.6729 13.9665 14.3618 13.9665C14.6928 13.967 15.0104 13.836 15.2444 13.6024C15.4785 13.3688 15.6097 13.0518 15.6092 12.7214Z" fill="white"/>
</svg>
