<svg width="32" height="32" viewBox="0 0 32 32" fill="none" xmlns="http://www.w3.org/2000/svg">
<rect width="32" height="32" rx="16" fill="#3183FA"/>
<mask id="path-2-inside-1_21871_33831" fill="white">
<path d="M9.50398 11.7353C13.0916 8.08822 18.9085 8.08822 22.4961 11.7353L22.928 12.1743C22.9706 12.2171 23.0044 12.2685 23.0275 12.3252C23.0507 12.3819 23.0626 12.4428 23.0626 12.5044C23.0626 12.566 23.0507 12.627 23.0275 12.6837C23.0044 12.7404 22.9706 12.7917 22.928 12.8346L21.451 14.3362C21.4075 14.38 21.3492 14.4045 21.2886 14.4045C21.2279 14.4045 21.1697 14.38 21.1262 14.3362L20.5319 13.7321C18.0291 11.1878 13.971 11.1878 11.4682 13.7321L10.8319 14.379C10.7884 14.4228 10.7301 14.4474 10.6695 14.4474C10.6089 14.4474 10.5506 14.4228 10.5071 14.379L9.03006 12.8774C8.98749 12.8346 8.95364 12.7832 8.93053 12.7265C8.90741 12.6698 8.8955 12.6088 8.8955 12.5473C8.8955 12.4857 8.90741 12.4247 8.93053 12.368C8.95364 12.3113 8.98749 12.26 9.03006 12.2171L9.50398 11.7353ZM25.5509 14.8406L26.8654 16.177C26.908 16.2199 26.9418 16.2712 26.965 16.3279C26.9881 16.3846 27 16.4456 27 16.5072C27 16.5688 26.9881 16.6297 26.965 16.6865C26.9418 16.7432 26.908 16.7945 26.8654 16.8374L20.9379 22.8632C20.8509 22.9509 20.7344 23 20.6131 23C20.4919 23 20.3754 22.9509 20.2883 22.8632L16.0813 18.5865C16.0596 18.5646 16.0304 18.5523 16.0001 18.5523C15.9698 18.5523 15.9407 18.5646 15.9189 18.5865L11.7119 22.8631C11.6249 22.9508 11.5084 22.9998 11.3871 22.9998C11.2658 22.9998 11.1493 22.9508 11.0623 22.8631L5.13456 16.8375C5.09199 16.7946 5.05814 16.7433 5.03502 16.6866C5.01191 16.6299 5 16.5689 5 16.5073C5 16.4458 5.01191 16.3848 5.03502 16.3281C5.05814 16.2714 5.09199 16.22 5.13456 16.1772L6.4492 14.8407C6.53622 14.753 6.65273 14.704 6.77401 14.704C6.89529 14.704 7.0118 14.753 7.09881 14.8407L11.306 19.1171C11.3277 19.1391 11.3569 19.1513 11.3872 19.1513C11.4175 19.1513 11.4466 19.1391 11.4684 19.1171L15.6752 14.8406C15.7623 14.7529 15.8788 14.7038 16 14.7038C16.1213 14.7038 16.2378 14.7529 16.3248 14.8406L20.5319 19.1173C20.5536 19.1392 20.5827 19.1515 20.6131 19.1515C20.6434 19.1515 20.6725 19.1392 20.6943 19.1173L24.9013 14.8407C24.9883 14.753 25.1048 14.704 25.2261 14.704C25.3474 14.704 25.4639 14.753 25.5509 14.8407V14.8406Z"/>
</mask>
<path d="M9.50398 11.7353C13.0916 8.08822 18.9085 8.08822 22.4961 11.7353L22.928 12.1743C22.9706 12.2171 23.0044 12.2685 23.0275 12.3252C23.0507 12.3819 23.0626 12.4428 23.0626 12.5044C23.0626 12.566 23.0507 12.627 23.0275 12.6837C23.0044 12.7404 22.9706 12.7917 22.928 12.8346L21.451 14.3362C21.4075 14.38 21.3492 14.4045 21.2886 14.4045C21.2279 14.4045 21.1697 14.38 21.1262 14.3362L20.5319 13.7321C18.0291 11.1878 13.971 11.1878 11.4682 13.7321L10.8319 14.379C10.7884 14.4228 10.7301 14.4474 10.6695 14.4474C10.6089 14.4474 10.5506 14.4228 10.5071 14.379L9.03006 12.8774C8.98749 12.8346 8.95364 12.7832 8.93053 12.7265C8.90741 12.6698 8.8955 12.6088 8.8955 12.5473C8.8955 12.4857 8.90741 12.4247 8.93053 12.368C8.95364 12.3113 8.98749 12.26 9.03006 12.2171L9.50398 11.7353ZM25.5509 14.8406L26.8654 16.177C26.908 16.2199 26.9418 16.2712 26.965 16.3279C26.9881 16.3846 27 16.4456 27 16.5072C27 16.5688 26.9881 16.6297 26.965 16.6865C26.9418 16.7432 26.908 16.7945 26.8654 16.8374L20.9379 22.8632C20.8509 22.9509 20.7344 23 20.6131 23C20.4919 23 20.3754 22.9509 20.2883 22.8632L16.0813 18.5865C16.0596 18.5646 16.0304 18.5523 16.0001 18.5523C15.9698 18.5523 15.9407 18.5646 15.9189 18.5865L11.7119 22.8631C11.6249 22.9508 11.5084 22.9998 11.3871 22.9998C11.2658 22.9998 11.1493 22.9508 11.0623 22.8631L5.13456 16.8375C5.09199 16.7946 5.05814 16.7433 5.03502 16.6866C5.01191 16.6299 5 16.5689 5 16.5073C5 16.4458 5.01191 16.3848 5.03502 16.3281C5.05814 16.2714 5.09199 16.22 5.13456 16.1772L6.4492 14.8407C6.53622 14.753 6.65273 14.704 6.77401 14.704C6.89529 14.704 7.0118 14.753 7.09881 14.8407L11.306 19.1171C11.3277 19.1391 11.3569 19.1513 11.3872 19.1513C11.4175 19.1513 11.4466 19.1391 11.4684 19.1171L15.6752 14.8406C15.7623 14.7529 15.8788 14.7038 16 14.7038C16.1213 14.7038 16.2378 14.7529 16.3248 14.8406L20.5319 19.1173C20.5536 19.1392 20.5827 19.1515 20.6131 19.1515C20.6434 19.1515 20.6725 19.1392 20.6943 19.1173L24.9013 14.8407C24.9883 14.753 25.1048 14.704 25.2261 14.704C25.3474 14.704 25.4639 14.753 25.5509 14.8407V14.8406Z" fill="white"/>
<path d="M22.4961 11.7353L21.2486 12.9626L21.2487 12.9628L22.4961 11.7353ZM22.928 12.1743L21.6806 13.4017L21.6861 13.4072L22.928 12.1743ZM22.928 12.8346L21.6861 11.6016L21.6804 11.6074L22.928 12.8346ZM21.451 14.3362L22.6934 15.5686L22.6985 15.5634L21.451 14.3362ZM21.2886 14.4045V16.1545V14.4045ZM21.1262 14.3362L19.8787 15.5635L19.8838 15.5686L21.1262 14.3362ZM20.5319 13.7321L19.2843 14.9593L19.2844 14.9594L20.5319 13.7321ZM11.4682 13.7321L12.7158 14.9593L12.7158 14.9593L11.4682 13.7321ZM10.8319 14.379L12.0743 15.6114L12.0795 15.6062L10.8319 14.379ZM10.6695 14.4474V16.1974V14.4474ZM10.5071 14.379L9.25952 15.6062L9.26471 15.6114L10.5071 14.379ZM9.03006 12.8774L10.2776 11.6502L10.2719 11.6445L9.03006 12.8774ZM9.03006 12.2171L10.272 13.4501L10.2776 13.4443L9.03006 12.2171ZM25.5509 14.8406L26.7985 13.6134L23.8009 10.5658V14.8406H25.5509ZM26.8654 16.177L25.6177 17.4042L25.6239 17.4104L26.8654 16.177ZM26.8654 16.8374L25.6239 15.6039L25.6178 15.6102L26.8654 16.8374ZM20.9379 22.8632L22.1804 24.0957L22.1855 24.0904L20.9379 22.8632ZM20.6131 23V21.25V23ZM20.2883 22.8632L19.0408 24.0905L19.0459 24.0957L20.2883 22.8632ZM16.0813 18.5865L17.3289 17.3593L17.3237 17.3541L16.0813 18.5865ZM15.9189 18.5865L14.6765 17.3541L14.6714 17.3593L15.9189 18.5865ZM11.7119 22.8631L12.9543 24.0955L12.9594 24.0903L11.7119 22.8631ZM11.3871 22.9998V24.7498V22.9998ZM11.0623 22.8631L9.81477 24.0903L9.8199 24.0955L11.0623 22.8631ZM5.13456 16.8375L6.38209 15.6102L6.37644 15.6045L5.13456 16.8375ZM5 16.5073H3.25H5ZM5.13456 16.1772L6.37646 17.4101L6.38212 17.4044L5.13456 16.1772ZM6.4492 14.8407L5.20679 13.6083L5.20164 13.6135L6.4492 14.8407ZM7.09881 14.8407L8.34631 13.6134L8.34121 13.6083L7.09881 14.8407ZM11.306 19.1171L10.0585 20.3444L10.0636 20.3496L11.306 19.1171ZM11.4684 19.1171L12.7108 20.3496L12.7159 20.3444L11.4684 19.1171ZM15.6752 14.8406L14.4328 13.6081L14.4277 13.6134L15.6752 14.8406ZM16.3248 14.8406L17.5724 13.6133L17.5673 13.6081L16.3248 14.8406ZM20.5319 19.1173L19.2843 20.3445L19.2895 20.3497L20.5319 19.1173ZM20.6943 19.1173L21.9367 20.3497L21.9418 20.3445L20.6943 19.1173ZM24.9013 14.8407L23.6589 13.6083L23.6537 13.6135L24.9013 14.8407ZM25.5509 14.8407L24.3085 16.0732L27.3009 19.0898V14.8407H25.5509ZM10.7515 12.9626C13.6535 10.0125 18.3466 10.0125 21.2486 12.9626L23.7437 10.5081C19.4704 6.16396 12.5297 6.16396 8.25641 10.5081L10.7515 12.9626ZM21.2487 12.9628L21.6806 13.4017L24.1754 10.9468L23.7435 10.5079L21.2487 12.9628ZM21.6861 13.4072C21.5637 13.2839 21.4698 13.1399 21.407 12.9856L24.6481 11.6647C24.539 11.397 24.3775 11.1504 24.1699 10.9413L21.6861 13.4072ZM21.407 12.9856C21.3441 12.8314 21.3126 12.668 21.3126 12.5044H24.8126C24.8126 12.2177 24.7572 11.9323 24.6481 11.6647L21.407 12.9856ZM21.3126 12.5044C21.3126 12.3409 21.3441 12.1774 21.407 12.0232L24.6481 13.3441C24.7572 13.0765 24.8126 12.7912 24.8126 12.5044H21.3126ZM21.407 12.0232C21.4698 11.869 21.5637 11.725 21.6861 11.6016L24.1699 14.0676C24.3775 13.8585 24.539 13.6119 24.6481 13.3441L21.407 12.0232ZM21.6804 11.6074L20.2034 13.1089L22.6985 15.5634L24.1756 14.0618L21.6804 11.6074ZM20.2086 13.1037C20.4867 12.8233 20.8729 12.6545 21.2886 12.6545V16.1545C21.8255 16.1545 22.3282 15.9367 22.6934 15.5686L20.2086 13.1037ZM21.2886 12.6545C21.7042 12.6545 22.0904 12.8233 22.3686 13.1037L19.8838 15.5686C20.2489 15.9367 20.7516 16.1545 21.2886 16.1545V12.6545ZM22.3736 13.1088L21.7793 12.5048L19.2844 14.9594L19.8787 15.5635L22.3736 13.1088ZM21.7794 12.5049C18.591 9.2635 13.4091 9.2635 10.2206 12.5049L12.7158 14.9593C14.5329 13.112 17.4672 13.112 19.2843 14.9593L21.7794 12.5049ZM10.2207 12.5049L9.58433 13.1518L12.0795 15.6062L12.7158 14.9593L10.2207 12.5049ZM9.58951 13.1465C9.86767 12.8661 10.2538 12.6974 10.6695 12.6974V16.1974C11.2065 16.1974 11.7091 15.9796 12.0743 15.6114L9.58951 13.1465ZM10.6695 12.6974C11.0852 12.6974 11.4714 12.8661 11.7495 13.1465L9.26471 15.6114C9.62988 15.9796 10.1326 16.1974 10.6695 16.1974V12.6974ZM11.7547 13.1518L10.2776 11.6502L7.78249 14.1047L9.25953 15.6062L11.7547 13.1518ZM10.2719 11.6445C10.3944 11.7678 10.4882 11.9118 10.5511 12.0661L7.30994 13.387C7.41904 13.6547 7.58056 13.9013 7.78818 14.1104L10.2719 11.6445ZM10.5511 12.0661C10.614 12.2203 10.6455 12.3837 10.6455 12.5473H7.1455C7.1455 12.834 7.20088 13.1193 7.30994 13.387L10.5511 12.0661ZM10.6455 12.5473C10.6455 12.7108 10.614 12.8743 10.5511 13.0284L7.30994 11.7076C7.20088 11.9752 7.1455 12.2605 7.1455 12.5473H10.6455ZM10.5511 13.0284C10.4882 13.1827 10.3944 13.3267 10.2719 13.4501L7.78818 10.9841C7.58056 11.1932 7.41904 11.4398 7.30994 11.7076L10.5511 13.0284ZM10.2776 13.4443L10.7515 12.9626L8.25644 10.5081L7.78253 10.9898L10.2776 13.4443ZM24.3033 16.0677L25.6178 17.4042L28.113 14.9498L26.7985 13.6134L24.3033 16.0677ZM25.6239 17.4104C25.5013 17.287 25.4074 17.143 25.3445 16.9886L28.5854 15.6672C28.4763 15.3994 28.3146 15.1527 28.1068 14.9436L25.6239 17.4104ZM25.3445 16.9886C25.2816 16.8344 25.25 16.6708 25.25 16.5072H28.75C28.75 16.2203 28.6946 15.9349 28.5854 15.6672L25.3445 16.9886ZM25.25 16.5072C25.25 16.3435 25.2816 16.18 25.3445 16.0257L28.5854 17.3472C28.6946 17.0795 28.75 16.794 28.75 16.5072H25.25ZM25.3445 16.0257C25.4074 15.8714 25.5013 15.7274 25.6239 15.6039L28.1068 18.0708C28.3146 17.8616 28.4763 17.6149 28.5854 17.3472L25.3445 16.0257ZM25.6178 15.6102L19.6904 21.636L22.1855 24.0904L28.113 18.0646L25.6178 15.6102ZM19.6955 21.6308C19.9302 21.3942 20.2581 21.25 20.6131 21.25V24.75C21.2107 24.75 21.7717 24.5076 22.1803 24.0957L19.6955 21.6308ZM20.6131 21.25C20.9682 21.25 21.2961 21.3942 21.5307 21.6308L19.0459 24.0957C19.4546 24.5076 20.0156 24.75 20.6131 24.75V21.25ZM21.5359 21.636L17.3289 17.3593L14.8338 19.8138L19.0408 24.0905L21.5359 21.636ZM17.3237 17.3541C16.9803 17.0079 16.5068 16.8023 16.0001 16.8023V20.3023C15.5541 20.3023 15.1388 20.1213 14.8389 19.819L17.3237 17.3541ZM16.0001 16.8023C15.4935 16.8023 15.0199 17.0079 14.6765 17.3541L17.1613 19.819C16.8614 20.1213 16.4461 20.3023 16.0001 20.3023V16.8023ZM14.6714 17.3593L10.4644 21.6358L12.9594 24.0903L17.1665 19.8138L14.6714 17.3593ZM10.4695 21.6306C10.7041 21.3941 11.0321 21.2498 11.3871 21.2498V24.7498C11.9847 24.7498 12.5456 24.5075 12.9543 24.0955L10.4695 21.6306ZM11.3871 21.2498C11.7421 21.2498 12.0701 21.3941 12.3047 21.6306L9.8199 24.0955C10.2286 24.5075 10.7895 24.7498 11.3871 24.7498V21.2498ZM12.3098 21.6358L6.38208 15.6102L3.88704 18.0648L9.81478 24.0903L12.3098 21.6358ZM6.37644 15.6045C6.49892 15.7279 6.59274 15.8719 6.65561 16.0262L3.41443 17.347C3.52353 17.6148 3.68505 17.8614 3.89267 18.0705L6.37644 15.6045ZM6.65561 16.0262C6.71845 16.1803 6.75 16.3438 6.75 16.5073H3.25C3.25 16.7941 3.30537 17.0794 3.41443 17.347L6.65561 16.0262ZM6.75 16.5073C6.75 16.6709 6.71845 16.8343 6.65561 16.9885L3.41443 15.6676C3.30537 15.9352 3.25 16.2206 3.25 16.5073H6.75ZM6.65561 16.9885C6.59274 17.1428 6.49892 17.2868 6.37644 17.4101L3.89267 14.9442C3.68505 15.1533 3.52353 15.3999 3.41443 15.6676L6.65561 16.9885ZM6.38212 17.4044L7.69676 16.068L5.20164 13.6135L3.887 14.9499L6.38212 17.4044ZM7.6916 16.0732C7.45696 16.3097 7.12903 16.454 6.77401 16.454V12.954C6.17642 12.954 5.61548 13.1963 5.2068 13.6083L7.6916 16.0732ZM6.77401 16.454C6.41898 16.454 6.09106 16.3097 5.85641 16.0732L8.34121 13.6083C7.93253 13.1963 7.37159 12.954 6.77401 12.954V16.454ZM5.85132 16.068L10.0585 20.3444L12.5535 17.8898L8.3463 13.6134L5.85132 16.068ZM10.0636 20.3496C10.407 20.6958 10.8806 20.9013 11.3872 20.9013V17.4013C11.8332 17.4013 12.2485 17.5823 12.5484 17.8847L10.0636 20.3496ZM11.3872 20.9013C11.8938 20.9013 12.3674 20.6958 12.7108 20.3496L10.226 17.8847C10.5259 17.5823 10.9412 17.4013 11.3872 17.4013V20.9013ZM12.7159 20.3444L16.9228 16.0678L14.4277 13.6134L10.2208 17.8899L12.7159 20.3444ZM16.9176 16.073C16.683 16.3096 16.3551 16.4538 16 16.4538V12.9538C15.4025 12.9538 14.8415 13.1962 14.4328 13.6081L16.9176 16.073ZM16 16.4538C15.645 16.4538 15.3171 16.3096 15.0824 16.073L17.5673 13.6081C17.1586 13.1962 16.5976 12.9538 16 12.9538V16.4538ZM15.0773 16.0678L19.2843 20.3445L21.7794 17.89L17.5724 13.6134L15.0773 16.0678ZM19.2895 20.3497C19.6329 20.6959 20.1064 20.9015 20.6131 20.9015V17.4015C21.0591 17.4015 21.4744 17.5825 21.7743 17.8848L19.2895 20.3497ZM20.6131 20.9015C21.1197 20.9015 21.5933 20.6959 21.9367 20.3497L19.4519 17.8848C19.7517 17.5825 20.167 17.4015 20.6131 17.4015V20.9015ZM21.9418 20.3445L26.1488 16.068L23.6537 13.6135L19.4467 17.89L21.9418 20.3445ZM26.1437 16.0732C25.909 16.3097 25.5811 16.454 25.2261 16.454V12.954C24.6285 12.954 24.0676 13.1963 23.6589 13.6083L26.1437 16.0732ZM25.2261 16.454C24.8711 16.454 24.5431 16.3097 24.3085 16.0732L26.7933 13.6083C26.3846 13.1963 25.8237 12.954 25.2261 12.954V16.454ZM27.3009 14.8407V14.8406H23.8009V14.8407H27.3009Z" fill="white" mask="url(#path-2-inside-1_21871_33831)"/>
</svg>
