<svg width="9" height="9" viewBox="0 0 9 9" fill="none" xmlns="http://www.w3.org/2000/svg">
<path d="M5.63011 4.5L8.76741 1.3627C9.07753 1.05258 9.07753 0.542702 8.76741 0.232586C8.4573 -0.0775288 7.94742 -0.0775288 7.6373 0.232586L4.5 3.36989L1.3627 0.232586C1.05258 -0.0775288 0.542702 -0.0775288 0.232586 0.232586C-0.0775288 0.542702 -0.0775288 1.05258 0.232586 1.3627L3.36989 4.5L0.232586 7.6373C-0.0775288 7.94742 -0.0775288 8.4573 0.232586 8.76741C0.542702 9.07753 1.05258 9.07753 1.3627 8.76741L4.5 5.63011L7.6373 8.76741C7.94742 9.07753 8.4573 9.07753 8.76741 8.76741C9.07753 8.4573 9.07753 7.94742 8.76741 7.6373L5.63011 4.5Z" fill="white"/>
</svg>
