<svg width="9" height="7" viewBox="0 0 9 7" fill="none" xmlns="http://www.w3.org/2000/svg">
<path fill-rule="evenodd" clip-rule="evenodd" d="M6.35328 0.64617C6.15786 0.451061 5.84128 0.451308 5.64617 0.646723C5.45106 0.842138 5.45131 1.15872 5.64672 1.35383L7.29547 3H0.5C0.223858 3 0 3.22386 0 3.5C0 3.77614 0.223858 4 0.5 4H7.29032L5.64617 5.64672C5.45106 5.84214 5.45131 6.15872 5.64672 6.35383C5.84214 6.54894 6.15872 6.54869 6.35383 6.35328L8.85383 3.84937C8.94752 3.75553 9.0001 3.62831 9 3.4957C8.9999 3.36309 8.94712 3.23596 8.85328 3.14226L6.35328 0.64617Z" fill="#DEDFE1"/>
</svg>
