<svg width="60" height="52" viewBox="0 0 60 52" fill="none" xmlns="http://www.w3.org/2000/svg">
<path fill-rule="evenodd" clip-rule="evenodd" d="M9.51169 16.2676C8.42219 16.2676 7.41833 16.8583 6.88922 17.8106L0 30.2112H3.08073L9.29578 18.5918H50.3521L56.69 30.2112H59.6479L52.7587 17.8106C52.2296 16.8583 51.2257 16.2676 50.1362 16.2676H9.51169Z" fill="white" fill-opacity="0.15"/>
<path fill-rule="evenodd" clip-rule="evenodd" d="M29.8239 35.6329C32.6048 35.6329 34.8591 33.3786 34.8591 30.5977C34.8591 30.4676 34.8542 30.3386 34.8445 30.2109H59.6479V48.9997C59.6479 50.6565 58.3047 51.9997 56.6479 51.9997H3C1.34314 51.9997 0 50.6565 0 48.9997V30.2109H24.8034C24.7937 30.3386 24.7887 30.4676 24.7887 30.5977C24.7887 33.3786 27.0431 35.6329 29.8239 35.6329Z" fill="white" fill-opacity="0.15"/>
<rect x="12.7124" y="1.54883" width="2.32394" height="10.8451" rx="1.16197" transform="rotate(-30 12.7124 1.54883)" fill="white" fill-opacity="0.15"/>
<rect x="28.6619" width="2.32394" height="10.8451" rx="1.16197" fill="white" fill-opacity="0.15"/>
<rect x="44.9233" width="2.32394" height="10.8451" rx="1.16197" transform="rotate(30 44.9233 0)" fill="white" fill-opacity="0.15"/>
</svg>
