<svg width="20" height="20" viewBox="0 0 20 20" fill="none" xmlns="http://www.w3.org/2000/svg">
<path d="M6.99434 10.8348C6.98392 10.8481 6.97351 10.862 6.96887 10.8788L6.16606 13.8221C6.11917 13.9935 6.16722 14.1781 6.29399 14.3083C6.38893 14.401 6.51394 14.4519 6.64707 14.4519C6.69106 14.4519 6.73505 14.4467 6.77846 14.4351L9.70094 13.6381C9.7056 13.6381 9.70792 13.6421 9.71137 13.6421C9.74493 13.6421 9.77795 13.63 9.80285 13.6045L17.6176 5.79089C17.8497 5.55851 17.977 5.24188 17.977 4.89748C17.977 4.50706 17.8115 4.11695 17.5215 3.8278L16.7835 3.08864C16.4941 2.79864 16.1033 2.63281 15.7132 2.63281C15.3688 2.63281 15.0522 2.76017 14.8195 2.99197L7.00591 10.8076C6.99783 10.8151 7.00013 10.8261 6.99434 10.8348ZM16.8529 5.02569L16.0767 5.80134L14.8183 4.52299L15.5836 3.75777C15.7045 3.63623 15.9389 3.6539 16.0779 3.79337L16.8164 4.53254C16.8934 4.60953 16.9374 4.71196 16.9374 4.81325C16.9369 4.89634 16.9073 4.97159 16.8529 5.02569ZM7.76417 11.7482L14.8183 4.52299L16.0767 5.80134L8.85122 12.8353L7.76417 11.7482ZM7.35669 13.2439L7.76417 11.7482L8.85122 12.8353L7.35669 13.2439Z" fill="white"/>
<path d="M17.3505 8.11729C17.0547 8.11729 16.8122 8.35779 16.811 8.65763V15.9424C16.811 16.3245 16.5008 16.6347 16.1181 16.6347H3.79494C3.41292 16.6347 3.10149 16.3245 3.10149 15.9424V4.05219C3.10149 3.66985 3.41292 3.35932 3.79494 3.35932H11.7318C12.0293 3.35932 12.2707 3.11768 12.2707 2.82012C12.2707 2.52321 12.0293 2.28125 11.7318 2.28125H3.71275C2.78142 2.28125 2.02344 3.03866 2.02344 3.97056V16.0247C2.02344 16.9566 2.78142 17.7137 3.71275 17.7137H16.1997C17.1317 17.7137 17.8894 16.9566 17.8894 16.0247V8.65415C17.8882 8.35779 17.6463 8.11729 17.3505 8.11729Z" fill="white"/>
</svg>
