<svg width="13" height="14" viewBox="0 0 13 14" fill="none" xmlns="http://www.w3.org/2000/svg">
<path d="M8.6243 4.41904L2.37109 4.41895C1.95688 4.41895 1.62109 4.67905 1.62109 4.99992L1.62117 11.9804C1.62117 12.3013 1.95696 12.5614 2.37117 12.5614L8.6243 12.5613C9.03851 12.5613 9.3743 12.3012 9.3743 11.9804V5.00001C9.3743 4.67915 9.03851 4.41904 8.6243 4.41904Z" stroke="white" stroke-width="1.25" stroke-linejoin="round"/>
<path d="M4.62113 3.37777L4.62109 1.93253C4.62109 1.61167 4.95688 1.35156 5.37109 1.35156L11.6243 1.35165C12.0385 1.35165 12.3743 1.61176 12.3743 1.93262V8.91297C12.3743 9.23384 12.0385 9.49395 11.6243 9.49395L10.4977 9.49398" stroke="white" stroke-width="1.25" stroke-linejoin="round"/>
</svg>
