<svg width="16" height="16" viewBox="0 0 16 16" fill="none" xmlns="http://www.w3.org/2000/svg">
<g opacity="0.6">
<path d="M8.0026 14.6615C9.84354 14.6615 11.5102 13.9153 12.7166 12.7088C13.9231 11.5024 14.6693 9.83572 14.6693 7.99479C14.6693 6.15386 13.9231 4.48719 12.7166 3.28074C11.5102 2.07432 9.84354 1.32812 8.0026 1.32812C6.16167 1.32812 4.495 2.07432 3.28856 3.28074C2.08213 4.48719 1.33594 6.15386 1.33594 7.99479C1.33594 9.83572 2.08213 11.5024 3.28856 12.7088C4.495 13.9153 6.16167 14.6615 8.0026 14.6615Z" stroke="white" stroke-linejoin="round"/>
<path fill-rule="evenodd" clip-rule="evenodd" d="M7.9974 3.67188C8.45763 3.67188 8.83073 4.04497 8.83073 4.50521C8.83073 4.96544 8.45763 5.33854 7.9974 5.33854C7.53716 5.33854 7.16406 4.96544 7.16406 4.50521C7.16406 4.04497 7.53716 3.67188 7.9974 3.67188Z" fill="white"/>
<path d="M8.16667 11.3385V6.67188H7.83333H7.5" fill="white"/>
<path d="M8.16667 11.3385V6.67188H7.83333H7.5" stroke="white" stroke-linecap="round" stroke-linejoin="round"/>
<path d="M7 11.3281H9.33333H7Z" fill="white"/>
<path d="M7 11.3281H9.33333" stroke="white" stroke-linecap="round" stroke-linejoin="round"/>
</g>
</svg>
