<svg xmlns="http://www.w3.org/2000/svg" width="40" height="40" viewBox="0 0 40 40" fill="none">
  <path d="M33.3334 22.5007V5.00065C33.3334 4.08018 32.5872 3.33398 31.6667 3.33398H8.33341C7.41294 3.33398 6.66675 4.08018 6.66675 5.00065V35.0007C6.66675 35.9212 7.41294 36.6673 8.33341 36.6673H17.5001" stroke="#BABEC5" stroke-width="2" stroke-linecap="round" stroke-linejoin="round"/>
  <path d="M14.1667 10H25.8334" stroke="#BABEC5" stroke-width="2" stroke-linecap="round" stroke-linejoin="round"/>
  <path d="M14.1667 16.666H25.8334" stroke="#BABEC5" stroke-width="2" stroke-linecap="round" stroke-linejoin="round"/>
  <path d="M14.1667 23.334H19.1667" stroke="#BABEC5" stroke-width="2" stroke-linecap="round" stroke-linejoin="round"/>
  <path d="M32.5 36.666L29.6129 33.7789M29.6129 33.7789C30.367 33.0249 30.8333 31.9833 30.8333 30.8327C30.8333 28.5315 28.9678 26.666 26.6667 26.666C24.3655 26.666 22.5 28.5315 22.5 30.8327C22.5 33.1338 24.3655 34.9993 26.6667 34.9993C27.8172 34.9993 28.8589 34.533 29.6129 33.7789Z" stroke="#BABEC5" stroke-width="2" stroke-linecap="round" stroke-linejoin="round"/>
</svg>
