<svg width="32" height="32" viewBox="0 0 32 32" fill="none" xmlns="http://www.w3.org/2000/svg">
<g opacity="0.5">
<path d="M26.6615 17.9974V3.9974C26.6615 3.26102 26.0645 2.66406 25.3281 2.66406H6.66146C5.92508 2.66406 5.32812 3.26102 5.32812 3.9974V27.9974C5.32812 28.7338 5.92508 29.3307 6.66146 29.3307H13.9948" stroke="white" stroke-width="1.23077" stroke-linecap="round" stroke-linejoin="round"/>
<path d="M11.3281 8H20.6615" stroke="white" stroke-width="1.23077" stroke-linecap="round" stroke-linejoin="round"/>
<path d="M11.3281 13.3359H20.6615" stroke="white" stroke-width="1.23077" stroke-linecap="round" stroke-linejoin="round"/>
<path d="M11.3281 18.6641H15.3281" stroke="white" stroke-width="1.23077" stroke-linecap="round" stroke-linejoin="round"/>
<path d="M26 29.3359L23.6903 27.0263M23.6903 27.0263C24.2936 26.4231 24.6667 25.5897 24.6667 24.6693C24.6667 22.8283 23.1743 21.3359 21.3333 21.3359C19.4924 21.3359 18 22.8283 18 24.6693C18 26.5102 19.4924 28.0026 21.3333 28.0026C22.2538 28.0026 23.0871 27.6295 23.6903 27.0263Z" stroke="white" stroke-width="1.23077" stroke-linecap="round" stroke-linejoin="round"/>
</g>
</svg>
