<svg width="10" height="10" viewBox="0 0 10 10" fill="none" xmlns="http://www.w3.org/2000/svg">
<path fill-rule="evenodd" clip-rule="evenodd" d="M0.208984 5.00016C0.208984 7.64653 2.35429 9.79183 5.00065 9.79183C7.64702 9.79183 9.79232 7.64653 9.79232 5.00016C9.79232 2.3538 7.64702 0.208496 5.00065 0.208496C2.35429 0.208496 0.208984 2.3538 0.208984 5.00016ZM6.3588 2.50085C6.03734 2.21155 5.61141 2.07493 5.08905 2.07493C4.49436 2.07493 4.02825 2.24369 3.68269 2.58122C3.32909 2.91875 3.16032 3.38485 3.16032 3.97955H4.07647C4.07647 3.64202 4.14076 3.37682 4.27738 3.19198C4.43007 2.96696 4.6792 2.86249 5.0328 2.86249C5.30603 2.86249 5.52301 2.93482 5.67571 3.08751C5.82036 3.2402 5.90072 3.44915 5.90072 3.71435C5.90072 3.91525 5.8284 4.10813 5.68374 4.28493L5.58731 4.39744C5.06494 4.86354 4.75152 5.20107 4.64705 5.41805C4.53454 5.63504 4.48632 5.90024 4.48632 6.20562V6.31813H5.41051V6.20562C5.41051 6.01274 5.45069 5.84398 5.53105 5.68325C5.60338 5.5386 5.70785 5.40198 5.85251 5.28144C6.23825 4.94391 6.4713 4.72693 6.54363 4.64656C6.73651 4.3894 6.84098 4.05991 6.84098 3.65809C6.84098 3.16787 6.68025 2.78213 6.3588 2.50085ZM5.39443 6.88067C5.27389 6.76816 5.1212 6.71191 4.9444 6.71191C4.7676 6.71191 4.62294 6.76816 4.5024 6.88067C4.38185 6.99318 4.3256 7.13783 4.3256 7.31463C4.3256 7.49143 4.38185 7.63609 4.5024 7.7486C4.62294 7.86111 4.7676 7.9254 4.9444 7.9254C5.1212 7.9254 5.26585 7.86914 5.3864 7.75663C5.50694 7.64412 5.57123 7.49143 5.57123 7.31463C5.57123 7.13783 5.50694 6.99318 5.39443 6.88067Z" fill="#707280"/>
</svg>
