<svg width="12" height="12" viewBox="0 0 12 12" fill="none" xmlns="http://www.w3.org/2000/svg">
<g clip-path="url(#clip0_39175_85406)">
<path d="M5.99805 10.9922C7.37875 10.9922 8.62875 10.4325 9.53357 9.52771C10.4384 8.62289 10.998 7.37289 10.998 5.99219C10.998 4.61149 10.4384 3.36149 9.53357 2.45665C8.62875 1.55183 7.37875 0.992188 5.99805 0.992188C4.61735 0.992188 3.36735 1.55183 2.46251 2.45665C1.55769 3.36149 0.998047 4.61149 0.998047 5.99219C0.998047 7.37289 1.55769 8.62289 2.46251 9.52771C3.36735 10.4325 4.61735 10.9922 5.99805 10.9922Z" stroke="#FFB020" stroke-linejoin="round"/>
<path d="M6 7.14844V6.14844C6.82842 6.14844 7.5 5.47686 7.5 4.64844C7.5 3.82001 6.82842 3.14844 6 3.14844C5.17158 3.14844 4.5 3.82001 4.5 4.64844" stroke="#FFB020" stroke-linecap="round" stroke-linejoin="round"/>
<path fill-rule="evenodd" clip-rule="evenodd" d="M6.00195 9.40625C6.34713 9.40625 6.62695 9.12643 6.62695 8.78125C6.62695 8.43608 6.34713 8.15625 6.00195 8.15625C5.65678 8.15625 5.37695 8.43608 5.37695 8.78125C5.37695 9.12643 5.65678 9.40625 6.00195 9.40625Z" fill="#FFB020"/>
</g>
<defs>
<clipPath id="clip0_39175_85406">
<rect width="12" height="12" fill="white"/>
</clipPath>
</defs>
</svg>
