<svg width="35" height="35" viewBox="0 0 35 35" fill="none" xmlns="http://www.w3.org/2000/svg">
<rect class="bg" width="35" height="35" rx="14" fill="black" fill-opacity="0.15"/>
<g opacity="0.6">
<path d="M15.7448 9.08398H9.91146C9.58929 9.08398 9.32812 9.35067 9.32812 9.67963V15.6361C9.32812 15.9651 9.58929 16.2318 9.91146 16.2318H15.7448C16.067 16.2318 16.3281 15.9651 16.3281 15.6361V9.67963C16.3281 9.35067 16.067 9.08398 15.7448 9.08398Z" stroke="white" stroke-width="1.5" stroke-linecap="round" stroke-linejoin="round"/>
<path d="M25.0807 9.08398H19.2474C18.9252 9.08398 18.6641 9.35067 18.6641 9.67963V15.6361C18.6641 15.9651 18.9252 16.2318 19.2474 16.2318H25.0807C25.4029 16.2318 25.6641 15.9651 25.6641 15.6361V9.67963C25.6641 9.35067 25.4029 9.08398 25.0807 9.08398Z" stroke="white" stroke-width="1.5" stroke-linecap="round" stroke-linejoin="round"/>
<path d="M15.7448 18.6152H9.91146C9.58929 18.6152 9.32812 18.8819 9.32812 19.2109V25.1674C9.32812 25.4963 9.58929 25.763 9.91146 25.763H15.7448C16.067 25.763 16.3281 25.4963 16.3281 25.1674V19.2109C16.3281 18.8819 16.067 18.6152 15.7448 18.6152Z" stroke="white" stroke-width="1.5" stroke-linecap="round" stroke-linejoin="round"/>
<path d="M18.5 19.25C18.5 18.8358 18.8358 18.5 19.25 18.5C19.6642 18.5 20 18.8358 20 19.25V25.25C20 25.6642 19.6642 26 19.25 26C18.8358 26 18.5 25.6642 18.5 25.25V19.25Z" fill="white"/>
<path d="M21.5 19.25C21.5 18.8358 21.8358 18.5 22.25 18.5C22.6642 18.5 23 18.8358 23 19.25V25.25C23 25.6642 22.6642 26 22.25 26C21.8358 26 21.5 25.6642 21.5 25.25V19.25Z" fill="white"/>
<path d="M24.5 19.25C24.5 18.8358 24.8358 18.5 25.25 18.5C25.6642 18.5 26 18.8358 26 19.25V25.25C26 25.6642 25.6642 26 25.25 26C24.8358 26 24.5 25.6642 24.5 25.25V19.25Z" fill="white"/>
</g>
</svg>
