<svg width="14" height="14" viewBox="0 0 14 14" fill="none" xmlns="http://www.w3.org/2000/svg">
<path d="M4.275 13.45C5.13906 13.8156 6.05469 14 7 14C7.94531 14 8.86094 13.8156 9.725 13.45C10.5594 13.0969 11.3078 12.5922 11.95 11.95C12.5922 11.3078 13.0969 10.5594 13.45 9.725C13.8156 8.86094 14 7.94531 14 7C14 6.05469 13.8156 5.13906 13.45 4.275C13.0969 3.44063 12.5922 2.69219 11.95 2.05C11.3078 1.40781 10.5594 0.903125 9.725 0.55C8.86094 0.184375 7.94531 0 7 0C6.05469 0 5.13906 0.184375 4.275 0.55C3.44063 0.903125 2.69219 1.40781 2.05 2.05C1.40781 2.69219 0.903125 3.44063 0.55 4.275C0.184375 5.13906 0 6.05469 0 7C0 7.94531 0.184375 8.86094 0.55 9.725C0.903125 10.5594 1.40781 11.3078 2.05 11.95C2.69219 12.5922 3.44063 13.0969 4.275 13.45Z" fill="#27C193"/>
<path d="M6.40692 9.9999H6.4038C6.2663 9.99834 6.13505 9.94209 6.0413 9.84209L3.38505 7.00147C3.19599 6.7999 3.20692 6.48272 3.40849 6.29522C3.61005 6.10615 3.92724 6.11709 4.11474 6.31865L6.41161 8.77334L9.88974 5.15303C10.0804 4.95459 10.3975 4.94834 10.596 5.13897C10.7944 5.32959 10.8007 5.64678 10.61 5.84522L6.7663 9.84521C6.67411 9.94521 6.54286 9.9999 6.40692 9.9999Z" fill="white"/>
</svg>
