<svg width="12" height="12" viewBox="0 0 12 12" fill="none" xmlns="http://www.w3.org/2000/svg">
  <g opacity="0.6">
    <path
      d="M4.92873 1H1.35716C1.15991 1 1 1.15991 1 1.35716V4.92873C1 5.12599 1.15991 5.28589 1.35716 5.28589H4.92873C5.12599 5.28589 5.28589 5.12599 5.28589 4.92873V1.35716C5.28589 1.15991 5.12599 1 4.92873 1Z"
      stroke="white" stroke-linecap="round" stroke-linejoin="round" />
    <path
      d="M10.6433 1H7.07176C6.87451 1 6.7146 1.15991 6.7146 1.35716V4.92873C6.7146 5.12599 6.87451 5.28589 7.07176 5.28589H10.6433C10.8406 5.28589 11.0005 5.12599 11.0005 4.92873V1.35716C11.0005 1.15991 10.8406 1 10.6433 1Z"
      stroke="white" stroke-linecap="round" stroke-linejoin="round" />
    <path
      d="M6.7146 11.0007V7.072C6.7146 6.87475 6.87451 6.71485 7.07176 6.71485H8.85755V8.85779H10.6433M11.0005 6.71484V10.6436C11.0005 10.8408 10.8406 11.0007 10.6433 11.0007L8.85755 11.0007"
      stroke="white" stroke-linecap="round" stroke-linejoin="round" />
    <rect x="2.42871" y="2.42773" width="1.42863" height="1.42863" rx="0.2" fill="white" />
    <path
      d="M4.92873 6.71484H1.35716C1.15991 6.71484 1 6.87475 1 7.072V10.6436C1 10.8408 1.15991 11.0007 1.35716 11.0007H4.92873C5.12599 11.0007 5.28589 10.8408 5.28589 10.6436V7.072C5.28589 6.87475 5.12599 6.71484 4.92873 6.71484Z"
      stroke="white" stroke-linecap="round" stroke-linejoin="round" />
    <rect x="2.42871" y="8.14258" width="1.42863" height="1.42863" rx="0.2" fill="white" />
    <rect x="8.14282" y="2.42773" width="1.42863" height="1.42863" rx="0.2" fill="white" />
  </g>
</svg>