<svg width="13" height="13" viewBox="0 0 13 13" fill="none" xmlns="http://www.w3.org/2000/svg">
<g opacity="0.6">
<path d="M5.40823 1.22656H1.65643C1.44922 1.22656 1.28125 1.39808 1.28125 1.60966V5.44066C1.28125 5.65225 1.44922 5.82376 1.65643 5.82376H3.53233H5.40823C5.61544 5.82376 5.7834 5.65225 5.7834 5.44066V3.52516V1.60966C5.7834 1.39808 5.61544 1.22656 5.40823 1.22656Z" stroke="white" stroke-width="1.5" stroke-linecap="round" stroke-linejoin="round"/>
<path d="M8.83789 1.64514L8.83789 3.74377" stroke="white" stroke-width="1.5" stroke-linecap="round"/>
<path d="M11.8926 1.65442L11.8926 5.67385" stroke="white" stroke-width="1.5" stroke-linecap="round"/>
<path d="M4.33594 9.21582L4.33594 11.8619" stroke="white" stroke-width="1.5" stroke-linecap="round"/>
<path d="M1.28125 7.60681L1.28125 11.7874" stroke="white" stroke-width="1.5" stroke-linecap="round"/>
<path d="M11.6211 7.60681H7.86932C7.66211 7.60681 7.49414 7.77833 7.49414 7.98991V11.5746C7.49414 11.7862 7.66211 11.9577 7.86932 11.9577H9.74522H11.6211C11.8283 11.9577 11.9963 11.7862 11.9963 11.5746V9.65911V7.98991C11.9963 7.77833 11.8283 7.60681 11.6211 7.60681Z" stroke="white" stroke-width="1.5" stroke-linecap="round" stroke-linejoin="round"/>
</g>
</svg>
