<svg width="18" height="18" viewBox="0 0 18 18" fill="none" xmlns="http://www.w3.org/2000/svg">
<g opacity="0.6">
<path d="M7.49926 3H3.66826C3.45668 3 3.28516 3.17514 3.28516 3.39119V7.30307C3.28516 7.51912 3.45668 7.69426 3.66826 7.69426H5.58376H7.49926C7.71085 7.69426 7.88236 7.51912 7.88236 7.30307V5.34713V3.39119C7.88236 3.17514 7.71085 3 7.49926 3Z" stroke="white" stroke-width="1.5" stroke-linecap="round" stroke-linejoin="round"/>
<path d="M11.002 3.42737L11.002 5.5703" stroke="white" stroke-width="1.5" stroke-linecap="round"/>
<path d="M14.1211 3.43689L14.1211 7.54118" stroke="white" stroke-width="1.5" stroke-linecap="round"/>
<path d="M6.4043 11.158L6.4043 13.8599" stroke="white" stroke-width="1.5" stroke-linecap="round"/>
<path d="M3.28516 9.51489L3.28516 13.7837" stroke="white" stroke-width="1.5" stroke-linecap="round"/>
<path d="M13.843 9.51489H10.012C9.80043 9.51489 9.62891 9.69003 9.62891 9.90608V13.5665C9.62891 13.7825 9.80043 13.9577 10.012 13.9577H11.9275H13.843C14.0546 13.9577 14.2261 13.7825 14.2261 13.5665V11.6105V9.90608C14.2261 9.69003 14.0546 9.51489 13.843 9.51489Z" stroke="white" stroke-width="1.5" stroke-linecap="round" stroke-linejoin="round"/>
</g>
</svg>
