<svg width="12" height="13" viewBox="0 0 12 13" fill="none" xmlns="http://www.w3.org/2000/svg">
<path d="M8.56962 2.71C8.6549 2.76119 8.71636 2.84415 8.74047 2.94065C8.76458 3.03715 8.74937 3.13928 8.69818 3.22456C8.647 3.30985 8.56403 3.3713 8.46753 3.39541C8.37103 3.41952 8.2689 3.40431 8.18362 3.35312C7.52416 2.9572 6.76918 2.74867 6 2.75C3.65275 2.75 1.75 4.65275 1.75 7C1.75 9.34725 3.65275 11.25 6 11.25C8.34725 11.25 10.25 9.34725 10.25 7C10.2514 6.23092 10.0429 5.47604 9.64712 4.81662C9.62178 4.7744 9.60501 4.72759 9.59776 4.67888C9.59052 4.63017 9.59293 4.58051 9.60488 4.53274C9.61682 4.48496 9.63806 4.44 9.66738 4.40044C9.69669 4.36087 9.73352 4.32746 9.77575 4.30212C9.81797 4.27679 9.86478 4.26002 9.91349 4.25277C9.9622 4.24552 10.0119 4.24794 10.0596 4.25988C10.1074 4.27182 10.1524 4.29306 10.1919 4.32238C10.2315 4.3517 10.2649 4.38852 10.2902 4.43075C10.756 5.20672 11.0014 6.09499 11 7C11 9.76137 8.76137 12 6 12C3.23862 12 1 9.76137 1 7C1 4.23863 3.23862 2 6 2C6.9175 2 7.79962 2.24787 8.56962 2.71Z" fill="#FFC55C"/>
</svg>
