<svg width="14" height="14" viewBox="0 0 14 14" fill="none" xmlns="http://www.w3.org/2000/svg">
<path d="M10.5975 0.9943C10.7169 1.06596 10.8029 1.18211 10.8367 1.31721C10.8704 1.4523 10.8491 1.59528 10.7775 1.71467C10.7058 1.83407 10.5896 1.9201 10.4545 1.95386C10.3194 1.98761 10.1765 1.96631 10.0571 1.89465C9.13382 1.34037 8.07685 1.04843 6.99999 1.0503C3.71385 1.0503 1.05 3.71409 1.05 7.00016C1.05 10.2862 3.71385 12.95 6.99999 12.95C10.2861 12.95 12.95 10.2862 12.95 7.00016C12.9519 5.92348 12.6601 4.86666 12.106 3.94351C12.0705 3.88439 12.047 3.81886 12.0369 3.75067C12.0267 3.68248 12.0301 3.61296 12.0468 3.54607C12.0635 3.47919 12.0933 3.41625 12.1343 3.36086C12.1754 3.30546 12.2269 3.25869 12.286 3.22322C12.3452 3.18775 12.4107 3.16427 12.4789 3.15413C12.5471 3.14398 12.6166 3.14736 12.6835 3.16408C12.7504 3.1808 12.8133 3.21054 12.8687 3.25158C12.9241 3.29262 12.9709 3.34418 13.0063 3.40329C13.6584 4.48963 14.0019 5.73317 14 7.00016C14 10.866 10.8659 14 6.99999 14C3.13407 14 -1.36995e-07 10.866 -3.0598e-07 7.00016C-4.74964e-07 3.13433 3.13407 0.000322205 6.99999 0.000322036C8.28449 0.00032198 9.51946 0.34734 10.5975 0.9943Z" fill="#D9D9D9"/>
</svg>
