<svg width="20" height="20" viewBox="0 0 20 20" fill="none" xmlns="http://www.w3.org/2000/svg">
<path d="M16.2627 3.73926C14.6104 2.08691 11.9365 2.08691 10.2861 3.73926L8.39356 5.63184L9.38965 6.62793L11.2822 4.73535C12.333 3.68457 14.1064 3.57324 15.2666 4.73535C16.4287 5.89746 16.3174 7.66895 15.2666 8.71973L13.374 10.6123L14.3721 11.6104L16.2646 9.71777C17.9131 8.06543 17.9131 5.3916 16.2627 3.73926ZM8.72168 15.2666C7.6709 16.3174 5.89746 16.4287 4.7373 15.2666C3.5752 14.1045 3.68652 12.333 4.7373 11.2822L6.62988 9.38965L5.63184 8.3916L3.73926 10.2842C2.08691 11.9365 2.08691 14.6104 3.73926 16.2607C5.3916 17.9111 8.06543 17.9131 9.71582 16.2607L11.6084 14.3682L10.6123 13.3721L8.72168 15.2666ZM5.08496 4.09082C5.02441 4.03027 4.9248 4.03027 4.86426 4.09082L4.09082 4.86426C4.03027 4.9248 4.03027 5.02441 4.09082 5.08496L14.9189 15.9131C14.9795 15.9736 15.0791 15.9736 15.1396 15.9131L15.9131 15.1396C15.9736 15.0791 15.9736 14.9795 15.9131 14.9189L5.08496 4.09082Z" fill="white"/>
</svg>
