<svg width="26" height="27" viewBox="0 0 26 27" fill="none" xmlns="http://www.w3.org/2000/svg">
<rect y="0.996094" width="26" height="26" rx="4" fill="white" fill-opacity="0.8"/>
<path d="M12.1235 16.1455H14.4176C14.1353 13.6364 18 13.3091 18 10.6545C18 8.23636 16.1294 7 13.5706 7C11.6824 7 10.1294 7.89091 9 9.23636L10.4471 10.6C11.3118 9.67273 12.1941 9.16364 13.2706 9.16364C14.6647 9.16364 15.5118 9.78182 15.5118 10.8909C15.5118 12.6545 11.7529 13.2909 12.1235 16.1455ZM13.2882 21C14.1706 21 14.8412 20.3273 14.8412 19.3818C14.8412 18.4364 14.1706 17.7818 13.2882 17.7818C12.3882 17.7818 11.7176 18.4364 11.7176 19.3818C11.7176 20.3273 12.3706 21 13.2882 21Z" fill="#49536C"/>
</svg>
