<svg width="20" height="20" viewBox="0 0 20 20" fill="none" xmlns="http://www.w3.org/2000/svg">
<g opacity="0.7" clip-path="url(#clip0_42646_85645)">
<path d="M4.16699 8.33073H5.83366C7.50033 8.33073 8.33366 7.4974 8.33366 5.83073V4.16406C8.33366 2.4974 7.50033 1.66406 5.83366 1.66406H4.16699C2.50033 1.66406 1.66699 2.4974 1.66699 4.16406V5.83073C1.66699 7.4974 2.50033 8.33073 4.16699 8.33073Z" stroke="white" stroke-width="1.5" stroke-miterlimit="10" stroke-linecap="round" stroke-linejoin="round"/>
<path d="M14.167 8.33073H15.8337C17.5003 8.33073 18.3337 7.4974 18.3337 5.83073V4.16406C18.3337 2.4974 17.5003 1.66406 15.8337 1.66406H14.167C12.5003 1.66406 11.667 2.4974 11.667 4.16406V5.83073C11.667 7.4974 12.5003 8.33073 14.167 8.33073Z" stroke="white" stroke-width="1.5" stroke-miterlimit="10" stroke-linecap="round" stroke-linejoin="round"/>
<path d="M14.167 18.3307H15.8337C17.5003 18.3307 18.3337 17.4974 18.3337 15.8307V14.1641C18.3337 12.4974 17.5003 11.6641 15.8337 11.6641H14.167C12.5003 11.6641 11.667 12.4974 11.667 14.1641V15.8307C11.667 17.4974 12.5003 18.3307 14.167 18.3307Z" stroke="white" stroke-width="1.5" stroke-miterlimit="10" stroke-linecap="round" stroke-linejoin="round"/>
<path d="M4.16699 18.3307H5.83366C7.50033 18.3307 8.33366 17.4974 8.33366 15.8307V14.1641C8.33366 12.4974 7.50033 11.6641 5.83366 11.6641H4.16699C2.50033 11.6641 1.66699 12.4974 1.66699 14.1641V15.8307C1.66699 17.4974 2.50033 18.3307 4.16699 18.3307Z" stroke="white" stroke-width="1.5" stroke-miterlimit="10" stroke-linecap="round" stroke-linejoin="round"/>
</g>
<defs>
<clipPath id="clip0_42646_85645">
<rect width="20" height="20" fill="white"/>
</clipPath>
</defs>
</svg>
