<svg xmlns="http://www.w3.org/2000/svg" width="20" height="20" viewBox="0 0 20 20" fill="none">
  <path d="M9.58594 18.7857V9.94531" stroke="white" stroke-width="1.25" stroke-linejoin="round"/>
  <path d="M1.94531 5.57617V14.4198C1.94531 14.6039 2.03767 14.7881 2.2224 14.8917L8.77948 18.5748C9.27959 18.8556 9.89116 18.8556 10.3912 18.5748L16.9479 14.8917C17.1327 14.7881 17.2251 14.6039 17.2251 14.4198V5.5773" stroke="white" stroke-width="1.25" stroke-linecap="round" stroke-linejoin="round"/>
  <path d="M2.22247 6.05232L8.77948 9.73536C9.27959 10.0163 9.89116 10.0163 10.3912 9.73536L16.9479 6.05232C17.3175 5.84483 17.3175 5.31611 16.9479 5.10853L10.3912 1.4255C9.89116 1.14458 9.27959 1.14466 8.77948 1.4255L2.22247 5.10853C1.85293 5.31611 1.85293 5.84483 2.22247 6.05232Z" stroke="white" stroke-width="1.25" stroke-linecap="round" stroke-linejoin="round"/>
</svg>
