<svg width="48" height="16" viewBox="0 0 48 16" fill="none" xmlns="http://www.w3.org/2000/svg">
<rect width="48" height="16" rx="3" fill="#8697FF"/>
<path d="M7.42969 12.1992C6.73047 12.1992 6.12891 12.0684 5.625 11.8066C5.125 11.5449 4.74023 11.1816 4.4707 10.7168C4.20117 10.248 4.06641 9.70703 4.06641 9.09375V3.54492H5.12109V9.02344C5.12109 9.67188 5.32227 10.2012 5.72461 10.6113C6.13086 11.0215 6.69922 11.2266 7.42969 11.2266C8.16406 11.2266 8.73047 11.0215 9.12891 10.6113C9.52734 10.2012 9.72656 9.67188 9.72656 9.02344V3.54492H10.7812V9.09375C10.7812 9.70703 10.6465 10.248 10.377 10.7168C10.1113 11.1816 9.72852 11.5449 9.22852 11.8066C8.72852 12.0684 8.12891 12.1992 7.42969 12.1992ZM12.7969 14.1094V5.68359H13.8164V6.69141H13.9102C14.0391 6.45703 14.2012 6.25781 14.3965 6.09375C14.5918 5.92578 14.8145 5.79688 15.0645 5.70703C15.3145 5.61719 15.5859 5.57227 15.8789 5.57227C16.4141 5.57227 16.8789 5.70898 17.2734 5.98242C17.6719 6.25195 17.9805 6.63086 18.1992 7.11914C18.418 7.60742 18.5273 8.17969 18.5273 8.83594V8.84766C18.5273 9.50781 18.418 10.082 18.1992 10.5703C17.9805 11.0586 17.6719 11.4375 17.2734 11.707C16.8789 11.9766 16.4141 12.1113 15.8789 12.1113C15.5898 12.1113 15.3164 12.0664 15.0586 11.9766C14.8047 11.8828 14.5781 11.7539 14.3789 11.5898C14.1836 11.4258 14.0273 11.2305 13.9102 11.0039H13.8164V14.1094H12.7969ZM15.6445 11.209C16.0312 11.209 16.3613 11.1152 16.6348 10.9277C16.9082 10.7363 17.1172 10.4648 17.2617 10.1133C17.4102 9.75781 17.4844 9.33594 17.4844 8.84766V8.83594C17.4844 8.34375 17.4102 7.92188 17.2617 7.57031C17.1172 7.21875 16.9082 6.94922 16.6348 6.76172C16.3613 6.57031 16.0312 6.47461 15.6445 6.47461C15.2617 6.47461 14.9316 6.57031 14.6543 6.76172C14.377 6.95312 14.1641 7.22461 14.0156 7.57617C13.8672 7.92773 13.793 8.34766 13.793 8.83594V8.84766C13.793 9.33203 13.8672 9.75195 14.0156 10.1074C14.1641 10.459 14.377 10.7305 14.6543 10.9219C14.9316 11.1133 15.2617 11.209 15.6445 11.209ZM22.4531 12.1113C21.9219 12.1113 21.457 11.9766 21.0586 11.707C20.6602 11.4375 20.3516 11.0586 20.1328 10.5703C19.9141 10.0781 19.8047 9.50391 19.8047 8.84766V8.83594C19.8047 8.17578 19.9141 7.60156 20.1328 7.11328C20.3516 6.625 20.6582 6.24609 21.0527 5.97656C21.4512 5.70703 21.918 5.57227 22.4531 5.57227C22.8867 5.57227 23.2793 5.67383 23.6309 5.87695C23.9863 6.07617 24.25 6.34375 24.4219 6.67969H24.5156V3.17578H25.5352V12H24.5156V10.9922H24.4219C24.2305 11.3438 23.9648 11.6191 23.625 11.8184C23.2852 12.0137 22.8945 12.1113 22.4531 12.1113ZM22.6875 11.209C23.0703 11.209 23.4004 11.1133 23.6777 10.9219C23.9551 10.7305 24.168 10.459 24.3164 10.1074C24.4648 9.75195 24.5391 9.33203 24.5391 8.84766V8.83594C24.5391 8.34766 24.4648 7.92773 24.3164 7.57617C24.168 7.22461 23.9551 6.95312 23.6777 6.76172C23.4004 6.57031 23.0703 6.47461 22.6875 6.47461C22.3047 6.47461 21.9746 6.57031 21.6973 6.76172C21.4238 6.94922 21.2129 7.21875 21.0645 7.57031C20.9199 7.92188 20.8477 8.34375 20.8477 8.83594V8.84766C20.8477 9.33594 20.9199 9.75781 21.0645 10.1133C21.2129 10.4648 21.4238 10.7363 21.6973 10.9277C21.9746 11.1152 22.3047 11.209 22.6875 11.209ZM29.2266 12.1113C28.8281 12.1113 28.4688 12.0352 28.1484 11.8828C27.832 11.7305 27.5801 11.5137 27.3926 11.2324C27.209 10.9512 27.1172 10.6191 27.1172 10.2363V10.2246C27.1172 9.66211 27.3164 9.22266 27.7148 8.90625C28.1172 8.58594 28.6855 8.4043 29.4199 8.36133L31.7402 8.2207V9.03516L29.543 9.17578C29.0625 9.20312 28.7109 9.30273 28.4883 9.47461C28.2695 9.64648 28.1602 9.88867 28.1602 10.2012V10.2129C28.1602 10.5332 28.2812 10.7832 28.5234 10.9629C28.7656 11.1387 29.0703 11.2266 29.4375 11.2266C29.7852 11.2266 30.0938 11.1582 30.3633 11.0215C30.6328 10.8809 30.8438 10.6914 30.9961 10.4531C31.1523 10.2148 31.2305 9.94531 31.2305 9.64453V7.67578C31.2305 7.28516 31.1113 6.98828 30.873 6.78516C30.6387 6.57812 30.2852 6.47461 29.8125 6.47461C29.4336 6.47461 29.123 6.54297 28.8809 6.67969C28.6387 6.8125 28.4766 7.00195 28.3945 7.24805L28.3887 7.26562H27.3691L27.375 7.23047C27.4297 6.89844 27.5664 6.60938 27.7852 6.36328C28.0078 6.11328 28.2949 5.91992 28.6465 5.7832C28.998 5.64258 29.3984 5.57227 29.8477 5.57227C30.3633 5.57227 30.7988 5.65625 31.1543 5.82422C31.5137 5.99219 31.7852 6.23438 31.9688 6.55078C32.1562 6.86328 32.25 7.23828 32.25 7.67578V12H31.2305V11.0684H31.1367C31.0039 11.291 30.8418 11.4805 30.6504 11.6367C30.4629 11.793 30.25 11.9121 30.0117 11.9941C29.7734 12.0723 29.5117 12.1113 29.2266 12.1113ZM36.3574 12.0469C35.709 12.0469 35.2383 11.916 34.9453 11.6543C34.6562 11.3926 34.5117 10.9609 34.5117 10.3594V6.52734H33.5156V5.68359H34.5117V4.04883H35.5664V5.68359H36.9492V6.52734H35.5664V10.1016C35.5664 10.4727 35.6367 10.7402 35.7773 10.9043C35.918 11.0645 36.1523 11.1445 36.4805 11.1445C36.5703 11.1445 36.6465 11.1426 36.709 11.1387C36.7754 11.1348 36.8555 11.1289 36.9492 11.1211V11.9883C36.8516 12.0039 36.7539 12.0176 36.6562 12.0293C36.5586 12.041 36.459 12.0469 36.3574 12.0469ZM40.9688 12.1113C40.3672 12.1113 39.8496 11.9785 39.416 11.7129C38.9863 11.4473 38.6543 11.0723 38.4199 10.5879C38.1895 10.0996 38.0742 9.52539 38.0742 8.86523V8.85938C38.0742 8.20703 38.1895 7.63477 38.4199 7.14258C38.6543 6.65039 38.9844 6.26562 39.4102 5.98828C39.8359 5.71094 40.334 5.57227 40.9043 5.57227C41.4785 5.57227 41.9707 5.70508 42.3809 5.9707C42.7949 6.23633 43.1113 6.60742 43.3301 7.08398C43.5527 7.55664 43.6641 8.10742 43.6641 8.73633V9.13477H38.6016V8.32031H43.1426L42.6387 9.06445V8.66016C42.6387 8.16406 42.5645 7.75586 42.416 7.43555C42.2676 7.11523 42.0625 6.87695 41.8008 6.7207C41.5391 6.56055 41.2383 6.48047 40.8984 6.48047C40.5586 6.48047 40.2539 6.56445 39.9844 6.73242C39.7188 6.89648 39.5078 7.14062 39.3516 7.46484C39.1953 7.78906 39.1172 8.1875 39.1172 8.66016V9.06445C39.1172 9.51367 39.1934 9.89844 39.3457 10.2188C39.498 10.5352 39.7148 10.7793 39.9961 10.9512C40.2773 11.1191 40.6094 11.2031 40.9922 11.2031C41.2773 11.2031 41.5254 11.1641 41.7363 11.0859C41.9473 11.0078 42.1211 10.9082 42.2578 10.7871C42.3945 10.666 42.4902 10.543 42.5449 10.418L42.5684 10.3652H43.5879L43.5762 10.4121C43.5215 10.627 43.4238 10.8359 43.2832 11.0391C43.1465 11.2383 42.9688 11.4199 42.75 11.584C42.5312 11.7441 42.2715 11.873 41.9707 11.9707C41.6738 12.0645 41.3398 12.1113 40.9688 12.1113Z" fill="white"/>
</svg>
