<svg width="32" height="16" viewBox="0 0 32 16" fill="none" xmlns="http://www.w3.org/2000/svg">
<rect width="32" height="16" rx="3" fill="#8697FF"/>
<path d="M4.07812 12H5.12109V5.44336H5.66016L4.95703 5.07422L9.80273 12H10.8281V3.54492H9.78516V10.125H9.24609L9.94922 10.4941L5.10352 3.54492H4.07812V12ZM15.4336 12.1113C15.8047 12.1113 16.1387 12.0645 16.4355 11.9707C16.7363 11.873 16.9961 11.7441 17.2148 11.584C17.4336 11.4199 17.6113 11.2383 17.748 11.0391C17.8887 10.8359 17.9863 10.627 18.041 10.4121L18.0527 10.3652H17.0332L17.0098 10.418C16.9551 10.543 16.8594 10.666 16.7227 10.7871C16.5859 10.9082 16.4121 11.0078 16.2012 11.0859C15.9902 11.1641 15.7422 11.2031 15.457 11.2031C15.0742 11.2031 14.7422 11.1191 14.4609 10.9512C14.1797 10.7793 13.9629 10.5352 13.8105 10.2188C13.6582 9.89844 13.582 9.51367 13.582 9.06445V8.66016C13.582 8.1875 13.6602 7.78906 13.8164 7.46484C13.9727 7.14062 14.1836 6.89648 14.4492 6.73242C14.7188 6.56445 15.0234 6.48047 15.3633 6.48047C15.7031 6.48047 16.0039 6.56055 16.2656 6.7207C16.5273 6.87695 16.7324 7.11523 16.8809 7.43555C17.0293 7.75586 17.1035 8.16406 17.1035 8.66016V9.06445L17.6074 8.32031H13.0664V9.13477H18.1289V8.73633C18.1289 8.10742 18.0176 7.55664 17.7949 7.08398C17.5762 6.60742 17.2598 6.23633 16.8457 5.9707C16.4355 5.70508 15.9434 5.57227 15.3691 5.57227C14.7988 5.57227 14.3008 5.71094 13.875 5.98828C13.4492 6.26562 13.1191 6.65039 12.8848 7.14258C12.6543 7.63477 12.5391 8.20703 12.5391 8.85938V8.86523C12.5391 9.52539 12.6543 10.0996 12.8848 10.5879C13.1191 11.0723 13.4512 11.4473 13.8809 11.7129C14.3145 11.9785 14.832 12.1113 15.4336 12.1113ZM20.9297 12H21.9492L23.3555 7.11328H23.4492L24.8613 12H25.8867L27.6562 5.68359H26.6426L25.4004 10.7344H25.3066L23.8945 5.68359H22.9277L21.5156 10.7344H21.4219L20.1797 5.68359H19.1602L20.9297 12Z" fill="white"/>
</svg>
