<svg width="24" height="24" viewBox="0 0 24 24" fill="none" xmlns="http://www.w3.org/2000/svg">
<path d="M7.5 6.5H3.33333C2.8731 6.5 2.5 6.8731 2.5 7.33333V11.5C2.5 11.9602 2.8731 12.3333 3.33333 12.3333H7.5C7.96025 12.3333 8.33333 11.9602 8.33333 11.5V7.33333C8.33333 6.8731 7.96025 6.5 7.5 6.5Z" stroke="white" stroke-width="1.25" stroke-linejoin="round"/>
<path d="M7.5 15.668H3.33333C2.8731 15.668 2.5 16.0411 2.5 16.5013V20.668C2.5 21.1282 2.8731 21.5013 3.33333 21.5013H7.5C7.96025 21.5013 8.33333 21.1282 8.33333 20.668V16.5013C8.33333 16.0411 7.96025 15.668 7.5 15.668Z" stroke="white" stroke-width="1.25" stroke-linejoin="round"/>
<path d="M13.9926 5.88243L11.0463 8.82871C10.7208 9.15416 10.7208 9.68179 11.0463 10.0072L13.9926 12.9535C14.318 13.2789 14.8456 13.2789 15.1711 12.9535L18.1174 10.0072C18.4428 9.68178 18.4428 9.15416 18.1174 8.82871L15.1711 5.88243C14.8456 5.557 14.318 5.55699 13.9926 5.88243Z" stroke="white" stroke-width="1.25" stroke-linejoin="round"/>
<path d="M16.668 15.668H12.5013C12.0411 15.668 11.668 16.0411 11.668 16.5013V20.668C11.668 21.1282 12.0411 21.5013 12.5013 21.5013H16.668C17.1282 21.5013 17.5013 21.1282 17.5013 20.668V16.5013C17.5013 16.0411 17.1282 15.668 16.668 15.668Z" stroke="white" stroke-width="1.25" stroke-linejoin="round"/>
<circle cx="21" cy="3" r="3" fill="#8697FF"/>
</svg>
