<svg xmlns="http://www.w3.org/2000/svg" width="20" height="21" viewBox="0 0 20 21" fill="none">
  <path d="M7.5 2.65625H3.33333C2.8731 2.65625 2.5 3.02935 2.5 3.48958V7.65625C2.5 8.1165 2.8731 8.48958 3.33333 8.48958H7.5C7.96025 8.48958 8.33333 8.1165 8.33333 7.65625V3.48958C8.33333 3.02935 7.96025 2.65625 7.5 2.65625Z" stroke="white" stroke-width="1.25" stroke-linejoin="round"/>
  <path d="M7.5 11.8242H3.33333C2.8731 11.8242 2.5 12.1973 2.5 12.6576V16.8242C2.5 17.2845 2.8731 17.6576 3.33333 17.6576H7.5C7.96025 17.6576 8.33333 17.2845 8.33333 16.8242V12.6576C8.33333 12.1973 7.96025 11.8242 7.5 11.8242Z" stroke="white" stroke-width="1.25" stroke-linejoin="round"/>
  <path d="M13.9926 2.03868L11.0463 4.98496C10.7208 5.31041 10.7208 5.83804 11.0463 6.16347L13.9926 9.10975C14.318 9.4352 14.8456 9.4352 15.1711 9.10975L18.1174 6.16347C18.4428 5.83803 18.4428 5.31041 18.1174 4.98496L15.1711 2.03868C14.8456 1.71325 14.318 1.71324 13.9926 2.03868Z" stroke="white" stroke-width="1.25" stroke-linejoin="round"/>
  <path d="M16.668 11.8242H12.5013C12.0411 11.8242 11.668 12.1973 11.668 12.6576V16.8242C11.668 17.2845 12.0411 17.6576 12.5013 17.6576H16.668C17.1282 17.6576 17.5013 17.2845 17.5013 16.8242V12.6576C17.5013 12.1973 17.1282 11.8242 16.668 11.8242Z" stroke="white" stroke-width="1.25" stroke-linejoin="round"/>
</svg>
