<svg width="20" height="20" viewBox="0 0 20 20" fill="none" xmlns="http://www.w3.org/2000/svg">
  <path
    d="M16.2388 17.5138H3.61979C2.70312 17.5138 1.95312 16.7638 1.95312 15.8471V4.29948C1.95312 3.38281 2.70312 2.63281 3.61979 2.63281H16.2388C17.1555 2.63281 17.9055 3.38281 17.9055 4.29948V15.8471C17.9055 16.7638 17.1555 17.5138 16.2388 17.5138Z"
    stroke="white" stroke-width="1.25" stroke-linecap="round" stroke-linejoin="round" />
  <path d="M17.5467 15.314L13.7789 12.3624L8.38207 12.979L5.60429 11.1406L2.42969 12.979"
    stroke="white" stroke-width="1.25" stroke-linecap="round" stroke-linejoin="round" />
  <path
    d="M14.0195 5.60938C13.6963 5.60938 13.3863 5.73778 13.1577 5.96634C12.9292 6.1949 12.8008 6.50489 12.8008 6.82812C12.8008 7.15136 12.9292 7.46135 13.1577 7.68991C13.3863 7.91847 13.6963 8.04688 14.0195 8.04688C14.3428 8.04688 14.6528 7.91847 14.8813 7.68991C15.1099 7.46135 15.2383 7.15136 15.2383 6.82812C15.2383 6.50489 15.1099 6.1949 14.8813 5.96634C14.6528 5.73778 14.3428 5.60938 14.0195 5.60938Z"
    fill="white" />
</svg>
