<svg width="22" height="22" viewBox="0 0 22 22" fill="none" xmlns="http://www.w3.org/2000/svg">
<path d="M2.5 9.59115V14.3995C2.5 16.1661 2.5 16.1661 4.16667 17.2911L8.75 19.9411C9.44167 20.3411 10.5667 20.3411 11.25 19.9411L15.8333 17.2911C17.5 16.1661 17.5 16.1661 17.5 14.4078V9.59115C17.5 7.83281 17.5 7.83281 15.8333 6.70781L11.25 4.05781C10.5667 3.65781 9.44167 3.65781 8.75 4.05781L4.16667 6.70781C2.5 7.83281 2.5 7.83281 2.5 9.59115Z" stroke="white" stroke-width="1.25" stroke-linecap="round" stroke-linejoin="round"/>
<path d="M10 14.5C11.3807 14.5 12.5 13.3807 12.5 12C12.5 10.6192 11.3807 9.5 10 9.5C8.61925 9.5 7.5 10.6192 7.5 12C7.5 13.3807 8.61925 14.5 10 14.5Z" stroke="white" stroke-width="1.25" stroke-linecap="round" stroke-linejoin="round"/>
<circle cx="19" cy="3" r="3" fill="#8697FF"/>
</svg>
