<svg width="21" height="21" viewBox="0 0 21 21" fill="none" xmlns="http://www.w3.org/2000/svg">
<g>
<path d="M2.625 7.9707V13.0194C2.625 14.8744 2.625 14.8744 4.375 16.0557L9.1875 18.8382C9.91375 19.2582 11.095 19.2582 11.8125 18.8382L16.625 16.0557C18.375 14.8744 18.375 14.8744 18.375 13.0282V7.9707C18.375 6.12445 18.375 6.12445 16.625 4.9432L11.8125 2.1607C11.095 1.7407 9.91375 1.7407 9.1875 2.1607L4.375 4.9432C2.625 6.12445 2.625 6.12445 2.625 7.9707Z" stroke="white" stroke-width="1.5" stroke-linecap="round" stroke-linejoin="round"/>
<path d="M10.5 13.125C11.9498 13.125 13.125 11.9498 13.125 10.5C13.125 9.05021 11.9498 7.875 10.5 7.875C9.05021 7.875 7.875 9.05021 7.875 10.5C7.875 11.9498 9.05021 13.125 10.5 13.125Z" stroke="white" stroke-width="1.5" stroke-linecap="round" stroke-linejoin="round"/>
</g>
</svg>
