<svg width="14" height="13" viewBox="0 0 14 13" fill="none" xmlns="http://www.w3.org/2000/svg">
<path d="M13.8412 6.90826C14.3876 5.68345 11.6863 2.26154 9.10555 0.835902C7.47884 -0.268523 5.78381 -0.116794 5.44052 0.368132C4.68712 1.43235 7.93522 2.33411 10.1075 3.3864C9.64053 3.58989 9.20049 3.95507 8.94173 4.42209C8.13189 3.53497 6.35441 2.77104 4.26871 3.3864C2.86321 3.80108 1.69513 4.77869 1.24367 6.25527C1.13398 6.20636 1.01252 6.17918 0.884742 6.17918C0.396113 6.17918 0 6.57663 0 7.06691C0 7.55718 0.396113 7.95463 0.884742 7.95463C0.975313 7.95463 1.2585 7.89368 1.2585 7.89368L5.78381 7.92658C3.97404 10.8073 2.54381 11.2284 2.54381 11.7275C2.54381 12.2265 3.91229 12.0913 4.42612 11.9053C6.88589 11.0147 9.52781 8.23931 9.98116 7.44036C11.885 7.67869 13.4849 7.70688 13.8412 6.90826Z" fill="#D9DEE5"/>
<path fill-rule="evenodd" clip-rule="evenodd" d="M10.1001 3.37946C10.104 3.3812 10.108 3.38293 10.112 3.38467C10.2127 3.34488 10.1964 3.19566 10.1687 3.07849C10.1052 2.80917 9.00876 1.72283 7.97915 1.23626C6.57674 0.573498 5.5439 0.607385 5.39062 0.912636C5.68457 1.49731 7.00363 2.04667 8.381 2.62031C8.97134 2.86617 9.57239 3.11649 10.108 3.37597C10.1054 3.37713 10.1027 3.37829 10.1001 3.37946Z" fill="#D9DEE5"/>
<path fill-rule="evenodd" clip-rule="evenodd" d="M8.32352 9.30297C8.03984 9.19419 7.71938 9.0944 7.35507 9.00384C7.74359 8.3063 7.82512 7.27366 7.45819 6.62076C6.94324 5.70449 6.29683 5.2168 4.79472 5.2168C3.96855 5.2168 1.74416 5.49601 1.70467 7.35915C1.70052 7.55504 1.70458 7.73455 1.71876 7.89959L5.77926 7.92912C5.23206 8.80012 4.71956 9.44626 4.2708 9.93769C4.81002 10.0763 5.25499 10.1927 5.6635 10.2996C6.05106 10.4009 6.40581 10.4937 6.77709 10.5888C7.33711 10.1793 7.86355 9.73285 8.32352 9.30297Z" fill="#D9DEE5"/>
<path d="M1.191 7.70627C1.35693 9.1216 2.15859 9.67627 3.79671 9.84042C5.43483 10.0046 6.37448 9.89445 7.62547 10.0087C8.67029 10.104 9.60319 10.6383 9.94928 10.4536C10.2607 10.2875 10.0865 9.68722 9.66972 9.30211C9.12948 8.80291 8.38178 8.45583 7.06616 8.33265C7.32835 7.61236 7.25488 6.60242 6.84768 6.05295C6.25891 5.25847 5.17215 4.89927 3.79671 5.05621C2.35969 5.22017 0.98275 5.93004 1.191 7.70627Z" fill="#D9DEE5"/>
</svg>
