<svg width="16" height="16" viewBox="0 0 16 16" fill="none" xmlns="http://www.w3.org/2000/svg">
<path d="M10.3822 3.78223C10.6613 3.52022 11.0396 3.37305 11.4341 3.37305C11.8285 3.37305 12.2069 3.52022 12.4859 3.78223L13.5646 4.79415C13.8434 5.05658 14 5.41228 14 5.78314C14 6.154 13.8434 6.5097 13.5646 6.77213L6.61824 13.3018C6.48002 13.4317 6.31592 13.5348 6.13532 13.6051C5.95473 13.6754 5.76117 13.7115 5.5657 13.7115H3.49637C3.36472 13.7115 3.23847 13.6624 3.14538 13.5749C3.0523 13.4874 3 13.3687 3 13.245V11.2999C3 10.929 3.15675 10.573 3.43587 10.3106L10.3822 3.78223ZM11.7847 4.44134C11.6916 4.35405 11.5656 4.30503 11.4341 4.30503C11.3026 4.30503 11.1765 4.35405 11.0835 4.44134L10.1512 5.31756L11.9305 6.98989L12.8627 6.11366C12.9555 6.0262 13.0077 5.90768 13.0077 5.78411C13.0077 5.66054 12.9555 5.54202 12.8627 5.45456L11.7847 4.44134ZM11.2285 7.649L9.45 5.97732L4.13779 10.9697C4.09165 11.013 4.05502 11.0643 4.03001 11.1209C4.005 11.1774 3.9921 11.2381 3.99204 11.2993V12.7791H5.5657C5.63085 12.779 5.69536 12.7669 5.75552 12.7434C5.81568 12.7199 5.87032 12.6854 5.91632 12.6421L11.2285 7.649Z" fill="#8697FF"/>
</svg>
