<svg width="16" height="16" viewBox="0 0 16 16" fill="none" xmlns="http://www.w3.org/2000/svg">
<path d="M6.0933 14.3942C4.97626 14.0616 3.98196 13.4442 3.19465 12.6261C3.48836 12.278 3.66536 11.8282 3.66536 11.3371C3.66536 10.2325 2.76993 9.33711 1.66536 9.33711C1.59855 9.33711 1.53249 9.34041 1.46736 9.34681C1.37863 8.91298 1.33203 8.46384 1.33203 8.00378C1.33203 7.30691 1.43895 6.63501 1.63729 6.00358C1.64663 6.00371 1.65599 6.00378 1.66536 6.00378C2.76993 6.00378 3.66536 5.10835 3.66536 4.00378C3.66536 3.68668 3.59156 3.38685 3.46023 3.12045C4.2312 2.40358 5.1722 1.86709 6.21606 1.57812C6.54683 2.22648 7.22093 2.67046 7.9987 2.67046C8.77646 2.67046 9.45056 2.22648 9.78133 1.57812C10.8252 1.86709 11.7662 2.40358 12.5372 3.12045C12.4058 3.38685 12.332 3.68668 12.332 4.00378C12.332 5.10835 13.2275 6.00378 14.332 6.00378C14.3414 6.00378 14.3508 6.00371 14.3601 6.00358C14.5584 6.63501 14.6654 7.30691 14.6654 8.00378C14.6654 8.46384 14.6188 8.91298 14.53 9.34681C14.4649 9.34041 14.3989 9.33711 14.332 9.33711C13.2275 9.33711 12.332 10.2325 12.332 11.3371C12.332 11.8282 12.509 12.278 12.8027 12.6261C12.0154 13.4442 11.0211 14.0616 9.9041 14.3942C9.6463 13.5877 8.8907 13.0038 7.9987 13.0038C7.1067 13.0038 6.3511 13.5877 6.0933 14.3942Z" stroke="white" stroke-linejoin="round"/>
<path d="M8.0013 10.3307C9.28997 10.3307 10.3346 9.28606 10.3346 7.9974C10.3346 6.70873 9.28997 5.66406 8.0013 5.66406C6.71264 5.66406 5.66797 6.70873 5.66797 7.9974C5.66797 9.28606 6.71264 10.3307 8.0013 10.3307Z" stroke="white" stroke-linejoin="round"/>
</svg>
