<svg width="20" height="20" viewBox="0 0 20 20" fill="none" xmlns="http://www.w3.org/2000/svg">
<path d="M10.0013 18.3346C12.3025 18.3346 14.3858 17.4019 15.8938 15.8938C17.4019 14.3858 18.3346 12.3025 18.3346 10.0013C18.3346 7.70014 17.4019 5.6168 15.8938 4.10874C14.3858 2.60071 12.3025 1.66797 10.0013 1.66797C7.70014 1.66797 5.6168 2.60071 4.10874 4.10874C2.60071 5.6168 1.66797 7.70014 1.66797 10.0013C1.66797 12.3025 2.60071 14.3858 4.10874 15.8938C5.6168 17.4019 7.70014 18.3346 10.0013 18.3346Z" stroke="white" stroke-width="1.25" stroke-linejoin="round"/>
<path fill-rule="evenodd" clip-rule="evenodd" d="M9.9987 15.4154C10.574 15.4154 11.0404 14.949 11.0404 14.3737C11.0404 13.7984 10.574 13.332 9.9987 13.332C9.42341 13.332 8.95703 13.7984 8.95703 14.3737C8.95703 14.949 9.42341 15.4154 9.9987 15.4154Z" fill="white"/>
<path d="M10 5V11.6667" stroke="white" stroke-width="1.25" stroke-linecap="round" stroke-linejoin="round"/>
</svg>
