<svg width="92" height="78" viewBox="0 0 92 78" fill="none" xmlns="http://www.w3.org/2000/svg">
<g opacity="0.1">
<path d="M91.5298 44.6303C95.1432 36.7175 77.2796 14.6105 60.2137 5.40028C49.4565 -1.73477 38.2475 -0.754538 35.9774 2.37829C30.9953 9.25359 52.4745 15.0793 66.8394 21.8776C63.7515 23.1922 60.8416 25.5514 59.1304 28.5685C53.775 22.8374 42.0208 17.9021 28.2284 21.8776C18.934 24.5566 11.2096 30.8724 8.22423 40.4117C7.49882 40.0957 6.69567 39.9201 5.85067 39.9201C2.61944 39.9201 0 42.4878 0 45.6552C0 48.8226 2.61944 51.3903 5.85067 51.3903C6.4496 51.3903 8.32226 50.9965 8.32226 50.9965L38.2475 51.209C26.2798 69.8196 16.8218 72.5401 16.8218 75.7643C16.8218 78.9885 25.8714 78.1148 29.2693 76.913C45.5354 71.1598 63.006 53.2294 66.004 48.0679C78.5935 49.6076 89.1738 49.7897 91.5298 44.6303Z" fill="url(#paint0_linear_5046_10833)"/>
<path fill-rule="evenodd" clip-rule="evenodd" d="M66.8301 21.8755C66.8336 21.8771 66.8371 21.8786 66.8406 21.8801C67.5064 21.623 67.3987 20.659 67.2159 19.902C66.7957 18.1621 59.5452 11.1439 52.7366 8.0004C43.4578 3.7165 36.6255 3.93786 35.6174 5.91273C37.5061 9.70994 46.2682 13.275 55.4193 16.9983C59.3196 18.5852 63.2905 20.2009 66.8301 21.8755Z" fill="url(#paint1_linear_5046_10833)"/>
<path fill-rule="evenodd" clip-rule="evenodd" d="M55.0658 60.0926C53.1894 59.3896 51.0696 58.7446 48.6597 58.1594C51.2289 53.653 51.768 46.9817 49.3416 42.7637C45.9363 36.8442 41.6617 33.6935 31.7284 33.6935C26.2651 33.6935 11.5555 35.4973 11.2944 47.534C11.267 48.7972 11.2937 49.9549 11.387 51.0196L38.2481 51.2104C34.6271 56.8413 31.2358 61.0175 28.2668 64.1932C31.8312 65.0885 34.7729 65.8402 37.4735 66.5303C40.0367 67.1853 42.3827 67.7848 44.8382 68.399C48.5418 65.754 52.0235 62.8699 55.0658 60.0926Z" fill="url(#paint2_linear_5046_10833)"/>
<path d="M7.86559 49.7823C8.96289 58.926 14.2642 62.5094 25.0968 63.5699C35.9295 64.6303 42.1433 63.9189 50.4159 64.6567C57.3251 65.2729 63.4942 68.7242 65.7829 67.5315C67.8426 66.4581 66.6902 62.5802 63.9342 60.0921C60.3617 56.8671 55.4172 54.6248 46.7172 53.829C48.451 49.1756 47.9652 42.651 45.2724 39.1012C41.379 33.9685 34.1924 31.6479 25.0968 32.6618C15.594 33.7211 6.4885 38.3071 7.86559 49.7823Z" fill="url(#paint3_linear_5046_10833)"/>
</g>
<defs>
<linearGradient id="paint0_linear_5046_10833" x1="27.1462" y1="37.6231" x2="90.5596" y2="55.9684" gradientUnits="userSpaceOnUse">
<stop stop-color="#8697FF"/>
<stop offset="1" stop-color="#ABB7FF"/>
</linearGradient>
<linearGradient id="paint1_linear_5046_10833" x1="80.0417" y1="36.4384" x2="35.0653" y2="-9.55729" gradientUnits="userSpaceOnUse">
<stop stop-color="#8697FF"/>
<stop offset="1" stop-color="#5156D8" stop-opacity="0"/>
</linearGradient>
<linearGradient id="paint2_linear_5046_10833" x1="56.343" y1="61.6635" x2="12.6972" y2="36.0641" gradientUnits="userSpaceOnUse">
<stop stop-color="#465EED"/>
<stop offset="1" stop-color="#8697FF" stop-opacity="0"/>
</linearGradient>
<linearGradient id="paint3_linear_5046_10833" x1="30.9433" y1="37.1589" x2="60.0116" y2="74.8376" gradientUnits="userSpaceOnUse">
<stop stop-color="#8898FF"/>
<stop offset="0.983895" stop-color="#6277F1"/>
</linearGradient>
</defs>
</svg>
