<svg width="20" height="20" viewBox="0 0 20 20" fill="none" xmlns="http://www.w3.org/2000/svg">
<path d="M13.9566 14.1363C12.9011 15.1917 11.443 15.8445 9.83242 15.8445C6.61127 15.8445 4 13.2333 4 10.0121C4 6.79096 6.61127 4.17969 9.83242 4.17969C11.443 4.17969 12.9011 4.8325 13.9566 5.88797C14.4938 6.4252 15.6648 7.74395 15.6648 7.74395" stroke="white" stroke-width="1.5" stroke-linecap="round" stroke-linejoin="round"/>
<path d="M15.6636 4V7.74954H11.9141" stroke="white" stroke-width="1.5" stroke-linecap="round" stroke-linejoin="round"/>
<path d="M10 14.5C10 12.0147 12.0147 10 14.5 10C16.9853 10 19 12.0147 19 14.5C19 16.9853 16.9853 19 14.5 19C12.0147 19 10 16.9853 10 14.5Z" fill="#27C193"/>
<path d="M14.489 17.3472V11.8008" stroke="white" stroke-width="1.16131" stroke-linecap="round" stroke-linejoin="round"/>
<path d="M12.1753 14.1118L14.4863 11.8008L16.7973 14.1118" stroke="white" stroke-width="1.16131" stroke-linecap="round" stroke-linejoin="round"/>
</svg>
