<svg width="20" height="20" viewBox="0 0 20 20" fill="none" xmlns="http://www.w3.org/2000/svg">
<path d="M10 14C10 11.2386 12.2386 9 15 9C17.7614 9 20 11.2386 20 14C20 16.7614 17.7614 19 15 19C12.2386 19 10 16.7614 10 14Z" fill="#27C193"/>
<path d="M8.66797 17.6654H2.91797C2.22761 17.6654 1.66797 17.1057 1.66797 16.4154V2.58203C1.66797 1.89168 2.22761 1.33203 2.91797 1.33203H17.0846C17.775 1.33203 18.3346 1.89168 18.3346 2.58203V8.60653" stroke="white" stroke-width="1.5" stroke-linecap="round" stroke-linejoin="round"/>
<path d="M14.9878 17.1627V11" stroke="white" stroke-width="1.29034" stroke-linecap="round" stroke-linejoin="round"/>
<path d="M12.4165 13.5678L14.9843 11L17.5521 13.5678" stroke="white" stroke-width="1.29034" stroke-linecap="round" stroke-linejoin="round"/>
<path d="M1.66797 2.58203C1.66797 1.89168 2.22761 1.33203 2.91797 1.33203H17.0846C17.775 1.33203 18.3346 1.89168 18.3346 2.58203V6.33203H1.66797V2.58203Z" stroke="white" stroke-width="1.5"/>
<path d="M3.33333 3.83464C3.33333 3.3744 3.70643 3.0013 4.16667 3.0013C4.6269 3.0013 5 3.3744 5 3.83464C5 4.29487 4.6269 4.66797 4.16667 4.66797C3.70643 4.66797 3.33333 4.29487 3.33333 3.83464Z" fill="white"/>
<path d="M5.83333 3.83464C5.83333 3.3744 6.20643 3.0013 6.66667 3.0013C7.1269 3.0013 7.5 3.3744 7.5 3.83464C7.5 4.29487 7.1269 4.66797 6.66667 4.66797C6.20643 4.66797 5.83333 4.29487 5.83333 3.83464Z" fill="white"/>
</svg>
