<svg width="60" height="52" viewBox="0 0 60 52" fill="none" xmlns="http://www.w3.org/2000/svg">
<path fill-rule="evenodd" clip-rule="evenodd" d="M9.51169 16.2656C8.42219 16.2656 7.41833 16.8563 6.88922 17.8087L0 30.2093H3.08012L9.29517 18.5898H50.3515L56.6894 30.2093H59.6479L52.7587 17.8087C52.2296 16.8563 51.2257 16.2656 50.1362 16.2656H9.51169Z" fill="white" fill-opacity="0.15"/>
<path fill-rule="evenodd" clip-rule="evenodd" d="M29.8243 35.6329C32.6051 35.6329 34.8595 33.3786 34.8595 30.5977C34.8595 30.4676 34.8545 30.3386 34.8449 30.2109H59.6479V48.9997C59.6479 50.6565 58.3047 51.9997 56.6479 51.9997H3C1.34314 51.9997 0 50.6565 0 48.9997V30.2109H24.8037C24.794 30.3386 24.7891 30.4676 24.7891 30.5977C24.7891 33.3786 27.0434 35.6329 29.8243 35.6329Z" fill="white" fill-opacity="0.15"/>
<rect x="12.7109" y="1.54688" width="2.32394" height="10.8451" rx="1.16197" transform="rotate(-30 12.7109 1.54688)" fill="white" fill-opacity="0.15"/>
<rect x="28.6602" width="2.32394" height="10.8451" rx="1.16197" fill="white" fill-opacity="0.15"/>
<rect x="44.9219" width="2.32394" height="10.8451" rx="1.16197" transform="rotate(30 44.9219 0)" fill="white" fill-opacity="0.15"/>
</svg>
