<svg width="280" height="100" viewBox="0 0 280 100" fill="none" xmlns="http://www.w3.org/2000/svg">
<path d="M132.538 33.6004C137.548 33.6004 141.387 34.8754 144.054 37.4254C146.757 39.9379 148.109 43.3129 148.109 47.5504C148.109 49.9129 147.622 52.2379 146.649 54.5254C145.712 56.8129 144.108 58.6316 141.837 59.9816L151.083 75.0004H141.945L133.565 61.8379H128.32V75.0004H120.48V33.6004H132.538ZM133.889 53.9629C135.475 53.9629 136.701 53.6254 137.566 52.9504C138.467 52.2379 139.098 51.4129 139.458 50.4754C139.819 49.5004 139.999 48.6191 139.999 47.8316C139.999 47.3816 139.927 46.8191 139.783 46.1441C139.674 45.4316 139.422 44.7191 139.026 44.0066C138.629 43.2941 138.016 42.6941 137.187 42.2066C136.394 41.7191 135.313 41.4754 133.943 41.4754H128.32V53.9629H133.889Z" fill="#8697FF"/>
<path d="M164.629 75.6754C162.43 75.6754 160.43 75.2254 158.628 74.3254C156.861 73.3879 155.456 71.9629 154.41 70.0504C153.365 68.1379 152.842 65.7004 152.842 62.7379C152.842 59.9629 153.383 57.5629 154.464 55.5379C155.546 53.5129 156.97 51.9566 158.736 50.8691C160.502 49.7441 162.376 49.1816 164.359 49.1816C166.702 49.1816 168.468 49.5754 169.657 50.3629C170.883 51.1504 171.856 52.0129 172.577 52.9504L173.064 50.4191H180.093V75.0004H172.523V71.9629C172.163 72.3379 171.622 72.8254 170.901 73.4254C170.216 74.0254 169.351 74.5504 168.306 75.0004C167.26 75.4504 166.035 75.6754 164.629 75.6754ZM166.792 69.2629C169.423 69.2629 171.334 68.0254 172.523 65.5504V59.5316C172.091 58.3316 171.334 57.3754 170.252 56.6629C169.207 55.9504 167.963 55.5941 166.522 55.5941C164.9 55.5941 163.494 56.2316 162.304 57.5066C161.115 58.7441 160.52 60.3566 160.52 62.3441C160.52 63.6566 160.808 64.8379 161.385 65.8879C161.962 66.9379 162.719 67.7629 163.656 68.3629C164.629 68.9629 165.674 69.2629 166.792 69.2629Z" fill="#8697FF"/>
<path d="M201.788 75.6754C199.985 75.6754 198.435 75.3942 197.138 74.8317C195.876 74.2692 194.777 73.5004 193.84 72.5254V75.0004H186.27V30.6191H193.786V52.1066C194.723 51.2816 195.966 50.5879 197.516 50.0254C199.066 49.4629 200.832 49.1816 202.815 49.1816C204.869 49.1816 206.744 49.6879 208.438 50.7004C210.132 51.7129 211.484 53.1941 212.493 55.1441C213.538 57.0566 214.061 59.4004 214.061 62.1754C214.061 64.9504 213.484 67.3504 212.331 69.3754C211.213 71.4004 209.717 72.9566 207.843 74.0442C205.969 75.1317 203.95 75.6754 201.788 75.6754ZM200.111 69.0379C201.229 69.0379 202.256 68.7379 203.193 68.1379C204.167 67.5379 204.941 66.7129 205.518 65.6629C206.095 64.6129 206.383 63.4316 206.383 62.1191C206.383 60.8066 206.095 59.6441 205.518 58.6316C204.941 57.6191 204.167 56.8316 203.193 56.2691C202.256 55.6691 201.229 55.3691 200.111 55.3691C198.634 55.3691 197.336 55.7254 196.219 56.4379C195.101 57.1504 194.308 58.1066 193.84 59.3066V65.3254C195.137 67.8004 197.228 69.0379 200.111 69.0379Z" fill="#8697FF"/>
<path d="M233.905 75.6754C232.103 75.6754 230.553 75.3942 229.255 74.8317C227.994 74.2692 226.894 73.5004 225.957 72.5254V75.0004H218.388V30.6191H225.903V52.1066C226.84 51.2816 228.084 50.5879 229.634 50.0254C231.184 49.4629 232.95 49.1816 234.932 49.1816C236.987 49.1816 238.861 49.6879 240.555 50.7004C242.249 51.7129 243.601 53.1941 244.61 55.1441C245.656 57.0566 246.178 59.4004 246.178 62.1754C246.178 64.9504 245.602 67.3504 244.448 69.3754C243.331 71.4004 241.835 72.9566 239.961 74.0442C238.086 75.1317 236.068 75.6754 233.905 75.6754ZM232.229 69.0379C233.346 69.0379 234.374 68.7379 235.311 68.1379C236.284 67.5379 237.059 66.7129 237.636 65.6629C238.212 64.6129 238.501 63.4316 238.501 62.1191C238.501 60.8066 238.212 59.6441 237.636 58.6316C237.059 57.6191 236.284 56.8316 235.311 56.2691C234.374 55.6691 233.346 55.3691 232.229 55.3691C230.751 55.3691 229.453 55.7254 228.336 56.4379C227.219 57.1504 226.426 58.1066 225.957 59.3066V65.3254C227.255 67.8004 229.345 69.0379 232.229 69.0379Z" fill="#8697FF"/>
<path d="M252.397 86.8129L258.074 73.7066L247.153 50.4191H255.641L261.859 64.9316L268.131 50.4191H274.944L259.696 86.8129H252.397Z" fill="#8697FF"/>
<path d="M93.1592 55.9191C96.7384 47.6005 79.0439 24.3598 62.1396 14.6772C51.4843 7.17626 40.3815 8.20677 38.1328 11.5003C33.1979 18.7281 54.4737 24.8526 68.7026 31.9995C65.6439 33.3816 62.7616 35.8618 61.0666 39.0336C55.7619 33.0086 44.119 27.8202 30.4572 31.9995C21.2508 34.8159 13.5996 41.4556 10.6425 51.4841C9.92391 51.1519 9.12836 50.9673 8.29137 50.9673C5.09073 50.9673 2.49609 53.6667 2.49609 56.9965C2.49609 60.3263 5.09073 63.0257 8.29137 63.0257C8.88463 63.0257 10.7396 62.6117 10.7396 62.6117L40.3815 62.8352C28.527 82.4001 19.1587 85.2601 19.1587 88.6497C19.1587 92.0392 28.1225 91.1207 31.4882 89.8573C47.6003 83.809 64.9055 64.9592 67.8751 59.5329C80.3454 61.1516 90.8255 61.343 93.1592 55.9191Z" fill="url(#paint0_linear_22935_7324)"/>
<path fill-rule="evenodd" clip-rule="evenodd" d="M68.7022 32.0003C68.703 32.0007 68.7038 32.001 68.7046 32.0014C69.3641 31.7311 69.2574 30.7177 69.0763 29.9219C68.6601 28.0928 61.4782 20.7146 54.734 17.4099C45.5442 12.9068 38.777 13.139 37.7773 15.2145C39.6494 19.206 48.3276 22.9535 57.3912 26.8674C61.2581 28.5372 65.1951 30.2374 68.7037 31.9996C68.7032 31.9999 68.7027 32.0001 68.7022 32.0003Z" fill="url(#paint1_linear_22935_7324)"/>
<path fill-rule="evenodd" clip-rule="evenodd" d="M57.0401 72.1725C55.1817 71.4336 53.0822 70.7557 50.6955 70.1405C53.2403 65.403 53.7744 58.3896 51.3709 53.9553C47.9979 47.7322 43.7637 44.4199 33.9245 44.4199C28.5129 44.4199 13.9426 46.3163 13.6839 58.9702C13.6568 60.2979 13.6833 61.5147 13.7756 62.6337L40.3822 62.8343C36.7952 68.7543 33.4359 73.1449 30.4948 76.4835C34.026 77.4249 36.9401 78.2152 39.6154 78.9408C42.1539 79.6292 44.4774 80.2594 46.9092 80.9049C50.5778 78.1243 54.0265 75.0923 57.0401 72.1725Z" fill="url(#paint2_linear_22935_7324)"/>
<path d="M10.2883 61.3343C11.3752 70.9469 16.6263 74.7141 27.3563 75.8289C38.0864 76.9438 44.2414 76.1959 52.4356 76.9715C59.2795 77.6193 65.3902 81.2476 67.6571 79.9938C69.6974 78.8653 68.5559 74.7885 65.826 72.1729C62.2873 68.7824 57.3897 66.4251 48.772 65.5886C50.4894 60.6965 50.0082 53.8373 47.3409 50.1054C43.4844 44.7096 36.3658 42.27 27.3564 43.3359C17.9435 44.4495 8.9242 49.2707 10.2883 61.3343Z" fill="url(#paint3_linear_22935_7324)"/>
<defs>
<linearGradient id="paint0_linear_22935_7324" x1="29.3852" y1="48.5525" x2="92.7474" y2="65.8237" gradientUnits="userSpaceOnUse">
<stop stop-color="#8697FF"/>
<stop offset="1" stop-color="#ABB7FF"/>
</linearGradient>
<linearGradient id="paint1_linear_22935_7324" x1="81.7805" y1="47.3063" x2="34.5183" y2="1.76655" gradientUnits="userSpaceOnUse">
<stop stop-color="#8697FF"/>
<stop offset="1" stop-color="#5156D8" stop-opacity="0"/>
</linearGradient>
<linearGradient id="paint2_linear_22935_7324" x1="58.305" y1="73.824" x2="13.7945" y2="49.2264" gradientUnits="userSpaceOnUse">
<stop stop-color="#465EED"/>
<stop offset="1" stop-color="#8697FF" stop-opacity="0"/>
</linearGradient>
<linearGradient id="paint3_linear_22935_7324" x1="33.1474" y1="48.0635" x2="64.1197" y2="85.8902" gradientUnits="userSpaceOnUse">
<stop stop-color="#8898FF"/>
<stop offset="0.983895" stop-color="#6277F1"/>
</linearGradient>
</defs>
</svg>
