<svg width="40" height="40" viewBox="0 0 40 40" fill="none" xmlns="http://www.w3.org/2000/svg">
<path d="M33 20.2026C33 13.9542 33 16.375 33 16.375C33 15.8227 32.1046 15.375 31 15.375H9C7.89543 15.375 7 15.8227 7 16.375V34.375C7 34.9273 7.89543 35.375 9 35.375H21.2" stroke="#BABEC5" stroke-width="2" stroke-linecap="round" stroke-linejoin="round"/>
<path d="M31 38C34.866 38 38 34.866 38 31C38 27.134 34.866 24 31 24C27.134 24 24 27.134 24 31C24 34.866 27.134 38 31 38Z" fill="#7084FF" stroke="#7084FF" stroke-width="1.5"/>
<path d="M11.6719 14.375V9.70833C11.6719 5.10596 15.4029 1.375 20.0052 1.375C24.6075 1.375 28.3385 5.10596 28.3385 9.70833V14.375" stroke="#BABEC5" stroke-width="2.5" stroke-linecap="round" stroke-linejoin="round"/>
<path d="M20 23.0469V28.0469" stroke="#BABEC5" stroke-width="2.5" stroke-linecap="round" stroke-linejoin="round"/>
<path d="M28 31.5L30.3333 34L35 29" stroke="#F7FAFC" stroke-width="2" stroke-linecap="round" stroke-linejoin="round"/>
</svg>
