<svg t="1679932693538" class="icon" viewBox="0 0 1024 1024" version="1.1" xmlns="http://www.w3.org/2000/svg" p-id="3054" width="200" height="200"><path d="M890.335 373.578c-12.576-12.416-32.801-12.353-45.248 0.193l-327.839 330.848-332.416-329.439c-12.576-12.447-32.801-12.353-45.281 0.193-12.447 12.576-12.353 32.832 0.193 45.281l353.312 350.112c0.544 0.544 1.247 0.673 1.792 1.183 0.127 0.127 0.16 0.287 0.287 0.416 6.239 6.176 14.4 9.28 22.528 9.28 8.224 0 16.48-3.169 22.72-9.471l350.112-353.312c12.48-12.58 12.385-32.835-0.16-45.284z" fill="#272636" p-id="3055"></path></svg>
