<svg width="27" height="22" viewBox="0 0 27 22" fill="none" xmlns="http://www.w3.org/2000/svg">
<path d="M21.9174 12.0106C22.551 10.5903 19.4186 6.6224 16.4261 4.96928C14.5399 3.68863 12.5744 3.86457 12.1763 4.42687C11.3027 5.6609 15.0691 6.70655 17.5879 7.92675C17.0465 8.16271 16.5362 8.58615 16.2362 9.12769C15.2971 8.09903 13.236 7.2132 10.8175 7.92675C9.18775 8.40759 7.83328 9.5412 7.30979 11.2534C7.18259 11.1967 7.04176 11.1651 6.89359 11.1651C6.32699 11.1651 5.86768 11.626 5.86768 12.1945C5.86768 12.763 6.32699 13.2239 6.89359 13.2239C6.99861 13.2239 7.32698 13.1532 7.32698 13.1532L12.5744 13.1914C10.4758 16.5317 8.81738 17.02 8.81738 17.5987C8.81738 18.1774 10.4042 18.0206 11 17.8049C13.8523 16.7723 16.9158 13.554 17.4415 12.6276C19.649 12.9039 21.5043 12.9366 21.9174 12.0106Z" fill="black"/>
<path fill-rule="evenodd" clip-rule="evenodd" d="M17.5873 7.92859C17.5876 7.92873 17.5879 7.92886 17.5883 7.929C17.705 7.88286 17.6861 7.70984 17.6541 7.57397C17.5804 7.26167 16.309 6.00199 15.1151 5.43778C13.4884 4.66904 12.2906 4.70859 12.1134 5.06284C12.4451 5.7442 13.9811 6.38393 15.5854 7.05206C16.2699 7.33715 16.9669 7.62741 17.588 7.92829C17.5878 7.92839 17.5875 7.92849 17.5873 7.92859Z" fill="black"/>
<path fill-rule="evenodd" clip-rule="evenodd" d="M15.524 14.7839C15.1948 14.6576 14.823 14.5418 14.4002 14.4367C14.8507 13.6279 14.9453 12.4305 14.5198 11.6734C13.9227 10.6109 13.1731 10.0454 11.4313 10.0454C10.4733 10.0454 7.89402 10.3692 7.84823 12.5296C7.84342 12.7566 7.84812 12.9646 7.86453 13.1559L12.5745 13.1901C11.9397 14.2005 11.3453 14.9499 10.8248 15.5198C11.4496 15.6805 11.9653 15.8154 12.4387 15.9392C12.8884 16.0568 13.3 16.1645 13.7307 16.2748C14.3801 15.8 14.9906 15.2823 15.524 14.7839Z" fill="black"/>
<path d="M7.24691 12.9359C7.43932 14.5771 8.3689 15.2202 10.2684 15.4106C12.1679 15.6009 13.2575 15.4732 14.7081 15.6056C15.9196 15.7162 17.0014 16.3357 17.4027 16.1216C17.7639 15.929 17.5618 15.2329 17.0785 14.7864C16.4521 14.2075 15.5851 13.805 14.0595 13.6622C14.3636 12.827 14.2784 11.6559 13.8062 11.0188C13.1235 10.0975 11.8633 9.68099 10.2684 9.86297C8.60209 10.0531 7.00543 10.8762 7.24691 12.9359Z" fill="black"/>
</svg>
