<svg width="40" height="40" viewBox="0 0 40 40" fill="none" xmlns="http://www.w3.org/2000/svg">
<g opacity="0.6" clip-path="url(#clip0_47462_47428)">
<path d="M13.8283 7.14768C14.14 6.83871 14.5612 6.66556 15 6.66602H25C25.442 6.66602 25.8659 6.84161 26.1785 7.15417C26.4911 7.46673 26.6667 7.89066 26.6667 8.33268C26.6667 9.21674 27.0179 10.0646 27.643 10.6897C28.2681 11.3148 29.1159 11.666 30 11.666H31.6667C32.5507 11.666 33.3986 12.0172 34.0237 12.6423C34.6488 13.2674 35 14.1153 35 14.9993V28.3327M33.0217 33.046C32.6067 33.2293 32.1483 33.3327 31.6667 33.3327H8.33333C7.44928 33.3327 6.60143 32.9815 5.97631 32.3564C5.35119 31.7313 5 30.8834 5 29.9993V14.9993C5 14.1153 5.35119 13.2674 5.97631 12.6423C6.60143 12.0172 7.44928 11.666 8.33333 11.666H10C10.4967 11.666 10.9667 11.5577 11.39 11.3643" stroke="white" stroke-width="3.33333" stroke-linecap="round" stroke-linejoin="round"/>
<path d="M17.37 17.4121C16.727 17.8106 16.1827 18.3497 15.7783 18.9889C15.3738 19.6282 15.1197 20.3509 15.035 21.1026C14.9503 21.8543 15.0373 22.6154 15.2894 23.3286C15.5415 24.0418 15.9522 24.6885 16.4904 25.2201C17.0287 25.7516 17.6805 26.154 18.3969 26.3971C19.1132 26.6402 19.8753 26.7176 20.6259 26.6234C21.3765 26.5293 22.0959 26.266 22.73 25.8536C23.3641 25.4411 23.8964 24.8901 24.2867 24.2421" stroke="white" stroke-width="3.33333" stroke-linecap="round" stroke-linejoin="round"/>
<path d="M5 5L35 35" stroke="white" stroke-width="3.33333" stroke-linecap="round" stroke-linejoin="round"/>
</g>
<defs>
<clipPath id="clip0_47462_47428">
<rect width="40" height="40" fill="white"/>
</clipPath>
</defs>
</svg>
