<svg width="360" height="180" viewBox="0 0 360 180" fill="none" xmlns="http://www.w3.org/2000/svg">
<g clip-path="url(#clip0_51781_36677)">
<circle cx="181" cy="-41" r="199.5" stroke="white" stroke-opacity="0.06"/>
<circle cx="181" cy="-41" r="139.5" stroke="white" stroke-opacity="0.06"/>
<path d="M74.1071 104.452C74.5486 104.579 75.2486 103.516 75.6705 102.077C76.0925 100.638 76.0766 99.3674 75.6351 99.2397C75.1936 99.1119 74.4936 100.175 74.0716 101.614C73.6497 103.054 73.6656 104.324 74.1071 104.452Z" fill="#D3CDD4"/>
<path d="M72.2289 101.269C72.3264 100.82 73.5951 100.71 75.0627 101.023C76.5303 101.337 77.641 101.955 77.5435 102.404C77.4461 102.853 76.1774 102.963 74.7098 102.649C73.2422 102.336 72.1315 101.718 72.2289 101.269Z" fill="#D3CDD4"/>
<path d="M84.1071 30.4517C84.5486 30.5795 85.2486 29.5163 85.6705 28.077C86.0925 26.6378 86.0766 25.3674 85.6351 25.2397C85.1936 25.1119 84.4936 26.1751 84.0716 27.6143C83.6497 29.0536 83.6656 30.3239 84.1071 30.4517Z" fill="#7084FF"/>
<path d="M82.2289 27.2689C82.3264 26.82 83.5951 26.7101 85.0627 27.0234C86.5303 27.3368 87.641 27.9548 87.5435 28.4037C87.4461 28.8526 86.1774 28.9625 84.7098 28.6492C83.2422 28.3358 82.1315 27.7178 82.2289 27.2689Z" fill="#7084FF"/>
<path d="M263.324 52.5376C263.425 52.986 264.694 53.0863 266.158 52.7618C267.622 52.4372 268.727 51.8106 268.626 51.3622C268.525 50.9138 267.256 50.8134 265.792 51.138C264.328 51.4625 263.223 52.0892 263.324 52.5376Z" fill="#D3CDD4"/>
<path d="M265.206 49.3572C265.646 49.226 266.354 50.2844 266.788 51.7211C267.221 53.1579 267.215 54.4289 266.775 54.5601C266.335 54.6912 265.627 53.6328 265.193 52.1961C264.76 50.7593 264.766 49.4883 265.206 49.3572Z" fill="#D3CDD4"/>
<g opacity="0.5" filter="url(#filter0_f_51781_36677)">
<path fill-rule="evenodd" clip-rule="evenodd" d="M187.495 75.8003C185.172 76.5925 182.681 77.0223 180.089 77.0223C167.424 77.0223 157.156 66.7549 157.156 54.0893C157.156 41.4237 167.424 31.1562 180.089 31.1562C192.755 31.1562 203.022 41.4237 203.022 54.0893C203.022 56.2865 202.713 58.4115 202.136 60.4232C200.916 59.9874 199.601 59.75 198.23 59.75C191.817 59.75 186.617 64.9494 186.617 71.3633C186.617 72.9347 186.929 74.4333 187.495 75.8003Z" fill="#7084FF"/>
<path d="M187.495 75.8003L188.11 77.6027C188.607 77.4329 189.013 77.0646 189.23 76.5853C189.447 76.106 189.456 75.5584 189.255 75.0722L187.495 75.8003ZM202.136 60.4232L201.496 62.2166C201.992 62.3935 202.538 62.3576 203.006 62.1173C203.474 61.877 203.822 61.4539 203.967 60.9481L202.136 60.4232ZM180.089 78.9266C182.893 78.9266 185.591 78.4615 188.11 77.6027L186.88 73.9979C184.752 74.7235 182.469 75.118 180.089 75.118V78.9266ZM155.252 54.0893C155.252 67.8066 166.372 78.9266 180.089 78.9266V75.118C168.475 75.118 159.061 65.7032 159.061 54.0893H155.252ZM180.089 29.252C166.372 29.252 155.252 40.372 155.252 54.0893H159.061C159.061 42.4754 168.475 33.0605 180.089 33.0605V29.252ZM204.927 54.0893C204.927 40.372 193.807 29.252 180.089 29.252V33.0605C191.703 33.0605 201.118 42.4754 201.118 54.0893H204.927ZM203.967 60.9481C204.592 58.7674 204.927 56.4658 204.927 54.0893H201.118C201.118 56.1071 200.834 58.0555 200.306 59.8983L203.967 60.9481ZM198.23 61.6543C199.38 61.6543 200.478 61.8531 201.496 62.2166L202.777 58.6298C201.354 58.1216 199.822 57.8457 198.23 57.8457V61.6543ZM188.521 71.3633C188.521 66.0012 192.868 61.6543 198.23 61.6543V57.8457C190.765 57.8457 184.713 63.8977 184.713 71.3633H188.521ZM189.255 75.0722C188.783 73.932 188.521 72.6805 188.521 71.3633H184.713C184.713 73.1889 185.076 74.9345 185.735 76.5283L189.255 75.0722Z" fill="#7084FF"/>
<path d="M194.01 71.8812C195.962 69.7436 197.467 66.7906 198.281 65.1875C199.704 66.7906 202.796 70.8124 203.772 72.9499C204.992 75.6218 201.942 78.8281 198.281 78.8281C194.62 78.8281 191.569 74.553 194.01 71.8812Z" stroke="#7084FF" stroke-width="3.80859" stroke-linecap="round" stroke-linejoin="round"/>
<path d="M180.006 42.2624C175.148 42.2624 171.203 44.9032 171.203 48.131C171.203 51.3587 175.148 53.9996 180.006 53.9996C184.864 53.9996 188.809 56.6404 188.809 59.8682C188.809 63.0959 184.864 65.7367 180.006 65.7367M180.006 42.2624V65.7367M180.006 42.2624C183.266 42.2624 186.103 43.4361 187.635 45.1967L180.006 42.2624ZM180.006 42.2624V39.3281M180.006 65.7367V68.671M180.006 65.7367C176.746 65.7367 173.909 64.563 172.377 62.8025L180.006 65.7367Z" stroke="white" stroke-width="3.80859" stroke-linecap="round" stroke-linejoin="round"/>
</g>
<path fill-rule="evenodd" clip-rule="evenodd" d="M187.495 75.8003C185.172 76.5925 182.681 77.0223 180.089 77.0223C167.424 77.0223 157.156 66.7549 157.156 54.0893C157.156 41.4237 167.424 31.1562 180.089 31.1562C192.755 31.1562 203.022 41.4237 203.022 54.0893C203.022 56.2865 202.713 58.4115 202.136 60.4232C200.916 59.9874 199.601 59.75 198.23 59.75C191.817 59.75 186.617 64.9494 186.617 71.3633C186.617 72.9347 186.929 74.4333 187.495 75.8003Z" fill="#7084FF"/>
<path d="M187.495 75.8003L188.11 77.6027C188.607 77.4329 189.013 77.0646 189.23 76.5853C189.447 76.106 189.456 75.5584 189.255 75.0722L187.495 75.8003ZM202.136 60.4232L201.496 62.2166C201.992 62.3935 202.538 62.3576 203.006 62.1173C203.474 61.877 203.822 61.4539 203.967 60.9481L202.136 60.4232ZM180.089 78.9266C182.893 78.9266 185.591 78.4615 188.11 77.6027L186.88 73.9979C184.752 74.7235 182.469 75.118 180.089 75.118V78.9266ZM155.252 54.0893C155.252 67.8066 166.372 78.9266 180.089 78.9266V75.118C168.475 75.118 159.061 65.7032 159.061 54.0893H155.252ZM180.089 29.252C166.372 29.252 155.252 40.372 155.252 54.0893H159.061C159.061 42.4754 168.475 33.0605 180.089 33.0605V29.252ZM204.927 54.0893C204.927 40.372 193.807 29.252 180.089 29.252V33.0605C191.703 33.0605 201.118 42.4754 201.118 54.0893H204.927ZM203.967 60.9481C204.592 58.7674 204.927 56.4658 204.927 54.0893H201.118C201.118 56.1071 200.834 58.0555 200.306 59.8983L203.967 60.9481ZM198.23 61.6543C199.38 61.6543 200.478 61.8531 201.496 62.2166L202.777 58.6298C201.354 58.1216 199.822 57.8457 198.23 57.8457V61.6543ZM188.521 71.3633C188.521 66.0012 192.868 61.6543 198.23 61.6543V57.8457C190.765 57.8457 184.713 63.8977 184.713 71.3633H188.521ZM189.255 75.0722C188.783 73.932 188.521 72.6805 188.521 71.3633H184.713C184.713 73.1889 185.076 74.9345 185.735 76.5283L189.255 75.0722Z" fill="#7084FF"/>
<path d="M194.01 71.8812C195.962 69.7436 197.467 66.7906 198.281 65.1875C199.704 66.7906 202.796 70.8124 203.772 72.9499C204.992 75.6218 201.942 78.8281 198.281 78.8281C194.62 78.8281 191.569 74.553 194.01 71.8812Z" stroke="#7084FF" stroke-width="3.5" stroke-linecap="round" stroke-linejoin="round"/>
<path d="M180.006 42.2624C175.148 42.2624 171.203 44.9032 171.203 48.131C171.203 51.3587 175.148 53.9996 180.006 53.9996C184.864 53.9996 188.809 56.6404 188.809 59.8682C188.809 63.0959 184.864 65.7367 180.006 65.7367M180.006 42.2624V65.7367M180.006 42.2624C183.266 42.2624 186.103 43.4361 187.635 45.1967L180.006 42.2624ZM180.006 42.2624V39.3281M180.006 65.7367V68.671M180.006 65.7367C176.746 65.7367 173.909 64.563 172.377 62.8025L180.006 65.7367Z" stroke="white" stroke-width="3.80859" stroke-linecap="round" stroke-linejoin="round"/>
</g>
<defs>
<filter id="filter0_f_51781_36677" x="130" y="4" width="100" height="100" filterUnits="userSpaceOnUse" color-interpolation-filters="sRGB">
<feFlood flood-opacity="0" result="BackgroundImageFix"/>
<feBlend mode="normal" in="SourceGraphic" in2="BackgroundImageFix" result="shape"/>
<feGaussianBlur stdDeviation="10" result="effect1_foregroundBlur_51781_36677"/>
</filter>
<clipPath id="clip0_51781_36677">
<rect width="360" height="180" fill="white"/>
</clipPath>
</defs>
</svg>
