<svg width="399" height="159" viewBox="0 0 399 159" fill="none" xmlns="http://www.w3.org/2000/svg">
<g opacity="0.5">
<circle opacity="0.5" cx="200" cy="-41" r="199.5" stroke="white" stroke-opacity="0.06"/>
<circle opacity="0.5" cx="200" cy="-41" r="139.5" stroke="white" stroke-opacity="0.06"/>
<path d="M92.1081 76.4478C92.5496 76.5756 93.2496 75.5124 93.6715 74.0731C94.0935 72.6339 94.0776 71.3635 93.6361 71.2358C93.1945 71.108 92.4946 72.1712 92.0726 73.6104C91.6507 75.0497 91.6665 76.32 92.1081 76.4478Z" fill="#D3CDD4"/>
<path d="M90.2299 73.265C90.3274 72.8161 91.5961 72.7062 93.0637 73.0195C94.5313 73.3329 95.642 73.9509 95.5445 74.3998C95.447 74.8487 94.1783 74.9586 92.7107 74.6452C91.2432 74.3319 90.1324 73.7139 90.2299 73.265Z" fill="#D3CDD4"/>
<path d="M103.107 30.4517C103.549 30.5795 104.249 29.5163 104.671 28.077C105.092 26.6378 105.077 25.3674 104.635 25.2397C104.194 25.1119 103.494 26.1751 103.072 27.6143C102.65 29.0536 102.666 30.3239 103.107 30.4517Z" fill="#7084FF"/>
<path d="M101.229 27.2689C101.326 26.82 102.595 26.7101 104.063 27.0234C105.53 27.3368 106.641 27.9548 106.544 28.4037C106.446 28.8526 105.177 28.9625 103.71 28.6492C102.242 28.3358 101.131 27.7178 101.229 27.2689Z" fill="#7084FF"/>
<path d="M282.324 52.5376C282.425 52.986 283.694 53.0863 285.158 52.7618C286.622 52.4372 287.727 51.8106 287.626 51.3622C287.525 50.9138 286.256 50.8134 284.792 51.138C283.328 51.4625 282.223 52.0892 282.324 52.5376Z" fill="#D3CDD4"/>
<path d="M284.206 49.3572C284.646 49.226 285.354 50.2844 285.788 51.7211C286.221 53.1579 286.215 54.4289 285.775 54.5601C285.335 54.6912 284.627 53.6328 284.193 52.1961C283.76 50.7593 283.766 49.4883 284.206 49.3572Z" fill="#D3CDD4"/>
</g>
</svg>
