<svg width="20" height="20" viewBox="0 0 20 20" fill="none" xmlns="http://www.w3.org/2000/svg">
<g id="-wallet 1">
<path id="Vector" d="M13.6111 14.8442C14.3889 13.9927 14.9884 12.8164 15.3125 12.1777C15.8796 12.8164 17.1111 14.4185 17.5 15.27C17.986 16.3343 16.7708 17.6116 15.3125 17.6116C13.8542 17.6116 12.6389 15.9086 13.6111 14.8442Z" stroke="white" stroke-width="1.25" stroke-linecap="round" stroke-linejoin="round"/>
<path id="Vector_2" d="M17.6074 10C17.6074 5.79854 14.2015 2.39258 10 2.39258C5.79854 2.39258 2.39258 5.79853 2.39258 10C2.39258 14.2015 5.79853 17.6074 10 17.6074" stroke="white" stroke-width="1.25" stroke-linecap="round" stroke-linejoin="round"/>
<path id="Vector_3" d="M9.99973 6.08551C8.38044 6.08551 7.06543 6.9658 7.06543 8.04171C7.06543 9.11762 8.38044 9.99791 9.99973 9.99791C11.619 9.99791 12.934 10.8782 12.934 11.9541C12.934 13.03 11.619 13.9103 9.99973 13.9103M9.99973 6.08551V13.9103M9.99973 6.08551C11.0865 6.08551 12.032 6.47676 12.5428 7.06362L9.99973 6.08551ZM9.99973 6.08551V5.10742M9.99973 13.9103V14.8884M9.99973 13.9103C8.91296 13.9103 7.96746 13.5191 7.45665 12.9322L9.99973 13.9103Z" stroke="white" stroke-width="1.25" stroke-linecap="round" stroke-linejoin="round"/>
</g>
</svg>
