<svg width="28" height="29" viewBox="0 0 28 29" fill="none" xmlns="http://www.w3.org/2000/svg">
<g id="find">
<path id="Vector" d="M23.3337 16.2502V4.00016C23.3337 3.35583 22.8113 2.8335 22.167 2.8335H5.83366C5.18933 2.8335 4.66699 3.35583 4.66699 4.00016V25.0002C4.66699 25.6445 5.18933 26.1668 5.83366 26.1668H12.2503" stroke="#BABEC5" stroke-width="1.5" stroke-linecap="round" stroke-linejoin="round"/>
<path id="Vector_2" d="M9.91699 7.5H18.0837" stroke="#BABEC5" stroke-width="1.5" stroke-linecap="round" stroke-linejoin="round"/>
<path id="Vector_3" d="M9.91699 12.1665H18.0837" stroke="#BABEC5" stroke-width="1.5" stroke-linecap="round" stroke-linejoin="round"/>
<path id="Vector_4" d="M9.91699 16.8335H13.417" stroke="#BABEC5" stroke-width="1.5" stroke-linecap="round" stroke-linejoin="round"/>
<path id="Vector_5" d="M22.75 26.1665L20.729 24.1455M20.729 24.1455C21.2569 23.6177 21.5833 22.8886 21.5833 22.0832C21.5833 20.4724 20.2775 19.1665 18.6667 19.1665C17.0558 19.1665 15.75 20.4724 15.75 22.0832C15.75 23.694 17.0558 24.9998 18.6667 24.9998C19.4721 24.9998 20.2012 24.6734 20.729 24.1455Z" stroke="#BABEC5" stroke-width="1.5" stroke-linecap="round" stroke-linejoin="round"/>
</g>
</svg>
